<svg id="Layer_1" data-name="Layer 1" xmlns="http://www.w3.org/2000/svg" viewBox="0 0 501.1 221.9"><title>coldwell banker</title><rect x="170.8" width="161.7" height="166.7" fill="#39487e"/><rect x="177.7" y="10" width="148" height="146.8" fill="none" stroke="#fff" stroke-miterlimit="10" stroke-width="2.83"/><path d="M277.8,143.3H251.4c-1.2,0-14.7.2-14.7,0s-.1-.5-.1-.8V116.4c0-.4.1-.8.1-1.4a45.6,45.6,0,0,0,13.4-2.7v18.8h25.1a10,10,0,0,0,4.5-1.1,11.3,11.3,0,0,0,5.9-12.8c-1-4.5-4.4-9.1-10.9-8.9-4.8.2-9.7,0-14.6,0h-1.5v-.3a33.4,33.4,0,0,0,10.8-11.3h3.5a8.8,8.8,0,0,0,7-3.1c3.3-3.7,3.9-8,2.2-12.6a9.1,9.1,0,0,0-9.1-6.3c-7,.1-13.9,0-20.9,0h-1.7c0,.4-.1.7-.1,1,0,5.7,0,11.5.1,17.2a.1.1,0,0,0,.1.1h.3a27.9,27.9,0,0,0,7.8-10.9l9.5,8.7a25.3,25.3,0,0,1-6.4,9.9,36.4,36.4,0,0,1-17.5,9.3c-9.2,2.2-18,1.2-26.1-3.7a42.7,42.7,0,0,1-20-45.8,41.5,41.5,0,0,1,4.8-12.4,37.4,37.4,0,0,1,20.9-17,38.6,38.6,0,0,1,15.1-1.6,31.8,31.8,0,0,1,19.5,8,29.9,29.9,0,0,1,8,11.2l-10.8,7-1.1-2.3a20.5,20.5,0,0,0-4.2-5.9c-6.1-5.5-13.3-6.8-21.1-5-6.2,1.4-10.8,5.3-14,10.7a31.9,31.9,0,0,0-3.5,25.2,27.9,27.9,0,0,0,12,16.7,21.5,21.5,0,0,0,11.6,3.4l1.3-.2v-36h40a17.2,17.2,0,0,1,13.2,5.7,22.4,22.4,0,0,1,6.1,18.6,20.7,20.7,0,0,1-7.6,14.1l-.6.4.3.4.8.5a19.6,19.6,0,0,1,7.2,7.1,23.3,23.3,0,0,1,3.3,12.9,20,20,0,0,1-3.4,10.8,22.5,22.5,0,0,1-10.1,8.2,30.6,30.6,0,0,1-5.9,1.7l-2,.3" transform="translate(0.1 0)" fill="#fff"/><path d="M289.6,50.7l4,2.7a38.6,38.6,0,0,0,4.2,2.6c-1.3-4.8-2.6-9.4-3.9-13.9l2.9-2.3,2.8-2.2,2.8-2.2a8.7,8.7,0,0,0,2.7-2.4l-14.3-.6-4.9-13.3h-.3c-1.6,4.4-3.3,8.8-5,13.3l-14.2.6c0,.1-.1.2-.1.3l11.2,8.8c-1.3,4.6-2.6,9.2-3.8,13.8h.2l11.9-7.9,3.8,2.6" transform="translate(0.1 0)" fill="#fff"/><path d="M30.1,197.5a20.7,20.7,0,0,0-4.9-3.4,11.7,11.7,0,0,0-5.3-1.1,10.6,10.6,0,0,0-7.8,3,10.2,10.2,0,0,0-3,7.6,9.9,9.9,0,0,0,3,7.5,10.9,10.9,0,0,0,7.8,2.9,16.5,16.5,0,0,0,5.7-1.1,23.4,23.4,0,0,0,5.7-3.2l-.6,9a19.1,19.1,0,0,1-5.3,2.2,23.5,23.5,0,0,1-6,.8,23,23,0,0,1-6.4-.9A17.3,17.3,0,0,1,7.4,218a17.7,17.7,0,0,1-5.6-6.3,17.3,17.3,0,0,1-1.9-8.1,18.7,18.7,0,0,1,1.4-7.1,16.9,16.9,0,0,1,4.2-5.8,19,19,0,0,1,6.4-3.9,21.3,21.3,0,0,1,7.6-1.3,24.9,24.9,0,0,1,6.1.8,18,18,0,0,1,5.5,2.4Z" transform="translate(0.1 0)" fill="#39487e"/><path d="M34.8,203.7a17.8,17.8,0,0,1,1.4-7,19.9,19.9,0,0,1,4.2-5.9,17.9,17.9,0,0,1,6.2-3.8,20.2,20.2,0,0,1,7.4-1.3,19.8,19.8,0,0,1,13.6,5.1,18.3,18.3,0,0,1,4.2,5.8,18.7,18.7,0,0,1,1.4,7.1,17.2,17.2,0,0,1-1,6,16.1,16.1,0,0,1-2.9,5.1,18.2,18.2,0,0,1-6.8,5.1,20.6,20.6,0,0,1-8.5,1.8,20.1,20.1,0,0,1-7.3-1.3,20.7,20.7,0,0,1-6.2-3.8,16,16,0,0,1-4.2-5.9A16.3,16.3,0,0,1,34.8,203.7Zm9.2,0a10.4,10.4,0,0,0,2.9,7.4,9.9,9.9,0,0,0,14.2,0,10.3,10.3,0,0,0,2.9-7.4,10.1,10.1,0,0,0-2.9-7.4,9.9,9.9,0,0,0-14.2,0A10.1,10.1,0,0,0,44,203.7Z" transform="translate(0.1 0)" fill="#39487e"/><path d="M79.5,220.6V186.7h9v26.7h14.7v7.3H79.5Z" transform="translate(0.1 0)" fill="#39487e"/><path d="M107.6,220.6V186.7h10q10.5,0,16.5,4.5a14.7,14.7,0,0,1,6,12.4,15.3,15.3,0,0,1-2.4,8.4,18.6,18.6,0,0,1-6.9,6,20.2,20.2,0,0,1-5.7,2,40.6,40.6,0,0,1-7.5.6Zm8.8-7.2h2c3.9,0,7-.9,9.2-2.6a9.3,9.3,0,0,0,0-14.2c-2.2-1.7-5.3-2.6-9.2-2.6h-2Z" transform="translate(0.1 0)" fill="#39487e"/><path d="M156.3,221.7l-15.7-35h9.1L157,205l7.9-19.4h.7l7.9,19.4,7.2-18.3h8.4l-15.6,35h-.6l-8-19.3L157,221.7Z" transform="translate(0.1 0)" fill="#39487e"/><path d="M193,220.6V186.7h23.2v7H201.7v6.1h12.4v6.9H201.7v6.7h14.7v7.1H193Z" transform="translate(0.1 0)" fill="#39487e"/><path d="M223.2,220.6V186.7h9v26.7h14.7v7.3H223.2Z" transform="translate(0.1 0)" fill="#39487e"/><path d="M251.3,220.6V186.7h9v26.7H275v7.3H251.3Z" transform="translate(0.1 0)" fill="#39487e"/><path d="M294.8,220.6V186.7h11.6c4.4,0,7.7.7,9.9,2.2a7.2,7.2,0,0,1,3.4,6.4,6.7,6.7,0,0,1-1.5,4.4,10.3,10.3,0,0,1-4.6,2.8,9.5,9.5,0,0,1,5.4,2.9,7.7,7.7,0,0,1,1.9,5.3,8.1,8.1,0,0,1-4,7.4c-2.7,1.7-6.6,2.5-11.9,2.5Zm8.2-20.5h3a6.9,6.9,0,0,0,4.1-1,3.4,3.4,0,0,0,1.5-2.9,3.2,3.2,0,0,0-1.4-2.8,8.3,8.3,0,0,0-4.4-.9H303Zm0,14.4h3.7a6.6,6.6,0,0,0,4.2-1.2,4,4,0,0,0,1.5-3.3,3.5,3.5,0,0,0-1.5-3.1,7.4,7.4,0,0,0-4.3-1.1H303Z" transform="translate(0.1 0)" fill="#39487e"/><path d="M321.5,220.6l19.2-34.9h.6l18.8,34.9h-9.4l-2.4-4.9H333l-2.4,4.9Zm14.1-10.7h9.9l-4.9-10.6Z" transform="translate(0.1 0)" fill="#39487e"/><path d="M362.9,220.6v-35h.9l23.5,19.8V186.7h8.3v35.2h-.8l-23.5-19.8v18.5Z" transform="translate(0.1 0)" fill="#39487e"/><path d="M404.1,220.6V186.7H413v14.7l12.4-14.7h10.7l-14.2,16.1,15.3,17.8H426.3L413,205v15.6Z" transform="translate(0.1 0)" fill="#39487e"/><path d="M440.3,220.6V186.7h23.2v7H449v6.1h12.4v6.9H449v6.7h14.7v7.1H440.3Z" transform="translate(0.1 0)" fill="#39487e"/><path d="M470.6,220.6V186.7h9.7a43,43,0,0,1,7.2.5A15.1,15.1,0,0,1,492,189a9.8,9.8,0,0,1,3.3,3.4,7.9,7.9,0,0,1,1.2,4.2,9.1,9.1,0,0,1-1.8,5.6,11.6,11.6,0,0,1-5.2,3.8L501,220.6H490.7l-10.1-13.3h-1.3v13.3Zm10.2-27.7h-1.5v9.4h1.9a9.3,9.3,0,0,0,5.2-1.2,4,4,0,0,0,1.8-3.6,3.9,3.9,0,0,0-1.7-3.5A11.4,11.4,0,0,0,480.8,192.9Z" transform="translate(0.1 0)" fill="#39487e"/></svg>