<svg id="Capa_2" data-name="Capa 2" xmlns="http://www.w3.org/2000/svg" viewBox="0 0 450.3 116.2"><title>halstead</title><path d="M0,86.9V29c1.5-1.1,13.5-8.2,13.7-8.2L36.8,34.3V7.7L50,0l50.7,28.7V87.3L87.2,94.9,64.1,81.6v26.6c-3.6,2.1-12.7,7.8-13.2,8S15.6,95.8,10.9,93,3.7,88.9,0,86.9Zm2-1.6L20.8,96.4c3.3,1.9,6.8,3.6,10.2,5.6l15.2,9.1a32.8,32.8,0,0,0,3.6,1.5V58.9c-1.4-.9-2.5-1.8-3.7-2.5-5.4-3-10.9-5.9-16.2-9.1-2.5-1.5-5.3-2.7-7.7-4.3C15.8,38.7,9,35.1,2.1,31.3,2,49.5,2,67.2,2,85.3ZM61.9,64.9c1.1-1,25-14.3,26.1-14.5,0,13.8-.3,41.8.1,42L98.9,86V31.5c-6.5,2.9-12.1,7.1-18.3,10.1a75.3,75.3,0,0,0-7.3,4.1C67.8,49.5,61.8,52.5,56,55.9c-1.5.9-2.8,1.9-4,2.7v53a.8.8,0,0,0,.2.4l.3.3,9.4-5.3ZM50.6,56.4l47-27.2c-1.9-1-44.5-25.5-47.4-27l-9.8,6a9.8,9.8,0,0,0,3,2c5.2,2.2,9.7,5.6,14.7,8.1s10.7,6.9,16.6,9.3a6.3,6.3,0,0,1,2,1.6c-4.6,2.7-9.1,5.6-13.3,8.1L50.6,44.6,13.8,23.4,3.9,29.1c1.5,1,2.7,1.9,4.1,2.7l8.9,5,14.4,8.6ZM39.1,35.5l11.3,6.7L72.6,29.4,39.1,10ZM85.8,91.3V53.2L64.1,65.7V78.8Z" fill="#4a5073" fill-rule="evenodd"/><path d="M145.6,35.6v20h23.1v-20h6.2V83.4h-6.2V61H145.6V83.4h-6.1V35.6Z" fill="#4a5073"/><path d="M193.4,68.4l-5,15H182l16.2-47.8h7.4l16.3,47.8h-6.4l-5.1-15Zm15.7-4.8-4.7-13.8c-1.1-3.1-1.8-6-2.5-8.7h-.1q-1.1,4.2-2.4,8.7l-4.7,13.8Z" fill="#4a5073"/><path d="M229.1,35.6h6.2V78.2h20.4v5.2H229.1Z" fill="#4a5073"/><path d="M261.7,75.9A22,22,0,0,0,272.8,79c6.3,0,10-3.3,10-8.2s-2.6-7-9-9.5-12.6-6.8-12.6-13.5,6.2-13,15.5-13a22.2,22.2,0,0,1,10.6,2.3l-1.7,5a18.7,18.7,0,0,0-9.1-2.3c-6.5,0-9,3.9-9,7.2s2.9,6.7,9.5,9.2c8.1,3.1,12.2,7,12.2,14S283.7,84,272.5,84c-4.6,0-9.6-1.3-12.2-3Z" fill="#4a5073"/><path d="M306.6,40.9H292.1V35.7h35.4v5.2H312.9V83.5h-6.2V40.9Z" fill="#4a5073"/><path d="M357.5,61H338.9V78.2h20.7v5.2H332.7V35.6h25.8v5.2H338.9V55.9h18.6Z" fill="#4a5073"/><path d="M375.4,68.4l-5,15H364l16.2-47.8h7.4l16.3,47.8h-6.6l-5.1-15Zm15.7-4.8-4.7-13.8c-1.1-3.1-1.8-6-2.5-8.7h-.1q-1.1,4.2-2.4,8.7l-4.7,13.8Z" fill="#4a5073"/><path d="M411.1,36.2a84.2,84.2,0,0,1,13.1-1c8.9,0,15.2,2.1,19.4,6s6.7,9.4,6.7,17.2-2.4,14.2-6.9,18.6-11.8,6.9-21.1,6.9a88.9,88.9,0,0,1-11.2-.6Zm6.1,42.3a36.4,36.4,0,0,0,6.2.4c13.2,0,20.4-7.4,20.4-20.3.1-11.3-6.3-18.5-19.3-18.5a39.3,39.3,0,0,0-7.2.6V78.5Z" fill="#4a5073"/></svg>