<svg id="Layer_1" data-name="Layer 1" xmlns="http://www.w3.org/2000/svg" viewBox="0 0 175.8 80.1"><title>kellerwilliams</title><path d="M173.8,78.2v-.6h.2c.3,0,.4.1.4.3s-.1.3-.4.3Zm1,1.1-.4-.9a.6.6,0,0,0,.2-.5c0-.3-.2-.5-.6-.5h-.5v1.9h.3v-.9h.3l.3.9Z" fill="#484e6f"/><path d="M174.1,76.8a1.5,1.5,0,1,0,1.5,1.5,1.5,1.5,0,0,0-1.5-1.5m0,3.3a1.7,1.7,0,1,1,1.7-1.7,1.6,1.6,0,0,1-1.7,1.7" fill="#484e6f"/><polygon points="82.2 62.1 77.5 76.6 71.8 62.2 70.4 62.2 77.2 79.9 77.8 79.9 82.7 64.3 87.6 79.9 88.2 79.9 95 62.2 93.5 62.2 87.9 76.6 83.2 62.1 82.2 62.1" fill="#484e6f"/><polygon points="100.9 62.1 100.9 79.8 109.5 79.8 109.5 78.6 102.2 78.6 102.2 62.1 100.9 62.1" fill="#484e6f"/><polygon points="112 62.1 112 79.8 120.6 79.8 120.6 78.6 113.4 78.6 113.4 62.1 112 62.1" fill="#484e6f"/><rect x="123" y="62.1" width="1.4" height="17.6" fill="#484e6f"/><rect x="97" y="62.1" width="1.4" height="17.6" fill="#484e6f"/><path d="M133.9,64.3l3.4,8.3h-6.8Zm-.3-2.2-7.3,17.7h1.3l2.5-6.1h7.7l2.5,6.1h1.3l-7.3-17.7Z" fill="#484e6f"/><polygon points="158.2 62.2 151.5 70.4 144.8 62.2 143.5 62.2 143.5 79.8 144.8 79.8 144.8 64.2 144.9 64.2 151.5 72.4 158.2 64.2 158.2 64.2 158.2 79.8 159.6 79.8 159.6 62.2 158.2 62.2" fill="#484e6f"/><path d="M170.9,65a4.9,4.9,0,0,0-3.9-1.8,3.4,3.4,0,0,0-3.7,3.4c0,4.7,8.4,2.4,8.4,8.6a4.9,4.9,0,0,1-5.1,4.8,7.6,7.6,0,0,1-4.5-1.5V76.9a6,6,0,0,0,4.4,1.9,3.5,3.5,0,0,0,3.7-3.5c0-5-8.4-2.8-8.4-8.6a4.9,4.9,0,0,1,5.1-4.7,6,6,0,0,1,4,1.5Z" fill="#484e6f"/><polygon points="26.3 62.2 26.3 79.8 35.4 79.8 35.4 77.5 28.8 77.5 28.8 62.2 26.3 62.2" fill="#484e6f"/><polygon points="37 62.2 37 79.8 46 79.8 46 77.5 39.5 77.5 39.5 62.2 37 62.2" fill="#484e6f"/><polygon points="47.7 62.2 47.7 79.8 57.9 79.8 57.9 77.5 50.2 77.5 50.2 72.1 57.4 72.1 57.4 69.8 50.2 69.8 50.2 64.5 57.7 64.5 57.7 62.2 47.7 62.2" fill="#484e6f"/><path d="M62.1,69.9V64.4h1.6c2.5,0,3.4,1,3.5,2.7S66.4,70,63.7,70H62.1Zm8.8,9.9-3.3-8.2c1.9-1.6,2.2-2.7,2.1-4.5s-2.2-4.9-5.8-4.9H59.5V79.8H62V71.9h3l3.2,7.9Z" fill="#484e6f"/><polygon points="14.4 62.2 14.4 79.8 24.6 79.8 24.6 77.5 17 77.5 17 72.1 24.2 72.1 24.2 69.8 17 69.8 17 64.5 24.4 64.5 24.4 62.2 14.4 62.2" fill="#484e6f"/><polygon points="9.9 62.2 9 63.2 2.5 70.2 2.5 62.2 0 62.2 0 79.8 2.5 79.8 2.5 73.7 5.3 70.6 9 79.8 11.6 79.8 11.6 79.8 10.7 77.5 7.2 68.7 11 64.5 13.1 62.2 9.9 62.2" fill="#484e6f"/><polygon points="0 0 0 53.3 7.4 53.3 7.4 40.8 12.9 35.4 20.5 53.3 28 53.3 18 29.5 25 21.7 38.7 53.3 41.5 53.3 51.8 28.9 62.2 53.3 65 53.3 80.6 17.4 72.9 17.4 63.6 39.2 54.5 17.4 49.2 17.4 40 39.2 30.6 17.4 20.7 17.4 7.4 30.6 7.4 0 0 0" fill="#484e6f"/></svg>