<?xml version="1.0" standalone="no"?><!-- Generator: Gravit.io --><svg xmlns="http://www.w3.org/2000/svg" xmlns:xlink="http://www.w3.org/1999/xlink" style="isolation:isolate" viewBox="0 0 172.47 78.516" width="172.47" height="78.516"><defs><clipPath id="_clipPath_70MCBP4XTYOuyzRb7x3YeFnjZ1RQAp1Z"><rect width="172.47" height="78.516"/></clipPath></defs><g clip-path="url(#_clipPath_70MCBP4XTYOuyzRb7x3YeFnjZ1RQAp1Z)"><clipPath id="_clipPath_IGAFS3rrFADR07XrzkR4KJcPZfLbOb4W"><path d=" M 0 0 L 0 78.516 L 172.47 78.516 L 172.47 0 L 0 0 Z " fill="rgb(255,255,255)"/></clipPath><g clip-path="url(#_clipPath_IGAFS3rrFADR07XrzkR4KJcPZfLbOb4W)"><path d=" M 171.419 77.769 L 171.071 76.888 C 171.274 76.715 171.299 76.602 171.299 76.414 C 171.297 76.087 171.061 75.886 170.682 75.886 L 170.203 75.886 L 170.203 77.771 L 170.471 77.771 L 170.471 76.924 L 170.798 76.924 L 171.137 77.769 L 171.419 77.769 Z  M 170.471 76.709 L 170.471 76.116 L 170.65 76.116 C 170.907 76.116 171.018 76.227 171.019 76.403 C 171.019 76.558 170.937 76.709 170.65 76.709 L 170.471 76.709 Z " fill="rgb(133,134,137)"/></g><clipPath id="_clipPath_KdoSRAGaeeaRKeKLU11qK2sH3Lcjr2Ek"><path d=" M 0 0 L 0 78.516 L 172.47 78.516 L 172.47 0 L 0 0 Z " fill="rgb(255,255,255)"/></clipPath><g clip-path="url(#_clipPath_KdoSRAGaeeaRKeKLU11qK2sH3Lcjr2Ek)"><path d=" M 170.758 78.516 C 169.812 78.516 169.043 77.748 169.043 76.803 C 169.043 75.861 169.812 75.095 170.758 75.095 C 171.699 75.095 172.47 75.861 172.47 76.803 C 172.47 77.748 171.699 78.516 170.758 78.516 Z  M 170.758 75.311 C 169.933 75.311 169.261 75.984 169.261 76.803 C 169.261 77.631 169.933 78.295 170.758 78.295 C 171.578 78.295 172.247 77.631 172.247 76.803 C 172.247 75.984 171.578 75.311 170.758 75.311 Z " fill="rgb(133,134,137)"/></g><clipPath id="_clipPath_yD2YI637eL8qtGzM9Z5xo4slgn4YkEj6"><path d=" M 0 0 L 0 78.516 L 172.47 78.516 L 172.47 0 L 0 0 Z " fill="rgb(255,255,255)"/></clipPath><g clip-path="url(#_clipPath_yD2YI637eL8qtGzM9Z5xo4slgn4YkEj6)"><path d=" M 80.564 60.866 L 75.963 75.147 L 70.421 60.954 L 68.999 60.954 L 75.662 78.368 L 76.287 78.368 L 81.05 63.017 L 85.894 78.368 L 86.52 78.368 L 93.151 60.954 L 91.696 60.954 L 86.233 75.135 L 81.573 60.866 L 80.564 60.866 Z " fill="rgb(133,134,137)"/></g><clipPath id="_clipPath_JcgQgWElXuUVJzOGY7h9kx86xlly0C9O"><path d=" M 0 0 L 0 78.516 L 172.47 78.516 L 172.47 0 L 0 0 Z " fill="rgb(255,255,255)"/></clipPath><g clip-path="url(#_clipPath_JcgQgWElXuUVJzOGY7h9kx86xlly0C9O)"><path d=" M 98.899 60.939 L 98.899 78.226 L 107.357 78.226 L 107.357 77.112 L 100.239 77.112 L 100.239 60.939 L 98.899 60.939 Z " fill="rgb(133,134,137)"/></g><clipPath id="_clipPath_qFBECWyEBhyLHScqgjvmIsrcBY8fnuV4"><path d=" M 0 0 L 0 78.516 L 172.47 78.516 L 172.47 0 L 0 0 Z " fill="rgb(255,255,255)"/></clipPath><g clip-path="url(#_clipPath_qFBECWyEBhyLHScqgjvmIsrcBY8fnuV4)"><path d=" M 109.823 60.939 L 109.823 78.226 L 118.279 78.226 L 118.279 77.112 L 111.157 77.112 L 111.157 60.939 L 109.823 60.939 Z " fill="rgb(133,134,137)"/></g><clipPath id="_clipPath_x0lQHd5BD2Fh06n9jn8CeiQZhISJCbUR"><path d=" M 0 0 L 0 78.516 L 172.47 78.516 L 172.47 0 L 0 0 Z " fill="rgb(255,255,255)"/></clipPath><g clip-path="url(#_clipPath_x0lQHd5BD2Fh06n9jn8CeiQZhISJCbUR)"><path d=" M 120.637 78.226 L 121.977 78.226 L 121.977 60.941 L 120.637 60.941 L 120.637 78.226 Z " fill="rgb(133,134,137)"/></g><clipPath id="_clipPath_8Fu84BH91vpHVpE29ieejzWujYAIJABB"><path d=" M 0 0 L 0 78.516 L 172.47 78.516 L 172.47 0 L 0 0 Z " fill="rgb(255,255,255)"/></clipPath><g clip-path="url(#_clipPath_8Fu84BH91vpHVpE29ieejzWujYAIJABB)"><path d=" M 95.089 78.226 L 96.437 78.226 L 96.437 60.941 L 95.089 60.941 L 95.089 78.226 Z " fill="rgb(133,134,137)"/></g><clipPath id="_clipPath_ldhzbFfqIrv5FZD2EqKuFS34EJpQvgB2"><path d=" M 0 0 L 0 78.516 L 172.47 78.516 L 172.47 0 L 0 0 Z " fill="rgb(255,255,255)"/></clipPath><g clip-path="url(#_clipPath_ldhzbFfqIrv5FZD2EqKuFS34EJpQvgB2)"><path d=" M 131.02 60.849 L 123.872 78.226 L 125.118 78.226 L 127.567 72.255 L 135.124 72.255 L 137.567 78.226 L 138.82 78.226 L 131.674 60.849 L 131.02 60.849 Z  M 131.333 63.023 L 134.669 71.147 L 128.024 71.147 L 131.333 63.023 Z " fill="rgb(133,134,137)"/></g><clipPath id="_clipPath_E7hcTgHek9bjjQvwhqAxPZDxViSsxvZJ"><path d=" M 0 0 L 0 78.516 L 172.47 78.516 L 172.47 0 L 0 0 Z " fill="rgb(255,255,255)"/></clipPath><g clip-path="url(#_clipPath_E7hcTgHek9bjjQvwhqAxPZDxViSsxvZJ)"><path d=" M 155.17 60.973 L 148.594 68.997 L 142.018 60.973 L 140.675 60.973 L 140.675 78.226 L 142.018 78.226 L 142.018 62.927 L 142.068 62.927 L 148.594 70.988 L 155.115 62.927 L 155.17 62.927 L 155.17 78.226 L 156.512 78.226 L 156.512 60.973 L 155.17 60.973 Z " fill="rgb(133,134,137)"/></g><clipPath id="_clipPath_f1H5jblCAJiunc8TdLEqNMjQXK1Y8JgR"><path d=" M 0 0 L 0 78.516 L 172.47 78.516 L 172.47 0 L 0 0 Z " fill="rgb(255,255,255)"/></clipPath><g clip-path="url(#_clipPath_f1H5jblCAJiunc8TdLEqNMjQXK1Y8JgR)"><path d=" M 167.603 63.773 C 166.511 62.362 164.958 62.027 163.767 62.027 C 161.696 62.027 160.128 63.446 160.128 65.323 C 160.128 69.922 168.345 67.725 168.345 73.77 C 168.345 76.424 166.147 78.496 163.336 78.496 C 161.921 78.496 160.404 78.11 158.909 76.978 L 158.909 75.411 C 160.592 77.006 161.921 77.259 163.26 77.259 C 165.312 77.259 166.898 75.765 166.898 73.819 C 166.898 68.912 158.685 71.059 158.685 65.373 C 158.685 62.822 160.905 60.799 163.644 60.791 C 165.034 60.791 166.81 61.36 167.603 62.308 L 167.603 63.773 Z " fill="rgb(133,134,137)"/></g><clipPath id="_clipPath_TyJfujzqbd7YAf0GX3rOUTzcSPfh5mia"><path d=" M 0 0 L 0 78.516 L 172.47 78.516 L 172.47 0 L 0 0 Z " fill="rgb(255,255,255)"/></clipPath><g clip-path="url(#_clipPath_TyJfujzqbd7YAf0GX3rOUTzcSPfh5mia)"><path d=" M 25.787 60.993 L 25.787 78.274 L 34.671 78.274 L 34.671 76.041 L 28.27 76.041 L 28.27 60.993 L 25.787 60.993 Z " fill="rgb(133,134,137)"/></g><clipPath id="_clipPath_Yzz1uAlxgcmPgnajwUxEme9glutwzsug"><path d=" M 0 0 L 0 78.516 L 172.47 78.516 L 172.47 0 L 0 0 Z " fill="rgb(255,255,255)"/></clipPath><g clip-path="url(#_clipPath_Yzz1uAlxgcmPgnajwUxEme9glutwzsug)"><path d=" M 36.262 60.993 L 36.262 78.274 L 45.146 78.274 L 45.146 76.041 L 38.746 76.041 L 38.746 60.993 L 36.262 60.993 Z " fill="rgb(133,134,137)"/></g><clipPath id="_clipPath_8HmIOx71USqXSEBfk0UCLotXfV8JGEL1"><path d=" M 0 0 L 0 78.516 L 172.47 78.516 L 172.47 0 L 0 0 Z " fill="rgb(255,255,255)"/></clipPath><g clip-path="url(#_clipPath_8HmIOx71USqXSEBfk0UCLotXfV8JGEL1)"><path d=" M 46.747 60.993 L 46.747 78.274 L 56.783 78.274 L 56.783 76.041 L 49.23 76.041 L 49.23 70.674 L 56.304 70.674 L 56.304 68.441 L 49.23 68.441 L 49.23 63.222 L 56.554 63.222 L 56.554 60.993 L 46.747 60.993 Z " fill="rgb(133,134,137)"/></g><clipPath id="_clipPath_PmjtXeCMQxt39ekst49QXpopJM3DzIDX"><path d=" M 0 0 L 0 78.516 L 172.47 78.516 L 172.47 0 L 0 0 Z " fill="rgb(255,255,255)"/></clipPath><g clip-path="url(#_clipPath_PmjtXeCMQxt39ekst49QXpopJM3DzIDX)"><path d=" M 69.535 78.27 L 66.335 70.197 C 68.238 68.625 68.453 67.558 68.432 65.829 C 68.405 62.839 66.257 60.993 62.758 60.993 L 58.4 60.993 L 58.4 78.276 L 60.884 78.276 L 60.884 70.548 C 60.884 70.548 62.935 70.55 63.843 70.544 L 66.967 78.27 L 69.535 78.27 Z  M 60.884 68.546 L 60.884 63.122 L 62.479 63.122 C 64.887 63.122 65.85 64.112 65.876 65.731 C 65.902 67.179 65.14 68.546 62.479 68.546 L 60.884 68.546 Z " fill="rgb(133,134,137)"/></g><clipPath id="_clipPath_qXfaBpMrD1GLXEq3OAvq5eIfVJXaq659"><path d=" M 0 0 L 0 78.516 L 172.47 78.516 L 172.47 0 L 0 0 Z " fill="rgb(255,255,255)"/></clipPath><g clip-path="url(#_clipPath_qXfaBpMrD1GLXEq3OAvq5eIfVJXaq659)"><path d=" M 14.149 60.993 L 14.149 78.246 L 24.165 78.246 L 24.165 76.016 L 16.629 76.016 L 16.629 70.655 L 23.686 70.655 L 23.686 68.43 L 16.629 68.43 L 16.629 63.22 L 23.939 63.22 L 23.939 60.993 L 14.149 60.993 Z " fill="rgb(133,134,137)"/></g><clipPath id="_clipPath_tkuSNQU4GDyurcLbbCL7Zoopuatc9qr4"><path d=" M 0 0 L 0 78.516 L 172.47 78.516 L 172.47 0 L 0 0 Z " fill="rgb(255,255,255)"/></clipPath><g clip-path="url(#_clipPath_tkuSNQU4GDyurcLbbCL7Zoopuatc9qr4)"><path d=" M 9.728 60.993 L 8.851 61.942 L 2.488 68.866 L 2.488 60.993 L 0.009 60.993 L 0.009 78.211 L 2.488 78.211 L 2.488 72.3 L 5.246 69.278 L 8.857 78.215 L 11.416 78.215 L 11.416 78.213 L 10.513 75.991 L 7.013 67.338 L 10.78 63.214 L 12.809 60.993 L 9.728 60.993 Z " fill="rgb(133,134,137)"/></g><clipPath id="_clipPath_Xk80luWoFkxyHgdaDeSSEkImbsVTWeV4"><path d=" M 0 0 L 0 78.516 L 172.47 78.516 L 172.47 0 L 0 0 Z " fill="rgb(255,255,255)"/></clipPath><g clip-path="url(#_clipPath_Xk80luWoFkxyHgdaDeSSEkImbsVTWeV4)"><path d=" M 0 0 L 0 52.276 L 7.294 52.276 L 7.294 40.014 L 12.643 34.698 L 20.082 52.276 L 27.472 52.276 L 17.648 28.953 L 24.545 21.312 L 37.92 52.276 L 40.728 52.276 L 50.763 28.327 L 60.96 52.276 L 63.728 52.276 L 79.012 17.019 L 71.528 17.019 L 62.328 38.411 L 53.405 17.019 L 48.243 17.019 L 39.245 38.411 L 29.994 17.019 L 20.293 17.019 L 7.294 29.993 L 7.294 0 L 0 0 Z " fill="rgb(195,54,65)"/></g></g></svg>