<?xml version="1.0" encoding="utf-8"?>
<!-- Generator: Adobe Illustrator 19.1.0, SVG Export Plug-In . SVG Version: 6.00 Build 0)  -->
<!DOCTYPE svg PUBLIC "-//W3C//DTD SVG 1.1//EN" "http://www.w3.org/Graphics/SVG/1.1/DTD/svg11.dtd">
<svg version="1.1" id="Layer_1" xmlns="http://www.w3.org/2000/svg" xmlns:xlink="http://www.w3.org/1999/xlink" x="0px" y="0px"
	 viewBox="205 -41 612 182" style="enable-background:new 205 -41 612 182;" xml:space="preserve">
<g>
	<path d="M262.5,23.3c-8.2,23-22,32-32.9,32c-9.4,0-18.2-7.1-18.2-23.7c0-33.5,29.3-66,47.8-66c8.4,0,12.8,6.5,12.8,11.9
		s-3.4,7.3-5.7,7.3c-2.9,0-6.1-2.3-6.3-7.3c0-2.5-0.2-6.9-4.6-6.9c-14.9,0-31.8,46.9-31.8,65.8c0,8.8,5.7,13,10.3,13
		c10.1,0,20.1-14,24.5-26.2L262.5,23.3L262.5,23.3z"/>
	<path d="M324.6-34.3c10.1,0,20.9,8.4,20.9,29.1c0,27.6-18,60.5-42.5,60.5c-21.4,0-21.4-25.6-21.4-29.7
		C281.6-3.3,302.6-34.3,324.6-34.3 M303.4,50.7c22,0,31.2-56.6,31.2-66c0-10.7-5.4-14.5-10.7-14.5c-20.5,0-31.4,50.9-31.4,67
		C292.5,42.6,295.2,50.7,303.4,50.7"/>
	<path d="M362-6.7c4.2-11.3,13.4-27.7,23.7-27.7c3.8,0,8.6,3.1,8.6,14.2c0,8.8-2.9,19.3-4.6,25.1l0.4,0.4c1.3-3.6,8.2-18.6,9.8-21.8
		c3.8-6.9,9.8-18,17.8-18c4.8,0,8,3.6,8,7.7c0,4.2-2.9,6.9-6.1,6.9c-2.7,0-4.2-1.7-5.7-3.4c-0.6-0.8-1.5-1.3-2.3-1.3
		c-7.3,0-22,39.8-28.9,59.1c-1.7,4.4-3.1,8.8-4,11.7l-2.3,7.3h-12.1l16.1-54c3.4-11.1,4.8-15.5,4.8-21.2c0-1.7-0.2-5.9-3.1-5.9
		c-4.6,0-12.4,11.9-15.7,20.5H362V-6.7z"/>
	<path d="M475.5,23.3c-8.2,23-22,32-32.9,32c-9.4,0-18.2-7.1-18.2-23.7c0-33.5,29.3-66,47.8-66c8.4,0,12.8,6.5,12.8,11.9
		s-3.4,7.3-5.7,7.3c-2.9,0-6.1-2.3-6.3-7.3c0-2.5-0.2-6.9-4.6-6.9c-14.9,0-31.8,46.9-31.8,65.8c0,8.8,5.7,13,10.3,13
		c10.1,0,20.1-14,24.5-26.2L475.5,23.3L475.5,23.3z"/>
	<path d="M537.6-34.3c10.1,0,20.9,8.4,20.9,29.1c0,27.6-18,60.5-42.5,60.5c-21.4,0-21.4-25.6-21.4-29.7
		C494.7-3.3,515.6-34.3,537.6-34.3 M516.5,50.7c22,0,31.2-56.6,31.2-66c0-10.7-5.4-14.5-10.7-14.5c-20.5,0-31.4,50.9-31.4,67
		C505.6,42.6,508.3,50.7,516.5,50.7"/>
	<path d="M575.1-6.7c4.2-11.3,13.4-27.7,23.7-27.7c3.8,0,8.6,3.1,8.6,14.2c0,8.8-2.9,19.3-4.6,25.1l0.4,0.4
		c1.3-3.6,8.2-18.6,9.8-21.8c3.8-6.9,9.8-18,17.8-18c4.8,0,8,3.6,8,7.7c0,4.2-2.9,6.9-6.1,6.9c-2.7,0-4.2-1.7-5.7-3.4
		c-0.6-0.8-1.5-1.3-2.3-1.3c-7.3,0-22,39.8-28.9,59.1c-1.7,4.4-3.1,8.8-4,11.7l-2.3,7.3h-12.2l16.1-54c3.4-11.1,4.8-15.5,4.8-21.2
		c0-1.7-0.2-5.9-3.1-5.9c-4.6,0-12.4,11.9-15.7,20.5h-4.3V-6.7z"/>
	<path d="M713.5-32.6l-18.2,59.9c-1.3,4-4,13-4,15.7c0,1.9,0.8,4.2,3.8,4.2c6.5,0,13.6-11.9,15.3-14.9c0.2-0.2,0.8-1,0.8-1.3h4.4
		c-6.5,13.8-17.4,24.3-25.1,24.3c-8,0-10.1-7.5-10.1-12.4c0-1.9,0.4-5.2,2.1-10.7l-0.4-0.4c-4,7.5-17,23.5-29.3,23.5
		c-8.2,0-17.4-7.1-17.4-22.6c0-32.7,32.3-67,50.7-67c6.1,0,11.3,3.8,12.4,10.3h0.4l2.3-8.6L713.5-32.6L713.5-32.6z M655.9,49.5
		c2.5,0,7.1-1.9,12.1-6.3c5.2-4.4,10.9-11.5,15.9-22.4c6.1-13.4,11.5-33.1,11.5-39.4s-3.3-10.3-8.6-10.3
		c-18.4,0-39.4,46.9-39.4,64.7C647.6,40.9,647.8,49.5,655.9,49.5"/>
	<path d="M810.6,33.1c-2.7,5.2-12.1,22.2-25.6,22.2c-2.9,0-11.3-1.5-11.3-11.3c0-4.2,1.5-8.4,4.8-18.2l10.9-31
		c2.9-8.6,4.4-13,4.4-16.5c0-2.1-0.8-6.3-6.1-6.3c-5.4,0-12.8,6.3-20.5,18c-7.8,11.7-15.3,28.3-21.2,47.6l-5,16.3h-12.6l18-58
		l1.3-4.6c0.6-2.3,1.5-4.6,1.7-5.4c0.6-2.1,2.1-6.3,2.1-8.4c0-0.8,0-3.4-2.7-3.4c-4.2,0-10.1,7.3-14.2,14.9h-4.8
		c9-16.3,17.6-23.3,24.3-23.3c6.9,0,8,6.7,8,9.8c0,6.1-3.1,17.2-6.7,26.8l0.4,0.4c15.7-32.7,28.9-37.1,35.4-37.1s14,4.2,14,14.7
		c0,4.2-1,7.7-4.2,17.2l-10.9,32.7c-0.2,0.6-0.8,2.7-1.5,4.4c-1.7,4.6-2.9,8-2.9,10.3s1.7,4.2,3.8,4.2s8-2.1,15.9-15.9h5.2V33.1z"/>
	<path d="M227.2,125.1c-5.5,0-10.7-4.2-10.7-13.5c0-9.6,5.5-13.7,10.9-13.7c3.6,0,6,1.2,7.9,2.9l-1.3,1.6c-1.8-1.6-3.7-2.6-6.7-2.6
		c-4.6,0-8.6,4-8.6,11.5c0,7.6,3.7,11.8,8.6,11.8c2.8,0,4.9-1,6.7-2.7l1.3,1.4C233.3,123.9,230.7,125.1,227.2,125.1"/>
	<path d="M251.3,125.1c-6.3,0-11.2-4.8-11.2-13.6s5-13.6,11.3-13.6c6.3,0,11.2,4.7,11.2,13.5S257.6,125.1,251.3,125.1 M251.3,99.9
		c-5.2,0-9,4-9,11.6c0,7.7,3.8,11.7,9,11.7s9.1-4.1,9.1-11.7C260.4,103.8,256.5,99.9,251.3,99.9"/>
	<path d="M282.7,100.7c-1.1-0.5-2.3-0.8-4-0.8c-3.4,0-6.9,2.6-6.9,8.9v15.7h-2.2V98.4h2.2v4.7c1-3.3,4.1-5.3,7.3-5.3
		c1.9,0,3.2,0.3,4.1,0.7L282.7,100.7z"/>
	<path d="M297.8,125.1c-5.5,0-10.7-4.2-10.7-13.5c0-9.6,5.5-13.7,10.9-13.7c3.6,0,6,1.2,7.9,2.9l-1.3,1.6c-1.8-1.6-3.7-2.6-6.7-2.6
		c-4.6,0-8.6,4-8.6,11.5c0,7.6,3.7,11.8,8.6,11.8c2.8,0,4.9-1,6.7-2.7l1.3,1.4C303.9,123.9,301.3,125.1,297.8,125.1"/>
	<path d="M321.9,125.1c-6.3,0-11.2-4.8-11.2-13.6s5-13.6,11.3-13.6c6.3,0,11.2,4.7,11.2,13.5S328.2,125.1,321.9,125.1 M321.9,99.9
		c-5.2,0-9,4-9,11.6c0,7.7,3.8,11.7,9,11.7c5.2,0,9.1-4.1,9.1-11.7C331,103.8,327.1,99.9,321.9,99.9"/>
	<path d="M353.3,100.7c-1.1-0.5-2.3-0.8-4-0.8c-3.4,0-6.9,2.6-6.9,8.9v15.7h-2.2V98.4h2.2v4.7c1-3.3,4.1-5.3,7.3-5.3
		c1.9,0,3.2,0.3,4.1,0.7L353.3,100.7z"/>
	<path d="M375.6,124.6v-3.9c-2,2.5-5,4.5-8.9,4.5c-4.3,0-8.7-1.9-8.7-8.1c0-5.8,4.6-8.4,9.8-8.4c3.2,0,5.9,0.9,7.7,1.9v-3.9
		c0-5-2.2-7-6.8-7c-3,0-5.3,0.8-7.5,2l-0.8-1.8c2.3-1.2,5.1-2.1,8.5-2.1c5.7,0,8.9,2.3,8.9,8.6v18.1L375.6,124.6L375.6,124.6z
		 M375.6,112.4c-2-1.1-4.4-1.9-7.8-1.9c-4.4,0-7.6,2.2-7.6,6.5c0,4.6,3.2,6.4,6.9,6.4c3.7,0,6.6-2,8.5-4.9L375.6,112.4L375.6,112.4z
		"/>
	<path d="M404,124.6V109c0-6.4-2.8-9.1-7.5-9.1c-3.8,0-7.9,2.3-7.9,9.1v15.7h-2.2V98.6h2.2v4.4c1.3-3.2,4.4-5,8.3-5
		c5.5,0,9.3,3.1,9.3,10.6v16L404,124.6L404,124.6z"/>
	<path d="M433.7,134.3l-0.7-1.8c9.1-0.3,11.8-2.9,11.8-10v-1.8c-1.9,2.6-4.9,4.5-8.6,4.5c-5.6,0-9.6-4-9.6-13.3
		c0-9.5,4.2-13.9,9.9-13.9c3.6,0,6.4,1.7,8.3,4.4v-3.8h2.2v23.8C447,130.3,443.6,134.1,433.7,134.3 M444.8,104.7
		c-1.7-2.8-4.7-4.9-8.1-4.9c-5,0-7.9,3.8-7.9,11.9c0,7.8,3,11.4,8,11.4c3.2,0,6-1.9,8-4.8V104.7z"/>
	<path d="M468.9,100.7c-1.1-0.5-2.3-0.8-4-0.8c-3.4,0-6.9,2.6-6.9,8.9v15.7h-2.2V98.4h2.2v4.7c1-3.3,4.1-5.3,7.3-5.3
		c1.9,0,3.2,0.3,4.1,0.7L468.9,100.7z"/>
	<path d="M484.4,125.1c-6.3,0-11.2-4.8-11.2-13.6s5-13.6,11.3-13.6s11.2,4.7,11.2,13.5C495.8,120.2,490.7,125.1,484.4,125.1
		 M484.5,99.9c-5.2,0-9,4-9,11.6c0,7.7,3.8,11.7,9,11.7s9.1-4.1,9.1-11.7C493.5,103.8,489.7,99.9,484.5,99.9"/>
	<path d="M520.6,124.6v-4.4c-1.1,3.2-4.3,5-8.3,5c-5.6,0-9.3-3.1-9.3-10.6v-16h2.2v15.6c0,6.4,2.8,9.1,7.5,9.1
		c3.8,0,7.9-2.3,7.9-9.1V98.5h2.2v26.1L520.6,124.6L520.6,124.6z"/>
	<path d="M542.4,125.1c-3.5,0-6.4-1.7-8.3-4.4v12l-2.2,1.2V98.3h2.2v3.9c1.9-2.6,4.9-4.5,8.6-4.5c5.6,0,9.6,4,9.6,13.3
		C552.3,120.7,548.1,125.1,542.4,125.1 M542.1,99.9c-3.3,0-6.1,1.9-8.1,4.8v13.7c1.8,2.8,4.7,4.9,8.2,4.9c5,0,7.8-3.8,7.8-11.9
		C550,103.5,547,99.9,542.1,99.9"/>
	<path d="M586,100.7c-1.1-0.5-2.3-0.8-4-0.8c-3.4,0-6.9,2.6-6.9,8.9v15.7h-2.2V98.4h2.2v4.7c1-3.3,4.1-5.3,7.3-5.3
		c1.9,0,3.2,0.3,4.1,0.7L586,100.7z"/>
	<path d="M611.2,112.1h-18.6c0.2,7,3.6,11,8.5,11c3.4,0,5.4-0.8,7.8-2.3l1,1.6c-2.8,1.7-5.1,2.7-9.1,2.7c-5.1,0-10.4-4.1-10.4-13.7
		c0-8.5,4.6-13.5,10.5-13.5c6.3,0,10.3,5,10.3,13C611.3,111.5,611.2,111.8,611.2,112.1 M600.9,99.9c-4.6,0-8.1,3.6-8.4,10.5h16.6
		C609,103.7,605.9,99.9,600.9,99.9"/>
	<path d="M634.3,124.6v-3.9c-2,2.5-5,4.5-8.9,4.5c-4.3,0-8.7-1.9-8.7-8.1c0-5.8,4.6-8.4,9.8-8.4c3.2,0,5.9,0.9,7.7,1.9v-3.9
		c0-5-2.2-7-6.8-7c-3,0-5.3,0.8-7.5,2l-0.8-1.8c2.3-1.2,5.1-2.1,8.5-2.1c5.7,0,8.9,2.3,8.9,8.6v18.1L634.3,124.6L634.3,124.6z
		 M634.3,112.4c-2-1.1-4.4-1.9-7.8-1.9c-4.4,0-7.6,2.2-7.6,6.5c0,4.6,3.2,6.4,6.9,6.4s6.6-2,8.5-4.9V112.4z"/>
	<polygon points="646.1,124.6 646.1,89.6 648.3,88.3 648.3,124.6 	"/>
	<path d="M690,112.1h-18.6c0.2,7,3.6,11,8.5,11c3.4,0,5.4-0.8,7.8-2.3l1,1.6c-2.8,1.7-5.1,2.7-9.1,2.7c-5.1,0-10.4-4.1-10.4-13.7
		c0-8.5,4.6-13.5,10.6-13.5c6.3,0,10.3,5,10.3,13C690.1,111.5,690,111.8,690,112.1 M679.7,99.9c-4.6,0-8.1,3.6-8.4,10.5H688
		C687.8,103.7,684.7,99.9,679.7,99.9"/>
	<path d="M703.9,125.1c-3.4,0-5.9-1.1-8.4-3l1.2-1.6c2,1.7,4.4,2.7,7.3,2.7c4,0,6.3-1.8,6.3-5c0-2.7-1.5-4.1-6.7-6.3
		c-5.4-2.3-7.4-3.8-7.4-7.7c0-3.6,3.1-6.3,7.6-6.3c3.6,0,6.2,1.1,8,2.6l-1.2,1.6c-1.8-1.4-3.7-2.3-6.8-2.3c-3.4,0-5.4,1.9-5.4,4.2
		c0,2.8,1.4,4,6.4,6.1c5.1,2.2,7.6,3.8,7.6,8.1C712.3,122.8,708.6,125.1,703.9,125.1"/>
	<path d="M730.2,124.1c-1.3,0.6-2.8,0.9-4.7,0.9c-2.9,0-4.4-1.6-4.4-5.1v-19.6h-3.4v-1.8h3.4v-8.9l2.2-1.2v10.2h6.9v1.8h-6.9v19.3
		c0,2.3,0.9,3.4,3,3.4c1.5,0,2.7-0.3,4-0.9L730.2,124.1z"/>
	<path d="M753.4,124.6v-3.9c-2,2.5-5,4.5-8.9,4.5c-4.3,0-8.7-1.9-8.7-8.1c0-5.8,4.6-8.4,9.8-8.4c3.2,0,5.9,0.9,7.7,1.9v-3.9
		c0-5-2.2-7-6.8-7c-3,0-5.3,0.8-7.5,2l-0.8-1.8c2.3-1.2,5.1-2.1,8.5-2.1c5.7,0,8.8,2.3,8.8,8.6v18.1L753.4,124.6L753.4,124.6z
		 M753.4,112.4c-2-1.1-4.4-1.9-7.8-1.9c-4.4,0-7.6,2.2-7.6,6.5c0,4.6,3.2,6.4,6.9,6.4s6.6-2,8.5-4.9L753.4,112.4L753.4,112.4z"/>
	<path d="M773.8,124.1c-1.3,0.6-2.8,0.9-4.7,0.9c-2.9,0-4.4-1.6-4.4-5.1v-19.6h-3.4v-1.8h3.4v-8.9l2.2-1.2v10.2h6.9v1.8h-6.9v19.3
		c0,2.3,0.9,3.4,3,3.4c1.5,0,2.7-0.3,4-0.9L773.8,124.1z"/>
	<path d="M799.3,112.1h-18.6c0.2,7,3.6,11,8.5,11c3.4,0,5.4-0.8,7.8-2.3l1,1.6c-2.8,1.7-5.1,2.7-9,2.7c-5.1,0-10.4-4.1-10.4-13.7
		c0-8.5,4.6-13.5,10.5-13.5c6.3,0,10.3,5,10.3,13C799.4,111.5,799.4,111.8,799.3,112.1 M789.1,99.9c-4.6,0-8.1,3.6-8.4,10.5h16.6
		C797.2,103.7,794.1,99.9,789.1,99.9"/>
</g>
</svg>
