<svg id="Layer_1" data-name="Layer 1" xmlns="http://www.w3.org/2000/svg" viewBox="0 0 3433.2 967.1"><title>corcoran</title><path d="M292.8,331.1c-47,131.8-126,183.3-188.5,183.3C50.4,514.4,0,473.7,0,378.6,0,186.7,167.9.5,273.9.5c48.1,0,73.3,37.2,73.3,68.2s-19.5,41.8-32.7,41.8c-16.6,0-35-13.2-36.1-41.8,0-14.3-1.1-39.5-26.4-39.5-85.4,0-182.2,268.7-182.2,377,0,50.4,32.7,74.5,59,74.5,57.9,0,115.2-80.2,140.4-150.1l23.6.5Z" fill="#484e6f"/><path d="M648.6,1.1c57.9,0,119.7,48.1,119.7,166.7,0,158.1-103.1,346.6-243.5,346.6-122.6,0-122.6-146.7-122.6-170.2C402.2,178.7,522.6,1.1,648.6,1.1m-121.4,487C653.2,488.1,706,163.8,706,110c0-61.3-30.9-83.1-61.3-83.1-117.5,0-180,291.6-180,383.9,0,30.9,15.5,77.3,62.5,77.3" fill="#484e6f"/><path d="M862.9,159.2C887,94.5,939.7.5,998.7.5c21.8,0,49.3,17.8,49.3,81.4,0,50.4-16.6,110.6-26.4,143.8l2.3,2.3c7.4-20.6,47-106.6,56.1-124.9C1101.8,63.6,1136.1,0,1182,0c27.5,0,45.8,20.6,45.8,44.1s-16.6,39.5-35,39.5c-15.5,0-24.1-9.7-32.7-19.5-3.4-4.6-8.6-7.4-13.2-7.4-41.8,0-126,228-165.6,338.6-9.7,25.2-17.8,50.4-22.9,67l-13.2,41.8H875.9l92.2-309.4c19.5-63.6,27.5-88.8,27.5-121.5,0-9.7-1.1-33.8-17.8-33.8-26.4,0-71,68.2-90,117.5H862.6v2.3Z" fill="#484e6f"/><path d="M1513.2,331.1c-47,131.8-126,183.3-188.5,183.3-53.9,0-104.3-40.7-104.3-135.8C1220.4,186.7,1388.3.5,1494.3.5c48.1,0,73.3,37.2,73.3,68.2s-19.5,41.8-32.7,41.8c-16.6,0-35-13.2-36.1-41.8,0-14.3-1.1-39.5-26.4-39.5-85.4,0-182.2,268.7-182.2,377,0,50.4,32.7,74.5,59,74.5,57.9,0,115.2-80.2,140.4-150.1l23.6.5Z" fill="#484e6f"/><path d="M1869,1.1c57.9,0,119.7,48.1,119.7,166.7,0,158.1-103.1,346.6-243.5,346.6-122.6,0-122.6-146.7-122.6-170.2C1623.2,178.7,1743,1.1,1869,1.1m-120.9,487c126,0,178.8-324.3,178.8-378.1,0-61.3-30.9-83.1-61.3-83.1-117.5,0-179.9,291.6-179.9,383.9,0,30.9,15.4,77.3,62.4,77.3" fill="#484e6f"/><path d="M2083.9,159.2C2108,94.5,2160.7.5,2219.7.5c21.8,0,49.3,17.8,49.3,81.4,0,50.4-16.6,110.6-26.4,143.8l2.3,2.3c7.4-20.6,47-106.6,56.1-124.9C2322.8,63.6,2357.1,0,2403,0c27.5,0,45.8,20.6,45.8,44.1s-16.6,39.5-35,39.5c-15.5,0-24.1-9.7-32.7-19.5-3.4-4.6-8.6-7.4-13.2-7.4-41.8,0-126,228-165.6,338.6-9.7,25.2-17.8,50.4-22.9,67l-13.2,41.8h-69.9l92.2-309.4c19.5-63.6,27.5-88.8,27.5-121.5,0-9.7-1.1-33.8-17.8-33.8-26.4,0-71,68.2-90,117.5h-24.6v2.3Z" fill="#484e6f"/><path d="M2876.8,10.9,2772.5,354.1c-7.4,22.9-22.9,74.5-22.9,90,0,10.9,4.6,24.1,21.8,24.1,37.2,0,77.9-68.2,87.7-85.4,1.1-1.1,4.6-5.7,4.6-7.4h25.2c-37.2,79.1-99.7,139.2-143.8,139.2-45.8,0-57.9-43-57.9-71,0-10.9,2.3-29.8,12-61.3l-2.3-2.3c-22.9,43-97.4,134.6-167.9,134.6-47,0-99.7-40.7-99.7-129.5,0-187.4,185.1-383.9,290.5-383.9,34.9,0,64.7,21.8,71,59h2.3l13.2-49.3Zm-330,470.3c14.3,0,40.7-10.9,69.3-36.1s62.5-65.9,91.1-128.3c34.9-76.8,65.9-189.6,65.9-225.7s-18.9-59-49.3-59c-105.4,0-225.7,268.7-225.7,370.7,1.1,29.2,2.3,78.4,48.7,78.4" fill="#484e6f"/><path d="M3433.2,387.3c-15.5,29.8-69.3,127.2-146.7,127.2-16.6,0-64.7-8.6-64.7-64.7,0-24.1,8.6-48.1,27.5-104.3l62.5-177.6c16.6-49.3,25.2-74.5,25.2-94.5,0-12-4.6-36.1-35-36.1s-73.3,36.1-117.5,103.1S3096.8,302.5,3063,413.1l-28.6,93.4h-72.2l103.1-332.3,7.4-26.4c3.4-13.2,8.6-26.4,9.7-30.9,3.4-12,12-36.1,12-48.1,0-4.6,0-19.5-15.5-19.5-24.1,0-57.9,41.8-81.4,85.4H2970C3021.6,41.3,3070.8,1.2,3109.2,1.2S3155,39.6,3155,57.3c0,35-17.8,98.5-38.4,153.6l2.3,2.3C3208.9,25.8,3284.5.6,3321.7.6s80.2,24.1,80.2,84.2c0,24.1-5.7,44.1-24.1,98.5l-62.1,187.4c-1.1,3.4-4.6,15.5-8.6,25.2-9.7,26.4-16.6,45.8-16.6,59s9.7,24.1,21.8,24.1,45.8-12,91.1-91.1h29.8v-.6Z" fill="#484e6f"/><path d="M90.6,914.4c-31.5,0-61.3-24.1-61.3-77.3,0-55,31.5-78.5,62.5-78.5,20.6,0,34.4,6.9,45.3,16.6l-7.4,9.2c-10.3-9.2-21.2-14.9-38.4-14.9-26.4,0-49.3,22.9-49.3,65.9S63.2,903,91.3,903c16,0,28.1-5.7,38.4-15.5l7.4,8c-11.6,12-26.5,18.9-46.5,18.9" fill="#484e6f"/><path d="M228.6,914.4c-36.1,0-64.2-27.5-64.2-77.9s28.6-77.9,64.7-77.9,64.2,26.9,64.2,77.3-28.6,78.5-64.7,78.5m0-144.4c-29.8,0-51.6,22.9-51.6,66.5s21.8,67,51.6,67,52.1-23.5,52.1-67S258.4,770,228.6,770" fill="#484e6f"/><path d="M408.6,774.6c-6.3-2.9-13.2-4.6-22.9-4.6-19.5,0-39.5,14.9-39.5,51v90H333.6V761.5h12.6v26.9c5.7-18.9,23.5-30.4,41.8-30.4,10.9,0,18.3,1.7,23.5,4Z" fill="#484e6f"/><path d="M495.1,914.4c-31.5,0-61.3-24.1-61.3-77.3,0-55,31.5-78.5,62.5-78.5,20.6,0,34.4,6.9,45.3,16.6l-7.4,9.2c-10.3-9.2-21.2-14.9-38.4-14.9-26.4,0-49.3,22.9-49.3,65.9S467.7,903,495.8,903c16,0,28.1-5.7,38.4-15.5l7.4,8c-11.6,12-26.5,18.9-46.5,18.9" fill="#484e6f"/><path d="M633.1,914.4c-36.1,0-64.2-27.5-64.2-77.9s28.6-77.9,64.7-77.9,64.2,26.9,64.2,77.3-28.6,78.5-64.7,78.5m0-144.4c-29.8,0-51.6,22.9-51.6,66.5s21.8,67,51.6,67,52.1-23.5,52.1-67S662.9,770,633.1,770" fill="#484e6f"/><path d="M813.1,774.6c-6.3-2.9-13.2-4.6-22.9-4.6-19.5,0-39.5,14.9-39.5,51v90H738.1V761.5h12.6v26.9c5.7-18.9,23.5-30.4,41.8-30.4,10.9,0,18.3,1.7,23.5,4Z" fill="#484e6f"/><path d="M940.8,911.5V889.2c-11.5,14.3-28.6,25.8-51,25.8-24.6,0-49.8-10.9-49.8-46.4,0-33.2,26.4-48.1,56.1-48.1a92.7,92.7,0,0,1,44.1,10.9V809.1c0-28.6-12.6-40.1-39-40.1-17.2,0-30.4,4.6-43,11.5l-4.6-10.3a103.3,103.3,0,0,1,48.7-12c32.7,0,51,13.2,51,49.3V911.2l-12.5.3Zm0-69.9c-11.5-6.3-25.2-10.9-44.7-10.9-25.2,0-43.5,12.6-43.5,37.2,0,26.4,18.3,36.7,39.5,36.7s37.8-11.5,48.7-28.1V841.6Z" fill="#484e6f"/><path d="M1103.5,911.5V822.1c0-36.7-16-52.1-43-52.1-21.8,0-45.3,13.2-45.3,52.1v90h-12.5V762.6h12.6v25.2c7.4-18.3,25.2-28.6,47.6-28.6,31.5,0,53.3,17.8,53.3,60.7v91.7h-12.7Z" fill="#484e6f"/><path d="M1273.7,967.1l-4-10.3c52.1-1.7,67.6-16.6,67.6-57.3V889.2c-10.9,14.9-28.1,25.8-49.3,25.8-32.1,0-55-22.9-55-76.2s24.1-79.6,56.7-79.6c20.6,0,36.7,9.7,47.6,25.2V762.6h12.6V899c0,45.2-19.5,67-76.2,68.1m63.6-169.6c-9.7-16-26.9-28.1-46.4-28.1-28.6,0-45.3,21.8-45.3,68.2,0,44.7,17.2,65.3,45.8,65.3,18.3,0,34.4-10.9,45.8-27.5V797.5Z" fill="#484e6f"/><path d="M1475.4,774.6c-6.3-2.9-13.2-4.6-22.9-4.6-19.5,0-39.5,14.9-39.5,51v90h-12.6V761.5H1413v26.9c5.7-18.9,23.5-30.4,41.8-30.4,10.9,0,18.3,1.7,23.5,4Z" fill="#484e6f"/><path d="M1564.2,914.4c-36.1,0-64.2-27.5-64.2-77.9s28.6-77.9,64.7-77.9,64.2,26.9,64.2,77.3-28.6,78.5-64.7,78.5m.6-144.4c-29.8,0-51.6,22.9-51.6,66.5s21.8,67,51.6,67,52.1-23.5,52.1-67-22.3-66.5-52.1-66.5" fill="#484e6f"/><path d="M1771.6,911.5V886.3c-6.3,18.3-24.6,28.6-47.6,28.6-32.1,0-53.3-17.8-53.3-60.7V762.5h12.6v89.4c0,36.7,16,52.1,43,52.1,21.8,0,45.3-13.2,45.3-52.1v-90h12.6V911.4h-12.6Z" fill="#484e6f"/><path d="M1896.5,914.4c-20.1,0-36.7-9.7-47.6-25.2V958l-12.6,6.9v-204h12.6v22.3c10.9-14.9,28.1-25.8,49.3-25.8,32.1,0,55,22.9,55,76.2,0,55.6-24,80.8-56.7,80.8M1894.8,770c-18.9,0-34.9,10.9-46.4,27.5V876c10.3,16,26.9,28.1,47,28.1,28.6,0,44.7-21.8,44.7-68.2s-17.2-65.9-45.3-65.9" fill="#484e6f"/><path d="M2146.3,774.6c-6.3-2.9-13.2-4.6-22.9-4.6-19.5,0-39.5,14.9-39.5,51v90h-12.6V761.5h12.6v26.9c5.7-18.9,23.5-30.4,41.8-30.4,10.9,0,18.3,1.7,23.5,4Z" fill="#484e6f"/><path d="M2290.7,839.9H2184.1c1.1,40.1,20.6,63,48.7,63,19.5,0,30.9-4.6,44.7-13.2l5.7,9.2c-16,9.7-29.2,15.5-52.1,15.5-29.2,0-59.6-23.5-59.6-78.5,0-48.7,26.4-77.3,60.2-77.3,36.1,0,59,28.6,59,74.5.6,3.4,0,5.1,0,6.8m-59-69.9c-26.4,0-46.4,20.6-48.1,60.2h95.1c-.6-38.4-18.4-60.2-47-60.2" fill="#484e6f"/><path d="M2423,911.5V889.2c-11.5,14.3-28.6,25.8-51,25.8-24.6,0-49.8-10.9-49.8-46.4,0-33.2,26.4-48.1,56.1-48.1a92.7,92.7,0,0,1,44.1,10.9V809.1c0-28.6-12.6-40.1-39-40.1-17.2,0-30.4,4.6-43,11.5l-4.6-10.3a103.3,103.3,0,0,1,48.7-12c32.7,0,51,13.2,51,49.3V911.2l-12.5.3Zm0-69.9c-11.5-6.3-25.2-10.9-44.7-10.9-25.2,0-43.5,12.6-43.5,37.2,0,26.4,18.3,36.7,39.5,36.7s37.8-11.5,48.7-28.1V841.6Z" fill="#484e6f"/><polygon points="2490.7 911.5 2490.7 711 2503.3 703.6 2503.3 911.5 2490.7 911.5" fill="#484e6f"/><path d="M2742.2,839.9H2635.6c1.1,40.1,20.6,63,48.7,63,19.5,0,30.9-4.6,44.7-13.2l5.7,9.2c-16,9.7-29.2,15.5-52.1,15.5-29.2,0-59.6-23.5-59.6-78.5,0-48.7,26.4-77.3,60.7-77.3,36.1,0,59,28.6,59,74.5.1,3.4-.5,5.1-.5,6.8m-59-69.9c-26.4,0-46.4,20.6-48.1,60.2h95.7c-1.2-38.4-19-60.2-47.6-60.2" fill="#484e6f"/><path d="M2821.8,914.4c-19.5,0-33.8-6.3-48.1-17.2l6.9-9.2c11.5,9.7,25.2,15.5,41.8,15.5,22.9,0,36.1-10.3,36.1-28.6,0-15.5-8.6-23.5-38.4-36.1s-42.4-21.8-42.4-44.1c0-20.6,17.8-36.1,43.5-36.1,20.6,0,35.5,6.3,45.8,14.9l-6.9,9.2c-10.3-8-21.2-13.2-39-13.2-19.5,0-30.9,10.9-30.9,24.1,0,16,8,22.9,36.7,35s43.5,21.8,43.5,46.4c-.5,26.2-21.7,39.4-48.6,39.4" fill="#484e6f"/><path d="M2972.5,908.7c-7.4,3.4-16,5.2-26.9,5.2-16.6,0-25.2-9.2-25.2-29.2V772.4h-19.5V762.1h19.5v-51l12.6-6.9v58.4h39.5v10.3H2933V883.5c0,13.2,5.2,19.5,17.2,19.5a50.6,50.6,0,0,0,22.9-5.2Z" fill="#484e6f"/><path d="M3105.4,911.5V889.2c-11.5,14.3-28.6,25.8-51,25.8-24.6,0-49.8-10.9-49.8-46.4,0-33.2,26.4-48.1,56.1-48.1a92.7,92.7,0,0,1,44.1,10.9V809.1c0-28.6-12.6-40.1-39-40.1-17.2,0-30.4,4.6-43,11.5l-4.6-10.3a103.3,103.3,0,0,1,48.7-12c32.7,0,50.4,13.2,50.4,49.3V911.2l-11.9.3Zm0-69.9c-11.5-6.3-25.2-10.9-44.7-10.9-25.2,0-43.5,12.6-43.5,37.2,0,26.4,18.3,36.7,39.5,36.7s37.8-11.5,48.7-28.1V841.6Z" fill="#484e6f"/><path d="M3222.3,908.7c-7.4,3.4-16,5.2-26.9,5.2-16.6,0-25.2-9.2-25.2-29.2V772.4h-19.5V762.1h19.5v-51l12.6-6.9v58.4h39.5v10.3h-39.5V883.5c0,13.2,5.2,19.5,17.2,19.5a50.6,50.6,0,0,0,22.9-5.2Z" fill="#484e6f"/><path d="M3368.4,839.9H3261.8c1.1,40.1,20.6,63,48.7,63,19.5,0,30.9-4.6,44.7-13.2l5.7,9.2c-16,9.7-29.2,15.5-51.6,15.5-29.2,0-59.6-23.5-59.6-78.5,0-48.7,26.4-77.3,60.2-77.3,36.1,0,59,28.6,59,74.5.1,3.4.1,5.1-.5,6.8M3310,770c-26.4,0-46.4,20.6-48.1,60.2H3357c-.6-38.4-18.4-60.2-47-60.2" fill="#484e6f"/></svg>