<?xml version="1.0" standalone="no"?>
<!DOCTYPE svg PUBLIC "-//W3C//DTD SVG 20010904//EN"
 "http://www.w3.org/TR/2001/REC-SVG-20010904/DTD/svg10.dtd">
<svg version="1.0" xmlns="http://www.w3.org/2000/svg"
 width="128.000000pt" height="128.000000pt" viewBox="0 0 128.000000 128.000000"
 preserveAspectRatio="xMidYMid meet">
<g transform="translate(0.000000,128.000000) scale(0.100000,-0.100000)"
fill="#ffffff" stroke="#ffffff">
<path fill="#1976D2" 
 d="M0 640 l0 -640 640 0 640 0 0 640 0 640 -640 0 -640 0 0 -640z m682
203 l106 -108 -50 -44 -49 -44 -57 56 -57 57 -145 -145 -145 -145 -52 52 -53
52 60 61 60 61 0 73 c0 63 2 72 16 67 9 -3 28 -6 44 -6 21 0 30 -5 32 -19 2
-16 19 -6 88 59 47 44 87 79 90 80 3 0 53 -48 112 -107z m351 -71 l47 -47
-195 -195 -195 -195 -110 110 c-60 60 -110 112 -110 115 0 3 23 25 51 49 l51
44 57 -57 58 -57 144 140 c79 77 146 140 149 141 3 0 27 -21 53 -48z"/>
</g>
</svg>
