<svg id="Capa_5" data-name="Capa 5" xmlns="http://www.w3.org/2000/svg" viewBox="0 0 3502.2 1002.4"><title>large logo blue background</title><rect width="3502.2" height="1002.44" fill="#1976d2"/><path d="M1257,652.1V460.8h75a51.5,51.5,0,0,1,22.5,4.8,50.1,50.1,0,0,1,17.1,13.2,59.8,59.8,0,0,1,11,19.8,72.7,72.7,0,0,1,3.9,24.2,71.9,71.9,0,0,1-3.9,24,53.3,53.3,0,0,1-11,19,50.5,50.5,0,0,1-17.1,12.4,54.5,54.5,0,0,1-22.5,4.5h-39.4v69.4Zm69.3-102c10.3,0,17.6-2.6,22.2-7.9s6.8-12.1,6.8-20.6-2.3-14.7-6.8-19.9-11.9-7.8-22.2-7.8h-33.7v56.2Z" fill="#fff"/><path d="M1394.4,652.1V510.4h31.2v17a46.9,46.9,0,0,1,8.6-11.3,39.2,39.2,0,0,1,9.2-6.2,34.6,34.6,0,0,1,9.6-2.7,81.4,81.4,0,0,1,10-.6h4.3v38.3a56.2,56.2,0,0,0-9.2-.8q-30.4,0-30.4,34.3v73.7Z" fill="#fff"/><path d="M1499.3,591c.5,10.8,3.3,19.3,8.3,25.7a24.4,24.4,0,0,0,19.9,9.5,25.1,25.1,0,0,0,14.4-4.2,18.8,18.8,0,0,0,8.1-11.7h34.3c-3.9,14.6-10.8,25.9-20.5,33.7s-21.3,11.8-34.8,11.8q-63,0-62.9-77.2a97.6,97.6,0,0,1,4.1-29.6,63.4,63.4,0,0,1,11.9-22.8,51.1,51.1,0,0,1,19-14.5c7.5-3.4,16.1-5.1,25.9-5.1q29.1,0,44.1,21.1t15,63.3Zm52.5-23.6a46.6,46.6,0,0,0-2.4-13.7,30.3,30.3,0,0,0-5.8-9.8,21.7,21.7,0,0,0-8.2-5.7,24.1,24.1,0,0,0-9.5-1.9c-6.6,0-12.4,2.7-17.2,8.2s-7.7,13.1-8.3,22.9Z" fill="#fff"/><path d="M1714.8,652.1l-10.7-39.5h-62.7l-12.1,39.5h-37.6l60.7-191.3h41.2l59.8,191.3Zm-42.2-148.4h-.3l-21.7,76.1h43.2Z" fill="#fff"/><path d="M1762.1,719.2V510.4h32l.3,17.3c7.7-14.1,19.4-21.1,35-21.1a47.8,47.8,0,0,1,21.9,5.2,49.5,49.5,0,0,1,17.3,15c4.8,6.5,8.5,14.5,11.3,23.9a116.1,116.1,0,0,1,4.1,32,118.1,118.1,0,0,1-3.5,29.5,74.4,74.4,0,0,1-10.1,23.2,46.9,46.9,0,0,1-16.3,15.1,43.5,43.5,0,0,1-21.8,5.3c-15.6,0-28-7.3-37.4-22.1v85.5Zm59.4-95.3q28.6,0,28.7-43.8c0-12.7-2.7-23-8-31s-12.1-11.9-20.4-11.9-14.7,3.7-20.1,11.2-8.1,17.3-8.1,29.4Q1793.6,623.9,1821.5,623.9Z" fill="#fff"/><path d="M1896,719.2V510.4h32l.2,17.3c7.7-14.1,19.4-21.1,35.1-21.1a48.4,48.4,0,0,1,21.9,5.2,49.2,49.2,0,0,1,17.2,15,74.7,74.7,0,0,1,11.3,23.9,116.1,116.1,0,0,1,4.1,32,118.1,118.1,0,0,1-3.5,29.5,72.2,72.2,0,0,1-10.1,23.2,46.6,46.6,0,0,1-16.2,15.1,43.8,43.8,0,0,1-21.9,5.3c-15.5,0-28-7.3-37.4-22.1v85.5Zm59.4-95.3q28.6,0,28.6-43.8c0-12.7-2.6-23-7.9-31s-12.1-11.9-20.5-11.9-14.7,3.7-20.1,11.2-8,17.3-8,29.4Q1927.5,623.9,1955.4,623.9Z" fill="#fff"/><path d="M2029.8,652.1V510.4H2061v17a46.9,46.9,0,0,1,8.6-11.3,39.2,39.2,0,0,1,9.2-6.2,34.6,34.6,0,0,1,9.6-2.7,82.6,82.6,0,0,1,10-.6h4.4v38.3a58.4,58.4,0,0,0-9.3-.8q-30.5,0-30.4,34.3v73.7Z" fill="#fff"/><path d="M2166.2,655.8a66.7,66.7,0,0,1-27.4-5.4,58.3,58.3,0,0,1-20.3-15.3,67.7,67.7,0,0,1-12.7-23.6,100.4,100.4,0,0,1-4.3-30.3,98.1,98.1,0,0,1,4.5-30.5,66.4,66.4,0,0,1,12.9-23.6,56,56,0,0,1,20.3-15.1,65.1,65.1,0,0,1,27-5.4,62.9,62.9,0,0,1,26.6,5.4,56.2,56.2,0,0,1,20.1,14.9,67.4,67.4,0,0,1,12.8,23.5,99.2,99.2,0,0,1,4.5,30.8,97.6,97.6,0,0,1-4.5,30.7,68.3,68.3,0,0,1-12.8,23.5,55.9,55.9,0,0,1-20.2,15.1A63.4,63.4,0,0,1,2166.2,655.8Zm0-31.4q30.5,0,30.5-43.2t-30.5-42.9q-30.4,0-30.4,42.9T2166.2,624.4Z" fill="#fff"/><path d="M2272.7,652.1l-45.1-141.7h37.1l26.4,93.6,26.6-93.6h35.1l-45.3,141.7Z" fill="#fff"/><path d="M2383.5,591c.5,10.8,3.3,19.3,8.3,25.7a24.2,24.2,0,0,0,19.8,9.5,25.5,25.5,0,0,0,14.5-4.2,18.8,18.8,0,0,0,8.1-11.7h34.3c-4,14.6-10.8,25.9-20.5,33.7s-21.4,11.8-34.8,11.8q-63,0-63-77.2a100.8,100.8,0,0,1,4.1-29.6,65.1,65.1,0,0,1,11.9-22.8,51.4,51.4,0,0,1,19.1-14.5q11.3-5.1,25.8-5.1,29.3,0,44.2,21.1c10,14,14.9,35.1,14.9,63.3Zm52.5-23.6a43.4,43.4,0,0,0-2.5-13.7,30.1,30.1,0,0,0-5.7-9.8,22.5,22.5,0,0,0-8.2-5.7,24.4,24.4,0,0,0-9.5-1.9c-6.6,0-12.4,2.7-17.3,8.2s-7.6,13.1-8.3,22.9Z" fill="#fff"/><path d="M2569,652.1l-.2-17.3q-11.6,21-35.1,21a47.8,47.8,0,0,1-22-5.1,48.9,48.9,0,0,1-17.1-15,74.7,74.7,0,0,1-11.3-23.9,116.1,116.1,0,0,1-4.1-32,113.1,113.1,0,0,1,3.5-29.5,71.2,71.2,0,0,1,10.1-23.2A45.7,45.7,0,0,1,2509,512a43.9,43.9,0,0,1,21.9-5.4c15.5,0,28,7.4,37.4,22.2V458.5H2601V652.1Zm-27.6-26.8c8,0,14.7-3.7,20.1-11.2s8-17.3,8-29.4q0-46.1-27.9-46.1T2513,582.4c0,12.7,2.6,23,7.9,31S2533,625.3,2541.4,625.3Z" fill="#fff"/><path d="M2775.5,652.1V602.8c0-9.2-1.8-15.8-5.6-19.7s-10.7-5.9-21-5.9H2711v74.9h-34.5V460.8h86.2a52.7,52.7,0,0,1,21.4,4.2,48.8,48.8,0,0,1,27.1,29.1,63.5,63.5,0,0,1,3.7,22c0,10.4-2.1,19.6-6.5,27.5a36,36,0,0,1-18.8,16.9c7.5,2.7,12.9,6.8,16,12.4s4.7,13.9,4.7,25v54.2ZM2711,493.9v51h44.6c9.5,0,16.3-2.4,20.2-7.2s5.9-10.8,5.9-18.1-1.9-13.6-5.8-18.5-10.2-7.2-19-7.2Z" fill="#fff"/><path d="M2855.6,591c.5,10.8,3.3,19.3,8.4,25.7a24.1,24.1,0,0,0,19.8,9.5,25.1,25.1,0,0,0,14.4-4.2,18.8,18.8,0,0,0,8.1-11.7h34.3c-3.9,14.6-10.7,25.9-20.5,33.7s-21.3,11.8-34.8,11.8q-62.9,0-62.9-77.2a97.6,97.6,0,0,1,4.1-29.6,65.1,65.1,0,0,1,11.9-22.8,51.1,51.1,0,0,1,19-14.5c7.5-3.4,16.1-5.1,25.9-5.1q29.1,0,44.1,21.1t15,63.3Zm52.5-23.6a46.6,46.6,0,0,0-2.4-13.7,30.3,30.3,0,0,0-5.8-9.8,21.7,21.7,0,0,0-8.2-5.7,23.9,23.9,0,0,0-9.4-1.9c-6.7,0-12.5,2.7-17.3,8.2s-7.7,13.1-8.3,22.9Z" fill="#fff"/><path d="M3034.5,652.1V566.3q0-16.5-4.8-22.2c-3.3-3.9-8.8-5.8-16.7-5.8-17.2,0-25.8,10.9-25.8,32.6v81.2h-33.3V510.4h31.7v20.7q6-12.1,15.6-18.3c6.5-4.1,14.9-6.2,25.1-6.2a45.9,45.9,0,0,1,16.7,3,35.6,35.6,0,0,1,13.1,9.1,43.7,43.7,0,0,1,8.7,14.9c2.2,5.8,3.2,12.6,3.2,20.3v98.2Z" fill="#fff"/><path d="M3154,558.8h31v40.3a76.5,76.5,0,0,1-3,21.5,50.8,50.8,0,0,1-9.2,18.1,42.5,42.5,0,0,1-15.8,12.5c-6.4,3.1-14.1,4.6-22.9,4.6s-17.1-1.5-23.6-4.6a44,44,0,0,1-16-12.4,48.3,48.3,0,0,1-9.1-18.1,86.4,86.4,0,0,1-2.8-21.9V472.1h32.8v38.3H3185v26.5h-69.6v58.2c0,9,1.5,16,4.5,20.8s7.8,7.4,14.7,7.4,11.5-2.4,14.7-7.2,4.7-11.6,4.7-20.5Z" fill="#fff"/><path d="M3229,591c.5,10.8,3.3,19.3,8.3,25.7a24.3,24.3,0,0,0,19.9,9.5,25.4,25.4,0,0,0,14.4-4.2,18.8,18.8,0,0,0,8.1-11.7H3314c-4,14.6-10.8,25.9-20.5,33.7s-21.3,11.8-34.8,11.8q-63,0-63-77.2a100.8,100.8,0,0,1,4.1-29.6,66.7,66.7,0,0,1,11.9-22.8,51.4,51.4,0,0,1,19.1-14.5q11.3-5.1,25.8-5.1,29.3,0,44.2,21.1t15,63.3Zm52.5-23.6a43.4,43.4,0,0,0-2.5-13.7,28.5,28.5,0,0,0-5.7-9.8,21.7,21.7,0,0,0-8.2-5.7,24.1,24.1,0,0,0-9.5-1.9c-6.6,0-12.4,2.7-17.3,8.2s-7.6,13.1-8.3,22.9Z" fill="#fff"/><path d="M3327.3,652.1V510.4h31.2v17a44.5,44.5,0,0,1,8.6-11.3,35.5,35.5,0,0,1,9.2-6.2,32.8,32.8,0,0,1,9.6-2.7,80.2,80.2,0,0,1,10-.6h4.3v38.3a57.2,57.2,0,0,0-9.2-.8q-30.5,0-30.5,34.3v73.7Z" fill="#fff"/><path d="M446.3,623.2,573.5,492.8,714.1,629.9l340.3-349.1,130.8,127.6L717.8,887.8Z" fill="#fff"/><polygon points="571.2 111.6 360.1 328.2 360.8 263.3 244 262.1 242.1 449.2 103.8 591.1 234.6 718.7 574.9 369.6 715.5 506.7 842.7 376.3 571.2 111.6" fill="#fff"/></svg>