<svg id="Capa_5" data-name="Capa 5" xmlns="http://www.w3.org/2000/svg" viewBox="0 0 3012.7 862.3"><title>new preapp logo</title><rect width="3012.7" height="862.35" fill="#1976d2"/><path d="M971.8,524.5V359.9h64.5a44.9,44.9,0,0,1,19.4,4.1,42.9,42.9,0,0,1,14.7,11.4,52.3,52.3,0,0,1,9.5,17,66.9,66.9,0,0,1,0,41.5,46.1,46.1,0,0,1-9.5,16.3,43.5,43.5,0,0,1-14.7,10.7,46.3,46.3,0,0,1-19.4,3.8h-33.9v59.8Zm59.7-87.8c8.8,0,15.1-2.2,19-6.8s5.8-10.4,5.8-17.7-1.9-12.6-5.8-17.1-10.2-6.7-19-6.7h-29.1v48.3Z" fill="#fff"/><path d="M1090,524.5v-122h26.9v14.7a35.7,35.7,0,0,1,7.4-9.7,29.6,29.6,0,0,1,7.9-5.3,27.4,27.4,0,0,1,8.2-2.4,81.1,81.1,0,0,1,8.6-.5h3.8v33a43.4,43.4,0,0,0-8-.8c-17.4,0-26.2,9.9-26.2,29.5v63.5Z" fill="#fff"/><path d="M1180.3,471.9c.4,9.3,2.8,16.6,7.1,22.1a21.1,21.1,0,0,0,17.1,8.2,21.8,21.8,0,0,0,12.4-3.6,16.6,16.6,0,0,0,7-10.1h29.5c-3.4,12.6-9.3,22.3-17.6,29s-18.4,10.2-30,10.2q-54.1,0-54.1-66.4a84.5,84.5,0,0,1,3.5-25.5,55.3,55.3,0,0,1,10.2-19.6,44.6,44.6,0,0,1,16.4-12.5,54.1,54.1,0,0,1,22.3-4.4c16.7,0,29.4,6.1,37.9,18.1s12.9,30.2,12.9,54.5Zm45.1-20.3a35.5,35.5,0,0,0-2.1-11.8,25.5,25.5,0,0,0-4.9-8.4,18.9,18.9,0,0,0-7.1-4.9,20.6,20.6,0,0,0-8.1-1.7c-5.7,0-10.7,2.4-14.9,7.1s-6.5,11.3-7.1,19.7Z" fill="#fff"/><path d="M1365.6,524.5l-9.2-34h-53.9l-10.4,34h-32.3l52.1-164.6h35.5l51.5,164.6Zm-36.3-127.7h-.2l-18.7,65.5h37.2Z" fill="#fff"/><path d="M1406.4,582.2V402.5h27.5l.2,14.9c6.6-12,16.7-18.1,30.2-18.1a40.4,40.4,0,0,1,18.8,4.5,43.5,43.5,0,0,1,14.9,12.9,63.8,63.8,0,0,1,9.6,20.5,97,97,0,0,1,3.6,27.5,100,100,0,0,1-3,25.4,64.1,64.1,0,0,1-8.7,20,40.3,40.3,0,0,1-14,13,37.7,37.7,0,0,1-18.8,4.6c-13.4,0-24.1-6.4-32.2-19.1v73.6Zm51-82q24.8,0,24.7-37.7c0-10.9-2.3-19.8-6.8-26.6s-10.4-10.3-17.6-10.3-12.7,3.2-17.3,9.7-7,14.8-7,25.2Q1433.4,500.3,1457.4,500.2Z" fill="#fff"/><path d="M1521.5,582.2V402.5H1549l.2,14.9c6.6-12,16.7-18.1,30.2-18.1a40.1,40.1,0,0,1,18.8,4.5,42.6,42.6,0,0,1,14.9,12.9,66.1,66.1,0,0,1,9.7,20.5,109.4,109.4,0,0,1,.5,52.9,64.1,64.1,0,0,1-8.7,20,39.4,39.4,0,0,1-14,13,37.4,37.4,0,0,1-18.8,4.6c-13.3,0-24-6.4-32.1-19.1v73.6Zm51.1-82q24.6,0,24.6-37.7c0-10.9-2.2-19.8-6.8-26.6s-10.4-10.3-17.6-10.3-12.7,3.2-17.3,9.7-6.9,14.8-6.9,25.2Q1548.6,500.3,1572.6,500.2Z" fill="#fff"/><path d="M1636.6,524.5v-122h26.9v14.7a35.7,35.7,0,0,1,7.4-9.7,29.6,29.6,0,0,1,7.9-5.3,28,28,0,0,1,8.3-2.4,77.7,77.7,0,0,1,8.5-.5h3.8v33a43.2,43.2,0,0,0-7.9-.8c-17.5,0-26.2,9.9-26.2,29.5v63.5Z" fill="#fff"/><path d="M1754,527.7a57.1,57.1,0,0,1-23.6-4.7,49.7,49.7,0,0,1-17.5-13.2,58.1,58.1,0,0,1-10.9-20.3,86,86,0,0,1-3.7-26,87.5,87.5,0,0,1,3.8-26.3,57.9,57.9,0,0,1,11.2-20.3,49.2,49.2,0,0,1,17.5-13,56.8,56.8,0,0,1,23.2-4.6,56.1,56.1,0,0,1,22.9,4.6,51.3,51.3,0,0,1,17.3,12.9,59.4,59.4,0,0,1,11,20.2,87.9,87.9,0,0,1,3.8,26.5,86.3,86.3,0,0,1-3.8,26.4,61.4,61.4,0,0,1-11,20.2,48.6,48.6,0,0,1-17.4,13A55,55,0,0,1,1754,527.7Zm0-27c17.4,0,26.2-12.4,26.2-37.2s-8.8-36.9-26.2-36.9-26.2,12.3-26.2,36.9S1736.5,500.7,1754,500.7Z" fill="#fff"/><path d="M1845.6,524.5l-38.8-122h31.9l22.7,80.6,22.9-80.6h30.2l-39,122Z" fill="#fff"/><path d="M1940.9,471.9c.4,9.3,2.8,16.6,7.1,22.1a21.1,21.1,0,0,0,17.1,8.2,21.8,21.8,0,0,0,12.4-3.6,16.6,16.6,0,0,0,7-10.1H2014c-3.4,12.6-9.3,22.3-17.6,29s-18.4,10.2-30,10.2q-54.2,0-54.1-66.4a84.5,84.5,0,0,1,3.5-25.5,55.3,55.3,0,0,1,10.2-19.6,44.6,44.6,0,0,1,16.4-12.5,54.1,54.1,0,0,1,22.3-4.4c16.7,0,29.3,6.1,37.9,18.1s12.9,30.2,12.9,54.5Zm45.1-20.3a35.5,35.5,0,0,0-2.1-11.8,25.5,25.5,0,0,0-4.9-8.4,18.9,18.9,0,0,0-7.1-4.9,20.6,20.6,0,0,0-8.1-1.7c-5.7,0-10.7,2.4-14.9,7.1s-6.6,11.3-7.1,19.7Z" fill="#fff"/><path d="M2100.5,524.5l-.2-14.9c-6.6,12.1-16.7,18.1-30.2,18.1a40,40,0,0,1-18.9-4.5,40.4,40.4,0,0,1-14.8-12.9,66.1,66.1,0,0,1-9.7-20.5,109.4,109.4,0,0,1-.5-52.9,64.1,64.1,0,0,1,8.7-20,41.3,41.3,0,0,1,14-13,38.5,38.5,0,0,1,18.8-4.6c13.3,0,24.1,6.4,32.1,19.1V357.9H2128V524.5Zm-23.8-23.1c6.9,0,12.7-3.2,17.3-9.6s6.9-14.9,6.9-25.3q0-39.7-24-39.7t-24.6,37.7c0,10.9,2.2,19.8,6.8,26.6S2069.5,501.4,2076.7,501.4Z" fill="#fff"/><path d="M2278.1,524.5V482.1c0-7.9-1.6-13.6-4.8-17s-9.2-5.1-18.1-5.1h-32.5v64.5h-29.8V359.9h74.2a45.4,45.4,0,0,1,18.4,3.6,42.2,42.2,0,0,1,14.2,9.9,44.4,44.4,0,0,1,9.2,15.1,56.1,56.1,0,0,1,3.1,19c0,8.9-1.8,16.8-5.6,23.7a31.2,31.2,0,0,1-16.1,14.5c6.4,2.3,11,5.8,13.7,10.6s4.1,12,4.1,21.6v46.6Zm-55.4-136.1v43.9H2261c8.2,0,14-2.1,17.4-6.2s5-9.3,5-15.6-1.6-11.8-4.9-15.9-8.8-6.2-16.4-6.2Z" fill="#fff"/><path d="M2347,471.9c.5,9.3,2.9,16.6,7.2,22.1a20.9,20.9,0,0,0,17.1,8.2,21.8,21.8,0,0,0,12.4-3.6,16.1,16.1,0,0,0,6.9-10.1h29.5c-3.3,12.6-9.2,22.3-17.6,29s-18.3,10.2-29.9,10.2q-54.2,0-54.2-66.4a87.8,87.8,0,0,1,3.5-25.5,57.2,57.2,0,0,1,10.3-19.6,43.8,43.8,0,0,1,16.4-12.5,53.6,53.6,0,0,1,22.2-4.4c16.8,0,29.4,6.1,38,18.1s12.9,30.2,12.9,54.5Zm45.2-20.3a41.4,41.4,0,0,0-2.1-11.8,25.7,25.7,0,0,0-5-8.4,18.6,18.6,0,0,0-7-4.9,21.5,21.5,0,0,0-8.2-1.7c-5.7,0-10.6,2.4-14.8,7.1s-6.6,11.3-7.2,19.7Z" fill="#fff"/><path d="M2500.9,524.5V450.6c0-9.4-1.4-15.8-4.2-19.1s-7.5-4.9-14.3-4.9c-14.8,0-22.2,9.3-22.2,28v69.9h-28.6v-122h27.3v17.9c3.4-7,7.8-12.2,13.4-15.7s12.8-5.4,21.6-5.4a39.5,39.5,0,0,1,14.3,2.6,31,31,0,0,1,11.3,7.8,37.6,37.6,0,0,1,7.5,12.8,51.8,51.8,0,0,1,2.8,17.5v84.5Z" fill="#fff"/><path d="M2603.7,444.2h26.7v34.7a65.5,65.5,0,0,1-2.6,18.4,42.6,42.6,0,0,1-7.9,15.6,37.1,37.1,0,0,1-13.6,10.8c-5.5,2.7-12.1,4-19.7,4s-14.7-1.3-20.3-4a38.6,38.6,0,0,1-13.8-10.6,44,44,0,0,1-7.8-15.6,73.1,73.1,0,0,1-2.4-18.9v-109h28.2v32.9h59.9v22.8h-59.9v50.1c0,7.8,1.3,13.8,3.8,18s6.8,6.3,12.7,6.3,9.9-2.1,12.7-6.2,4-10,4-17.6Z" fill="#fff"/><path d="M2668.2,471.9c.5,9.3,2.9,16.6,7.2,22.1a20.9,20.9,0,0,0,17.1,8.2,22,22,0,0,0,12.4-3.6,16.1,16.1,0,0,0,6.9-10.1h29.5c-3.4,12.6-9.2,22.3-17.6,29s-18.3,10.2-29.9,10.2q-54.2,0-54.2-66.4a87.8,87.8,0,0,1,3.5-25.5,57.2,57.2,0,0,1,10.3-19.6,43.1,43.1,0,0,1,16.4-12.5,53.3,53.3,0,0,1,22.2-4.4c16.7,0,29.4,6.1,38,18.1s12.9,30.2,12.9,54.5Zm45.2-20.3a41.4,41.4,0,0,0-2.1-11.8,25.7,25.7,0,0,0-5-8.4,18.6,18.6,0,0,0-7-4.9,21.5,21.5,0,0,0-8.2-1.7c-5.7,0-10.6,2.4-14.8,7.1s-6.6,11.3-7.2,19.7Z" fill="#fff"/><path d="M2752.8,524.5v-122h26.8v14.7a37.8,37.8,0,0,1,7.4-9.7,31.3,31.3,0,0,1,7.9-5.3,28,28,0,0,1,8.3-2.4,79.6,79.6,0,0,1,8.6-.5h3.7v33a42.3,42.3,0,0,0-7.9-.8c-17.5,0-26.2,9.9-26.2,29.5v63.5Z" fill="#fff"/><path d="M427.1,489.2l73.3-75.1,81,79L777.4,292l75.4,73.5L583.5,641.7Z" fill="#fff"/><polygon points="499.1 194.5 377.4 319.2 377.8 281.9 310.6 281.2 309.5 389 229.7 470.7 305.1 544.2 501.2 343.1 582.2 422.1 655.5 347 499.1 194.5" fill="#fff"/></svg>