<svg id="stroke" xmlns="http://www.w3.org/2000/svg" viewBox="0 0 395.6 864.4"><title>resume final woman</title><path d="M385,863H40a1,1,0,0,1,0-2H385a1,1,0,0,1,0,2Z" fill="#dd8237"/><path d="M161.7,779.5c0,1.9-18.4,3.5-41.1,3.5s-41.2-1.6-41.2-3.5,18.5-3.6,41.2-3.6S161.7,777.5,161.7,779.5Z" fill="#472951" fill-rule="evenodd"/><path d="M368.5,745.1c.7-.3,5.2-4.7,10.2-5.4s15.4.7,15.4.7l1.5,19.2-2.8.5s3.3,15.5,2.7,45.8c0,2.5-3.5,6.7-5.5,1.3a35.5,35.5,0,0,1-1.7-6.5Z" fill="#5e386d" fill-rule="evenodd"/><path d="M269.8,837.5c.2.7,4.5,5.2,5.2,10.2s-.9,15.4-.9,15.4l-19,1.3-.5-2.9s-15.4,3.1-45.4,2.2c-2.5-.1-6.5-3.6-1.2-5.5a47.6,47.6,0,0,1,6.5-1.7Z" fill="#5e386d" fill-rule="evenodd"/><path d="M305.5,609.5l-24.7,66.4L274.3,690s-7.8,16.6,6.7,23.5L254.2,828.2s.2,9.1-7.6,13.9-32.4,14.5-32.4,14.5,44.3,2.9,54.9-13.7c3.1-4.8,45.3-108.6,45.3-108.6L364.1,762s8,6.1,11.3,13,12.3,24,12.3,24,4.4-34.9-13.2-53c-2.3-2.4-4.5-2.2-4.5-2.2s-18.8-23.1-28.6-31.6-20.8-17.3-20.8-17.3l-1-3.6,40.6-73.2Z" fill="#ffbe9c" fill-rule="evenodd"/><path d="M317.6,466.9c-.2.6-4.1,39.1-5.2,52.1s-5,63.8-5.2,65.1-2.1,26.7-2.1,26.7l54.3,9.7s22.3-40.5,27.5-73.6,8.4-36.5,6.9-47.6-8.5-46.7-14.5-53-61.5,19.9-61.5,19.9" fill="#ff4f4f" fill-rule="evenodd"/><path d="M256.9,379.4c-.3-.1-10.3,8.3-10.7,8.5s-3.7,10.5-3.8,10.8-1.7,5.9.9,5.7,9.3-6.5,9.4-6.8,6.1-12.4,5.9-12.7S259.9,380.7,256.9,379.4Z" fill="#cf6522" fill-rule="evenodd"/><path d="M234.4,357.5l-8-8.5c-1.5-1.4-2.4-1.2-3.8-.2L208.9,361c-1.4,1.2-1.9,3.3-.5,4.4l11.9,10.7,1.3,2.7,5.4,3.8,16.9,8.7,9.3-9.4,3.3-4.5Z" fill="#030a26" fill-rule="evenodd"/><path d="M225.6,352.6c-.3.4-9.1,8.7-9.9,9.4s-2.2,1.9-.5,3.3l11.6,10.5,17.5,10.3,6.9-8.3s1.3-1.4.3-2.4l-23-22.7C227.3,351.8,226.7,351.6,225.6,352.6Z" fill="#fff1e9" fill-rule="evenodd"/><path d="M247,402.1s-15.1-9.3-17.3-11.1-5.1-4.6-5.2-5.4a3.6,3.6,0,0,1,.4-2.4c.6-1,1.2-2.1.9-2.5s-.9-1.1-1.3-1-5.2.3-6.8-.8-2.5-2-2.5-3.3.8-3.6.9-3.3,3.3,3,3.3,3l10.3-1.5,4.5-.7s1.5-3.9,3.7-4a3.8,3.8,0,0,1,4.2,3.1,12.2,12.2,0,0,1,.4,3.4,70.6,70.6,0,0,0,5.6,7.6c1.9,1.8,7.2,4.3,8.1,5C260.4,391.5,250.4,404,247,402.1Z" fill="#ffbe9c" fill-rule="evenodd"/><path d="M261.5,374.9c-.2-.2-9.9-8-10.9-9.1s-17-9.1-17-9.1l10.9,11s-2.6,1.3-1.7,2.2,6.7,2.4,6.7,2.4,5.9,5.8,5.9,6.2-4.7,5.8-4.7,5.8l6.3-3.1,4.2.7S262.7,376.4,261.5,374.9Z" fill="#ffbe9c" fill-rule="evenodd"/><path d="M258.1,218.7a32.5,32.5,0,0,0,.6,10.7,112.5,112.5,0,0,0,3.6,14.1c.8,2.6,1.9,4,2.2,5.8s-.6,11.3-.3,12.2,5.8-2.6,6.1-2.3,7.2,9.3,10.3,13.8,5.3,7.1,6,7.2,8.8-4.5,9.9-4.3,5.3,8.2,7.3,12.4,2.7,24.4.4,28.9,22.3-22.6,22.3-22.6l12.9-6.4s-9.6-7.5-14.5-15-6.2-11.8-6.2-11.8l4.6-10.3,6.1-18.6s-6-14.4-6.2-14.5S257.8,210.1,258.1,218.7Z" fill="#ffbe9c" fill-rule="evenodd"/><path d="M333.5,196.2c-1.3-3.4-7.6-10.7-13.1-14s-11.8-2.1-16-.3a24.1,24.1,0,0,0-6.4,4.2h-.3c-13,.4-15.5,2.2-22.2,5.6-19.8,9.8-18.7,27.7-18.7,27.7,4.4,8.2,13.1,11.8,29.6,13.5s26.7-5.1,29.4-7.1a6.3,6.3,0,0,1,5.7-.8c4.6,2.1,4.6,11.6,3.2,16.2a21.6,21.6,0,0,1-3.5,6.8l-3.4,10.1.8,3.4c14.7-8.4,20.4-30,12.7-48.8C337.8,207,334.7,199.6,333.5,196.2Z" fill="#922a39" fill-rule="evenodd"/><path d="M303.4,219.9A62,62,0,0,1,265.8,207a.7.7,0,0,1-.1-1,.8.8,0,0,1,1-.1c.2.2,22.1,18.7,52.1,10.5a.7.7,0,0,1,.9.5.6.6,0,0,1-.5.8A57.2,57.2,0,0,1,303.4,219.9Z" fill="#661a1a"/><path d="M297.8,186.1c.2,0,23.7,1.4,33.4,26.4,0,0,3.1-3.6,3.5-4.9s-11.5-22.1-35.7-22.1Z" fill="#5e1821" fill-rule="evenodd"/><path d="M334,234.5c-1.4.6-7.2,5.8-9.2,6.8,0,0-1.2,3.1-1.7,4s-2,2.7-2,2.8-3.3,10-3.3,10l.9,3.3s7.9-5.1,11.5-12.1a47.2,47.2,0,0,0,4.3-14.9S334.8,234.2,334,234.5Z" fill="#5e1821" fill-rule="evenodd"/><path d="M268.7,241.6a42.3,42.3,0,0,1,7.4-4.2c3.3-1.5,6.7-2.6,6.2-2.9s-2.9,0-5.7.7a30.5,30.5,0,0,0-9.4,4.3C266.7,239.8,265.2,242.5,268.7,241.6Z" fill="#922a39" fill-rule="evenodd"/><path d="M272.6,244.5s6.1-3,6.5-3-2.5,3-2.8,3.2,1,1.5,1.7,2.1a1.4,1.4,0,0,1,0,2.1l-1,.8c-.6.4-1.3.7-2.6-.7S270.4,246.3,272.6,244.5Z" fill="#922a39" fill-rule="evenodd"/><g opacity="0.5"><path d="M320.2,242.6h-.1c-2-.4-3.3-1.3-3.7-2.5s.9-3.6,1.2-3.9a.5.5,0,1,1,.7.7c-.2.2-1.3,1.7-.9,2.9s1.3,1.5,2.9,1.8.5.3.4.6A.5.5,0,0,1,320.2,242.6Z" fill="#661a1a"/></g><g opacity="0.5"><path d="M321.2,234.5h-.1a.4.4,0,0,1-.3-.6c.1-.3.5-2.1-.3-3.1s-1.8-.8-3.4-.5a.4.4,0,0,1-.6-.4.4.4,0,0,1,.3-.5c2.1-.5,3.6-.2,4.4.8a4.3,4.3,0,0,1,.5,4A.5.5,0,0,1,321.2,234.5Z" fill="#661a1a"/></g><path d="M275.6,266.2c.2-.1,5.7-4.7,7.1-4.6s1.8,3.6,0,5.9a8.5,8.5,0,0,1-3.8,3.1Z" fill="#fff" fill-rule="evenodd"/><g opacity="0.2"><path d="M296.3,275.9c-.9.1,12.5-6.8,12.3-6.4s-3.8,3.9-4.4,4.6l-5.3,4.9S297.1,275.8,296.3,275.9Z" fill="#922a39" fill-rule="evenodd"/></g><path d="M290.3,376.5a58.7,58.7,0,0,1,.9-22.1c2.9-13.4,9.9-37.7,21.6-49.9s12.4-13.7,21.5-16.6c0,0,5.9-3.2,14.8,10.4s14.8,33.8,16.7,47.6,4,33.4,3.7,43.3-.4,21.2,0,25.4,3.9,18.2,6.4,22.9,9.2,14.9-1.1,19.7-27,7-30.4,7.8-26.9,2.9-26.9,2.9l-.8-17.8s-14.3-4.7-22.5-9.3-28-19.3-31.7-21.8-19.7-14.7-19.7-14.7,5.3-2.7,10.3-10.1c2.6-3.9,3.9-13,3.9-13l2.9.4.9-6.9Z" fill="#0046b7" fill-rule="evenodd"/><path d="M355.1,333c-.3,0-.7-.5-.7-.9s-.5-11.3-9.6-16.6-18.9,3.8-19,3.9a.7.7,0,0,1-1-.1c-.3-.2-.2-.7,0-1s10.7-9.9,20.7-4.2,10.3,17.5,10.3,17.9-.2,1-.6,1Z" fill="#1b1464"/><path d="M308.4,404.8h-.1a.8.8,0,0,1-.6-.9c4-23.8,8.8-52.3,9.2-52.9a.6.6,0,0,1,.9-.3.7.7,0,0,1,.3.9c-.4,1.5-5.6,32.2-9,52.6A.9.9,0,0,1,308.4,404.8Z" fill="#1b1464"/><path d="M313.9,371a.6.6,0,0,1-.6-.4l-3.7-9.1a.7.7,0,0,1,.5-.9c.3-.2.7,0,.9.4h0c.1.3,2.2,5.6,3.6,9a.7.7,0,0,1-.4,1Z" fill="#1b1464"/><path d="M318.1,411.5a.6.6,0,0,1-.5-.2c-1.5-1.7-11.1-6.7-16.7-9.6s-5.2-2.7-5.4-3.1a.7.7,0,0,1,.5-.9.7.7,0,0,1,.7.2l4.8,2.5c7.8,4.1,15.6,8.2,17.2,10a.8.8,0,0,1-.1,1Z" fill="#1b1464"/><path d="M316.7,450.8a.9.9,0,0,1-.8-.6.8.8,0,0,1,.7-.8c.2,0,14.3-1,21.7-14.2,8.6-15.5,17-54.4,15.7-87.5a.7.7,0,0,1,.7-.7c.4-.1.7.3.7.7,1.3,33.3-7.2,72.5-15.9,88.1-7.7,13.9-22.6,15-22.8,15Z" fill="#1b1464"/><path d="M250.7,410.3a.6.6,0,0,1-.6-.3.7.7,0,0,1,.2-1c.1-.1,12-8.7,13.3-24.2a.8.8,0,0,1,.8-.7.8.8,0,0,1,.7.8c-1.4,16.2-13.9,25.2-14,25.3Z" fill="#fbb03b"/><g opacity="0.5"><path d="M230.4,384h-.1a29.1,29.1,0,0,1-4.4-2.2.5.5,0,0,1-.2-.6.5.5,0,0,1,.7-.2,20.3,20.3,0,0,0,4.2,2c.2.1.4.4.3.6A.5.5,0,0,1,230.4,384Z" fill="#f7931e"/></g><g opacity="0.5"><path d="M234.7,373.5a.4.4,0,0,1-.4-.3.5.5,0,0,1,.2-.7l2.7-1.1a.5.5,0,0,1,.3.9l-2.6,1.1Z" fill="#f7931e"/></g><g opacity="0.5"><path d="M226.7,386.4l-.4-.2-1.6-2.1a.5.5,0,0,1,.1-.7.5.5,0,0,1,.7.1l1.6,2.1a.5.5,0,0,1-.1.7Z" fill="#f7931e"/></g><g opacity="0.5"><path d="M244.5,368.2a.5.5,0,0,1-.5-.4c0-.3.2-.6.4-.6l1.8-.2c.3-.1.5.1.5.4s-.1.5-.4.6l-1.7.2Z" fill="#f7931e"/></g><g opacity="0.5"><path d="M281,714h-.1c-.2,0-.4-.3-.3-.6l25.1-101.7c0-.2.3-.4.6-.3s.4.3.3.6L281.5,713.7C281.5,713.9,281.3,714,281,714Z" fill="#f7931e"/></g><g opacity="0.5"><path d="M295.1,685.7a.5.5,0,0,1-.5-.3.6.6,0,0,1,.3-.7,12.6,12.6,0,0,0,7.9-11.2.6.6,0,0,1,.6-.5c.2,0,.4.3.4.5-.4,9.1-8.4,12.1-8.5,12.2Z" fill="#f7931e"/></g><path d="M105.5,780.5s-8-25-14.1-34S73.5,719.9,67.9,714s-7.2-7.4-7.8-7.4-3.8-6.2,3.5-4.2,38.3,15.2,46.6,33.4c0,0-5.1-20.6-4-30.5s5.1-39.4,8.3-49.2,10.5-29.8,11.8-35,2.5-8.9,4.1-8.7,7.1,3.3,8.3,10.9,6.2,30.7,1.5,46.6-8.5,34.7-8.7,41.2.2,28.3.2,28.3,9.6-46,15.2-61.8,16-37.7,24-46.6,19-17.5,21.5-18.9,4.2-3.5,4-2.4-2.9,30.7-6.5,42.7S179.7,689,171.1,702s-16.3,24.8-21.7,37.3-9.2,23.3-9,28.9,1,16,.9,16.6-34.9.7-34.9.7Z" fill="#00b793" fill-rule="evenodd"/><g opacity="0.7"><path d="M116,785.5c-2.5-49.9-56.2-81.3-56.8-81.6l.7-1.2c.6.3,55,32,57.5,82.8Z" fill="#009245"/></g><g opacity="0.7"><path d="M130.3,786.1c-.1-.3-12.5-30.8-12.1-61.7.3-27.5,2-37.6,3.9-48.4.3-1.5.5-2.9.8-4.4s.8-5.1,1.3-8c2.2-12.6,4.9-28.4,4.8-35.3s0-15.8,0-15.9h1.4c0,.1-.2,7.5,0,15.9s-2.6,22.8-4.8,35.6c-.5,2.8-.9,5.5-1.3,7.9s-.6,3-.8,4.4c-1.9,10.7-3.6,20.9-3.9,48.3-.4,30.5,11.9,60.8,12,61.1Z" fill="#009245"/></g><g opacity="0.7"><path d="M138.4,757.2H137c.3-8.4,3.5-22.2,6.3-34.4.4-1.6.7-3.2,1.1-4.7,2-8.8,9-24.1,15.7-38.8,3.1-6.7,5.9-13,8.3-18.6,7.7-18.1,26.6-49.8,26.8-50.2l1.2.8c-.2.3-19,31.9-26.7,49.9-2.4,5.7-5.3,12-8.3,18.7-6.7,14.6-13.7,29.8-15.7,38.5-.3,1.5-.7,3.1-1,4.7C141.9,735.1,138.7,748.8,138.4,757.2Z" fill="#009245"/></g><path d="M131.8,739.3s7.5,38.8,9.5,44.3c0,0-1.1-13.5-.9-16.9s2.5-11,2.5-11L133,733.5Z" fill="#008a6f" fill-rule="evenodd"/><path d="M120.6,783c-22.7,0-41.2-1.7-41.2-3.7V779h-.2l5.6,84.5,68.1.6,8.6-84.5C160.4,781.5,142.5,783,120.6,783Z" fill="#f7931e" fill-rule="evenodd"/><path d="M161.7,779.3v-.2h-.2C161.6,779.1,161.6,779.2,161.7,779.3Z" fill="#f7931e" fill-rule="evenodd"/><g opacity="0.5"><path d="M124.4,797.1A327.8,327.8,0,0,1,80.9,794c-.4-.1-.7-.4-.6-.8s.4-.7.8-.6,44,6.7,77.9.2c.4-.1.7.2.8.6s-.2.7-.6.8A193.1,193.1,0,0,1,124.4,797.1Z" fill="red"/></g><g opacity="0.5"><path d="M116.1,809.5c-22.5,0-34.1-3.4-34.3-3.5a.7.7,0,0,1-.5-.9c.2-.3.5-.6.9-.4s26.1,7.6,75.8-.1a.8.8,0,0,1,.8.6c0,.4-.2.8-.6.8A275.2,275.2,0,0,1,116.1,809.5Z" fill="red"/></g><path d="M35.1,39.1H29.8l.8-4.6c.6-2.6,1.4-4.5,2.5-5.6a6.2,6.2,0,0,1,4.3-1.7l-.5,2.7A4.2,4.2,0,0,0,34.8,31a8.1,8.1,0,0,0-1.1,2.6h2.5Zm8.9,0H38.7l.8-4.6c.6-2.6,1.4-4.5,2.5-5.6a6.2,6.2,0,0,1,4.3-1.7l-.5,2.7a3.5,3.5,0,0,0-2,1.1,6.3,6.3,0,0,0-1.2,2.6h2.5Z" fill="#0046b7"/><path d="M51.2,56.7H45.6l5.7-29.1h12a12.2,12.2,0,0,1,4.8.7,4.9,4.9,0,0,1,2.8,2.5A8.7,8.7,0,0,1,72,35.2a8.9,8.9,0,0,1-2.1,6.1,9.9,9.9,0,0,1-6.2,3,15.8,15.8,0,0,1,2,2.7,78.5,78.5,0,0,1,4.1,9.7h-6A74.2,74.2,0,0,0,61,49a10.3,10.3,0,0,0-2.4-3.8,5.1,5.1,0,0,0-2.8-.6H53.5Zm3.2-16.4h2.9a19.2,19.2,0,0,0,6-.6,5.2,5.2,0,0,0,2.3-1.8,5,5,0,0,0,.8-2.6,2.6,2.6,0,0,0-1.2-2.4,6.9,6.9,0,0,0-3.2-.5H55.9Z" fill="#0046b7"/><path d="M76.8,35.6h5.3L79.7,48.1a17.2,17.2,0,0,0-.4,2.8,2.5,2.5,0,0,0,.6,1.6,2.3,2.3,0,0,0,1.6.6,3.5,3.5,0,0,0,1.4-.3,3.4,3.4,0,0,0,1.4-.8,8.6,8.6,0,0,0,1.3-1.4,8.9,8.9,0,0,0,1.1-2,17.6,17.6,0,0,0,.7-2.9l2-10.1h5.3L90.6,56.7h-5l.6-2.9a9.6,9.6,0,0,1-7.1,3.4,4.9,4.9,0,0,1-3.8-1.5,5.7,5.7,0,0,1-1.4-4,29.1,29.1,0,0,1,.6-4.3Z" fill="#0046b7"/><path d="M100.1,35.6h5l-.5,2.7a14.3,14.3,0,0,1,3.5-2.5,8,8,0,0,1,3.4-.7,4.9,4.9,0,0,1,3.8,1.5,5.2,5.2,0,0,1,1.4,3.9,27.5,27.5,0,0,1-.6,4.3l-2.3,11.9h-5.3l2.3-12a23.3,23.3,0,0,0,.6-3.2,2.1,2.1,0,0,0-2.3-2.3,4.5,4.5,0,0,0-2.6,1,7.6,7.6,0,0,0-2.2,2.8,23.5,23.5,0,0,0-1.4,5l-1.6,8.7H96Z" fill="#0046b7"/><path d="M123.2,35.6h5l-.5,2.7a14.3,14.3,0,0,1,3.5-2.5,8,8,0,0,1,3.4-.7,5.1,5.1,0,0,1,3.9,1.5,5.6,5.6,0,0,1,1.4,3.9,32.2,32.2,0,0,1-.7,4.3l-2.3,11.9h-5.3l2.4-12c.3-1.8.5-2.8.5-3.2a2.1,2.1,0,0,0-2.3-2.3,4.5,4.5,0,0,0-2.6,1,7.6,7.6,0,0,0-2.2,2.8,19.7,19.7,0,0,0-1.3,5l-1.7,8.7h-5.3Z" fill="#0046b7"/><path d="M146.2,35.6h5.3l-4.1,21.1h-5.3Zm1.6-8h5.3l-1,5.1h-5.3Z" fill="#0046b7"/><path d="M156.8,35.6h5l-.5,2.7a16.5,16.5,0,0,1,3.5-2.5,8.4,8.4,0,0,1,3.5-.7,5,5,0,0,1,3.8,1.5,5.6,5.6,0,0,1,1.4,3.9,27.5,27.5,0,0,1-.6,4.3l-2.3,11.9h-5.3l2.3-12c.3-1.8.5-2.8.5-3.2a2.1,2.1,0,0,0-2.3-2.3,4.8,4.8,0,0,0-2.6,1A7.6,7.6,0,0,0,161,43a25.4,25.4,0,0,0-1.3,5L158,56.7h-5.3Z" fill="#0046b7"/><path d="M175.5,57.8l5.5.9a2.6,2.6,0,0,0,.3,1.4,2.4,2.4,0,0,0,.9.8,4,4,0,0,0,1.7.3,4.5,4.5,0,0,0,2.7-.7,4.1,4.1,0,0,0,1.2-1.8,18.8,18.8,0,0,0,.8-3.4l.2-1a8.2,8.2,0,0,1-5.7,2.5,5.7,5.7,0,0,1-4.7-2.2c-1.3-1.5-1.9-3.6-1.9-6.4a16.5,16.5,0,0,1,1.3-6.8,10.1,10.1,0,0,1,3.5-4.7,7.8,7.8,0,0,1,4.6-1.6,6.6,6.6,0,0,1,3.6,1.1,7.9,7.9,0,0,1,2.6,3.1l.7-3.7h5l-3.4,17.6c-.6,2.8-1.1,4.8-1.4,6a16.3,16.3,0,0,1-1.3,2.9,8.1,8.1,0,0,1-1.9,1.8,10.9,10.9,0,0,1-2.7,1.1,16.9,16.9,0,0,1-3.3.3c-2.8,0-4.9-.5-6.3-1.6s-2.1-2.7-2.1-5A2.8,2.8,0,0,1,175.5,57.8Zm6.2-10.2a5.6,5.6,0,0,0,1,3.7,3.3,3.3,0,0,0,2.5,1.3,4.1,4.1,0,0,0,2.7-1.2,6.8,6.8,0,0,0,2-3.2,11.6,11.6,0,0,0,.7-4,6.2,6.2,0,0,0-1.1-3.7,3.3,3.3,0,0,0-2.6-1.3,3.4,3.4,0,0,0-2.6,1.2,8.5,8.5,0,0,0-2,3.7A12.2,12.2,0,0,0,181.7,47.6Z" fill="#0046b7"/><path d="M211,35.6h5.3l1.3,10.5q.5,4,.6,5.7A46.7,46.7,0,0,1,221,45l4.7-9.4h5.6L219.2,58.8a31.5,31.5,0,0,1-2.4,4,4.9,4.9,0,0,1-2,1.8,5.4,5.4,0,0,1-2.9.7,11,11,0,0,1-3.8-.7l.4-4.2,1.9.3c1.6,0,3-1.3,4-4Z" fill="#0046b7"/><path d="M231.2,47.9q0-5.9,3-9.3a10.5,10.5,0,0,1,8.1-3.5,9,9,0,0,1,6.8,2.6,9.7,9.7,0,0,1,2.4,6.9,13.9,13.9,0,0,1-3,8.9,10,10,0,0,1-8.2,3.7,9.9,9.9,0,0,1-4.9-1.2,7.5,7.5,0,0,1-3.2-3.4A10.4,10.4,0,0,1,231.2,47.9Zm15.1-4a4.9,4.9,0,0,0-1.1-3.3,3.8,3.8,0,0,0-2.9-1.2,4.8,4.8,0,0,0-3,1.1,7.6,7.6,0,0,0-2.1,3.4,11.6,11.6,0,0,0-.7,4,5.7,5.7,0,0,0,1.1,3.6,3.7,3.7,0,0,0,2.9,1.3,4.5,4.5,0,0,0,3.7-2A11.3,11.3,0,0,0,246.3,43.9Z" fill="#0046b7"/><path d="M257.6,35.6h5.3l-2.5,12.5c-.2,1.5-.4,2.4-.4,2.8a2.5,2.5,0,0,0,.6,1.6,2.3,2.3,0,0,0,1.6.6,3.2,3.2,0,0,0,1.4-.3A3.4,3.4,0,0,0,265,52a8.6,8.6,0,0,0,1.3-1.4,6.2,6.2,0,0,0,1.1-2,17.6,17.6,0,0,0,.7-2.9l2-10.1h5.3l-4.1,21.1h-4.9l.5-2.9a9.6,9.6,0,0,1-7.1,3.4,5,5,0,0,1-3.8-1.5,5.7,5.7,0,0,1-1.4-4,35,35,0,0,1,.7-4.3Z" fill="#0046b7"/><path d="M280.4,35.6h5l-.8,4.1c1.8-3.1,3.8-4.6,6-4.6a5.7,5.7,0,0,1,2.4.6l-2,4.7a4,4,0,0,0-1.5-.3,4.7,4.7,0,0,0-2.8,1.1,7.3,7.3,0,0,0-2.2,3,30.8,30.8,0,0,0-1.6,5.9l-1.3,6.6h-5.3Z" fill="#0046b7"/><path d="M166,82.7l5.1.9a12,12,0,0,1-3.7,5.6,9.2,9.2,0,0,1-5.8,1.9,7.8,7.8,0,0,1-6-2.4,9.7,9.7,0,0,1-2.2-6.6,16.2,16.2,0,0,1,1.4-6.5,10.4,10.4,0,0,1,4-4.8,10.2,10.2,0,0,1,5.8-1.8,7.8,7.8,0,0,1,5.6,2,7.6,7.6,0,0,1,2.3,5.1l-5,.6a4.9,4.9,0,0,0-1-2.6,2.9,2.9,0,0,0-2.2-.9,4.5,4.5,0,0,0-2.9,1.3,8.5,8.5,0,0,0-2,3.7,15.1,15.1,0,0,0-.7,4.6,5,5,0,0,0,.8,2.9,3,3,0,0,0,2.2,1,4.2,4.2,0,0,0,2.4-1A7.4,7.4,0,0,0,166,82.7Z" fill="#0046b7"/><path d="M177.5,69.5h5l-.8,4.1c1.8-3,3.8-4.6,6-4.6a5.7,5.7,0,0,1,2.4.6l-2,4.7a4,4,0,0,0-1.5-.3,4.3,4.3,0,0,0-2.8,1.2,6.4,6.4,0,0,0-2.2,2.9A33.1,33.1,0,0,0,180,84l-1.3,6.6h-5.3Z" fill="#0046b7"/><path d="M207.5,81.9H194.2v.5a5.3,5.3,0,0,0,1.1,3.4,3.9,3.9,0,0,0,2.8,1.3c1.7,0,3.1-1,4.1-3l4.7.9a10.1,10.1,0,0,1-3.7,4.6,9.3,9.3,0,0,1-5.2,1.5,8.2,8.2,0,0,1-6.4-2.7,9.8,9.8,0,0,1-2.5-7.1,13.7,13.7,0,0,1,2.3-7.7,9.9,9.9,0,0,1,8.7-4.6,7.2,7.2,0,0,1,5.7,2.4,10,10,0,0,1,2.1,6.7A14.8,14.8,0,0,1,207.5,81.9Zm-4.4-3.5v-.6a5,5,0,0,0-1-3.5,3.1,3.1,0,0,0-2.6-1.2,4.5,4.5,0,0,0-3,1.3,7.8,7.8,0,0,0-1.7,4Z" fill="#0046b7"/><path d="M227.6,90.6h-5l.4-2.2a10.2,10.2,0,0,1-2.8,2.1,7.9,7.9,0,0,1-3.2.6,6.1,6.1,0,0,1-4.9-2.2c-1.3-1.5-1.9-3.7-1.9-6.6a16.5,16.5,0,0,1,2.7-9.2,8,8,0,0,1,7-4.1,6.5,6.5,0,0,1,5.9,3.4L228,61.5h5.3Zm-12.2-8.5a5.4,5.4,0,0,0,1,3.5,3.5,3.5,0,0,0,2.6,1.3,4,4,0,0,0,2.7-1.1,7.4,7.4,0,0,0,2-3.3,12.4,12.4,0,0,0,.8-4.1,5.3,5.3,0,0,0-1.2-3.7,3.1,3.1,0,0,0-2.6-1.5c-1.6,0-2.9,1-3.9,2.8A14,14,0,0,0,215.4,82.1Z" fill="#0046b7"/><path d="M236.7,69.5H242l-4.1,21.1h-5.3Zm1.5-8h5.3l-1,5.2h-5.3Z" fill="#0046b7"/><path d="M244.4,73.8l.8-4.3h2.6l.7-3.4,6.1-3.9-1.5,7.3h3.3l-.8,4.3h-3.3l-1.7,8.8c-.3,1.6-.5,2.5-.5,2.8a1.3,1.3,0,0,0,.4,1,2.4,2.4,0,0,0,1.4.3h1.8l-.9,4.2a12.7,12.7,0,0,1-2.8.3,6.1,6.1,0,0,1-4.1-1.1,4.5,4.5,0,0,1-1.2-3.3,26.7,26.7,0,0,1,.7-4.4l1.6-8.5Z" fill="#0046b7"/><path d="M270.4,69.5h5l-.5,2.8a12.1,12.1,0,0,1,3.5-2.5,8.2,8.2,0,0,1,3.5-.8,5,5,0,0,1,3.8,1.5,5.7,5.7,0,0,1,1.4,4,28.4,28.4,0,0,1-.6,4.2l-2.4,11.9h-5.3l2.4-11.9c.3-1.8.5-2.9.5-3.2a2.4,2.4,0,0,0-.6-1.8,2.4,2.4,0,0,0-1.7-.6,4.7,4.7,0,0,0-2.6,1.1,7.3,7.3,0,0,0-2.2,2.7,27,27,0,0,0-1.3,5.1l-1.7,8.6h-5.3Z" fill="#0046b7"/><path d="M290.1,81.9c0-3.9,1-7.1,3.1-9.4a10.2,10.2,0,0,1,8.1-3.5,8.9,8.9,0,0,1,6.7,2.6,9.3,9.3,0,0,1,2.5,6.9,13.2,13.2,0,0,1-3.1,8.9,9.8,9.8,0,0,1-8.1,3.7,10.3,10.3,0,0,1-5-1.2,7.8,7.8,0,0,1-3.2-3.3A11,11,0,0,1,290.1,81.9Zm15.1-4.1a5,5,0,0,0-1.1-3.3,3.6,3.6,0,0,0-2.8-1.2,4.5,4.5,0,0,0-3.1,1.2,6,6,0,0,0-2,3.3,12.3,12.3,0,0,0-.8,4,5.2,5.2,0,0,0,1.2,3.6,3.4,3.4,0,0,0,2.8,1.3,4.3,4.3,0,0,0,3.7-2A11.3,11.3,0,0,0,305.2,77.8Z" fill="#0046b7"/><path d="M332.9,90.6h-5L327,77.2l-6,13.4h-4.9l-2.5-21.1h4.7l1.4,14.2,6.1-14.2h4.8l.7,14.2,6.1-14.2h5.3Z" fill="#0046b7"/><path d="M347.5,61.5h5.3L352,66c-.5,2.7-1.4,4.6-2.5,5.6a5.8,5.8,0,0,1-4.3,1.7l.5-2.6a4.2,4.2,0,0,0,2.1-1.1,8.1,8.1,0,0,0,1.1-2.6h-2.5Zm8.9,0h5.4l-.9,4.5c-.5,2.7-1.3,4.6-2.5,5.6a5.8,5.8,0,0,1-4.3,1.7l.5-2.6a4.2,4.2,0,0,0,2.1-1.1,6.3,6.3,0,0,0,1.1-2.6h-2.5Z" fill="#0046b7"/><path d="M130.5,112.3v-1.6h4.8v1.6Z" fill="#0046b7"/><path d="M142.3,116.2V103.3H148a5.9,5.9,0,0,1,2.6.4,2.9,2.9,0,0,1,1.5,1.2,4.1,4.1,0,0,1,.5,1.9,3.2,3.2,0,0,1-.9,2.3,3.8,3.8,0,0,1-2.7,1.2l1,.7a6.1,6.1,0,0,1,1.4,1.7l2.3,3.5h-2.2l-1.7-2.7-1.2-1.8a3.2,3.2,0,0,0-.9-.8,2,2,0,0,0-.8-.4H144v5.7ZM144,109h3.7l1.8-.2a2.7,2.7,0,0,0,1-.8,2.4,2.4,0,0,0,.3-1.2,2,2,0,0,0-.6-1.5,3.3,3.3,0,0,0-2.1-.6H144Z" fill="#0046b7"/><path d="M161.5,113.2l1.6.2a3.8,3.8,0,0,1-1.4,2.2,4,4,0,0,1-2.7.8,4.5,4.5,0,0,1-3.3-1.2,5.2,5.2,0,0,1-1.2-3.6,4.5,4.5,0,0,1,1.3-3.6,3.9,3.9,0,0,1,3.1-1.3,4.1,4.1,0,0,1,3.1,1.2,5.2,5.2,0,0,1,1.1,3.6v.4h-6.9a3.3,3.3,0,0,0,.8,2.4,3,3,0,0,0,2,.8,2.4,2.4,0,0,0,1.5-.4A3.6,3.6,0,0,0,161.5,113.2Zm-5.2-2.6h5.2a3.8,3.8,0,0,0-.6-1.7,2.5,2.5,0,0,0-2-.9,2.4,2.4,0,0,0-1.8.7A2.6,2.6,0,0,0,156.3,110.6Z" fill="#0046b7"/><path d="M171.2,115.1a6.2,6.2,0,0,1-1.7,1,5.2,5.2,0,0,1-1.8.3,3.2,3.2,0,0,1-2.3-.7,2.5,2.5,0,0,1-.9-2,1.9,1.9,0,0,1,.4-1.2,1.8,1.8,0,0,1,.8-.9l1.1-.5,1.4-.3a11.8,11.8,0,0,0,2.8-.5v-.4a1.8,1.8,0,0,0-.4-1.4,2.4,2.4,0,0,0-1.8-.5,2.4,2.4,0,0,0-1.6.4,1.7,1.7,0,0,0-.8,1.3l-1.6-.2a5.9,5.9,0,0,1,.7-1.6,2.8,2.8,0,0,1,1.4-.9,6.6,6.6,0,0,1,2.1-.3l2,.2a5.2,5.2,0,0,1,1.1.7,3.7,3.7,0,0,1,.5,1.1v3.6c0,1.5.1,2.4.1,2.8a4.9,4.9,0,0,0,.4,1.1h-1.6A2,2,0,0,1,171.2,115.1Zm-.2-3.6a6.5,6.5,0,0,1-2.5.6l-1.4.3c-.3.2-.5.3-.6.5a1.3,1.3,0,0,0-.3.8,1.6,1.6,0,0,0,.5,1.1,2.6,2.6,0,0,0,1.4.4,3.8,3.8,0,0,0,1.6-.4,2.9,2.9,0,0,0,1.1-1.1,3.7,3.7,0,0,0,.2-1.6Z" fill="#0046b7"/><path d="M175.1,116.2V103.3h1.5v12.9Z" fill="#0046b7"/><path d="M184.3,116.2V103.3h9.3v1.5H186v4h7.2v1.5H186v4.4h7.9v1.5Z" fill="#0046b7"/><path d="M195.5,113.4l1.5-.2a2.2,2.2,0,0,0,.8,1.4,2.5,2.5,0,0,0,1.6.5,2.7,2.7,0,0,0,1.7-.4,1.6,1.6,0,0,0,.5-1.1,1,1,0,0,0-.5-.8,5.8,5.8,0,0,0-1.6-.6,8.9,8.9,0,0,1-2.4-.7,1.8,1.8,0,0,1-1-.9,2.2,2.2,0,0,1-.1-2.4,2.4,2.4,0,0,1,.8-.9,4.6,4.6,0,0,1,1-.5h1.4a5.8,5.8,0,0,1,1.9.3,2.8,2.8,0,0,1,1.2.8,3.4,3.4,0,0,1,.6,1.5l-1.6.2a1.7,1.7,0,0,0-.6-1.1,2,2,0,0,0-1.4-.4,3.2,3.2,0,0,0-1.6.3,1.1,1.1,0,0,0-.4.9c0,.2,0,.4.2.5a.9.9,0,0,0,.6.4l1.4.4,2.3.8a2,2,0,0,1,1,.8,2.1,2.1,0,0,1,.4,1.4,2.8,2.8,0,0,1-.4,1.5,3.6,3.6,0,0,1-1.4,1,4.1,4.1,0,0,1-1.9.4,4.3,4.3,0,0,1-2.8-.7A3.1,3.1,0,0,1,195.5,113.4Z" fill="#0046b7"/><path d="M208.6,114.8l.2,1.4h-1.2l-1.3-.2a1.3,1.3,0,0,1-.7-.8,6.2,6.2,0,0,1-.2-1.8v-5.4h-1.2v-1.2h1.2v-2.3l1.6-1v3.3h1.6v1.2H207v6.3q.1.3.3.3a.8.8,0,0,0,.6.2Z" fill="#0046b7"/><path d="M216.2,115.1a6.2,6.2,0,0,1-1.7,1,4.7,4.7,0,0,1-1.7.3,3.3,3.3,0,0,1-2.4-.7,2.4,2.4,0,0,1-.8-2,2.7,2.7,0,0,1,.3-1.2,2.4,2.4,0,0,1,.8-.9l1.1-.5,1.4-.3a12.9,12.9,0,0,0,2.9-.5v-.4a1.8,1.8,0,0,0-.5-1.4,2.4,2.4,0,0,0-1.8-.5,2.4,2.4,0,0,0-1.6.4c-.4.2-.6.7-.8,1.3l-1.6-.2a5.9,5.9,0,0,1,.7-1.6,3.4,3.4,0,0,1,1.4-.9,6.6,6.6,0,0,1,2.1-.3l2,.2a3.5,3.5,0,0,1,1.1.7,3.7,3.7,0,0,1,.5,1.1c0,.3.1.8.1,1.5v2.1a17.2,17.2,0,0,0,.1,2.8,2.5,2.5,0,0,0,.4,1.1h-1.7A2,2,0,0,1,216.2,115.1Zm-.1-3.6a7.7,7.7,0,0,1-2.6.6l-1.4.3c-.3.2-.5.3-.6.5a1.2,1.2,0,0,0-.2.8,1.5,1.5,0,0,0,.4,1.1,2.6,2.6,0,0,0,1.4.4,4.7,4.7,0,0,0,1.7-.4,3.5,3.5,0,0,0,1-1.1,3.5,3.5,0,0,0,.3-1.6Z" fill="#0046b7"/><path d="M223.6,114.8l.2,1.4h-1.2l-1.3-.2a1.3,1.3,0,0,1-.7-.8,6.2,6.2,0,0,1-.2-1.8v-5.4h-1.2v-1.2h1.2v-2.3l1.6-1v3.3h1.6v1.2H222v5.5c0,.4,0,.7.1.8s.1.3.2.3a1.1,1.1,0,0,0,.6.2Z" fill="#0046b7"/><path d="M231.5,113.2l1.6.2a3.4,3.4,0,0,1-1.4,2.2,4,4,0,0,1-2.7.8,4.4,4.4,0,0,1-3.2-1.2,5.2,5.2,0,0,1-1.2-3.6,4.9,4.9,0,0,1,1.2-3.6,4,4,0,0,1,3.1-1.3,4.1,4.1,0,0,1,3.1,1.2,5.2,5.2,0,0,1,1.2,3.6v.4h-7a3.8,3.8,0,0,0,.9,2.4,2.7,2.7,0,0,0,1.9.8,2.4,2.4,0,0,0,1.5-.4A2.8,2.8,0,0,0,231.5,113.2Zm-5.2-2.6h5.2a3.8,3.8,0,0,0-.6-1.7,2.3,2.3,0,0,0-1.9-.9,2.5,2.5,0,0,0-1.9.7A3,3,0,0,0,226.3,110.6Z" fill="#0046b7"/><path d="M240.3,116.2V103.3h6.8a3.4,3.4,0,0,1,1.6.6,3.5,3.5,0,0,1,1.1,1.3,4.7,4.7,0,0,1,.4,1.7,3.9,3.9,0,0,1-1.1,2.8c-.7.8-1.9,1.2-3.8,1.2H242v5.2Zm1.7-6.8h3.4a3.5,3.5,0,0,0,2.3-.6,2.1,2.1,0,0,0,.7-1.7,2.3,2.3,0,0,0-.4-1.4,1.6,1.6,0,0,0-1.1-.7l-1.6-.2H242Z" fill="#0046b7"/><path d="M252.1,116.2v-9.3h1.4v1.4a3.8,3.8,0,0,1,1-1.3,2,2,0,0,1,1.1-.3,2.7,2.7,0,0,1,1.6.5l-.6,1.4a2,2,0,0,0-1.1-.3,1.7,1.7,0,0,0-1,.3,1.9,1.9,0,0,0-.5.9,4.8,4.8,0,0,0-.3,1.8v4.9Z" fill="#0046b7"/><path d="M257.5,111.5a4.6,4.6,0,0,1,1.5-3.8,4.3,4.3,0,0,1,2.9-1,4.5,4.5,0,0,1,3.2,1.2,5,5,0,0,1,1.2,3.5,5.3,5.3,0,0,1-.6,2.8,2.9,2.9,0,0,1-1.5,1.6,4.6,4.6,0,0,1-2.3.6,4.4,4.4,0,0,1-3.2-1.2A5.3,5.3,0,0,1,257.5,111.5Zm1.7,0a4.1,4.1,0,0,0,.7,2.7,2.7,2.7,0,0,0,4,0,4.1,4.1,0,0,0,.8-2.7,3.8,3.8,0,0,0-.8-2.6,2.7,2.7,0,0,0-4,0A3.7,3.7,0,0,0,259.2,111.5Z" fill="#0046b7"/><path d="M268.5,116.2v-8.1h-1.4v-1.2h1.4v-1a4.6,4.6,0,0,1,.2-1.4,1.6,1.6,0,0,1,.8-1,2.5,2.5,0,0,1,1.6-.4l1.5.2-.3,1.3h-.9a1.3,1.3,0,0,0-1,.3,1.4,1.4,0,0,0-.3,1.1v.9h1.8v1.2h-1.8v8.1Z" fill="#0046b7"/><path d="M279.5,113.2l1.7.2a4,4,0,0,1-1.5,2.2,3.8,3.8,0,0,1-2.6.8,4.5,4.5,0,0,1-3.3-1.2,5.2,5.2,0,0,1-1.2-3.6,4.9,4.9,0,0,1,1.2-3.6,4.5,4.5,0,0,1,6.2-.1,5.2,5.2,0,0,1,1.2,3.6v.4h-7a3.8,3.8,0,0,0,.9,2.4,2.8,2.8,0,0,0,2,.8,2.3,2.3,0,0,0,1.4-.4A2.4,2.4,0,0,0,279.5,113.2Zm-5.2-2.6h5.2a2.4,2.4,0,0,0-.6-1.7,2.3,2.3,0,0,0-1.9-.9,2.3,2.3,0,0,0-1.8.7A3.1,3.1,0,0,0,274.3,110.6Z" fill="#0046b7"/><path d="M282.5,113.4l1.6-.2a2.1,2.1,0,0,0,.7,1.4,2.9,2.9,0,0,0,1.7.5,2.4,2.4,0,0,0,1.6-.4,1.3,1.3,0,0,0,.5-1.1.9.9,0,0,0-.4-.8,7.8,7.8,0,0,0-1.6-.6,11.5,11.5,0,0,1-2.5-.7,2.8,2.8,0,0,1-1-.9,2.8,2.8,0,0,1-.3-1.3,2,2,0,0,1,.3-1.1,2.2,2.2,0,0,1,.7-.9l1-.5h1.4a5.4,5.4,0,0,1,1.9.3,3.2,3.2,0,0,1,1.3.8,5.3,5.3,0,0,1,.5,1.5l-1.5.2a1.7,1.7,0,0,0-.6-1.1,2.4,2.4,0,0,0-1.5-.4,2.8,2.8,0,0,0-1.5.3c-.3.3-.5.5-.5.9a.8.8,0,0,0,.2.5.9.9,0,0,0,.6.4l1.4.4,2.3.8a2.3,2.3,0,0,1,1.1.8,2.9,2.9,0,0,1,.4,1.4,3,3,0,0,1-.5,1.5,2.7,2.7,0,0,1-1.3,1,4.5,4.5,0,0,1-2,.4,4.7,4.7,0,0,1-2.8-.7A3.9,3.9,0,0,1,282.5,113.4Z" fill="#0046b7"/><path d="M291.5,113.4l1.6-.2a2.1,2.1,0,0,0,.7,1.4,2.9,2.9,0,0,0,1.7.5,2.4,2.4,0,0,0,1.6-.4,1.3,1.3,0,0,0,.5-1.1.9.9,0,0,0-.4-.8,7.8,7.8,0,0,0-1.6-.6,11.5,11.5,0,0,1-2.5-.7,2.8,2.8,0,0,1-1-.9,2.8,2.8,0,0,1-.3-1.3,2,2,0,0,1,.3-1.1,2.2,2.2,0,0,1,.7-.9l1-.5h1.4a5.4,5.4,0,0,1,1.9.3,3.2,3.2,0,0,1,1.3.8,5.3,5.3,0,0,1,.5,1.5l-1.5.2a1.7,1.7,0,0,0-.6-1.1,2.4,2.4,0,0,0-1.5-.4,2.8,2.8,0,0,0-1.5.3c-.3.3-.5.5-.5.9a.8.8,0,0,0,.2.5.9.9,0,0,0,.6.4l1.4.4,2.3.8a2.3,2.3,0,0,1,1.1.8,2.9,2.9,0,0,1,.4,1.4,3,3,0,0,1-.5,1.5,2.7,2.7,0,0,1-1.3,1,4.5,4.5,0,0,1-2,.4,4.7,4.7,0,0,1-2.8-.7A3.9,3.9,0,0,1,291.5,113.4Z" fill="#0046b7"/><path d="M301.2,105.1v-1.8h1.5v1.8Zm0,11.1v-9.3h1.5v9.3Z" fill="#0046b7"/><path d="M304.6,111.5a4.6,4.6,0,0,1,1.4-3.8,4.3,4.3,0,0,1,2.9-1,4.4,4.4,0,0,1,3.2,1.2,5,5,0,0,1,1.2,3.5,6.7,6.7,0,0,1-.5,2.8,3.5,3.5,0,0,1-1.6,1.6,4.6,4.6,0,0,1-2.3.6,4.1,4.1,0,0,1-3.1-1.2A5.3,5.3,0,0,1,304.6,111.5Zm1.6,0a3.6,3.6,0,0,0,.8,2.7,2.3,2.3,0,0,0,1.9.9,2.5,2.5,0,0,0,2-.9,4.1,4.1,0,0,0,.8-2.7,3.8,3.8,0,0,0-.8-2.6,2.5,2.5,0,0,0-2-.9,2.3,2.3,0,0,0-1.9.9A3.3,3.3,0,0,0,306.2,111.5Z" fill="#0046b7"/><path d="M315.2,116.2v-9.3h1.4v1.3a3.4,3.4,0,0,1,2.9-1.5,4.1,4.1,0,0,1,1.6.3,2.3,2.3,0,0,1,1.1.8,3.7,3.7,0,0,1,.5,1.1v7.3h-1.5v-5.7a4.6,4.6,0,0,0-.2-1.4,1.8,1.8,0,0,0-.7-.8,2,2,0,0,0-1.1-.3,2.2,2.2,0,0,0-1.7.7,3,3,0,0,0-.8,2.4v5.1Z" fill="#0046b7"/><path d="M331.3,115.1a6.2,6.2,0,0,1-1.7,1l-1.8.3a3.2,3.2,0,0,1-2.3-.7,2.5,2.5,0,0,1-.9-2,2.7,2.7,0,0,1,.3-1.2,2,2,0,0,1,.9-.9l1.1-.5,1.4-.3a11.8,11.8,0,0,0,2.8-.5v-.4a1.8,1.8,0,0,0-.4-1.4,2.4,2.4,0,0,0-1.8-.5,2.7,2.7,0,0,0-1.7.4,2.6,2.6,0,0,0-.8,1.3l-1.5-.2a3.9,3.9,0,0,1,.7-1.6,2.8,2.8,0,0,1,1.4-.9,6.6,6.6,0,0,1,2.1-.3l2,.2a5.2,5.2,0,0,1,1.1.7,2.1,2.1,0,0,1,.4,1.1,5.8,5.8,0,0,1,.1,1.5v2.1c0,1.5.1,2.4.1,2.8a4.9,4.9,0,0,0,.4,1.1h-1.6A2,2,0,0,1,331.3,115.1Zm-.2-3.6a6.6,6.6,0,0,1-2.6.6l-1.3.3-.7.5a2.4,2.4,0,0,0-.2.8,1.6,1.6,0,0,0,.5,1.1,2.6,2.6,0,0,0,1.4.4,4.2,4.2,0,0,0,1.6-.4,3.8,3.8,0,0,0,1.1-1.1,6.3,6.3,0,0,0,.2-1.6Z" fill="#0046b7"/><path d="M335.1,116.2V103.3h1.6v12.9Z" fill="#0046b7"/><path d="M203.5,297l-.8-.2c-29.8-12.3-49.5-31.4-58.4-56.6-17.5-49.9,13.6-107.6,14-108.2a2,2,0,0,1,2.7-.8,2.1,2.1,0,0,1,.8,2.7c-.3.6-30.7,56.8-13.7,105,8.5,24.1,27.4,42.3,56.2,54.2a2.1,2.1,0,0,1,1.1,2.6A2.2,2.2,0,0,1,203.5,297Z" fill="#fbb03b"/><path d="M319,136H66A66.1,66.1,0,0,1,0,70V66A66.1,66.1,0,0,1,66,0H319a66.1,66.1,0,0,1,66,66v4A66.1,66.1,0,0,1,319,136ZM66,4A62.1,62.1,0,0,0,4,66v4a62.1,62.1,0,0,0,62,62H319a62.1,62.1,0,0,0,62-62V66A62.1,62.1,0,0,0,319,4Z" fill="#fbb03b"/></svg>