<svg id="stroke" xmlns="http://www.w3.org/2000/svg" viewBox="0 0 1771 922.2"><title>resume final</title><path d="M1606,916H1143a1,1,0,0,1,0-2h463a1,1,0,0,1,0,2Z" fill="#dd8237"/><path d="M1414.4,526.1c0,.5,3.8,13,3.8,13l95-6.6-.8-14.7Z" fill-rule="evenodd"/><polygon points="1456.7 522.6 1456.9 536.4 1474.4 535 1474.2 520.9 1456.7 522.6" fill="red" fill-rule="evenodd"/><path d="M1415.6,539.6l7.4-1.1V525.2l5.5-.2v13.2l9.1-.8-.3-13s5.5-1.2,5.5-.8.2,13.6.2,13.6l40.8-2.6-.9-14.2,5.6-.4.7,14.4,9.5-.8-1.1-14.6,5.6-.4s1.4,14.1,1.2,14.4,8.7-.5,8.7-.5,1.7,21.7,2.6,31.3,11.7,79.9,11.7,79.9l7.1,54.7s6.6,59.2,6.8,64.7,4,52,3.9,53.8,5.5,90.7,5.5,90.7-18.2,4.9-26.6,5.4-21.7-.2-21.7-.2l-7.3-108.4s-3.8-53.4-6.8-69.4-12.4-82.9-12.4-82.9l-9.8-47.5-5.1,147.2-3.6,124.7-1,31.4-47.2-4.3.5-159.1.9-139.1-.6-39.5S1413.1,539.6,1415.6,539.6Z" fill="#0648b3" fill-rule="evenodd"/><path d="M1470.8,563a.7.7,0,0,1-.7-.7c-.2-9.6-.5-25.9-.2-26.8a.7.7,0,0,1,1.3.5c-.1,1.1.1,16.3.3,26.3a.7.7,0,0,1-.7.7Z"/><path d="M1467.4,552.7a8.6,8.6,0,0,1-4.3-1.1c-3.2-2.1-2.2-12.7-1.9-14.8a.6.6,0,0,1,.8-.6c.3,0,.6.4.6.7-.5,4.6-.6,12.3,1.3,13.5s6.4.4,6.4.4a.7.7,0,0,1,.9.5.8.8,0,0,1-.4.9A13.8,13.8,0,0,1,1467.4,552.7Z"/><path d="M1418.2,905h0a.7.7,0,0,1-.7-.7l4.6-365.7a.7.7,0,0,1,.7-.6h.1a.7.7,0,0,1,.7.6L1419,904.4A.8.8,0,0,1,1418.2,905Z"/><path d="M1542.4,906.4a.8.8,0,0,1-.7-.5v-.3c-.1-3.5-7.2-121.1-9-141s-19.3-158.8-19.5-160.2l-9.4-71.3a.9.9,0,0,1,.6-.8.6.6,0,0,1,.8.6l9.4,71.4c.2,1.4,17.7,139.8,19.5,160.2,1.2,12.4,4.1,58.9,5.3,78.3,1,15.5,1.9,31.4,2.6,43.7.4,5.8.7,10.6.8,14a34.6,34.6,0,0,1,.2,5h0c0,.8-.2.9-.5.9Z"/><path d="M1398.8,543.7c0,.4,2.2,13.3,2.2,18.2s.4,16.1.4,17.1.6,3.6,2.1,2.1.7,2.2,2.4,1.9,1.8-3.2,1.8-3.2.6,1.7,2,1.2,1.4-4,1.4-4,2.2,2,2.6-1.4c.1-1.5.2-21,.2-21s-.7-3.8.5-4.2,2.9,1,3.1,3.1-.2,4.7,1.6,4.5,3.1-6.7,1.4-9.9-1.1-11.8-2.1-13.1a47.1,47.1,0,0,1-2.5-4.8S1398.8,542.3,1398.8,543.7Z" fill="#ffbe9c" fill-rule="evenodd"/><path d="M1564.4,452.7c-2.5-11.6-9.7-33.8-12.1-39.8s-10.8-24.5-14.4-30.1-10.9-16-16.9-20.9-15.4-8.6-22.3-10.1-8.3-1.5-8.3-1.5-64,3-64,3.2-10.2,3.5-14.9,4.9-16.8,4.5-23.2,15.7-16.6,29-21,46.5a372.1,372.1,0,0,0-7.6,37.6c-1.4,8.6-2.7,17.8-2.7,21.7s-1,4.9,3.4,11.5,22.3,32,22.3,32l14.3,20s12.8,1.4,22.3-18.1c0,0,29.8-2.5,36.9-2.9s43.4-3.8,43.4-3.8l12.8-.8,4-36.6s19,5.4,26.2,5.7,20.2.3,22.2-4.9S1566.9,464.2,1564.4,452.7Zm-172.8,12.7s11.7-30.9,12.3-31.2l8.1,75.5ZM1520,449.5l2-13.9s10.2,14.3,12,16.4S1520,449.5,1520,449.5Z" fill="#fff" fill-rule="evenodd"/><path d="M1490.6,465.3c.5.2-.7,7.5-3.4,6.1a7.4,7.4,0,0,1-3.7-4S1490.3,465.1,1490.6,465.3Z" fill="#ccc" fill-rule="evenodd"/><path d="M1491.5,446.1c-.6,0-11.4-3-11.4-3v5.6Z" fill="#c48362" fill-rule="evenodd"/><path d="M1439.1,342.9s-12,9.9-13.4,10.9,12.2,10.8,12.2,11,21.5-6.8,21.8-6.6,23.8,4.7,23.9,4.4,8.4-12.2,8.2-12.2-12.1-7.7-16-10.7S1439.7,341.6,1439.1,342.9Z" fill="red" fill-rule="evenodd"/><path d="M1420.2,279.5c-.1-.4-1.6-17.3-1.6-17.3s-4.5-10.5-3.8-14.7,6.1-14.6,16.1-17.8,29.9-5.8,38.1-1.8,15.7,11.5,16.9,18.2,1.3,27.5,1.3,27.8-1.1,19.8-1.4,20.2-1.1,8.4-3.9,11.6-6.5,6.9-7.9,7.6-33.3,2.1-33.3,2.1-7.9-3.9-10.5-7.7a79.2,79.2,0,0,1-7.1-15.1C1422.5,290.1,1420.2,279.5,1420.2,279.5Z" fill="#4d4d4d" fill-rule="evenodd"/><path d="M1424.9,279.9c-.3,0-6.1-2-6.4,1.1s1.5,8.8,3.4,10.7,7.5,8.1,7.5,8.1,5.3,9.9,7.9,12.7l5.8,6.4s.6,7.6-.6,12.5-2.8,10.9-4.1,12.2a82.6,82.6,0,0,0,20.6,2.3c11.9-.3,17.6-5.7,17.6-5.7s-3.8-6.8-4.9-10.5-1.5-10.8-1.5-10.8,7.4-8.1,9.7-13.7,5.2-11.4,5.2-11.4,4.1-7.2,4.4-10.2.4-7.5-.8-8.9-4.1-1.3-5-.5-5.9-13.6-5.9-13.6-16.6,5.4-25.9,6.6-26.5.5-26.5.5Z" fill="#ffbe9c" fill-rule="evenodd"/><path d="M1245.6,914.8l-.5,6.3s-34,1.6-40.5.7-12.7-2.2-14.5-5.2.4-6.2,3.3-8S1245.6,914.8,1245.6,914.8Z" fill="#ffa14d" fill-rule="evenodd"/><path d="M1345.5,860.9c-2.1-.5-143.1-.8-171.2-.9l-3.3-.2c-14.8,0-26.8,10.5-26.8,23.3s11.5,22.8,25.8,23.3l73.3,10.6.7,3.9,16.1-2.1,10.8,1.4,53.3-9.1,20.6-3.6h.7c14.8,0,26.8-10.5,26.8-23.3S1360.3,860.9,1345.5,860.9Z" fill="#4d4d4d" fill-rule="evenodd"/><path d="M1270.9,920.2l4.9-20.3s22,1.9,32.5,4.7,19.5,5.8,18.2,11.1-18.4,6.6-22.5,6.5Z" fill="#ffa14d" fill-rule="evenodd"/><path d="M1350.2,842.1s-8.1-32.3-18.2-48.2-14.5-23.3-23.3-30.4-19.2-19.1-31.8-20.6-39.2.8-39.2.8a36,36,0,0,0-13.6,7.4c-6.5,5.7-25.3,16.4-35.8,37.7s-17,39.1-18.2,48.4-1.3,22.6,13.4,23,149.9.4,149.9.4S1351.8,859.5,1350.2,842.1Zm-135.7-7.7-7.6-.2s7.6-17,7.8-17.6Zm90,.1s-.2-17.9,0-18.4l8.3,18.3Z" fill="red" fill-rule="evenodd"/><path d="M1237.2,832.9a29.7,29.7,0,0,1,6.9-.2c2.9.3,25-.3,25-.3s7.5,1.5,10.1,3.4-9.5,1.1-9.7,1-26.5.4-26.7.4S1236.1,834.1,1237.2,832.9Z" fill="#d98460" fill-rule="evenodd"/><path d="M1224.8,690.4c0,.3,1.3,13.8,11.6,17.2s.5-9.8.3-9.8S1224.8,689,1224.8,690.4Z" fill="#733737" fill-rule="evenodd"/><path d="M1274,706.9c.2-.1,10.1-3.8,9.7-17.2s-5.4-2-5.4-2Z" fill="#733737" fill-rule="evenodd"/><path d="M1221.2,677.6s-2.4,2.1-.6,6.7a20.4,20.4,0,0,0,5.3,7.4c.2.3,2.9,3.6,4.3,5.7s5,8.8,6.7,10.8l6.1,7.1s.3,10.2-.2,14.6a24.7,24.7,0,0,1-3,10,36.3,36.3,0,0,1-3.2,4.1c-.2.1-1.7,6,10.5,7.2s19.8.4,23.7-1.3,7.8-4.7,8.3-5.5.7-.8-.8-1.8-6.1-6.7-8.1-11a44.4,44.4,0,0,1-3.6-14.5s6.2-6.6,8.8-11.1a53.7,53.7,0,0,0,4.3-9.3c.6-1.3,3.9-5.4,4.5-6.7s2.5-6.3,2.4-9.5.1-4.1-1.1-5.7-5.8-17.8-5.9-17.7l-24.1,2.7-22.5,1.4c.1-.1-8.2,4.5-8.3,4.9S1221.2,677.6,1221.2,677.6Z" fill="#ffbe9c" fill-rule="evenodd"/><path d="M1220.6,678.5s2.9-3.9,5.7.5l1.1-12.4s15.3,0,26.3.3c16.7.4,24.4-6.3,24.4-6.3s3.5,13.3,3.4,13.4,3.7-.9,4.7,2c0,0,5.2-8.7,3.5-16.9a76,76,0,0,0-7.1-19.4c-1.6-2.5-4.7-6.9-7.3-9s-18.7-7.4-26.1-8-15.1,1.8-19.4,6.2-12.6,29.4-12.7,29.8S1212.6,670,1220.6,678.5Z" fill="#733737" fill-rule="evenodd"/><path d="M385,916H40a1,1,0,0,1,0-2H385a1,1,0,0,1,0,2Z" fill="#dd8237"/><path d="M161.7,832.5c0,1.9-18.4,3.5-41.1,3.5s-41.2-1.6-41.2-3.5,18.5-3.6,41.2-3.6S161.7,830.5,161.7,832.5Z" fill="#472951" fill-rule="evenodd"/><path d="M368.5,798.1c.7-.3,5.2-4.7,10.2-5.4s15.4.7,15.4.7l1.5,19.2-2.8.5s3.3,15.5,2.7,45.8c0,2.5-3.5,6.7-5.5,1.3a35.5,35.5,0,0,1-1.7-6.5Z" fill="#5e386d" fill-rule="evenodd"/><path d="M269.8,890.5c.2.7,4.5,5.2,5.2,10.2s-.9,15.4-.9,15.4l-19,1.3-.5-2.9s-15.4,3.1-45.4,2.2c-2.5-.1-6.5-3.6-1.2-5.5a47.6,47.6,0,0,1,6.5-1.7Z" fill="#5e386d" fill-rule="evenodd"/><path d="M305.5,662.5l-24.7,66.4L274.3,743s-7.8,16.6,6.7,23.5L254.2,881.2s.2,9.1-7.6,13.9-32.4,14.5-32.4,14.5,44.3,2.9,54.9-13.7c3.1-4.8,45.3-108.6,45.3-108.6L364.1,815s8,6.1,11.3,13,12.3,24,12.3,24,4.4-34.9-13.2-53c-2.3-2.4-4.5-2.2-4.5-2.2s-18.8-23.1-28.6-31.6-20.8-17.3-20.8-17.3l-1-3.6,40.6-73.2Z" fill="#ffbe9c" fill-rule="evenodd"/><path d="M317.6,519.9c-.2.6-4.1,39.1-5.2,52.1s-5,63.8-5.2,65.1-2.1,26.7-2.1,26.7l54.3,9.7s22.3-40.5,27.5-73.6,8.4-36.5,6.9-47.6-8.5-46.7-14.5-53-61.5,19.9-61.5,19.9" fill="#ff4f4f" fill-rule="evenodd"/><path d="M256.9,432.4c-.3-.1-10.3,8.3-10.7,8.5s-3.7,10.5-3.8,10.8-1.7,5.9.9,5.7,9.3-6.5,9.4-6.8,6.1-12.4,5.9-12.7S259.9,433.7,256.9,432.4Z" fill="#cf6522" fill-rule="evenodd"/><path d="M234.4,410.5l-8-8.5c-1.5-1.4-2.4-1.2-3.8-.2L208.9,414c-1.4,1.2-1.9,3.3-.5,4.4l11.9,10.7,1.3,2.7,5.4,3.8,16.9,8.7,9.3-9.4,3.3-4.5Z" fill="#030a26" fill-rule="evenodd"/><path d="M225.6,405.6c-.3.4-9.1,8.7-9.9,9.4s-2.2,1.9-.5,3.3l11.6,10.5,17.5,10.3,6.9-8.3s1.3-1.4.3-2.4l-23-22.7C227.3,404.8,226.7,404.6,225.6,405.6Z" fill="#fff1e9" fill-rule="evenodd"/><path d="M247,455.1s-15.1-9.3-17.3-11.1-5.1-4.6-5.2-5.4a3.6,3.6,0,0,1,.4-2.4c.6-1,1.2-2.1.9-2.5s-.9-1.1-1.3-1-5.2.3-6.8-.8-2.5-2-2.5-3.3.8-3.6.9-3.3,3.3,3,3.3,3l10.3-1.5,4.5-.7s1.5-3.9,3.7-4a3.8,3.8,0,0,1,4.2,3.1,12.2,12.2,0,0,1,.4,3.4,70.6,70.6,0,0,0,5.6,7.6c1.9,1.8,7.2,4.3,8.1,5C260.4,444.5,250.4,457,247,455.1Z" fill="#ffbe9c" fill-rule="evenodd"/><path d="M261.5,427.9c-.2-.2-9.9-8-10.9-9.1s-17-9.1-17-9.1l10.9,11s-2.6,1.3-1.7,2.2,6.7,2.4,6.7,2.4,5.9,5.8,5.9,6.2-4.7,5.8-4.7,5.8l6.3-3.1,4.2.7S262.7,429.4,261.5,427.9Z" fill="#ffbe9c" fill-rule="evenodd"/><path d="M258.1,271.7a32.5,32.5,0,0,0,.6,10.7,112.5,112.5,0,0,0,3.6,14.1c.8,2.6,1.9,4,2.2,5.8s-.6,11.3-.3,12.2,5.8-2.6,6.1-2.3,7.2,9.3,10.3,13.8,5.3,7.1,6,7.2,8.8-4.5,9.9-4.3,5.3,8.2,7.3,12.4,2.7,24.4.4,28.9,22.3-22.6,22.3-22.6l12.9-6.4s-9.6-7.5-14.5-15-6.2-11.8-6.2-11.8l4.6-10.3,6.1-18.6s-6-14.4-6.2-14.5S257.8,263.1,258.1,271.7Z" fill="#ffbe9c" fill-rule="evenodd"/><path d="M333.5,249.2c-1.3-3.4-7.6-10.7-13.1-14s-11.8-2.1-16-.3a24.1,24.1,0,0,0-6.4,4.2h-.3c-13,.4-15.5,2.2-22.2,5.6-19.8,9.8-18.7,27.7-18.7,27.7,4.4,8.2,13.1,11.8,29.6,13.5s26.7-5.1,29.4-7.1a6.3,6.3,0,0,1,5.7-.8c4.6,2.1,4.6,11.6,3.2,16.2a21.6,21.6,0,0,1-3.5,6.8l-3.4,10.1.8,3.4c14.7-8.4,20.4-30,12.7-48.8C337.8,260,334.7,252.6,333.5,249.2Z" fill="#922a39" fill-rule="evenodd"/><path d="M303.4,272.9A62,62,0,0,1,265.8,260a.7.7,0,0,1-.1-1,.8.8,0,0,1,1-.1c.2.2,22.1,18.7,52.1,10.5a.7.7,0,0,1,.9.5.6.6,0,0,1-.5.8A57.2,57.2,0,0,1,303.4,272.9Z" fill="#661a1a"/><path d="M297.8,239.1c.2,0,23.7,1.4,33.4,26.4,0,0,3.1-3.6,3.5-4.9s-11.5-22.1-35.7-22.1Z" fill="#5e1821" fill-rule="evenodd"/><path d="M334,287.5c-1.4.6-7.2,5.8-9.2,6.8,0,0-1.2,3.1-1.7,4s-2,2.7-2,2.8-3.3,10-3.3,10l.9,3.3s7.9-5.1,11.5-12.1a47.2,47.2,0,0,0,4.3-14.9S334.8,287.2,334,287.5Z" fill="#5e1821" fill-rule="evenodd"/><path d="M268.7,294.6a42.3,42.3,0,0,1,7.4-4.2c3.3-1.5,6.7-2.6,6.2-2.9s-2.9,0-5.7.7a30.5,30.5,0,0,0-9.4,4.3C266.7,292.8,265.2,295.5,268.7,294.6Z" fill="#922a39" fill-rule="evenodd"/><path d="M272.6,297.5s6.1-3,6.5-3-2.5,3-2.8,3.2,1,1.5,1.7,2.1a1.4,1.4,0,0,1,0,2.1l-1,.8c-.6.4-1.3.7-2.6-.7S270.4,299.3,272.6,297.5Z" fill="#922a39" fill-rule="evenodd"/><g opacity="0.5"><path d="M320.2,295.6h-.1c-2-.4-3.3-1.3-3.7-2.5s.9-3.6,1.2-3.9a.5.5,0,1,1,.7.7c-.2.2-1.3,1.7-.9,2.9s1.3,1.5,2.9,1.8.5.3.4.6A.5.5,0,0,1,320.2,295.6Z" fill="#661a1a"/></g><g opacity="0.5"><path d="M321.2,287.5h-.1a.4.4,0,0,1-.3-.6c.1-.3.5-2.1-.3-3.1s-1.8-.8-3.4-.5a.4.4,0,0,1-.6-.4.4.4,0,0,1,.3-.5c2.1-.5,3.6-.2,4.4.8a4.3,4.3,0,0,1,.5,4A.5.5,0,0,1,321.2,287.5Z" fill="#661a1a"/></g><path d="M275.6,319.2c.2-.1,5.7-4.7,7.1-4.6s1.8,3.6,0,5.9a8.5,8.5,0,0,1-3.8,3.1Z" fill="#fff" fill-rule="evenodd"/><g opacity="0.2"><path d="M296.3,328.9c-.9.1,12.5-6.8,12.3-6.4s-3.8,3.9-4.4,4.6l-5.3,4.9S297.1,328.8,296.3,328.9Z" fill="#922a39" fill-rule="evenodd"/></g><path d="M290.3,429.5a58.7,58.7,0,0,1,.9-22.1c2.9-13.4,9.9-37.7,21.6-49.9s12.4-13.7,21.5-16.6c0,0,5.9-3.2,14.8,10.4s14.8,33.8,16.7,47.6,4,33.4,3.7,43.3-.4,21.2,0,25.4,3.9,18.2,6.4,22.9,9.2,14.9-1.1,19.7-27,7-30.4,7.8-26.9,2.9-26.9,2.9l-.8-17.8s-14.3-4.7-22.5-9.3-28-19.3-31.7-21.8-19.7-14.7-19.7-14.7,5.3-2.7,10.3-10.1c2.6-3.9,3.9-13,3.9-13l2.9.4.9-6.9Z" fill="#0046b7" fill-rule="evenodd"/><path d="M355.1,386c-.3,0-.7-.5-.7-.9s-.5-11.3-9.6-16.6-18.9,3.8-19,3.9a.7.7,0,0,1-1-.1c-.3-.2-.2-.7,0-1s10.7-9.9,20.7-4.2,10.3,17.5,10.3,17.9-.2,1-.6,1Z" fill="#1b1464"/><path d="M308.4,457.8h-.1a.8.8,0,0,1-.6-.9c4-23.8,8.8-52.3,9.2-52.9a.6.6,0,0,1,.9-.3.7.7,0,0,1,.3.9c-.4,1.5-5.6,32.2-9,52.6A.9.9,0,0,1,308.4,457.8Z" fill="#1b1464"/><path d="M313.9,424a.6.6,0,0,1-.6-.4l-3.7-9.1a.7.7,0,0,1,.5-.9c.3-.2.7,0,.9.4h0c.1.3,2.2,5.6,3.6,9a.7.7,0,0,1-.4,1Z" fill="#1b1464"/><path d="M318.1,464.5a.6.6,0,0,1-.5-.2c-1.5-1.7-11.1-6.7-16.7-9.6s-5.2-2.7-5.4-3.1a.7.7,0,0,1,.5-.9.7.7,0,0,1,.7.2l4.8,2.5c7.8,4.1,15.6,8.2,17.2,10a.8.8,0,0,1-.1,1Z" fill="#1b1464"/><path d="M316.7,503.8a.9.9,0,0,1-.8-.6.8.8,0,0,1,.7-.8c.2,0,14.3-1,21.7-14.2,8.6-15.5,17-54.4,15.7-87.5a.7.7,0,0,1,.7-.7c.4-.1.7.3.7.7,1.3,33.3-7.2,72.5-15.9,88.1-7.7,13.9-22.6,15-22.8,15Z" fill="#1b1464"/><path d="M250.7,463.3a.6.6,0,0,1-.6-.3.7.7,0,0,1,.2-1c.1-.1,12-8.7,13.3-24.2a.8.8,0,0,1,.8-.7.8.8,0,0,1,.7.8c-1.4,16.2-13.9,25.2-14,25.3Z" fill="#fbb03b"/><g opacity="0.5"><path d="M230.4,437h-.1a29.1,29.1,0,0,1-4.4-2.2.5.5,0,0,1-.2-.6.5.5,0,0,1,.7-.2,20.3,20.3,0,0,0,4.2,2c.2.1.4.4.3.6A.5.5,0,0,1,230.4,437Z" fill="#f7931e"/></g><g opacity="0.5"><path d="M234.7,426.5a.4.4,0,0,1-.4-.3.5.5,0,0,1,.2-.7l2.7-1.1a.5.5,0,0,1,.3.9l-2.6,1.1Z" fill="#f7931e"/></g><g opacity="0.5"><path d="M226.7,439.4l-.4-.2-1.6-2.1a.5.5,0,0,1,.1-.7.5.5,0,0,1,.7.1l1.6,2.1a.5.5,0,0,1-.1.7Z" fill="#f7931e"/></g><g opacity="0.5"><path d="M244.5,421.2a.5.5,0,0,1-.5-.4c0-.3.2-.6.4-.6l1.8-.2c.3-.1.5.1.5.4s-.1.5-.4.6l-1.7.2Z" fill="#f7931e"/></g><g opacity="0.5"><path d="M281,767h-.1c-.2,0-.4-.3-.3-.6l25.1-101.7c0-.2.3-.4.6-.3s.4.3.3.6L281.5,766.7C281.5,766.9,281.3,767,281,767Z" fill="#f7931e"/></g><g opacity="0.5"><path d="M295.1,738.7a.5.5,0,0,1-.5-.3.6.6,0,0,1,.3-.7,12.6,12.6,0,0,0,7.9-11.2.6.6,0,0,1,.6-.5c.2,0,.4.3.4.5-.4,9.1-8.4,12.1-8.5,12.2Z" fill="#f7931e"/></g><path d="M105.5,833.5s-8-25-14.1-34S73.5,772.9,67.9,767s-7.2-7.4-7.8-7.4-3.8-6.2,3.5-4.2,38.3,15.2,46.6,33.4c0,0-5.1-20.6-4-30.5s5.1-39.4,8.3-49.2,10.5-29.8,11.8-35,2.5-8.9,4.1-8.7,7.1,3.3,8.3,10.9,6.2,30.7,1.5,46.6-8.5,34.7-8.7,41.2.2,28.3.2,28.3,9.6-46,15.2-61.8,16-37.7,24-46.6,19-17.5,21.5-18.9,4.2-3.5,4-2.4-2.9,30.7-6.5,42.7S179.7,742,171.1,755s-16.3,24.8-21.7,37.3-9.2,23.3-9,28.9,1,16,.9,16.6-34.9.7-34.9.7Z" fill="#00b793" fill-rule="evenodd"/><g opacity="0.7"><path d="M116,838.5c-2.5-49.9-56.2-81.3-56.8-81.6l.7-1.2c.6.3,55,32,57.5,82.8Z" fill="#009245"/></g><g opacity="0.7"><path d="M130.3,839.1c-.1-.3-12.5-30.8-12.1-61.7.3-27.5,2-37.6,3.9-48.4.3-1.5.5-2.9.8-4.4s.8-5.1,1.3-8c2.2-12.6,4.9-28.4,4.8-35.3s0-15.8,0-15.9h1.4c0,.1-.2,7.5,0,15.9s-2.6,22.8-4.8,35.6c-.5,2.8-.9,5.5-1.3,7.9s-.6,3-.8,4.4c-1.9,10.7-3.6,20.9-3.9,48.3-.4,30.5,11.9,60.8,12,61.1Z" fill="#009245"/></g><g opacity="0.7"><path d="M138.4,810.2H137c.3-8.4,3.5-22.2,6.3-34.4.4-1.6.7-3.2,1.1-4.7,2-8.8,9-24.1,15.7-38.8,3.1-6.7,5.9-13,8.3-18.6,7.7-18.1,26.6-49.8,26.8-50.2l1.2.8c-.2.3-19,31.9-26.7,49.9-2.4,5.7-5.3,12-8.3,18.7-6.7,14.6-13.7,29.8-15.7,38.5-.3,1.5-.7,3.1-1,4.7C141.9,788.1,138.7,801.8,138.4,810.2Z" fill="#009245"/></g><path d="M131.8,792.3s7.5,38.8,9.5,44.3c0,0-1.1-13.5-.9-16.9s2.5-11,2.5-11L133,786.5Z" fill="#008a6f" fill-rule="evenodd"/><path d="M120.6,836c-22.7,0-41.2-1.7-41.2-3.7V832h-.2l5.6,84.5,68.1.6,8.6-84.5C160.4,834.5,142.5,836,120.6,836Z" fill="#f7931e" fill-rule="evenodd"/><path d="M161.7,832.3v-.2h-.2C161.6,832.1,161.6,832.2,161.7,832.3Z" fill="#f7931e" fill-rule="evenodd"/><g opacity="0.5"><path d="M124.4,850.1A327.8,327.8,0,0,1,80.9,847c-.4-.1-.7-.4-.6-.8s.4-.7.8-.6,44,6.7,77.9.2c.4-.1.7.2.8.6s-.2.7-.6.8A193.1,193.1,0,0,1,124.4,850.1Z" fill="red"/></g><g opacity="0.5"><path d="M116.1,862.5c-22.5,0-34.1-3.4-34.3-3.5a.7.7,0,0,1-.5-.9c.2-.3.5-.6.9-.4s26.1,7.6,75.8-.1a.8.8,0,0,1,.8.6c0,.4-.2.8-.6.8A275.2,275.2,0,0,1,116.1,862.5Z" fill="red"/></g><path d="M1256.1,702.5a9.2,9.2,0,0,1-5.5-2.4.7.7,0,0,1,0-1c5.4-5.1,2.3-12.1,1.6-13.4l1.3-.7-.7.3.7-.3c.7,1.5,4,8.8-1.3,14.6.9.7,3.1,2,5.1,1.3a.7.7,0,0,1,.9.5.9.9,0,0,1-.4.9A5.2,5.2,0,0,1,1256.1,702.5Z" fill="#dd8237"/><path d="M1257.4,707.9a18.6,18.6,0,0,1-8.1-1.9.7.7,0,0,1-.3-.9.7.7,0,0,1,1-.3c.1,0,9,4.5,14.9-1.1a.7.7,0,0,1,1,1A11.8,11.8,0,0,1,1257.4,707.9Z" fill="#dd8237"/><path d="M1257.2,711.4a6.9,6.9,0,0,1-3.5-.9.5.5,0,0,1-.2-.6.4.4,0,0,1,.7-.2c.2,0,4.2,2.2,6.4-1a.5.5,0,0,1,.7-.1c.2.1.2.4.1.7A4.9,4.9,0,0,1,1257.2,711.4Z" fill="#dd8237"/><g opacity="0.5"><path d="M1284.7,680a.7.7,0,0,1-.5-.4c-.1-1.7-2.1-2.4-2.1-2.4s-.4-.4-.3-.6a.6.6,0,0,1,.6-.4c.1.1,2.7.9,2.8,3.3a.5.5,0,0,1-.4.5Z" fill="#dd8237"/></g><g opacity="0.5"><path d="M1280.7,692h-.3a.5.5,0,0,1-.1-.7,60,60,0,0,0,3.3-6.7,7.4,7.4,0,0,0,.8-1.8.5.5,0,0,1,.7-.1c.3.1.3.4.2.7l-.8,1.6a63.6,63.6,0,0,1-3.4,6.9Z" fill="#dd8237"/></g><g opacity="0.5"><path d="M1221.7,683a.5.5,0,0,1-.5-.4c-.4-3,.9-3.5,1.5-3.6s1.5.3,1.6.8-.2.6-.4.6a.6.6,0,0,1-.6-.3.5.5,0,0,0-.6,0c-.5.2-.7,1.1-.5,2.3s-.2.6-.4.6Z" fill="#dd8237"/></g><g opacity="0.5"><path d="M1228.5,692.6h-.4c-.8-.8-2.6-3.1-4-4.9a24.8,24.8,0,0,0-1.6-2.1.5.5,0,0,1-.1-.7.5.5,0,0,1,.7-.1,17.9,17.9,0,0,1,1.8,2.3,48.2,48.2,0,0,0,3.9,4.7.5.5,0,0,1,0,.7C1228.7,692.6,1228.6,692.6,1228.5,692.6Z" fill="#dd8237"/></g><path d="M1229.9,681.6c-.2.3,1.8,1,4,.3s5-2,7.4-1.9l6.7.3a5.2,5.2,0,0,0-4.5-3.6A20.4,20.4,0,0,0,1229.9,681.6Z" fill="#272a28" fill-rule="evenodd"/><path d="M1261.1,680.7s3.8-2.1,6.4-2.3,7.9.4,9.4-.1a2.6,2.6,0,0,0,1.7-1.6,24.7,24.7,0,0,0-7.3-1.5c-4.1-.1-5.7-.5-7.4.8A6.6,6.6,0,0,0,1261.1,680.7Z" fill="#272a28" fill-rule="evenodd"/><path d="M1245.7,686.5c-.1,0-1-2.5-1.2-2.4l-8.3,2,.6,1.3,2.8-.2h.5a3.8,3.8,0,0,0-.4,1.9c0,1.6.9,2.9,2.1,2.9s2.1-1.3,2.1-2.9a3.6,3.6,0,0,0-.7-2.2Z" fill="#272a28" fill-rule="evenodd"/><path d="M1273.3,685.2l-8.6-2a11.5,11.5,0,0,0-.1,2.6l2.9.3a3.9,3.9,0,0,0-.5,2c0,1.6.9,3,2,3s2-1.4,2-3a4.8,4.8,0,0,0-.3-1.8l2.5.2A5.7,5.7,0,0,0,1273.3,685.2Z" fill="#272a28" fill-rule="evenodd"/><path d="M1232.5,666.6c-.3,0-9.2-11.7-9.4-12.2-1.7-4.8,1.2,11.5,4.9,12.2A33,33,0,0,0,1232.5,666.6Z" fill="#461d1e" fill-rule="evenodd"/><g opacity="0.3"><path d="M1244.5,716.3c-.1-.2,6.2,5.3,11.3,4.6a30,30,0,0,0,9.5-3.2s-4,6.4-9.5,6.4S1246.3,719.9,1244.5,716.3Z" fill="#733737" fill-rule="evenodd"/></g><rect x="1245" y="815" width="26" height="52" rx="5" fill="#fff"/><path d="M1247,813a1.1,1.1,0,0,1-.7-.3L1236,802.4a1.1,1.1,0,0,1,1.5-1.5l10.3,10.3a1.1,1.1,0,0,1,0,1.5A1.1,1.1,0,0,1,1247,813Z" fill="#fff"/><path d="M1253.9,808a1.2,1.2,0,0,1-1-.8l-3.8-13.6a1.1,1.1,0,0,1,.7-1.3,1.1,1.1,0,0,1,1.3.8l3.8,13.5a.9.9,0,0,1-.7,1.3Z" fill="#fff"/><path d="M1261.3,807.6h-.4a1,1,0,0,1-.5-1.4l5.9-12.5a1.1,1.1,0,0,1,1.4-.5,1,1,0,0,1,.5,1.4l-5.9,12.5A1.1,1.1,0,0,1,1261.3,807.6Z" fill="#fff"/><path d="M1270.2,813.2a1.1,1.1,0,0,1-.8-.3,1.1,1.1,0,0,1,0-1.5l10.2-9.8a1.1,1.1,0,0,1,1.5,0,1,1,0,0,1-.1,1.5l-10.1,9.8A1.1,1.1,0,0,1,1270.2,813.2Z" fill="#fff"/><path d="M1256,828h-7a.5.5,0,0,1,0-1h7a.5.5,0,0,1,0,1Z" fill="#dd8237"/><path d="M1255.3,826h-4.6c-1.5,0-2.7-1.6-2.7-3.8v-.4c0-2.2,1.2-3.8,2.7-3.8h4.6c1.5,0,2.7,1.6,2.7,3.8v.4C1258,824.4,1256.8,826,1255.3,826Zm-4.6-7c-.9,0-1.7,1.3-1.7,2.8v.4c0,1.5.8,2.8,1.7,2.8h4.6c.9,0,1.7-1.3,1.7-2.8v-.4c0-1.5-.8-2.8-1.7-2.8Z" fill="#dd8237"/><path d="M1275.3,900.6c-.6,0-6-1.3-83-23.5a.7.7,0,0,1-.5-.8.7.7,0,0,1,.9-.5c27.6,7.9,80.3,23,82.5,23.4a.8.8,0,0,1,.7.4.7.7,0,0,1-.5.9C1275.4,900.6,1275.4,900.6,1275.3,900.6Z"/><path d="M1206.2,881.1l-.5-.2-5.6-7.1a.7.7,0,0,1,.1-1,.8.8,0,0,1,1,.1l5.6,7.1a.8.8,0,0,1-.1,1Z"/><path d="M1264.6,897a.8.8,0,0,1-.7-.5.7.7,0,0,1,.5-.9l68.3-18.6a.7.7,0,0,1,.4,1.4L1264.8,897Z"/><path d="M1321.3,881a.5.5,0,0,1-.5-.3.7.7,0,0,1,0-1l6.7-6.1a.7.7,0,0,1,1,1l-6.7,6.2Z"/><path d="M1288.1,918.7h-.1a.4.4,0,0,1-.4-.6c.6-5.3,1.6-13.4,1.6-13.8a.5.5,0,0,1,1,0c0,.5-1.5,12.6-1.6,14A.7.7,0,0,1,1288.1,918.7Z" fill="#c1272d"/><path d="M1297.1,920.1h-.1c-.2,0-.4-.3-.4-.5l2-14.1a.4.4,0,0,1,.6-.4.5.5,0,0,1,.4.5l-2,14.1C1297.6,920,1297.3,920.1,1297.1,920.1Z" fill="#c1272d"/><path d="M1307.4,920.3a.5.5,0,0,1-.5-.4.6.6,0,0,1,.5-.6c3.6-.3,13.2-1.7,13.6-5.1s-8.1-5.1-14.1-6.7a.4.4,0,0,1-.3-.6.4.4,0,0,1,.6-.4c2.5.7,15.2,4.3,14.8,7.8s-13.1,5.9-14.6,6Z" fill="#c1272d"/><path d="M1218.3,920c-.2,0-.5-.5-.5-.7l-.2-5.1a.6.6,0,0,1,.5-.6.5.5,0,0,1,.5.5l.2,5.2c0,.2-.2-.3-.5.7Z" fill="#c1272d"/><path d="M1228.3,919.5a.5.5,0,0,1-.5-.4l-.6-3.7a.7.7,0,0,1,.4-.6c.3,0,.6.2.6.4l.6,3.8a.5.5,0,0,1-.5.5Z" fill="#c1272d"/><path d="M1208.7,920.3c-.1,0-13.3-1.5-14.2-4.6a3.6,3.6,0,0,1,.5-3,5.5,5.5,0,0,1,3.8-2.1c.2,0,.5.2.5.4a.7.7,0,0,1-.4.6,4.6,4.6,0,0,0-3.1,1.7,2.6,2.6,0,0,0-.3,2.1c.5,2,11.9,3.9,13.3,4a.5.5,0,0,1-.1.9Z" fill="#c1272d"/><path d="M1227.8,836.9c0,.2.4,15.8.4,16a6.1,6.1,0,0,0,4,1.9l14.6.4s9.2.7,9-.7-6-2.1-8.6-2.5-2.8-1.4-1-1.5,10.3.1,10.9-.2,1.4-2-1.4-2.4-7.8-.9-8.8-1.2-1.5-2,1.2-1.8,8.2.3,9,.2.8-2.5-2-2.9-7.1-.6-8.6-1.1-.8-1.6,2.1-1.5,8.2.4,9.1.1.5-2.2-1.6-2.5-12.4-2.3-14.2-2.8-2.2-1-3.3-1.5S1228.3,833.2,1227.8,836.9Z" fill="#ffbe9c" fill-rule="evenodd"/><path d="M1279.1,835.3l-8.4-.5c-3.5.7-10.9,2.2-12.7,2.4s-2.4,2.4-1.6,2.6,6.2,0,9.1-.1,3.7.9,2.1,1.4-5.7.9-8.6,1.2-2.9,2.9-2.1,3,6.4-.1,9.1-.3,2.1,1.5,1.2,1.8-6,.8-8.8,1.2-1.9,2.2-1.4,2.5,9.1.1,10.9.2,1.7,1.1-1,1.5-8.5,1.2-8.7,2.5,9,.7,9,.7,13-.5,14.7-.4c6.1.4,6.6-2.3,4.2-10C1285,841.5,1284.2,835.7,1279.1,835.3Z" fill="#ffbe9c" fill-rule="evenodd"/><path d="M1459.1,303.3c-.4,0-.7-.2-.7-.6s.2-.7.6-.8c2.3-.2,3.8-2.4,4.5-3.5-7.6-2.9-7.4-11-7.3-12.7a.7.7,0,0,1,.9-.6c.4,0,.9.3.9.7h0c-1,1.5-.4,9.2,6.9,11.5a.8.8,0,0,1,.4.4.7.7,0,0,1-.1.6c-.1.1-2.1,4.6-6,5Z" fill="#dd8237"/><path d="M1457.2,310.7a11.5,11.5,0,0,1-6.9-2.2.7.7,0,0,1-.2-1,.7.7,0,0,1,1-.1c6.7,4.7,14.9-.9,15-.9a.6.6,0,0,1,.9.1.7.7,0,0,1-.1,1A18.7,18.7,0,0,1,1457.2,310.7Z" fill="#dd8237"/><path d="M1459,316.2a4.8,4.8,0,0,1-3.7-1.6.6.6,0,0,1,.1-.7.5.5,0,0,1,.7,0c2.6,2.9,6.3.2,6.4.1s.6-.1.7.1a.5.5,0,0,1-.1.7A7.2,7.2,0,0,1,1459,316.2Z" fill="#dd8237"/><g opacity="0.5"><path d="M1420.4,284.1a.7.7,0,0,1-.5-.4c-.3-2.3,2.1-3.6,2.2-3.7a.5.5,0,0,1,.6.2.4.4,0,0,1-.2.7s-1.8,1.1-1.6,2.7-.1.5-.4.5Z" fill="#dd8237"/></g><g opacity="0.5"><path d="M1426.7,294.5l-.3-.2a53,53,0,0,1-4.7-5.7l-1.1-1.4a.5.5,0,1,1,.7-.7l1.2,1.5a64,64,0,0,0,4.5,5.6.5.5,0,0,1,.1.7Z" fill="#dd8237"/></g><g opacity="0.5"><path d="M1488.3,279.6a.7.7,0,0,1-.5-.4c-.3-2.3-1-2.5-1.3-2.6s-.5.2-.5.3-.1.5-.4.5a.6.6,0,0,1-.6-.5,1.4,1.4,0,0,1,1.2-1.2c.6-.1,2.1,0,2.6,3.3.1.3-.1.5-.4.6Z" fill="#dd8237"/></g><g opacity="0.5"><path d="M1484.5,291.8h-.3a.4.4,0,0,1-.1-.6c.5-.9,1.6-3.7,2.4-5.7l1.1-2.7a.6.6,0,0,1,.7-.1.5.5,0,0,1,.1.7c-.1.2-.6,1.4-1,2.5a52,52,0,0,1-2.5,5.8Z" fill="#dd8237"/></g><path d="M1480.8,271.8c.4.2-1.5,1.6-4.1,1.5s-6-.8-8.4.1l-7.1,2.3s-.1-4.1,3.6-5.5A21.6,21.6,0,0,1,1480.8,271.8Z" fill="#272a28" fill-rule="evenodd"/><path d="M1448.6,277.3s-4.7-.9-7.6-.2-8.6,2.7-10.4,2.7a2.9,2.9,0,0,1-2.3-1,30,30,0,0,1,7.6-3.7c4.5-1.3,6.1-2.2,8.4-1.5A6.3,6.3,0,0,1,1448.6,277.3Z" fill="#272a28" fill-rule="evenodd"/><path d="M1467.8,284c.1,0,.4-2.8.6-2.8l8.6.4-.3,1.5-2.8.4h-.5a4.8,4.8,0,0,1,.9,1.9c.3,1.7-.3,3.3-1.4,3.6s-2.4-1-2.8-2.7a4.2,4.2,0,0,1,.2-2.5Z" fill="#272a28" fill-rule="evenodd"/><path d="M1437.3,285.3l9.2-1.9a13.6,13.6,0,0,1,.1,2.8l-3.1.2a5.1,5.1,0,0,1,.5,2.2c-.1,1.8-1.1,3.2-2.3,3.2s-2.1-1.5-2.1-3.3a5.3,5.3,0,0,1,.5-1.9l-2.7.2A8.1,8.1,0,0,1,1437.3,285.3Z" fill="#272a28" fill-rule="evenodd"/><path d="M1472.8,260.9c.3-.1,7.5-12.9,7.7-13.4,1-5,.4,11.5-3.2,12.7A26.3,26.3,0,0,1,1472.8,260.9Z" fill-rule="evenodd"/><g opacity="0.3"><path d="M1444.5,320.4c-.2-.3,6.7,4.8,13.1,4.5,4.4-.3,11.9-5.1,11.9-5.1s-6.1,8.1-11.6,8.4S1446.4,323.8,1444.5,320.4Z" fill="#733737" fill-rule="evenodd"/></g><path d="M1439.4,360.6l-.3-.2c-10.6-7.9-10.8-8.2-10.9-8.3l1.2-.8-.6.4.5-.5,10.3,7.8,19.9-7.4,21.8,4.9,6.3-8.1,1.1.9-6.9,8.8-22.2-5Z" fill="#fff"/><path d="M1419.3,526.1a.5.5,0,0,1-.6-.4l-7.4-15.6a.7.7,0,0,1,.4-.9.7.7,0,0,1,.9.3l7.3,15.6a.7.7,0,0,1-.3,1Z" fill="#b3b3b3"/><path d="M1381.4,468.5a.7.7,0,0,1,0-1.4l9.9-2a.8.8,0,0,1,.9.5.9.9,0,0,1-.6.9C1390,466.8,1382.2,468.5,1381.4,468.5Z" fill="#b3b3b3"/><path d="M1403.8,435.4h-.3a.6.6,0,0,1-.3-.9c.4-1.3,6.8-37.5,4.9-50.3-.1-.4.2-.7.6-.8a.8.8,0,0,1,.8.6c1.9,13.1-4.5,50-5,51.1A.8.8,0,0,1,1403.8,435.4Z" fill="#b3b3b3"/><path d="M1409,397.2a.7.7,0,0,1-.7-.7c0-1.5-2-5.8-3-7.9s-.7-1.4-.7-1.6a.7.7,0,1,1,1.3-.5l.7,1.5c1.5,3.2,3.1,6.8,3.1,8.5A.7.7,0,0,1,1409,397.2Z" fill="#b3b3b3"/><path d="M1522,436.6a.8.8,0,0,1-.6-.4c-2.8-6.7-5.8-52.3-5.8-52.7a.8.8,0,0,1,.7-.7.8.8,0,0,1,.8.7c0,1.8,3,45.9,5.6,52.1a.8.8,0,0,1-.4,1Z" fill="#b3b3b3"/><path d="M1517.4,399.1a.7.7,0,0,1-.7-.7c0-3.2,3.6-10.6,3.6-10.6a.8.8,0,0,1,1-.4.8.8,0,0,1,.3,1c-.9,1.8-3.5,7.6-3.5,10A.7.7,0,0,1,1517.4,399.1Z" fill="#b3b3b3"/><path d="M1551.9,458.7h-.4c-.1,0-6.7-4.3-29.8-7.8s-29.1-3.4-29.2-3.4a.7.7,0,0,1,0-1.4h0c.1,0,7.6.2,29.4,3.4,23.4,3.5,30.1,7.8,30.3,8a.6.6,0,0,1,.2,1A.5.5,0,0,1,1551.9,458.7Z" fill="#b3b3b3"/><path d="M1535.6,452.5a.8.8,0,0,1-.7-.5.7.7,0,0,1,.5-.9l7.3-2.2a.7.7,0,0,1,.4,1.4l-7.3,2.2Z" fill="#b3b3b3"/><path d="M1516.1,482h-.3l-27.4-9.7a.7.7,0,1,1,.5-1.3l27.4,9.6c.4.2.6.6.4.9A.6.6,0,0,1,1516.1,482Z" fill="#b3b3b3"/><path d="M1451.2,522.8h-1.4c.6-9.8-6.2-157.8-6.2-159.2h1.4C1445.2,369.5,1451.8,512.9,1451.2,522.8Z" fill="#b3b3b3"/><path d="M1481.9,520.2h-1.4c.6-5.7-4.9-156.8-5-158.3h1.4C1477.2,368,1482.5,514.5,1481.9,520.2Z" fill="#b3b3b3"/><path d="M1463.4,382c0,2.6-1,4.7-2.1,4.7s-2.1-2.1-2.1-4.7.9-4.8,2.1-4.8S1463.4,379.4,1463.4,382Z" fill="#b3b3b3" fill-rule="evenodd"/><path d="M1464.5,410.2c0,2.6-1,4.7-2.1,4.7s-2.2-2.1-2.2-4.7,1-4.8,2.2-4.8S1464.5,407.6,1464.5,410.2Z" fill="#b3b3b3" fill-rule="evenodd"/><path d="M1467.7,494.7c0,2.6-.9,4.8-2.1,4.8s-2.1-2.2-2.1-4.8.9-4.7,2.1-4.7S1467.7,492.1,1467.7,494.7Z" fill="#b3b3b3" fill-rule="evenodd"/><rect x="1456" y="427" width="25" height="48" rx="5" fill="#333"/><g opacity="0.5"><path d="M1468,438h-8a.5.5,0,0,1,0-1h8a.5.5,0,0,1,0,1Z" fill="#fff"/></g><g opacity="0.5"><path d="M1465.8,436h-4.2c-2.6,0-2.6-2.6-2.6-3.5s0-3.5,2.6-3.5h4.2c2.6,0,2.6,2.6,2.6,3.5S1468.4,436,1465.8,436Zm-4.2-6c-.9,0-1.6.4-1.6,2.5s.7,2.5,1.6,2.5h4.2c1,0,1.6-.4,1.6-2.5s-.6-2.5-1.6-2.5Z" fill="#fff"/></g><path d="M1491.9,445.9c-1.4-.4-9.9,1.9-12.5,2.6l-8.8-.4c-4.2.7-13.1,2.2-15.2,2.4s-2.9,2.3-1.9,2.6,7.4,0,10.8-.1,4.4.9,2.6,1.4-6.9.8-10.3,1.2-3.5,2.8-2.5,2.9,7.6-.1,10.8-.3,2.5,1.5,1.4,1.8-7.1.8-10.5,1.2-2.2,2.1-1.6,2.4,10.9.1,13,.2,2.1,1.1-1.2,1.5-10.1,1.2-10.3,2.5,10.7.7,10.7.7,15.5-.5,17.5-.4a12.8,12.8,0,0,0,4.2-.3c1.6-.2,2.6-.8,2.7-1.5S1493.5,446.5,1491.9,445.9Z" fill="#ffbe9c" fill-rule="evenodd"/><path d="M1483.5,467.4" fill="#fff" fill-rule="evenodd"/><g opacity="0.7"><path d="M1403.5,581h0a.5.5,0,0,1-.5-.4c0-.2.8-16.8.8-17.3s.3-.3.5-.3h0c.3,0,.5.1.5.4s-.7,16.6-.8,17.3S1403.8,581,1403.5,581Z" fill="#dd8237"/></g><g opacity="0.7"><path d="M1407.3,581.6a.5.5,0,0,1-.5-.4v-7.3c0-3.6.1-7.1.1-7.3a.5.5,0,0,1,.5-.5.5.5,0,0,1,.5.5c0,.2-.1,3.7-.1,7.3v7.3C1407.8,581.4,1407.5,581.6,1407.3,581.6Z" fill="#dd8237"/></g><g opacity="0.7"><path d="M1411,579a.5.5,0,0,1-.5-.5c0-2.4-.1-14.7,0-15.4s.3-.4.6-.4a.7.7,0,0,1,.4.6c-.1.6-.1,9.4,0,15.2a.5.5,0,0,1-.5.5Z" fill="#dd8237"/></g><path d="M1514.7,867.1h-.3a.6.6,0,0,1-.3-.9c5.9-10.5,7.8-34.9,5.5-72.6-.2-3.3-.2-3.7-.1-3.9s.4-.7.8-.6a.7.7,0,0,1,.5.8c0,.3.1,1.8.2,3.6,2.3,38,.4,62.6-5.7,73.4A.6.6,0,0,1,1514.7,867.1Z"/><path d="M1504.8,919h45.4s-2.9-18.3-22.9-16.6S1505.3,914,1504.8,919Z" fill-rule="evenodd"/><path d="M1456.1,919l-15.6-.3-.2-3.4s-19.3,2.8-33.3,3.4-21.2-1-23.4-1.6-5.2-2.9-3.2-4.8,29.1-9.3,29.1-9.3l46.9,4.2Z" fill-rule="evenodd"/><path d="M1631.9,113.6V112h4.9v1.6Z" fill="#0046b7"/><path d="M1641.3,117.5l5-12.9h1.8l5.3,12.9h-2l-1.5-3.9h-5.4l-1.4,3.9Zm3.7-5.3h4.4l-1.3-3.6a19.1,19.1,0,0,1-1-2.7,10.3,10.3,0,0,1-.7,2.5Z" fill="#0046b7"/><path d="M1654.5,121.1v-13h1.5v1.3a2.9,2.9,0,0,1,1.1-1.1,4.2,4.2,0,0,1,1.6-.4,3.7,3.7,0,0,1,2.1.6,4.2,4.2,0,0,1,1.4,1.8,6.4,6.4,0,0,1,.4,2.4,5.3,5.3,0,0,1-.5,2.6,3.4,3.4,0,0,1-1.5,1.8,3.6,3.6,0,0,1-2,.6,3.7,3.7,0,0,1-1.5-.3,4.3,4.3,0,0,1-1-.9v4.6Zm1.5-8.2a3.7,3.7,0,0,0,.7,2.6,2.2,2.2,0,0,0,3.6,0,4.3,4.3,0,0,0,.7-2.8,3.8,3.8,0,0,0-.7-2.6,2.3,2.3,0,0,0-1.8-.9,2.6,2.6,0,0,0-1.8.9A4.5,4.5,0,0,0,1656,112.9Z" fill="#0046b7"/><path d="M1664.5,121.1v-13h1.5v1.3a2.9,2.9,0,0,1,1.1-1.1,4.2,4.2,0,0,1,1.6-.4,3.7,3.7,0,0,1,2.1.6,4.2,4.2,0,0,1,1.4,1.8,6.4,6.4,0,0,1,.4,2.4,5.3,5.3,0,0,1-.5,2.6,3.4,3.4,0,0,1-1.5,1.8,3.6,3.6,0,0,1-2,.6,3.2,3.2,0,0,1-1.4-.3,3.3,3.3,0,0,1-1.1-.9v4.6Zm1.5-8.2a3.7,3.7,0,0,0,.7,2.6,2.2,2.2,0,0,0,3.6,0,4.3,4.3,0,0,0,.7-2.8,3.8,3.8,0,0,0-.7-2.6,2.3,2.3,0,0,0-1.8-.9,2.2,2.2,0,0,0-1.7.9A3.9,3.9,0,0,0,1666,112.9Z" fill="#0046b7"/><path d="M1674.5,117.5V104.6h1.6v12.9Z" fill="#0046b7"/><path d="M1678.6,106.4v-1.8h1.5v1.8Zm0,11.1v-9.4h1.5v9.4Z" fill="#0046b7"/><path d="M1688.6,114.1l1.6.2a4.3,4.3,0,0,1-1.3,2.5,3.9,3.9,0,0,1-2.6.9,3.9,3.9,0,0,1-3.1-1.3,5.3,5.3,0,0,1-1.1-3.6,5.5,5.5,0,0,1,.5-2.6,3.1,3.1,0,0,1,1.5-1.7,4.3,4.3,0,0,1,2.2-.6,3.9,3.9,0,0,1,2.5.8,3.3,3.3,0,0,1,1.3,2.2l-1.6.2a2.2,2.2,0,0,0-.8-1.4,1.9,1.9,0,0,0-1.3-.5,2.5,2.5,0,0,0-2,.9,4.1,4.1,0,0,0-.7,2.7,3.8,3.8,0,0,0,.7,2.7,2.3,2.3,0,0,0,1.9.9,2.5,2.5,0,0,0,1.6-.6A2.7,2.7,0,0,0,1688.6,114.1Z" fill="#0046b7"/><path d="M1697.6,116.3a5.1,5.1,0,0,1-1.6,1.1,5.7,5.7,0,0,1-1.8.3,3.6,3.6,0,0,1-2.4-.8,2.6,2.6,0,0,1-.8-1.9,2.6,2.6,0,0,1,1.1-2.1l1.2-.6,1.4-.2,2.8-.5v-.5c0-.6-.1-1.1-.4-1.3a2.4,2.4,0,0,0-1.8-.6,3.5,3.5,0,0,0-1.7.4,3.7,3.7,0,0,0-.8,1.4l-1.5-.2a3.4,3.4,0,0,1,.7-1.6,2.8,2.8,0,0,1,1.4-.9,4.6,4.6,0,0,1,2.1-.4,5,5,0,0,1,1.9.3,2.3,2.3,0,0,1,1.1.7,2.2,2.2,0,0,1,.5,1.1,5.8,5.8,0,0,1,.1,1.5v2.1a18,18,0,0,0,.1,2.8,7.6,7.6,0,0,0,.4,1.1H1698A3.4,3.4,0,0,1,1697.6,116.3Zm-.1-3.5-2.6.6-1.4.3-.6.5a1.9,1.9,0,0,0-.2.8,1.4,1.4,0,0,0,.5,1,2,2,0,0,0,1.4.5,4.2,4.2,0,0,0,1.6-.4,3.8,3.8,0,0,0,1.1-1.1,6.3,6.3,0,0,0,.2-1.6Z" fill="#0046b7"/><path d="M1701.6,117.5v-9.4h1.4v1.4a3.3,3.3,0,0,1,3-1.6,4,4,0,0,1,1.5.3,3.1,3.1,0,0,1,1.1.8,6.1,6.1,0,0,1,.5,1.2c0,.3.1.8.1,1.5v5.8h-1.6v-5.7a4.6,4.6,0,0,0-.2-1.4,1.4,1.4,0,0,0-.7-.8,2,2,0,0,0-1.1-.3,2.7,2.7,0,0,0-1.7.6,3.4,3.4,0,0,0-.8,2.5v5.1Z" fill="#0046b7"/><path d="M1715,116.1l.3,1.4h-1.2a2.6,2.6,0,0,1-1.4-.3,1.3,1.3,0,0,1-.6-.7,4.2,4.2,0,0,1-.2-1.9v-5.3h-1.2v-1.3h1.2v-2.3l1.5-.9v3.2h1.6v1.3h-1.6v5.4a5.5,5.5,0,0,0,.1.9l.3.3h1.2Z" fill="#0046b7"/><path d="M35.1,92.1H29.8l.8-4.6c.6-2.6,1.4-4.5,2.5-5.6a6.2,6.2,0,0,1,4.3-1.7l-.5,2.7A4.2,4.2,0,0,0,34.8,84a8.1,8.1,0,0,0-1.1,2.6h2.5Zm8.9,0H38.7l.8-4.6c.6-2.6,1.4-4.5,2.5-5.6a6.2,6.2,0,0,1,4.3-1.7l-.5,2.7a3.5,3.5,0,0,0-2,1.1,6.3,6.3,0,0,0-1.2,2.6h2.5Z" fill="#0046b7"/><path d="M51.2,109.7H45.6l5.7-29.1h12a12.2,12.2,0,0,1,4.8.7,4.9,4.9,0,0,1,2.8,2.5A8.7,8.7,0,0,1,72,88.2a8.9,8.9,0,0,1-2.1,6.1,9.9,9.9,0,0,1-6.2,3,15.8,15.8,0,0,1,2,2.7,78.5,78.5,0,0,1,4.1,9.7h-6A74.2,74.2,0,0,0,61,102a10.3,10.3,0,0,0-2.4-3.8,5.1,5.1,0,0,0-2.8-.6H53.5Zm3.2-16.4h2.9a19.2,19.2,0,0,0,6-.6,5.2,5.2,0,0,0,2.3-1.8,5,5,0,0,0,.8-2.6,2.6,2.6,0,0,0-1.2-2.4,6.9,6.9,0,0,0-3.2-.5H55.9Z" fill="#0046b7"/><path d="M76.8,88.6h5.3l-2.4,12.5a17.2,17.2,0,0,0-.4,2.8,2.5,2.5,0,0,0,.6,1.6,2.3,2.3,0,0,0,1.6.6,3.5,3.5,0,0,0,1.4-.3,3.4,3.4,0,0,0,1.4-.8,8.6,8.6,0,0,0,1.3-1.4,8.9,8.9,0,0,0,1.1-2,17.6,17.6,0,0,0,.7-2.9l2-10.1h5.3l-4.1,21.1h-5l.6-2.9a9.6,9.6,0,0,1-7.1,3.4,4.9,4.9,0,0,1-3.8-1.5,5.7,5.7,0,0,1-1.4-4,29.1,29.1,0,0,1,.6-4.3Z" fill="#0046b7"/><path d="M100.1,88.6h5l-.5,2.7a14.3,14.3,0,0,1,3.5-2.5,8,8,0,0,1,3.4-.7,4.9,4.9,0,0,1,3.8,1.5,5.2,5.2,0,0,1,1.4,3.9,27.5,27.5,0,0,1-.6,4.3l-2.3,11.9h-5.3l2.3-12a23.3,23.3,0,0,0,.6-3.2,2.1,2.1,0,0,0-2.3-2.3,4.5,4.5,0,0,0-2.6,1,7.6,7.6,0,0,0-2.2,2.8,23.5,23.5,0,0,0-1.4,5l-1.6,8.7H96Z" fill="#0046b7"/><path d="M123.2,88.6h5l-.5,2.7a14.3,14.3,0,0,1,3.5-2.5,8,8,0,0,1,3.4-.7,5.1,5.1,0,0,1,3.9,1.5,5.6,5.6,0,0,1,1.4,3.9,32.2,32.2,0,0,1-.7,4.3l-2.3,11.9h-5.3l2.4-12c.3-1.8.5-2.8.5-3.2a2.1,2.1,0,0,0-2.3-2.3,4.5,4.5,0,0,0-2.6,1,7.6,7.6,0,0,0-2.2,2.8,19.7,19.7,0,0,0-1.3,5l-1.7,8.7h-5.3Z" fill="#0046b7"/><path d="M146.2,88.6h5.3l-4.1,21.1h-5.3Zm1.6-8h5.3l-1,5.1h-5.3Z" fill="#0046b7"/><path d="M156.8,88.6h5l-.5,2.7a16.5,16.5,0,0,1,3.5-2.5,8.4,8.4,0,0,1,3.5-.7,5,5,0,0,1,3.8,1.5,5.6,5.6,0,0,1,1.4,3.9,27.5,27.5,0,0,1-.6,4.3l-2.3,11.9h-5.3l2.3-12c.3-1.8.5-2.8.5-3.2a2.1,2.1,0,0,0-2.3-2.3,4.8,4.8,0,0,0-2.6,1A7.6,7.6,0,0,0,161,96a25.4,25.4,0,0,0-1.3,5l-1.7,8.7h-5.3Z" fill="#0046b7"/><path d="M175.5,110.8l5.5.9a2.6,2.6,0,0,0,.3,1.4,2.4,2.4,0,0,0,.9.8,4,4,0,0,0,1.7.3,4.5,4.5,0,0,0,2.7-.7,4.1,4.1,0,0,0,1.2-1.8,18.8,18.8,0,0,0,.8-3.4l.2-1a8.2,8.2,0,0,1-5.7,2.5,5.7,5.7,0,0,1-4.7-2.2c-1.3-1.5-1.9-3.6-1.9-6.4a16.5,16.5,0,0,1,1.3-6.8,10.1,10.1,0,0,1,3.5-4.7,7.8,7.8,0,0,1,4.6-1.6,6.6,6.6,0,0,1,3.6,1.1,7.9,7.9,0,0,1,2.6,3.1l.7-3.7h5l-3.4,17.6c-.6,2.8-1.1,4.8-1.4,6a16.3,16.3,0,0,1-1.3,2.9,8.1,8.1,0,0,1-1.9,1.8,10.9,10.9,0,0,1-2.7,1.1,16.9,16.9,0,0,1-3.3.3c-2.8,0-4.9-.5-6.3-1.6s-2.1-2.7-2.1-5A2.8,2.8,0,0,1,175.5,110.8Zm6.2-10.2a5.6,5.6,0,0,0,1,3.7,3.3,3.3,0,0,0,2.5,1.3,4.1,4.1,0,0,0,2.7-1.2,6.8,6.8,0,0,0,2-3.2,11.6,11.6,0,0,0,.7-4,6.2,6.2,0,0,0-1.1-3.7,3.3,3.3,0,0,0-2.6-1.3,3.4,3.4,0,0,0-2.6,1.2,8.5,8.5,0,0,0-2,3.7A12.2,12.2,0,0,0,181.7,100.6Z" fill="#0046b7"/><path d="M211,88.6h5.3l1.3,10.5q.5,4.1.6,5.7A46.7,46.7,0,0,1,221,98l4.7-9.4h5.6l-12.1,23.2a31.5,31.5,0,0,1-2.4,4,4.9,4.9,0,0,1-2,1.8,5.4,5.4,0,0,1-2.9.7,11,11,0,0,1-3.8-.7l.4-4.2,1.9.3c1.6,0,3-1.3,4-4Z" fill="#0046b7"/><path d="M231.2,100.9q0-5.9,3-9.3a10.5,10.5,0,0,1,8.1-3.5,9,9,0,0,1,6.8,2.6,9.7,9.7,0,0,1,2.4,6.9,13.9,13.9,0,0,1-3,8.9,10,10,0,0,1-8.2,3.7,9.9,9.9,0,0,1-4.9-1.2,7.5,7.5,0,0,1-3.2-3.4A10.4,10.4,0,0,1,231.2,100.9Zm15.1-4a4.9,4.9,0,0,0-1.1-3.3,3.8,3.8,0,0,0-2.9-1.2,4.8,4.8,0,0,0-3,1.1,7.6,7.6,0,0,0-2.1,3.4,11.6,11.6,0,0,0-.7,4,5.7,5.7,0,0,0,1.1,3.6,3.7,3.7,0,0,0,2.9,1.3,4.5,4.5,0,0,0,3.7-2A11.3,11.3,0,0,0,246.3,96.9Z" fill="#0046b7"/><path d="M257.6,88.6h5.3l-2.5,12.5c-.2,1.5-.4,2.4-.4,2.8a2.5,2.5,0,0,0,.6,1.6,2.3,2.3,0,0,0,1.6.6,3.2,3.2,0,0,0,1.4-.3,3.4,3.4,0,0,0,1.4-.8,8.6,8.6,0,0,0,1.3-1.4,6.2,6.2,0,0,0,1.1-2,17.6,17.6,0,0,0,.7-2.9l2-10.1h5.3l-4.1,21.1h-4.9l.5-2.9a9.6,9.6,0,0,1-7.1,3.4,5,5,0,0,1-3.8-1.5,5.7,5.7,0,0,1-1.4-4,35,35,0,0,1,.7-4.3Z" fill="#0046b7"/><path d="M280.4,88.6h5l-.8,4.1c1.8-3.1,3.8-4.6,6-4.6a5.7,5.7,0,0,1,2.4.6l-2,4.7a4,4,0,0,0-1.5-.3,4.7,4.7,0,0,0-2.8,1.1,7.3,7.3,0,0,0-2.2,3,30.8,30.8,0,0,0-1.6,5.9l-1.3,6.6h-5.3Z" fill="#0046b7"/><path d="M166,135.7l5.1.9a12,12,0,0,1-3.7,5.6,9.2,9.2,0,0,1-5.8,1.9,7.8,7.8,0,0,1-6-2.4,9.7,9.7,0,0,1-2.2-6.6,16.2,16.2,0,0,1,1.4-6.5,10.4,10.4,0,0,1,4-4.8,10.2,10.2,0,0,1,5.8-1.8,7.8,7.8,0,0,1,5.6,2,7.6,7.6,0,0,1,2.3,5.1l-5,.6a4.9,4.9,0,0,0-1-2.6,2.9,2.9,0,0,0-2.2-.9,4.5,4.5,0,0,0-2.9,1.3,8.5,8.5,0,0,0-2,3.7,15.1,15.1,0,0,0-.7,4.6,5,5,0,0,0,.8,2.9,3,3,0,0,0,2.2,1,4.2,4.2,0,0,0,2.4-1A7.4,7.4,0,0,0,166,135.7Z" fill="#0046b7"/><path d="M177.5,122.5h5l-.8,4.1c1.8-3,3.8-4.6,6-4.6a5.7,5.7,0,0,1,2.4.6l-2,4.7a4,4,0,0,0-1.5-.3,4.3,4.3,0,0,0-2.8,1.2,6.4,6.4,0,0,0-2.2,2.9A33.1,33.1,0,0,0,180,137l-1.3,6.6h-5.3Z" fill="#0046b7"/><path d="M207.5,134.9H194.2v.5a5.3,5.3,0,0,0,1.1,3.4,3.9,3.9,0,0,0,2.8,1.3c1.7,0,3.1-1,4.1-3l4.7.9a10.1,10.1,0,0,1-3.7,4.6,9.3,9.3,0,0,1-5.2,1.5,8.2,8.2,0,0,1-6.4-2.7,9.8,9.8,0,0,1-2.5-7.1,13.7,13.7,0,0,1,2.3-7.7,9.9,9.9,0,0,1,8.7-4.6,7.2,7.2,0,0,1,5.7,2.4,10,10,0,0,1,2.1,6.7A14.8,14.8,0,0,1,207.5,134.9Zm-4.4-3.5v-.6a5,5,0,0,0-1-3.5,3.1,3.1,0,0,0-2.6-1.2,4.5,4.5,0,0,0-3,1.3,7.8,7.8,0,0,0-1.7,4Z" fill="#0046b7"/><path d="M227.6,143.6h-5l.4-2.2a10.2,10.2,0,0,1-2.8,2.1,7.9,7.9,0,0,1-3.2.6,6.1,6.1,0,0,1-4.9-2.2c-1.3-1.5-1.9-3.7-1.9-6.6a16.5,16.5,0,0,1,2.7-9.2,8,8,0,0,1,7-4.1,6.5,6.5,0,0,1,5.9,3.4l2.2-10.9h5.3Zm-12.2-8.5a5.4,5.4,0,0,0,1,3.5,3.5,3.5,0,0,0,2.6,1.3,4,4,0,0,0,2.7-1.1,7.4,7.4,0,0,0,2-3.3,12.4,12.4,0,0,0,.8-4.1,5.3,5.3,0,0,0-1.2-3.7,3.1,3.1,0,0,0-2.6-1.5c-1.6,0-2.9,1-3.9,2.8A14,14,0,0,0,215.4,135.1Z" fill="#0046b7"/><path d="M236.7,122.5H242l-4.1,21.1h-5.3Zm1.5-8h5.3l-1,5.2h-5.3Z" fill="#0046b7"/><path d="M244.4,126.8l.8-4.3h2.6l.7-3.4,6.1-3.9-1.5,7.3h3.3l-.8,4.3h-3.3l-1.7,8.8c-.3,1.6-.5,2.5-.5,2.8a1.3,1.3,0,0,0,.4,1,2.4,2.4,0,0,0,1.4.3h1.8l-.9,4.2a12.7,12.7,0,0,1-2.8.3,6.1,6.1,0,0,1-4.1-1.1,4.5,4.5,0,0,1-1.2-3.3,26.7,26.7,0,0,1,.7-4.4l1.6-8.5Z" fill="#0046b7"/><path d="M270.4,122.5h5l-.5,2.8a12.1,12.1,0,0,1,3.5-2.5,8.2,8.2,0,0,1,3.5-.8,5,5,0,0,1,3.8,1.5,5.7,5.7,0,0,1,1.4,4,28.4,28.4,0,0,1-.6,4.2l-2.4,11.9h-5.3l2.4-11.9c.3-1.8.5-2.9.5-3.2a2.4,2.4,0,0,0-.6-1.8,2.4,2.4,0,0,0-1.7-.6,4.7,4.7,0,0,0-2.6,1.1,7.3,7.3,0,0,0-2.2,2.7,27,27,0,0,0-1.3,5.1l-1.7,8.6h-5.3Z" fill="#0046b7"/><path d="M290.1,134.9c0-3.9,1-7.1,3.1-9.4a10.2,10.2,0,0,1,8.1-3.5,8.9,8.9,0,0,1,6.7,2.6,9.3,9.3,0,0,1,2.5,6.9,13.2,13.2,0,0,1-3.1,8.9,9.8,9.8,0,0,1-8.1,3.7,10.3,10.3,0,0,1-5-1.2,7.8,7.8,0,0,1-3.2-3.3A11,11,0,0,1,290.1,134.9Zm15.1-4.1a5,5,0,0,0-1.1-3.3,3.6,3.6,0,0,0-2.8-1.2,4.5,4.5,0,0,0-3.1,1.2,6,6,0,0,0-2,3.3,12.3,12.3,0,0,0-.8,4,5.2,5.2,0,0,0,1.2,3.6,3.4,3.4,0,0,0,2.8,1.3,4.3,4.3,0,0,0,3.7-2A11.3,11.3,0,0,0,305.2,130.8Z" fill="#0046b7"/><path d="M332.9,143.6h-5l-.9-13.4-6,13.4h-4.9l-2.5-21.1h4.7l1.4,14.2,6.1-14.2h4.8l.7,14.2,6.1-14.2h5.3Z" fill="#0046b7"/><path d="M347.5,114.5h5.3L352,119c-.5,2.7-1.4,4.6-2.5,5.6a5.8,5.8,0,0,1-4.3,1.7l.5-2.6a4.2,4.2,0,0,0,2.1-1.1,8.1,8.1,0,0,0,1.1-2.6h-2.5Zm8.9,0h5.4l-.9,4.5c-.5,2.7-1.3,4.6-2.5,5.6a5.8,5.8,0,0,1-4.3,1.7l.5-2.6a4.2,4.2,0,0,0,2.1-1.1,6.3,6.3,0,0,0,1.1-2.6h-2.5Z" fill="#0046b7"/><path d="M130.5,165.3v-1.6h4.8v1.6Z" fill="#0046b7"/><path d="M142.3,169.2V156.3H148a5.9,5.9,0,0,1,2.6.4,2.9,2.9,0,0,1,1.5,1.2,4.1,4.1,0,0,1,.5,1.9,3.2,3.2,0,0,1-.9,2.3,3.8,3.8,0,0,1-2.7,1.2l1,.7a6.1,6.1,0,0,1,1.4,1.7l2.3,3.5h-2.2l-1.7-2.7-1.2-1.8a3.2,3.2,0,0,0-.9-.8,2,2,0,0,0-.8-.4H144v5.7ZM144,162h3.7l1.8-.2a2.7,2.7,0,0,0,1-.8,2.4,2.4,0,0,0,.3-1.2,2,2,0,0,0-.6-1.5,3.3,3.3,0,0,0-2.1-.6H144Z" fill="#0046b7"/><path d="M161.5,166.2l1.6.2a3.8,3.8,0,0,1-1.4,2.2,4,4,0,0,1-2.7.8,4.5,4.5,0,0,1-3.3-1.2,5.2,5.2,0,0,1-1.2-3.6,4.5,4.5,0,0,1,1.3-3.6,3.9,3.9,0,0,1,3.1-1.3,4.1,4.1,0,0,1,3.1,1.2,5.2,5.2,0,0,1,1.1,3.6v.4h-6.9a3.3,3.3,0,0,0,.8,2.4,3,3,0,0,0,2,.8,2.4,2.4,0,0,0,1.5-.4A3.6,3.6,0,0,0,161.5,166.2Zm-5.2-2.6h5.2a3.8,3.8,0,0,0-.6-1.7,2.5,2.5,0,0,0-2-.9,2.4,2.4,0,0,0-1.8.7A2.6,2.6,0,0,0,156.3,163.6Z" fill="#0046b7"/><path d="M171.2,168.1a6.2,6.2,0,0,1-1.7,1,5.2,5.2,0,0,1-1.8.3,3.2,3.2,0,0,1-2.3-.7,2.5,2.5,0,0,1-.9-2,1.9,1.9,0,0,1,.4-1.2,1.8,1.8,0,0,1,.8-.9l1.1-.5,1.4-.3a11.8,11.8,0,0,0,2.8-.5v-.4a1.8,1.8,0,0,0-.4-1.4,2.4,2.4,0,0,0-1.8-.5,2.4,2.4,0,0,0-1.6.4,1.7,1.7,0,0,0-.8,1.3l-1.6-.2a5.9,5.9,0,0,1,.7-1.6,2.8,2.8,0,0,1,1.4-.9,6.6,6.6,0,0,1,2.1-.3l2,.2a5.2,5.2,0,0,1,1.1.7,3.7,3.7,0,0,1,.5,1.1v3.6c0,1.5.1,2.4.1,2.8a4.9,4.9,0,0,0,.4,1.1h-1.6A2,2,0,0,1,171.2,168.1Zm-.2-3.6a6.5,6.5,0,0,1-2.5.6l-1.4.3c-.3.2-.5.3-.6.5a1.3,1.3,0,0,0-.3.8,1.6,1.6,0,0,0,.5,1.1,2.6,2.6,0,0,0,1.4.4,3.8,3.8,0,0,0,1.6-.4,2.9,2.9,0,0,0,1.1-1.1,3.7,3.7,0,0,0,.2-1.6Z" fill="#0046b7"/><path d="M175.1,169.2V156.3h1.5v12.9Z" fill="#0046b7"/><path d="M184.3,169.2V156.3h9.3v1.5H186v4h7.2v1.5H186v4.4h7.9v1.5Z" fill="#0046b7"/><path d="M195.5,166.4l1.5-.2a2.2,2.2,0,0,0,.8,1.4,2.5,2.5,0,0,0,1.6.5,2.7,2.7,0,0,0,1.7-.4,1.6,1.6,0,0,0,.5-1.1,1,1,0,0,0-.5-.8,5.8,5.8,0,0,0-1.6-.6,8.9,8.9,0,0,1-2.4-.7,1.8,1.8,0,0,1-1-.9,2.2,2.2,0,0,1-.1-2.4,2.4,2.4,0,0,1,.8-.9,4.6,4.6,0,0,1,1-.5h1.4a5.8,5.8,0,0,1,1.9.3,2.8,2.8,0,0,1,1.2.8,3.4,3.4,0,0,1,.6,1.5l-1.6.2a1.7,1.7,0,0,0-.6-1.1,2,2,0,0,0-1.4-.4,3.2,3.2,0,0,0-1.6.3,1.1,1.1,0,0,0-.4.9c0,.2,0,.4.2.5a.9.9,0,0,0,.6.4l1.4.4,2.3.8a2,2,0,0,1,1,.8,2.1,2.1,0,0,1,.4,1.4,2.8,2.8,0,0,1-.4,1.5,3.6,3.6,0,0,1-1.4,1,4.1,4.1,0,0,1-1.9.4,4.3,4.3,0,0,1-2.8-.7A3.1,3.1,0,0,1,195.5,166.4Z" fill="#0046b7"/><path d="M208.6,167.8l.2,1.4h-1.2l-1.3-.2a1.3,1.3,0,0,1-.7-.8,6.2,6.2,0,0,1-.2-1.8v-5.4h-1.2v-1.2h1.2v-2.3l1.6-1v3.3h1.6v1.2H207v6.3q.1.3.3.3a.8.8,0,0,0,.6.2Z" fill="#0046b7"/><path d="M216.2,168.1a6.2,6.2,0,0,1-1.7,1,4.7,4.7,0,0,1-1.7.3,3.3,3.3,0,0,1-2.4-.7,2.4,2.4,0,0,1-.8-2,2.7,2.7,0,0,1,.3-1.2,2.4,2.4,0,0,1,.8-.9l1.1-.5,1.4-.3a12.9,12.9,0,0,0,2.9-.5v-.4a1.8,1.8,0,0,0-.5-1.4,2.4,2.4,0,0,0-1.8-.5,2.4,2.4,0,0,0-1.6.4c-.4.2-.6.7-.8,1.3l-1.6-.2a5.9,5.9,0,0,1,.7-1.6,3.4,3.4,0,0,1,1.4-.9,6.6,6.6,0,0,1,2.1-.3l2,.2a3.5,3.5,0,0,1,1.1.7,3.7,3.7,0,0,1,.5,1.1c0,.3.1.8.1,1.5v2.1a17.2,17.2,0,0,0,.1,2.8,2.5,2.5,0,0,0,.4,1.1h-1.7A2,2,0,0,1,216.2,168.1Zm-.1-3.6a7.7,7.7,0,0,1-2.6.6l-1.4.3c-.3.2-.5.3-.6.5a1.2,1.2,0,0,0-.2.8,1.5,1.5,0,0,0,.4,1.1,2.6,2.6,0,0,0,1.4.4,4.7,4.7,0,0,0,1.7-.4,3.5,3.5,0,0,0,1-1.1,3.5,3.5,0,0,0,.3-1.6Z" fill="#0046b7"/><path d="M223.6,167.8l.2,1.4h-1.2l-1.3-.2a1.3,1.3,0,0,1-.7-.8,6.2,6.2,0,0,1-.2-1.8v-5.4h-1.2v-1.2h1.2v-2.3l1.6-1v3.3h1.6v1.2H222v5.5c0,.4,0,.7.1.8s.1.3.2.3a1.1,1.1,0,0,0,.6.2Z" fill="#0046b7"/><path d="M231.5,166.2l1.6.2a3.4,3.4,0,0,1-1.4,2.2,4,4,0,0,1-2.7.8,4.4,4.4,0,0,1-3.2-1.2,5.2,5.2,0,0,1-1.2-3.6,4.9,4.9,0,0,1,1.2-3.6,4,4,0,0,1,3.1-1.3,4.1,4.1,0,0,1,3.1,1.2,5.2,5.2,0,0,1,1.2,3.6v.4h-7a3.8,3.8,0,0,0,.9,2.4,2.7,2.7,0,0,0,1.9.8,2.4,2.4,0,0,0,1.5-.4A2.8,2.8,0,0,0,231.5,166.2Zm-5.2-2.6h5.2a3.8,3.8,0,0,0-.6-1.7,2.3,2.3,0,0,0-1.9-.9,2.5,2.5,0,0,0-1.9.7A3,3,0,0,0,226.3,163.6Z" fill="#0046b7"/><path d="M240.3,169.2V156.3h6.8a3.4,3.4,0,0,1,1.6.6,3.5,3.5,0,0,1,1.1,1.3,4.7,4.7,0,0,1,.4,1.7,3.9,3.9,0,0,1-1.1,2.8c-.7.8-1.9,1.2-3.8,1.2H242v5.2Zm1.7-6.8h3.4a3.5,3.5,0,0,0,2.3-.6,2.1,2.1,0,0,0,.7-1.7,2.3,2.3,0,0,0-.4-1.4,1.6,1.6,0,0,0-1.1-.7l-1.6-.2H242Z" fill="#0046b7"/><path d="M252.1,169.2v-9.3h1.4v1.4a3.8,3.8,0,0,1,1-1.3,2,2,0,0,1,1.1-.3,2.7,2.7,0,0,1,1.6.5l-.6,1.4a2,2,0,0,0-1.1-.3,1.7,1.7,0,0,0-1,.3,1.9,1.9,0,0,0-.5.9,4.8,4.8,0,0,0-.3,1.8v4.9Z" fill="#0046b7"/><path d="M257.5,164.5a4.6,4.6,0,0,1,1.5-3.8,4.3,4.3,0,0,1,2.9-1,4.5,4.5,0,0,1,3.2,1.2,5,5,0,0,1,1.2,3.5,5.3,5.3,0,0,1-.6,2.8,2.9,2.9,0,0,1-1.5,1.6,4.6,4.6,0,0,1-2.3.6,4.4,4.4,0,0,1-3.2-1.2A5.3,5.3,0,0,1,257.5,164.5Zm1.7,0a4.1,4.1,0,0,0,.7,2.7,2.7,2.7,0,0,0,4,0,4.1,4.1,0,0,0,.8-2.7,3.8,3.8,0,0,0-.8-2.6,2.7,2.7,0,0,0-4,0A3.7,3.7,0,0,0,259.2,164.5Z" fill="#0046b7"/><path d="M268.5,169.2v-8.1h-1.4v-1.2h1.4v-1a4.6,4.6,0,0,1,.2-1.4,1.6,1.6,0,0,1,.8-1,2.5,2.5,0,0,1,1.6-.4l1.5.2-.3,1.3h-.9a1.3,1.3,0,0,0-1,.3,1.4,1.4,0,0,0-.3,1.1v.9h1.8v1.2h-1.8v8.1Z" fill="#0046b7"/><path d="M279.5,166.2l1.7.2a4,4,0,0,1-1.5,2.2,3.8,3.8,0,0,1-2.6.8,4.5,4.5,0,0,1-3.3-1.2,5.2,5.2,0,0,1-1.2-3.6,4.9,4.9,0,0,1,1.2-3.6,4.5,4.5,0,0,1,6.2-.1,5.2,5.2,0,0,1,1.2,3.6v.4h-7a3.8,3.8,0,0,0,.9,2.4,2.8,2.8,0,0,0,2,.8,2.3,2.3,0,0,0,1.4-.4A2.4,2.4,0,0,0,279.5,166.2Zm-5.2-2.6h5.2a2.4,2.4,0,0,0-.6-1.7,2.3,2.3,0,0,0-1.9-.9,2.3,2.3,0,0,0-1.8.7A3.1,3.1,0,0,0,274.3,163.6Z" fill="#0046b7"/><path d="M282.5,166.4l1.6-.2a2.1,2.1,0,0,0,.7,1.4,2.9,2.9,0,0,0,1.7.5,2.4,2.4,0,0,0,1.6-.4,1.3,1.3,0,0,0,.5-1.1.9.9,0,0,0-.4-.8,7.8,7.8,0,0,0-1.6-.6,11.5,11.5,0,0,1-2.5-.7,2.8,2.8,0,0,1-1-.9,2.8,2.8,0,0,1-.3-1.3,2,2,0,0,1,.3-1.1,2.2,2.2,0,0,1,.7-.9l1-.5h1.4a5.4,5.4,0,0,1,1.9.3,3.2,3.2,0,0,1,1.3.8,5.3,5.3,0,0,1,.5,1.5l-1.5.2a1.7,1.7,0,0,0-.6-1.1,2.4,2.4,0,0,0-1.5-.4,2.8,2.8,0,0,0-1.5.3c-.3.3-.5.5-.5.9a.8.8,0,0,0,.2.5.9.9,0,0,0,.6.4l1.4.4,2.3.8a2.3,2.3,0,0,1,1.1.8,2.9,2.9,0,0,1,.4,1.4,3,3,0,0,1-.5,1.5,2.7,2.7,0,0,1-1.3,1,4.5,4.5,0,0,1-2,.4,4.7,4.7,0,0,1-2.8-.7A3.9,3.9,0,0,1,282.5,166.4Z" fill="#0046b7"/><path d="M291.5,166.4l1.6-.2a2.1,2.1,0,0,0,.7,1.4,2.9,2.9,0,0,0,1.7.5,2.4,2.4,0,0,0,1.6-.4,1.3,1.3,0,0,0,.5-1.1.9.9,0,0,0-.4-.8,7.8,7.8,0,0,0-1.6-.6,11.5,11.5,0,0,1-2.5-.7,2.8,2.8,0,0,1-1-.9,2.8,2.8,0,0,1-.3-1.3,2,2,0,0,1,.3-1.1,2.2,2.2,0,0,1,.7-.9l1-.5h1.4a5.4,5.4,0,0,1,1.9.3,3.2,3.2,0,0,1,1.3.8,5.3,5.3,0,0,1,.5,1.5l-1.5.2a1.7,1.7,0,0,0-.6-1.1,2.4,2.4,0,0,0-1.5-.4,2.8,2.8,0,0,0-1.5.3c-.3.3-.5.5-.5.9a.8.8,0,0,0,.2.5.9.9,0,0,0,.6.4l1.4.4,2.3.8a2.3,2.3,0,0,1,1.1.8,2.9,2.9,0,0,1,.4,1.4,3,3,0,0,1-.5,1.5,2.7,2.7,0,0,1-1.3,1,4.5,4.5,0,0,1-2,.4,4.7,4.7,0,0,1-2.8-.7A3.9,3.9,0,0,1,291.5,166.4Z" fill="#0046b7"/><path d="M301.2,158.1v-1.8h1.5v1.8Zm0,11.1v-9.3h1.5v9.3Z" fill="#0046b7"/><path d="M304.6,164.5a4.6,4.6,0,0,1,1.4-3.8,4.3,4.3,0,0,1,2.9-1,4.4,4.4,0,0,1,3.2,1.2,5,5,0,0,1,1.2,3.5,6.7,6.7,0,0,1-.5,2.8,3.5,3.5,0,0,1-1.6,1.6,4.6,4.6,0,0,1-2.3.6,4.1,4.1,0,0,1-3.1-1.2A5.3,5.3,0,0,1,304.6,164.5Zm1.6,0a3.6,3.6,0,0,0,.8,2.7,2.3,2.3,0,0,0,1.9.9,2.5,2.5,0,0,0,2-.9,4.1,4.1,0,0,0,.8-2.7,3.8,3.8,0,0,0-.8-2.6,2.5,2.5,0,0,0-2-.9,2.3,2.3,0,0,0-1.9.9A3.3,3.3,0,0,0,306.2,164.5Z" fill="#0046b7"/><path d="M315.2,169.2v-9.3h1.4v1.3a3.4,3.4,0,0,1,2.9-1.5,4.1,4.1,0,0,1,1.6.3,2.3,2.3,0,0,1,1.1.8,3.7,3.7,0,0,1,.5,1.1v7.3h-1.5v-5.7a4.6,4.6,0,0,0-.2-1.4,1.8,1.8,0,0,0-.7-.8,2,2,0,0,0-1.1-.3,2.2,2.2,0,0,0-1.7.7,3,3,0,0,0-.8,2.4v5.1Z" fill="#0046b7"/><path d="M331.3,168.1a6.2,6.2,0,0,1-1.7,1,5.7,5.7,0,0,1-1.8.3,3.2,3.2,0,0,1-2.3-.7,2.5,2.5,0,0,1-.9-2,2.7,2.7,0,0,1,.3-1.2,2,2,0,0,1,.9-.9l1.1-.5,1.4-.3a11.8,11.8,0,0,0,2.8-.5v-.4a1.8,1.8,0,0,0-.4-1.4,2.4,2.4,0,0,0-1.8-.5,2.7,2.7,0,0,0-1.7.4,2.6,2.6,0,0,0-.8,1.3l-1.5-.2a3.9,3.9,0,0,1,.7-1.6,2.8,2.8,0,0,1,1.4-.9,6.6,6.6,0,0,1,2.1-.3l2,.2a5.2,5.2,0,0,1,1.1.7,2.1,2.1,0,0,1,.4,1.1,5.8,5.8,0,0,1,.1,1.5v2.1c0,1.5.1,2.4.1,2.8a4.9,4.9,0,0,0,.4,1.1h-1.6A2,2,0,0,1,331.3,168.1Zm-.2-3.6a6.6,6.6,0,0,1-2.6.6l-1.3.3-.7.5a2.4,2.4,0,0,0-.2.8,1.6,1.6,0,0,0,.5,1.1,2.6,2.6,0,0,0,1.4.4,4.2,4.2,0,0,0,1.6-.4,3.8,3.8,0,0,0,1.1-1.1,6.3,6.3,0,0,0,.2-1.6Z" fill="#0046b7"/><path d="M335.1,169.2V156.3h1.6v12.9Z" fill="#0046b7"/><path d="M1526.9,288.1a2.1,2.1,0,0,1-1.9-1.3,2,2,0,0,1,1.2-2.5c29.6-11.4,48.7-28.9,56.8-52.2,15.4-44.2-14-94.8-14.3-95.3a2,2,0,0,1,3.4-2c1.3,2.1,30.7,52.7,14.7,98.6-8.5,24.4-28.4,42.8-59.2,54.6Z" fill="#fbb03b"/><path d="M203.5,350l-.8-.2c-29.8-12.3-49.5-31.4-58.4-56.6-17.5-49.9,13.6-107.6,14-108.2a2,2,0,0,1,2.7-.8,2.1,2.1,0,0,1,.8,2.7c-.3.6-30.7,56.8-13.7,105,8.5,24.1,27.4,42.3,56.2,54.2a2.1,2.1,0,0,1,1.1,2.6A2.2,2.2,0,0,1,203.5,350Z" fill="#fbb03b"/><path d="M319,189H66A66.1,66.1,0,0,1,0,123v-4A66.1,66.1,0,0,1,66,53H319a66.1,66.1,0,0,1,66,66v4A66.1,66.1,0,0,1,319,189ZM66,57A62.1,62.1,0,0,0,4,119v4a62.1,62.1,0,0,0,62,62H319a62.1,62.1,0,0,0,62-62v-4a62.1,62.1,0,0,0-62-62Z" fill="#fbb03b"/><path d="M1705,136H1398a66.1,66.1,0,0,1-66-66V66a66.1,66.1,0,0,1,66-66h307a66.1,66.1,0,0,1,66,66v4A66.1,66.1,0,0,1,1705,136ZM1398,4a62.1,62.1,0,0,0-62,62v4a62.1,62.1,0,0,0,62,62h307a62.1,62.1,0,0,0,62-62V66a62.1,62.1,0,0,0-62-62Z" fill="#fbb03b"/><path d="M1370,45.8h-5.4l.9-4.5a10.4,10.4,0,0,1,2.5-5.6,5.8,5.8,0,0,1,4.3-1.7l-.5,2.6a4.3,4.3,0,0,0-2.1,1.2,5.8,5.8,0,0,0-1.1,2.5h2.5Zm8.9,0h-5.3l.8-4.5c.6-2.7,1.4-4.5,2.5-5.6a5.8,5.8,0,0,1,4.3-1.7l-.5,2.6a4.3,4.3,0,0,0-2.1,1.2,7.4,7.4,0,0,0-1.1,2.5h2.5Z" fill="#0046b7"/><path d="M1396,34.3h5.5L1398.1,52c-.9,4.7-2.1,7.8-3.6,9.5s-3.7,2.5-6.8,2.5a7.8,7.8,0,0,1-5.8-2,6.9,6.9,0,0,1-2-5.2c0-.5.1-1,.1-1.6l5.2-.6a8.6,8.6,0,0,0-.1,1.5,2.8,2.8,0,0,0,.7,2.1,3,3,0,0,0,2.3.8,3.4,3.4,0,0,0,3-1.4,25.1,25.1,0,0,0,1.5-5.8Z" fill="#0046b7"/><path d="M1405.5,42.4h5.3l-2.5,12.5a17.2,17.2,0,0,0-.4,2.8,2,2,0,0,0,.6,1.5,2,2,0,0,0,1.6.7,3.2,3.2,0,0,0,1.4-.3,5.5,5.5,0,0,0,1.4-.9,8,8,0,0,0,1.3-1.3,12,12,0,0,0,1.1-2,16.8,16.8,0,0,0,.7-3l2-10h5.3l-4.1,21.1h-5l.6-2.9a9.6,9.6,0,0,1-7.1,3.4,4.9,4.9,0,0,1-3.8-1.5,5.7,5.7,0,0,1-1.4-4,23.9,23.9,0,0,1,.7-4.4Z" fill="#0046b7"/><path d="M1423.8,57.6l5.1-.9a6.4,6.4,0,0,0,1.7,2.5,4.7,4.7,0,0,0,2.8.7,4.4,4.4,0,0,0,2.9-.9,1.9,1.9,0,0,0,.8-1.4,2.1,2.1,0,0,0-.4-1.1,6.5,6.5,0,0,0-2.2-1,30.5,30.5,0,0,1-6-2.7,5.2,5.2,0,0,1-1.7-4.1,5.7,5.7,0,0,1,1.7-4.3c1.6-1.7,4-2.5,7.2-2.5a9.2,9.2,0,0,1,5.7,1.5,6.5,6.5,0,0,1,2.5,4l-4.9.9a3.3,3.3,0,0,0-1.3-1.7,5.1,5.1,0,0,0-2.8-.8,3.8,3.8,0,0,0-2.4.6,1.9,1.9,0,0,0-.8,1.4,1.7,1.7,0,0,0,.8,1.3,15.2,15.2,0,0,0,3,1.1c2.5.8,4.3,1.6,5.1,2.4a5,5,0,0,1,1.9,4,6.9,6.9,0,0,1-2.4,5.2,9.4,9.4,0,0,1-6.6,2.2,10.9,10.9,0,0,1-6.5-1.7A8.3,8.3,0,0,1,1423.8,57.6Z" fill="#0046b7"/><path d="M1446.9,46.6l.8-4.2h2.6l.6-3.4,6.1-4-1.4,7.4h3.2l-.8,4.2h-3.3l-1.7,8.8a23.1,23.1,0,0,0-.4,2.8,1.5,1.5,0,0,0,.3,1,2,2,0,0,0,1.4.4l1.8-.2-.8,4.3a13.3,13.3,0,0,1-2.8.3c-1.9,0-3.3-.4-4.1-1.2a3.9,3.9,0,0,1-1.3-3.2,25.8,25.8,0,0,1,.7-4.5l1.6-8.5Z" fill="#0046b7"/><path d="M1468,57.6l5.1-.9a5.5,5.5,0,0,0,1.7,2.5,4.7,4.7,0,0,0,2.8.7,4.6,4.6,0,0,0,2.9-.9,1.7,1.7,0,0,0,.7-1.4,1.5,1.5,0,0,0-.4-1.1,5.6,5.6,0,0,0-2.2-1,28.6,28.6,0,0,1-5.9-2.7,5.2,5.2,0,0,1-1.8-4.1,6.1,6.1,0,0,1,1.7-4.3c1.7-1.7,4-2.5,7.2-2.5a9.6,9.6,0,0,1,5.8,1.5,6.3,6.3,0,0,1,2.4,4l-4.9.9a3.1,3.1,0,0,0-1.2-1.7,5.5,5.5,0,0,0-2.9-.8,3.8,3.8,0,0,0-2.4.6,1.7,1.7,0,0,0-.7,1.4,1.6,1.6,0,0,0,.7,1.3,15.2,15.2,0,0,0,3,1.1,14.9,14.9,0,0,1,5.2,2.4,5.2,5.2,0,0,1,1.8,4,6.8,6.8,0,0,1-2.3,5.2,9.7,9.7,0,0,1-6.6,2.2,11.3,11.3,0,0,1-6.6-1.7A8.2,8.2,0,0,1,1468,57.6Z" fill="#0046b7"/><path d="M1493.8,42.4h5.3l-2.5,12.5a17.2,17.2,0,0,0-.4,2.8,2,2,0,0,0,.6,1.5,2,2,0,0,0,1.6.7,3.2,3.2,0,0,0,1.4-.3,5.5,5.5,0,0,0,1.4-.9,8,8,0,0,0,1.3-1.3,12,12,0,0,0,1.1-2,16.8,16.8,0,0,0,.7-3l2-10h5.3l-4.1,21.1h-5l.6-2.9A9.6,9.6,0,0,1,1496,64a4.9,4.9,0,0,1-3.8-1.5,5.7,5.7,0,0,1-1.4-4,23.9,23.9,0,0,1,.7-4.4Z" fill="#0046b7"/><path d="M1512.7,63.5l5.6-29.2h5.3l-1.9,9.8a10.7,10.7,0,0,1,2.7-1.7,6.6,6.6,0,0,1,2.8-.5,6.2,6.2,0,0,1,5,2.2,10.3,10.3,0,0,1,1.8,6.5,17.7,17.7,0,0,1-.8,5.6,12.3,12.3,0,0,1-2.4,4.4,8.8,8.8,0,0,1-3.1,2.5,6.7,6.7,0,0,1-3.4.9,6.5,6.5,0,0,1-6.1-4l-.7,3.5Zm7.1-8.6a5.3,5.3,0,0,0,1.1,3.4,3.5,3.5,0,0,0,2.7,1.4,4,4,0,0,0,2.5-1.1,7.4,7.4,0,0,0,2-3.3,14.2,14.2,0,0,0,.8-4.5,5.7,5.7,0,0,0-1.1-3.6,3.5,3.5,0,0,0-2.6-1.3,4.2,4.2,0,0,0-3.4,2A11.8,11.8,0,0,0,1519.8,54.9Z" fill="#0046b7"/><path d="M1539.8,42.4h5l-.5,2.5c2-2,4-3,6.2-3a5.1,5.1,0,0,1,3.4,1,4,4,0,0,1,1.5,2.7,9.4,9.4,0,0,1,2.9-2.7,8.2,8.2,0,0,1,4-1,4.5,4.5,0,0,1,3.6,1.3,4.9,4.9,0,0,1,1.4,3.6,21,21,0,0,1-.6,3.8l-2.5,12.9h-5.3l2.5-12.9c.3-1.6.5-2.6.5-2.8a2.2,2.2,0,0,0-.5-1.4,2.1,2.1,0,0,0-1.5-.5,4.4,4.4,0,0,0-3.5,2.3,16.9,16.9,0,0,0-1.9,5.7l-1.9,9.6h-5.3l2.5-12.8a16.6,16.6,0,0,0,.4-2.9,1.9,1.9,0,0,0-2-1.9,3.2,3.2,0,0,0-1.7.6,6.1,6.1,0,0,0-1.7,1.5,19.7,19.7,0,0,0-1.2,2.5c-.1.5-.3,1.6-.7,3.3l-1.9,9.7h-5.3Z" fill="#0046b7"/><path d="M1573.7,42.4h5.3l-4.2,21.1h-5.3Zm1.5-8.1h5.3l-1,5.2h-5.3Z" fill="#0046b7"/><path d="M1581.4,46.6l.8-4.2h2.6l.6-3.4,6.1-4-1.4,7.4h3.2l-.8,4.2h-3.2l-1.8,8.8a23.1,23.1,0,0,0-.4,2.8,1.2,1.2,0,0,0,.4,1c.2.3.7.4,1.4.4l1.7-.2-.8,4.3a13.3,13.3,0,0,1-2.8.3,5.9,5.9,0,0,1-4.1-1.2,4.3,4.3,0,0,1-1.3-3.2,42.9,42.9,0,0,1,.7-4.5l1.7-8.5Z" fill="#0046b7"/><path d="M1594,46.6l.8-4.2h2.6l.6-3.4,6.1-4-1.4,7.4h3.2l-.8,4.2h-3.2l-1.8,8.8a23.1,23.1,0,0,0-.4,2.8,1.2,1.2,0,0,0,.4,1c.2.3.7.4,1.4.4l1.7-.2-.8,4.3a13.3,13.3,0,0,1-2.8.3,5.9,5.9,0,0,1-4.1-1.2,4.3,4.3,0,0,1-1.3-3.2,42.9,42.9,0,0,1,.7-4.5l1.7-8.5Z" fill="#0046b7"/><path d="M1624.4,54.7h-13.3a1.1,1.1,0,0,0-.1.5,4.9,4.9,0,0,0,1.2,3.4,3.2,3.2,0,0,0,2.7,1.3c1.7,0,3.1-1,4.1-2.9l4.7.8a9.6,9.6,0,0,1-3.7,4.6,9.1,9.1,0,0,1-11.6-1.1,10.4,10.4,0,0,1-2.5-7.1,14,14,0,0,1,2.3-7.8,9.8,9.8,0,0,1,8.7-4.5,7.2,7.2,0,0,1,5.7,2.4,9.8,9.8,0,0,1,2.1,6.7A21.3,21.3,0,0,1,1624.4,54.7Zm-4.5-3.5v-.6a5.2,5.2,0,0,0-1-3.5,3.1,3.1,0,0,0-2.6-1.2,3.8,3.8,0,0,0-2.9,1.4,7.1,7.1,0,0,0-1.8,3.9Z" fill="#0046b7"/><path d="M1644.4,63.5h-5l.4-2.3a8.5,8.5,0,0,1-2.8,2.1,6.4,6.4,0,0,1-3.1.7,6.3,6.3,0,0,1-5-2.3c-1.3-1.5-1.9-3.7-1.9-6.6a16,16,0,0,1,2.7-9.1c1.8-2.8,4.1-4.1,7-4.1a6.3,6.3,0,0,1,5.9,3.3l2.2-10.9h5.3Zm-12.2-8.6a5.2,5.2,0,0,0,1,3.5,3.2,3.2,0,0,0,2.6,1.3,4,4,0,0,0,2.7-1.1,6.8,6.8,0,0,0,2-3.2,13.5,13.5,0,0,0,.8-4.2,5.5,5.5,0,0,0-1.2-3.7,3,3,0,0,0-2.6-1.4c-1.6,0-2.8.9-3.8,2.8A12.1,12.1,0,0,0,1632.2,54.9Z" fill="#0046b7"/><path d="M1460,76.3h5l-.5,2.6c1.9-2.1,3.9-3.1,6.1-3.1a4.9,4.9,0,0,1,3.4,1,4.6,4.6,0,0,1,1.5,2.7,8.6,8.6,0,0,1,3-2.6,7.7,7.7,0,0,1,3.9-1.1,4.9,4.9,0,0,1,3.7,1.3,5.3,5.3,0,0,1,1.3,3.6,28.2,28.2,0,0,1-.5,3.8l-2.6,12.9H1479l2.6-12.9a23,23,0,0,0,.4-2.7,1.7,1.7,0,0,0-1.9-1.9c-1.4,0-2.5.7-3.6,2.2a16.9,16.9,0,0,0-1.9,5.7l-1.9,9.6h-5.3l2.5-12.8a15.9,15.9,0,0,0,.4-2.8,1.7,1.7,0,0,0-.5-1.4,1.6,1.6,0,0,0-1.4-.5,4.1,4.1,0,0,0-1.8.5A4.9,4.9,0,0,0,1465,82a6.5,6.5,0,0,0-1.2,2.5,27.3,27.3,0,0,0-.8,3.2l-1.8,9.7h-5.3Z" fill="#0046b7"/><path d="M1491.3,76.3h5.3l1.3,10.5c.4,2.7.5,4.6.6,5.7a46.7,46.7,0,0,1,2.8-6.8l4.7-9.4h5.6l-12.1,23.2c-1,1.9-1.8,3.2-2.3,4a6,6,0,0,1-2.1,1.8,5.4,5.4,0,0,1-2.9.7,11.4,11.4,0,0,1-3.8-.7l.5-4.2a5.7,5.7,0,0,0,1.8.3c1.6,0,3-1.3,4-4Z" fill="#0046b7"/><path d="M1528.7,82.3l-5.2-.5a8.4,8.4,0,0,1,3.1-4.4,9.6,9.6,0,0,1,5.9-1.6c2.5,0,4.4.5,5.6,1.6a5.3,5.3,0,0,1,1.8,4,14.9,14.9,0,0,1-.2,2.1c-.1.7-.4,2.6-1.1,5.6a33.8,33.8,0,0,0-.8,5.3,11.7,11.7,0,0,0,.5,3h-5.2a9.9,9.9,0,0,1-.3-2.4,9.3,9.3,0,0,1-2.7,2.2,7,7,0,0,1-3.1.7,5.4,5.4,0,0,1-4-1.7,6.1,6.1,0,0,1-1.6-4.4,6.6,6.6,0,0,1,1.8-4.9c1.1-1.2,3.2-1.9,6.2-2.2a21.9,21.9,0,0,0,5-.8,5.4,5.4,0,0,0,.4-1.9,1.8,1.8,0,0,0-.7-1.5,3,3,0,0,0-2-.6,3.9,3.9,0,0,0-2.3.6A3.3,3.3,0,0,0,1528.7,82.3Zm5,5.3-1.2.2c-2.7.4-4.4.9-5.2,1.5a2.5,2.5,0,0,0-.9,2,2,2,0,0,0,.7,1.6,2.1,2.1,0,0,0,1.7.7,4.6,4.6,0,0,0,2.3-.6,4.9,4.9,0,0,0,1.6-1.6,17.4,17.4,0,0,0,.9-3.1Z" fill="#0046b7"/><path d="M1546.2,76.3h5l-.4,2.2a11.8,11.8,0,0,1,3-2.1,7.3,7.3,0,0,1,3-.6,6.3,6.3,0,0,1,5,2.3,10.8,10.8,0,0,1,1.9,6.8,14.4,14.4,0,0,1-3.3,9.6,8,8,0,0,1-6.5,3.4,6.3,6.3,0,0,1-5.9-3.4l-2.2,11h-5.3Zm3.2,12.1a6.1,6.1,0,0,0,1.1,3.8,3.4,3.4,0,0,0,2.6,1.4,4.4,4.4,0,0,0,2.6-1,7.9,7.9,0,0,0,2-3.4,15.2,15.2,0,0,0,.8-4.4,5.3,5.3,0,0,0-1.1-3.7,3.2,3.2,0,0,0-2.6-1.2A4.3,4.3,0,0,0,1552,81a7.3,7.3,0,0,0-1.9,3.5A12.4,12.4,0,0,0,1549.4,88.4Z" fill="#0046b7"/><path d="M1569.3,76.3h5l-.4,2.2a11.8,11.8,0,0,1,3-2.1,8,8,0,0,1,3-.6,6.3,6.3,0,0,1,5,2.3,10.8,10.8,0,0,1,1.9,6.8,14.4,14.4,0,0,1-3.3,9.6,8,8,0,0,1-6.5,3.4,6.3,6.3,0,0,1-5.9-3.4l-2.1,11h-5.3Zm3.2,12.1a6.1,6.1,0,0,0,1.1,3.8,3.5,3.5,0,0,0,2.7,1.4,4.4,4.4,0,0,0,2.5-1,7.9,7.9,0,0,0,2-3.4,15.2,15.2,0,0,0,.8-4.4,5.8,5.8,0,0,0-1-3.7,3.4,3.4,0,0,0-2.7-1.2,4.3,4.3,0,0,0-2.8,1.1,7.3,7.3,0,0,0-1.9,3.5A12.4,12.4,0,0,0,1572.5,88.4Z" fill="#0046b7"/><path d="M1588.4,97.4l5.7-29.1h5.3l-5.7,29.1Z" fill="#0046b7"/><path d="M1603.1,76.3h5.3l-4.1,21.1H1599Zm1.5-8h5.3l-.9,5.1h-5.3Z" fill="#0046b7"/><path d="M1622.8,89.5l5.2.8a12,12,0,0,1-3.8,5.7,9.2,9.2,0,0,1-5.8,1.9,7.5,7.5,0,0,1-5.9-2.4,9.2,9.2,0,0,1-2.2-6.6,15.7,15.7,0,0,1,1.3-6.5,10,10,0,0,1,4-4.8,10.3,10.3,0,0,1,5.9-1.8,7.7,7.7,0,0,1,5.5,1.9,7.4,7.4,0,0,1,2.3,5.2l-5,.5a4.7,4.7,0,0,0-1-2.6,3.3,3.3,0,0,0-2.2-.8,4.1,4.1,0,0,0-2.8,1.2,8.8,8.8,0,0,0-2.1,3.7,20.6,20.6,0,0,0-.7,4.6,4.2,4.2,0,0,0,.9,2.9,2.5,2.5,0,0,0,2.1,1,3.6,3.6,0,0,0,2.5-1A6.3,6.3,0,0,0,1622.8,89.5Z" fill="#0046b7"/><path d="M1638,82.3l-5.1-.5a7.8,7.8,0,0,1,3-4.4,9.8,9.8,0,0,1,5.9-1.6c2.5,0,4.4.5,5.6,1.6a5.3,5.3,0,0,1,1.8,4,7.5,7.5,0,0,1-.2,2.1c-.1.7-.4,2.6-1.1,5.6a30.4,30.4,0,0,0-.7,5.3,11.3,11.3,0,0,0,.4,3h-5.1a10,10,0,0,1-.4-2.4,9.3,9.3,0,0,1-2.7,2.2,6.7,6.7,0,0,1-3.1.7,5.4,5.4,0,0,1-4-1.7,7.2,7.2,0,0,1,.2-9.3c1.1-1.2,3.2-1.9,6.2-2.2a24.4,24.4,0,0,0,5.1-.8,8.1,8.1,0,0,0,.3-1.9,1.8,1.8,0,0,0-.7-1.5,2.8,2.8,0,0,0-2-.6,3.9,3.9,0,0,0-2.3.6A3.3,3.3,0,0,0,1638,82.3Zm5.1,5.3-1.3.2c-2.7.4-4.4.9-5.2,1.5a2.5,2.5,0,0,0-.9,2,2,2,0,0,0,.7,1.6,2.1,2.1,0,0,0,1.7.7,4.6,4.6,0,0,0,2.3-.6,4.9,4.9,0,0,0,1.6-1.6,11.7,11.7,0,0,0,.9-3.1Z" fill="#0046b7"/><path d="M1652.9,80.5l.8-4.2h2.6l.7-3.4,6-3.9-1.4,7.3h3.3l-.9,4.2h-3.2l-1.7,8.9c-.3,1.6-.5,2.5-.5,2.7a1.1,1.1,0,0,0,.4,1,1.8,1.8,0,0,0,1.4.4h1.8l-.9,4.2a12.7,12.7,0,0,1-2.8.3,5.9,5.9,0,0,1-4.1-1.2,4.1,4.1,0,0,1-1.2-3.2,39.4,39.4,0,0,1,.6-4.5l1.7-8.5Z" fill="#0046b7"/><path d="M1668.3,76.3h5.3l-4.1,21.1h-5.3Zm1.5-8h5.3l-1,5.1h-5.3Z" fill="#0046b7"/><path d="M1675.5,88.6q0-5.8,3-9.3a10.5,10.5,0,0,1,8.1-3.5,9,9,0,0,1,6.8,2.6,9.7,9.7,0,0,1,2.4,6.9,13.9,13.9,0,0,1-3,8.9,10,10,0,0,1-8.2,3.7,10.2,10.2,0,0,1-4.9-1.2,7.5,7.5,0,0,1-3.2-3.4A10.4,10.4,0,0,1,1675.5,88.6Zm15.1-4a4.9,4.9,0,0,0-1.1-3.3,3.6,3.6,0,0,0-2.8-1.2,4.9,4.9,0,0,0-3.1,1.1,7.6,7.6,0,0,0-2.1,3.4,11.6,11.6,0,0,0-.7,4,5.7,5.7,0,0,0,1.1,3.6,4.1,4.1,0,0,0,2.9,1.3,4.5,4.5,0,0,0,3.7-2A11.3,11.3,0,0,0,1690.6,84.6Z" fill="#0046b7"/><path d="M1702,76.3h5l-.5,2.7a14.3,14.3,0,0,1,3.5-2.5,8.1,8.1,0,0,1,3.5-.7,5,5,0,0,1,3.8,1.5,5.6,5.6,0,0,1,1.4,3.9,27.5,27.5,0,0,1-.6,4.3l-2.4,11.9h-5.3l2.4-12c.3-1.8.5-2.8.5-3.2a2.1,2.1,0,0,0-2.3-2.3,4.5,4.5,0,0,0-2.6,1,7.6,7.6,0,0,0-2.2,2.8,25.4,25.4,0,0,0-1.3,5l-1.7,8.7h-5.3Z" fill="#0046b7"/><path d="M1726.6,68.3h5.3l-.9,4.5c-.5,2.7-1.3,4.5-2.4,5.6a6,6,0,0,1-4.3,1.7l.5-2.6a3.4,3.4,0,0,0,2-1.2,4.8,4.8,0,0,0,1.1-2.5h-2.4Zm8.9,0h5.3l-.9,4.5c-.5,2.7-1.3,4.5-2.4,5.6a6,6,0,0,1-4.3,1.7l.5-2.6a3.1,3.1,0,0,0,2-1.2,4.8,4.8,0,0,0,1.1-2.5h-2.4Z" fill="#0046b7"/></svg>