<svg id="stroke" xmlns="http://www.w3.org/2000/svg" viewBox="0 0 629 922.2"><title>resume final men</title><path d="M464,916H1a1,1,0,0,1,0-2H464a1,1,0,0,1,0,2Z" fill="#dd8237"/><path d="M272.4,526.1c0,.5,3.8,13,3.8,13l95-6.6-.8-14.7Z" fill-rule="evenodd"/><polygon points="314.7 522.6 314.9 536.4 332.4 535 332.2 520.9 314.7 522.6" fill="red" fill-rule="evenodd"/><path d="M273.6,539.6l7.4-1.1V525.2l5.5-.2v13.2l9.1-.8-.3-13s5.5-1.2,5.5-.8.2,13.6.2,13.6l40.8-2.6-.9-14.2,5.6-.4.7,14.4,9.5-.8L355.7,519l5.6-.4s1.4,14.1,1.2,14.4,8.7-.5,8.7-.5,1.7,21.7,2.6,31.3,11.7,79.9,11.7,79.9l7.1,54.7s6.6,59.2,6.8,64.7,4,52,3.9,53.8,5.5,90.7,5.5,90.7-18.2,4.9-26.6,5.4-21.7-.2-21.7-.2l-7.3-108.4s-3.8-53.4-6.8-69.4S334,652.1,334,652.1l-9.8-47.5-5.1,147.2-3.6,124.7-1,31.4-47.2-4.3.5-159.1.9-139.1-.6-39.5S271.1,539.6,273.6,539.6Z" fill="#0648b3" fill-rule="evenodd"/><path d="M328.8,563a.7.7,0,0,1-.7-.7c-.2-9.6-.5-25.9-.2-26.8a.7.7,0,1,1,1.3.5c-.1,1.1.1,16.3.3,26.3a.7.7,0,0,1-.7.7Z"/><path d="M325.4,552.7a8.6,8.6,0,0,1-4.3-1.1c-3.2-2.1-2.2-12.7-1.9-14.8a.6.6,0,0,1,.8-.6c.3,0,.6.4.6.7-.5,4.6-.6,12.3,1.3,13.5s6.4.4,6.4.4a.7.7,0,0,1,.9.5.8.8,0,0,1-.4.9A13.8,13.8,0,0,1,325.4,552.7Z"/><path d="M276.2,905h0a.7.7,0,0,1-.7-.7l4.6-365.7a.7.7,0,0,1,.7-.6h.1a.7.7,0,0,1,.7.6L277,904.4A.8.8,0,0,1,276.2,905Z"/><path d="M400.4,906.4a.8.8,0,0,1-.7-.5v-.3c-.1-3.5-7.2-121.1-9-141s-19.3-158.8-19.5-160.2l-9.4-71.3a.9.9,0,0,1,.6-.8.6.6,0,0,1,.8.6l9.4,71.4c.2,1.4,17.7,139.8,19.5,160.2,1.2,12.4,4.1,58.9,5.3,78.3,1,15.5,1.9,31.4,2.6,43.7.4,5.8.7,10.6.8,14a34.6,34.6,0,0,1,.2,5h0c0,.8-.2.9-.5.9Z"/><path d="M256.8,543.7c0,.4,2.2,13.3,2.2,18.2s.4,16.1.4,17.1.6,3.6,2.1,2.1.7,2.2,2.4,1.9,1.8-3.2,1.8-3.2.6,1.7,2,1.2,1.4-4,1.4-4,2.2,2,2.6-1.4c.1-1.5.2-21,.2-21s-.7-3.8.5-4.2,2.9,1,3.1,3.1-.2,4.7,1.6,4.5,3.1-6.7,1.4-9.9-1.1-11.8-2.1-13.1a47.1,47.1,0,0,1-2.5-4.8S256.8,542.3,256.8,543.7Z" fill="#ffbe9c" fill-rule="evenodd"/><path d="M422.4,452.7c-2.5-11.6-9.7-33.8-12.1-39.8s-10.8-24.5-14.4-30.1-10.9-16-16.9-20.9-15.4-8.6-22.3-10.1-8.3-1.5-8.3-1.5-64,3-64,3.2-10.2,3.5-14.9,4.9-16.8,4.5-23.2,15.7-16.6,29-21,46.5a372.1,372.1,0,0,0-7.6,37.6c-1.4,8.6-2.7,17.8-2.7,21.7s-1,4.9,3.4,11.5,22.3,32,22.3,32l14.3,20s12.8,1.4,22.3-18.1c0,0,29.8-2.5,36.9-2.9s43.4-3.8,43.4-3.8l12.8-.8,4-36.6s19,5.4,26.2,5.7,20.2.3,22.2-4.9S424.9,464.2,422.4,452.7ZM249.6,465.4s11.7-30.9,12.3-31.2l8.1,75.5ZM378,449.5l2-13.9s10.2,14.3,12,16.4S378,449.5,378,449.5Z" fill="#fff" fill-rule="evenodd"/><path d="M348.6,465.3c.5.2-.7,7.5-3.4,6.1a7.4,7.4,0,0,1-3.7-4S348.3,465.1,348.6,465.3Z" fill="#ccc" fill-rule="evenodd"/><path d="M349.5,446.1c-.6,0-11.4-3-11.4-3v5.6Z" fill="#c48362" fill-rule="evenodd"/><path d="M297.1,342.9s-12,9.9-13.4,10.9,12.2,10.8,12.2,11,21.5-6.8,21.8-6.6,23.8,4.7,23.9,4.4,8.4-12.2,8.2-12.2-12.1-7.7-16-10.7S297.7,341.6,297.1,342.9Z" fill="red" fill-rule="evenodd"/><path d="M278.2,279.5c-.1-.4-1.6-17.3-1.6-17.3s-4.5-10.5-3.8-14.7,6.1-14.6,16.1-17.8,29.9-5.8,38.1-1.8,15.7,11.5,16.9,18.2,1.3,27.5,1.3,27.8-1.1,19.8-1.4,20.2-1.1,8.4-3.9,11.6-6.5,6.9-7.9,7.6-33.3,2.1-33.3,2.1-7.9-3.9-10.5-7.7a79.2,79.2,0,0,1-7.1-15.1C280.5,290.1,278.2,279.5,278.2,279.5Z" fill="#4d4d4d" fill-rule="evenodd"/><path d="M282.9,279.9c-.3,0-6.1-2-6.4,1.1s1.5,8.8,3.4,10.7,7.5,8.1,7.5,8.1,5.3,9.9,7.9,12.7l5.8,6.4s.6,7.6-.6,12.5-2.8,10.9-4.1,12.2a82.6,82.6,0,0,0,20.6,2.3c11.9-.3,17.6-5.7,17.6-5.7s-3.8-6.8-4.9-10.5-1.5-10.8-1.5-10.8,7.4-8.1,9.7-13.7,5.2-11.4,5.2-11.4,4.1-7.2,4.4-10.2.4-7.5-.8-8.9-4.1-1.3-5-.5-5.9-13.6-5.9-13.6-16.6,5.4-25.9,6.6-26.5.5-26.5.5Z" fill="#ffbe9c" fill-rule="evenodd"/><path d="M103.6,914.8l-.5,6.3s-34,1.6-40.5.7-12.7-2.2-14.5-5.2.4-6.2,3.3-8S103.6,914.8,103.6,914.8Z" fill="#ffa14d" fill-rule="evenodd"/><path d="M203.5,860.9c-2.1-.5-143.1-.8-171.2-.9l-3.3-.2c-14.8,0-26.8,10.5-26.8,23.3S13.7,905.9,28,906.4L101.3,917l.7,3.9,16.1-2.1,10.8,1.4,53.3-9.1,20.6-3.6h.7c14.8,0,26.8-10.5,26.8-23.3S218.3,860.9,203.5,860.9Z" fill="#4d4d4d" fill-rule="evenodd"/><path d="M128.9,920.2l4.9-20.3s22,1.9,32.5,4.7,19.5,5.8,18.2,11.1-18.4,6.6-22.5,6.5Z" fill="#ffa14d" fill-rule="evenodd"/><path d="M208.2,842.1s-8.1-32.3-18.2-48.2-14.5-23.3-23.3-30.4-19.2-19.1-31.8-20.6-39.2.8-39.2.8a36,36,0,0,0-13.6,7.4c-6.5,5.7-25.3,16.4-35.8,37.7s-17,39.1-18.2,48.4-1.3,22.6,13.4,23,149.9.4,149.9.4S209.8,859.5,208.2,842.1ZM72.5,834.4l-7.6-.2s7.6-17,7.8-17.6Zm90,.1s-.2-17.9,0-18.4l8.3,18.3Z" fill="red" fill-rule="evenodd"/><path d="M95.2,832.9a29.7,29.7,0,0,1,6.9-.2c2.9.3,25-.3,25-.3s7.5,1.5,10.1,3.4-9.5,1.1-9.7,1-26.5.4-26.7.4S94.1,834.1,95.2,832.9Z" fill="#d98460" fill-rule="evenodd"/><path d="M82.8,690.4c0,.3,1.3,13.8,11.6,17.2s.5-9.8.3-9.8S82.8,689,82.8,690.4Z" fill="#733737" fill-rule="evenodd"/><path d="M132,706.9c.2-.1,10.1-3.8,9.7-17.2s-5.4-2-5.4-2Z" fill="#733737" fill-rule="evenodd"/><path d="M79.2,677.6s-2.4,2.1-.6,6.7a20.4,20.4,0,0,0,5.3,7.4c.2.3,2.9,3.6,4.3,5.7s5,8.8,6.7,10.8l6.1,7.1s.3,10.2-.2,14.6a24.7,24.7,0,0,1-3,10,36.3,36.3,0,0,1-3.2,4.1c-.2.1-1.7,6,10.5,7.2s19.8.4,23.7-1.3,7.8-4.7,8.3-5.5.7-.8-.8-1.8-6.1-6.7-8.1-11a44.4,44.4,0,0,1-3.6-14.5s6.2-6.6,8.8-11.1a53.7,53.7,0,0,0,4.3-9.3c.6-1.3,3.9-5.4,4.5-6.7s2.5-6.3,2.4-9.5.1-4.1-1.1-5.7-5.8-17.8-5.9-17.7l-24.1,2.7L91,661.2c.1-.1-8.2,4.5-8.3,4.9S79.2,677.6,79.2,677.6Z" fill="#ffbe9c" fill-rule="evenodd"/><path d="M78.6,678.5s2.9-3.9,5.7.5l1.1-12.4s15.3,0,26.3.3c16.7.4,24.4-6.3,24.4-6.3s3.5,13.3,3.4,13.4,3.7-.9,4.7,2c0,0,5.2-8.7,3.5-16.9a76,76,0,0,0-7.1-19.4c-1.6-2.5-4.7-6.9-7.3-9s-18.7-7.4-26.1-8-15.1,1.8-19.4,6.2-12.6,29.4-12.7,29.8S70.6,670,78.6,678.5Z" fill="#733737" fill-rule="evenodd"/><path d="M114.1,702.5a9.2,9.2,0,0,1-5.5-2.4.7.7,0,0,1,0-1c5.4-5.1,2.3-12.1,1.6-13.4l1.3-.7-.7.3.7-.3c.7,1.5,4,8.8-1.3,14.6.9.7,3.1,2,5.1,1.3a.7.7,0,0,1,.9.5.9.9,0,0,1-.4.9A5.2,5.2,0,0,1,114.1,702.5Z" fill="#dd8237"/><path d="M115.4,707.9a18.6,18.6,0,0,1-8.1-1.9.7.7,0,0,1-.3-.9.7.7,0,0,1,1-.3c.1,0,9,4.5,14.9-1.1a.7.7,0,0,1,1,1A11.8,11.8,0,0,1,115.4,707.9Z" fill="#dd8237"/><path d="M115.2,711.4a6.9,6.9,0,0,1-3.5-.9.5.5,0,0,1-.2-.6.4.4,0,0,1,.7-.2c.2,0,4.2,2.2,6.4-1a.5.5,0,0,1,.7-.1c.2.1.2.4.1.7A4.9,4.9,0,0,1,115.2,711.4Z" fill="#dd8237"/><g opacity="0.5"><path d="M142.7,680a.7.7,0,0,1-.5-.4c-.1-1.7-2.1-2.4-2.1-2.4s-.4-.4-.3-.6a.6.6,0,0,1,.6-.4c.1.1,2.7.9,2.8,3.3a.5.5,0,0,1-.4.5Z" fill="#dd8237"/></g><g opacity="0.5"><path d="M138.7,692h-.3a.5.5,0,0,1-.1-.7,60,60,0,0,0,3.3-6.7,7.4,7.4,0,0,0,.8-1.8.5.5,0,0,1,.7-.1c.3.1.3.4.2.7s-.4.8-.8,1.6a63.6,63.6,0,0,1-3.4,6.9Z" fill="#dd8237"/></g><g opacity="0.5"><path d="M79.7,683a.5.5,0,0,1-.5-.4c-.4-3,.9-3.5,1.5-3.6s1.5.3,1.6.8-.2.6-.4.6a.6.6,0,0,1-.6-.3.5.5,0,0,0-.6,0c-.5.2-.7,1.1-.5,2.3s-.2.6-.4.6Z" fill="#dd8237"/></g><g opacity="0.5"><path d="M86.5,692.6h-.4c-.8-.8-2.6-3.1-4-4.9a24.8,24.8,0,0,0-1.6-2.1.5.5,0,0,1-.1-.7.5.5,0,0,1,.7-.1,17.9,17.9,0,0,1,1.8,2.3,48.2,48.2,0,0,0,3.9,4.7.5.5,0,0,1,0,.7C86.7,692.6,86.6,692.6,86.5,692.6Z" fill="#dd8237"/></g><path d="M87.9,681.6c-.2.3,1.8,1,4,.3s5-2,7.4-1.9l6.7.3a5.2,5.2,0,0,0-4.5-3.6A20.4,20.4,0,0,0,87.9,681.6Z" fill="#272a28" fill-rule="evenodd"/><path d="M119.1,680.7s3.8-2.1,6.4-2.3,7.9.4,9.4-.1a2.6,2.6,0,0,0,1.7-1.6,24.7,24.7,0,0,0-7.3-1.5c-4.1-.1-5.7-.5-7.4.8A6.6,6.6,0,0,0,119.1,680.7Z" fill="#272a28" fill-rule="evenodd"/><path d="M103.7,686.5c-.1,0-1-2.5-1.2-2.4l-8.3,2,.6,1.3,2.8-.2h.5a3.8,3.8,0,0,0-.4,1.9c0,1.6.9,2.9,2.1,2.9s2.1-1.3,2.1-2.9a3.6,3.6,0,0,0-.7-2.2Z" fill="#272a28" fill-rule="evenodd"/><path d="M131.3,685.2l-8.6-2a11.5,11.5,0,0,0-.1,2.6l2.9.3a3.9,3.9,0,0,0-.5,2c0,1.6.9,3,2,3s2-1.4,2-3a4.8,4.8,0,0,0-.3-1.8l2.5.2A5.7,5.7,0,0,0,131.3,685.2Z" fill="#272a28" fill-rule="evenodd"/><path d="M90.5,666.6c-.3,0-9.2-11.7-9.4-12.2-1.7-4.8,1.2,11.5,4.9,12.2A33,33,0,0,0,90.5,666.6Z" fill="#461d1e" fill-rule="evenodd"/><g opacity="0.3"><path d="M102.5,716.3c-.1-.2,6.2,5.3,11.3,4.6a30,30,0,0,0,9.5-3.2s-4,6.4-9.5,6.4S104.3,719.9,102.5,716.3Z" fill="#733737" fill-rule="evenodd"/></g><rect x="103" y="815" width="26" height="52" rx="5" fill="#fff"/><path d="M105,813a1.1,1.1,0,0,1-.7-.3L94,802.4a1.1,1.1,0,0,1,1.5-1.5l10.3,10.3a1.1,1.1,0,0,1,0,1.5A1.1,1.1,0,0,1,105,813Z" fill="#fff"/><path d="M111.9,808a1.2,1.2,0,0,1-1-.8l-3.8-13.6a1.1,1.1,0,0,1,.7-1.3,1.1,1.1,0,0,1,1.3.8l3.8,13.5a.9.9,0,0,1-.7,1.3Z" fill="#fff"/><path d="M119.3,807.6h-.4a1,1,0,0,1-.5-1.4l5.9-12.5a1.1,1.1,0,0,1,1.4-.5,1,1,0,0,1,.5,1.4L120.3,807A1.1,1.1,0,0,1,119.3,807.6Z" fill="#fff"/><path d="M128.2,813.2a1.1,1.1,0,0,1-.8-.3,1.1,1.1,0,0,1,0-1.5l10.2-9.8a1.1,1.1,0,0,1,1.5,0,1,1,0,0,1-.1,1.5l-10.1,9.8A1.1,1.1,0,0,1,128.2,813.2Z" fill="#fff"/><path d="M114,828h-7a.5.5,0,0,1,0-1h7a.5.5,0,0,1,0,1Z" fill="#dd8237"/><path d="M113.3,826h-4.6c-1.5,0-2.7-1.6-2.7-3.8v-.4c0-2.2,1.2-3.8,2.7-3.8h4.6c1.5,0,2.7,1.6,2.7,3.8v.4C116,824.4,114.8,826,113.3,826Zm-4.6-7c-.9,0-1.7,1.3-1.7,2.8v.4c0,1.5.8,2.8,1.7,2.8h4.6c.9,0,1.7-1.3,1.7-2.8v-.4c0-1.5-.8-2.8-1.7-2.8Z" fill="#dd8237"/><path d="M133.3,900.6c-.6,0-6-1.3-83-23.5a.7.7,0,0,1-.5-.8.7.7,0,0,1,.9-.5c27.6,7.9,80.3,23,82.5,23.4a.8.8,0,0,1,.7.4.7.7,0,0,1-.5.9C133.4,900.6,133.4,900.6,133.3,900.6Z"/><path d="M64.2,881.1l-.5-.2-5.6-7.1a.7.7,0,0,1,.1-1,.8.8,0,0,1,1,.1l5.6,7.1a.8.8,0,0,1-.1,1Z"/><path d="M122.6,897a.8.8,0,0,1-.7-.5.7.7,0,0,1,.5-.9L190.7,877a.7.7,0,1,1,.4,1.4L122.8,897Z"/><path d="M179.3,881a.5.5,0,0,1-.5-.3.7.7,0,0,1,0-1l6.7-6.1a.7.7,0,0,1,1,1l-6.7,6.2Z"/><path d="M146.1,918.7H146a.4.4,0,0,1-.4-.6c.6-5.3,1.6-13.4,1.6-13.8a.5.5,0,0,1,1,0c0,.5-1.5,12.6-1.6,14A.7.7,0,0,1,146.1,918.7Z" fill="#c1272d"/><path d="M155.1,920.1H155c-.2,0-.4-.3-.4-.5l2-14.1a.4.4,0,0,1,.6-.4.5.5,0,0,1,.4.5l-2,14.1C155.6,920,155.3,920.1,155.1,920.1Z" fill="#c1272d"/><path d="M165.4,920.3a.5.5,0,0,1-.5-.4.6.6,0,0,1,.5-.6c3.6-.3,13.2-1.7,13.6-5.1s-8.1-5.1-14.1-6.7a.4.4,0,0,1-.3-.6.4.4,0,0,1,.6-.4c2.5.7,15.2,4.3,14.8,7.8s-13.1,5.9-14.6,6Z" fill="#c1272d"/><path d="M76.3,920c-.2,0-.5-.5-.5-.7l-.2-5.1a.6.6,0,0,1,.5-.6.5.5,0,0,1,.5.5l.2,5.2c0,.2-.2-.3-.5.7Z" fill="#c1272d"/><path d="M86.3,919.5a.5.5,0,0,1-.5-.4l-.6-3.7a.7.7,0,0,1,.4-.6c.3,0,.6.2.6.4l.6,3.8a.5.5,0,0,1-.5.5Z" fill="#c1272d"/><path d="M66.7,920.3c-.1,0-13.3-1.5-14.2-4.6a3.6,3.6,0,0,1,.5-3,5.5,5.5,0,0,1,3.8-2.1c.2,0,.5.2.5.4a.7.7,0,0,1-.4.6,4.6,4.6,0,0,0-3.1,1.7,2.6,2.6,0,0,0-.3,2.1c.5,2,11.9,3.9,13.3,4a.5.5,0,1,1-.1.9Z" fill="#c1272d"/><path d="M85.8,836.9c0,.2.4,15.8.4,16a6.1,6.1,0,0,0,4,1.9l14.6.4s9.2.7,9-.7-6-2.1-8.6-2.5-2.8-1.4-1-1.5,10.3.1,10.9-.2,1.4-2-1.4-2.4-7.8-.9-8.8-1.2-1.5-2,1.2-1.8,8.2.3,9,.2.8-2.5-2-2.9-7.1-.6-8.6-1.1-.8-1.6,2.1-1.5,8.2.4,9.1.1.5-2.2-1.6-2.5-12.4-2.3-14.2-2.8-2.2-1-3.3-1.5S86.3,833.2,85.8,836.9Z" fill="#ffbe9c" fill-rule="evenodd"/><path d="M137.1,835.3l-8.4-.5c-3.5.7-10.9,2.2-12.7,2.4s-2.4,2.4-1.6,2.6,6.2,0,9.1-.1,3.7.9,2.1,1.4-5.7.9-8.6,1.2-2.9,2.9-2.1,3,6.4-.1,9.1-.3,2.1,1.5,1.2,1.8-6,.8-8.8,1.2-1.9,2.2-1.4,2.5,9.1.1,10.9.2,1.7,1.1-1,1.5-8.5,1.2-8.7,2.5,9,.7,9,.7,13-.5,14.7-.4c6.1.4,6.6-2.3,4.2-10C143,841.5,142.2,835.7,137.1,835.3Z" fill="#ffbe9c" fill-rule="evenodd"/><path d="M317.1,303.3c-.4,0-.7-.2-.7-.6s.2-.7.6-.8c2.3-.2,3.8-2.4,4.5-3.5-7.6-2.9-7.4-11-7.3-12.7a.7.7,0,0,1,.9-.6c.4,0,.9.3.9.7h0c-1,1.5-.4,9.2,6.9,11.5a.8.8,0,0,1,.4.4.7.7,0,0,1-.1.6c-.1.1-2.1,4.6-6,5Z" fill="#dd8237"/><path d="M315.2,310.7a11.5,11.5,0,0,1-6.9-2.2.7.7,0,0,1-.2-1,.7.7,0,0,1,1-.1c6.7,4.7,14.9-.9,15-.9a.6.6,0,0,1,.9.1.7.7,0,0,1-.1,1A18.7,18.7,0,0,1,315.2,310.7Z" fill="#dd8237"/><path d="M317,316.2a4.8,4.8,0,0,1-3.7-1.6.6.6,0,0,1,.1-.7.5.5,0,0,1,.7,0c2.6,2.9,6.3.2,6.4.1s.6-.1.7.1a.5.5,0,0,1-.1.7A7.2,7.2,0,0,1,317,316.2Z" fill="#dd8237"/><g opacity="0.5"><path d="M278.4,284.1a.7.7,0,0,1-.5-.4c-.3-2.3,2.1-3.6,2.2-3.7a.5.5,0,0,1,.6.2.4.4,0,0,1-.2.7s-1.8,1.1-1.6,2.7-.1.5-.4.5Z" fill="#dd8237"/></g><g opacity="0.5"><path d="M284.7,294.5l-.3-.2a53,53,0,0,1-4.7-5.7l-1.1-1.4a.5.5,0,0,1,.7-.7l1.2,1.5a64,64,0,0,0,4.5,5.6.5.5,0,0,1,.1.7Z" fill="#dd8237"/></g><g opacity="0.5"><path d="M346.3,279.6a.7.7,0,0,1-.5-.4c-.3-2.3-1-2.5-1.3-2.6s-.5.2-.5.3-.1.5-.4.5a.6.6,0,0,1-.6-.5,1.4,1.4,0,0,1,1.2-1.2c.6-.1,2.1,0,2.6,3.3.1.3-.1.5-.4.6Z" fill="#dd8237"/></g><g opacity="0.5"><path d="M342.5,291.8h-.3a.4.4,0,0,1-.1-.6c.5-.9,1.6-3.7,2.4-5.7l1.1-2.7a.6.6,0,0,1,.7-.1.5.5,0,0,1,.1.7l-1,2.5a52,52,0,0,1-2.5,5.8Z" fill="#dd8237"/></g><path d="M338.8,271.8c.4.2-1.5,1.6-4.1,1.5s-6-.8-8.4.1l-7.1,2.3s-.1-4.1,3.6-5.5A21.6,21.6,0,0,1,338.8,271.8Z" fill="#272a28" fill-rule="evenodd"/><path d="M306.6,277.3s-4.7-.9-7.6-.2-8.6,2.7-10.4,2.7a2.9,2.9,0,0,1-2.3-1,30,30,0,0,1,7.6-3.7c4.5-1.3,6.1-2.2,8.4-1.5A6.3,6.3,0,0,1,306.6,277.3Z" fill="#272a28" fill-rule="evenodd"/><path d="M325.8,284c.1,0,.4-2.8.6-2.8l8.6.4-.3,1.5-2.8.4h-.5a4.8,4.8,0,0,1,.9,1.9c.3,1.7-.3,3.3-1.4,3.6s-2.4-1-2.8-2.7a4.2,4.2,0,0,1,.2-2.5Z" fill="#272a28" fill-rule="evenodd"/><path d="M295.3,285.3l9.2-1.9a13.6,13.6,0,0,1,.1,2.8l-3.1.2a5.1,5.1,0,0,1,.5,2.2c-.1,1.8-1.1,3.2-2.3,3.2s-2.1-1.5-2.1-3.3a5.3,5.3,0,0,1,.5-1.9l-2.7.2A8.1,8.1,0,0,1,295.3,285.3Z" fill="#272a28" fill-rule="evenodd"/><path d="M330.8,260.9c.3-.1,7.5-12.9,7.7-13.4,1-5,.4,11.5-3.2,12.7A26.3,26.3,0,0,1,330.8,260.9Z" fill-rule="evenodd"/><g opacity="0.3"><path d="M302.5,320.4c-.2-.3,6.7,4.8,13.1,4.5,4.4-.3,11.9-5.1,11.9-5.1s-6.1,8.1-11.6,8.4S304.4,323.8,302.5,320.4Z" fill="#733737" fill-rule="evenodd"/></g><path d="M297.4,360.6l-.3-.2c-10.6-7.9-10.8-8.2-10.9-8.3l1.2-.8-.6.4.5-.5,10.3,7.8,19.9-7.4,21.8,4.9,6.3-8.1,1.1.9-6.9,8.8-22.2-5Z" fill="#fff"/><path d="M277.3,526.1a.5.5,0,0,1-.6-.4l-7.4-15.6a.7.7,0,0,1,.4-.9.7.7,0,0,1,.9.3l7.3,15.6a.7.7,0,0,1-.3,1Z" fill="#b3b3b3"/><path d="M239.4,468.5a.7.7,0,0,1,0-1.4l9.9-2a.8.8,0,0,1,.9.5.9.9,0,0,1-.6.9C248,466.8,240.2,468.5,239.4,468.5Z" fill="#b3b3b3"/><path d="M261.8,435.4h-.3a.6.6,0,0,1-.3-.9c.4-1.3,6.8-37.5,4.9-50.3-.1-.4.2-.7.6-.8a.8.8,0,0,1,.8.6c1.9,13.1-4.5,50-5,51.1A.8.8,0,0,1,261.8,435.4Z" fill="#b3b3b3"/><path d="M267,397.2a.7.7,0,0,1-.7-.7c0-1.5-2-5.8-3-7.9s-.7-1.4-.7-1.6a.7.7,0,0,1,1.3-.5l.7,1.5c1.5,3.2,3.1,6.8,3.1,8.5A.7.7,0,0,1,267,397.2Z" fill="#b3b3b3"/><path d="M380,436.6a.8.8,0,0,1-.6-.4c-2.8-6.7-5.8-52.3-5.8-52.7a.8.8,0,0,1,.7-.7.8.8,0,0,1,.8.7c0,1.8,3,45.9,5.6,52.1a.8.8,0,0,1-.4,1Z" fill="#b3b3b3"/><path d="M375.4,399.1a.7.7,0,0,1-.7-.7c0-3.2,3.6-10.6,3.6-10.6a.8.8,0,0,1,1-.4.8.8,0,0,1,.3,1c-.9,1.8-3.5,7.6-3.5,10A.7.7,0,0,1,375.4,399.1Z" fill="#b3b3b3"/><path d="M409.9,458.7h-.4c-.1,0-6.7-4.3-29.8-7.8s-29.1-3.4-29.2-3.4a.7.7,0,1,1,0-1.4h0c.1,0,7.6.2,29.4,3.4,23.4,3.5,30.1,7.8,30.3,8a.6.6,0,0,1,.2,1A.5.5,0,0,1,409.9,458.7Z" fill="#b3b3b3"/><path d="M393.6,452.5a.8.8,0,0,1-.7-.5.7.7,0,0,1,.5-.9l7.3-2.2a.7.7,0,1,1,.4,1.4l-7.3,2.2Z" fill="#b3b3b3"/><path d="M374.1,482h-.3l-27.4-9.7a.7.7,0,1,1,.5-1.3l27.4,9.6c.4.2.6.6.4.9A.6.6,0,0,1,374.1,482Z" fill="#b3b3b3"/><path d="M309.2,522.8h-1.4c.6-9.8-6.2-157.8-6.2-159.2H303C303.2,369.5,309.8,512.9,309.2,522.8Z" fill="#b3b3b3"/><path d="M339.9,520.2h-1.4c.6-5.7-4.9-156.8-5-158.3h1.4C335.2,368,340.5,514.5,339.9,520.2Z" fill="#b3b3b3"/><path d="M321.4,382c0,2.6-1,4.7-2.1,4.7s-2.1-2.1-2.1-4.7.9-4.8,2.1-4.8S321.4,379.4,321.4,382Z" fill="#b3b3b3" fill-rule="evenodd"/><path d="M322.5,410.2c0,2.6-1,4.7-2.1,4.7s-2.2-2.1-2.2-4.7,1-4.8,2.2-4.8S322.5,407.6,322.5,410.2Z" fill="#b3b3b3" fill-rule="evenodd"/><path d="M325.7,494.7c0,2.6-.9,4.8-2.1,4.8s-2.1-2.2-2.1-4.8.9-4.7,2.1-4.7S325.7,492.1,325.7,494.7Z" fill="#b3b3b3" fill-rule="evenodd"/><rect x="314" y="427" width="25" height="48" rx="5" fill="#333"/><g opacity="0.5"><path d="M326,438h-8a.5.5,0,0,1,0-1h8a.5.5,0,0,1,0,1Z" fill="#fff"/></g><g opacity="0.5"><path d="M323.8,436h-4.2c-2.6,0-2.6-2.6-2.6-3.5s0-3.5,2.6-3.5h4.2c2.6,0,2.6,2.6,2.6,3.5S326.4,436,323.8,436Zm-4.2-6c-.9,0-1.6.4-1.6,2.5s.7,2.5,1.6,2.5h4.2c1,0,1.6-.4,1.6-2.5s-.6-2.5-1.6-2.5Z" fill="#fff"/></g><path d="M349.9,445.9c-1.4-.4-9.9,1.9-12.5,2.6l-8.8-.4c-4.2.7-13.1,2.2-15.2,2.4s-2.9,2.3-1.9,2.6,7.4,0,10.8-.1,4.4.9,2.6,1.4-6.9.8-10.3,1.2-3.5,2.8-2.5,2.9,7.6-.1,10.8-.3,2.5,1.5,1.4,1.8-7.1.8-10.5,1.2-2.2,2.1-1.6,2.4,10.9.1,13,.2,2.1,1.1-1.2,1.5-10.1,1.2-10.3,2.5,10.7.7,10.7.7,15.5-.5,17.5-.4a12.8,12.8,0,0,0,4.2-.3c1.6-.2,2.6-.8,2.7-1.5S351.5,446.5,349.9,445.9Z" fill="#ffbe9c" fill-rule="evenodd"/><path d="M341.5,467.4" fill="#fff" fill-rule="evenodd"/><g opacity="0.7"><path d="M261.5,581h0a.5.5,0,0,1-.5-.4c0-.2.8-16.8.8-17.3s.3-.3.5-.3h0c.3,0,.5.1.5.4s-.7,16.6-.8,17.3S261.8,581,261.5,581Z" fill="#dd8237"/></g><g opacity="0.7"><path d="M265.3,581.6a.5.5,0,0,1-.5-.4v-7.3c0-3.6.1-7.1.1-7.3a.5.5,0,0,1,.5-.5.5.5,0,0,1,.5.5c0,.2-.1,3.7-.1,7.3v7.3C265.8,581.4,265.5,581.6,265.3,581.6Z" fill="#dd8237"/></g><g opacity="0.7"><path d="M269,579a.5.5,0,0,1-.5-.5c0-2.4-.1-14.7,0-15.4s.3-.4.6-.4a.7.7,0,0,1,.4.6c-.1.6-.1,9.4,0,15.2a.5.5,0,0,1-.5.5Z" fill="#dd8237"/></g><path d="M372.7,867.1h-.3a.6.6,0,0,1-.3-.9c5.9-10.5,7.8-34.9,5.5-72.6-.2-3.3-.2-3.7-.1-3.9s.4-.7.8-.6a.7.7,0,0,1,.5.8c0,.3.1,1.8.2,3.6,2.3,38,.4,62.6-5.7,73.4A.6.6,0,0,1,372.7,867.1Z"/><path d="M362.8,919h45.4s-2.9-18.3-22.9-16.6S363.3,914,362.8,919Z" fill-rule="evenodd"/><path d="M314.1,919l-15.6-.3-.2-3.4s-19.3,2.8-33.3,3.4-21.2-1-23.4-1.6-5.2-2.9-3.2-4.8,29.1-9.3,29.1-9.3l46.9,4.2Z" fill-rule="evenodd"/><path d="M489.9,113.6V112h4.9v1.6Z" fill="#0046b7"/><path d="M499.3,117.5l5-12.9h1.8l5.3,12.9h-2l-1.5-3.9h-5.4l-1.4,3.9Zm3.7-5.3h4.4l-1.3-3.6a19.1,19.1,0,0,1-1-2.7,10.3,10.3,0,0,1-.7,2.5Z" fill="#0046b7"/><path d="M512.5,121.1v-13H514v1.3a2.9,2.9,0,0,1,1.1-1.1,4.2,4.2,0,0,1,1.6-.4,3.7,3.7,0,0,1,2.1.6,4.2,4.2,0,0,1,1.4,1.8,6.4,6.4,0,0,1,.4,2.4,5.3,5.3,0,0,1-.5,2.6,3.4,3.4,0,0,1-1.5,1.8,3.6,3.6,0,0,1-2,.6,3.7,3.7,0,0,1-1.5-.3,4.3,4.3,0,0,1-1-.9v4.6Zm1.5-8.2a3.7,3.7,0,0,0,.7,2.6,2.3,2.3,0,0,0,3.6,0,4.3,4.3,0,0,0,.7-2.8,3.8,3.8,0,0,0-.7-2.6,2.3,2.3,0,0,0-1.8-.9,2.6,2.6,0,0,0-1.8.9A4.5,4.5,0,0,0,514,112.9Z" fill="#0046b7"/><path d="M522.5,121.1v-13H524v1.3a2.9,2.9,0,0,1,1.1-1.1,4.2,4.2,0,0,1,1.6-.4,3.7,3.7,0,0,1,2.1.6,4.2,4.2,0,0,1,1.4,1.8,6.4,6.4,0,0,1,.4,2.4,5.3,5.3,0,0,1-.5,2.6,3.4,3.4,0,0,1-1.5,1.8,3.6,3.6,0,0,1-2,.6,3.2,3.2,0,0,1-1.4-.3,3.3,3.3,0,0,1-1.1-.9v4.6Zm1.5-8.2a3.7,3.7,0,0,0,.7,2.6,2.3,2.3,0,0,0,3.6,0,4.3,4.3,0,0,0,.7-2.8,3.8,3.8,0,0,0-.7-2.6,2.3,2.3,0,0,0-1.8-.9,2.2,2.2,0,0,0-1.7.9A3.9,3.9,0,0,0,524,112.9Z" fill="#0046b7"/><path d="M532.5,117.5V104.6h1.6v12.9Z" fill="#0046b7"/><path d="M536.6,106.4v-1.8h1.5v1.8Zm0,11.1v-9.4h1.5v9.4Z" fill="#0046b7"/><path d="M546.6,114.1l1.6.2a4.3,4.3,0,0,1-1.3,2.5,3.9,3.9,0,0,1-2.6.9,3.9,3.9,0,0,1-3.1-1.3,5.3,5.3,0,0,1-1.1-3.6,5.5,5.5,0,0,1,.5-2.6,3.1,3.1,0,0,1,1.5-1.7,4.3,4.3,0,0,1,2.2-.6,3.9,3.9,0,0,1,2.5.8,3.3,3.3,0,0,1,1.3,2.2l-1.6.2a2.2,2.2,0,0,0-.8-1.4,1.9,1.9,0,0,0-1.3-.5,2.5,2.5,0,0,0-2,.9,4.1,4.1,0,0,0-.7,2.7,3.8,3.8,0,0,0,.7,2.7,2.3,2.3,0,0,0,1.9.9,2.5,2.5,0,0,0,1.6-.6A2.7,2.7,0,0,0,546.6,114.1Z" fill="#0046b7"/><path d="M555.6,116.3a5.1,5.1,0,0,1-1.6,1.1l-1.8.3a3.6,3.6,0,0,1-2.4-.8,2.6,2.6,0,0,1-.8-1.9,2.6,2.6,0,0,1,1.1-2.1,6.7,6.7,0,0,1,1.2-.6l1.4-.2,2.8-.5v-.5c0-.6-.1-1.1-.4-1.3a2.4,2.4,0,0,0-1.8-.6,3.5,3.5,0,0,0-1.7.4,3.7,3.7,0,0,0-.8,1.4l-1.5-.2a3.4,3.4,0,0,1,.7-1.6,2.8,2.8,0,0,1,1.4-.9,4.6,4.6,0,0,1,2.1-.4,5,5,0,0,1,1.9.3,2.3,2.3,0,0,1,1.1.7,2.2,2.2,0,0,1,.5,1.1,5.8,5.8,0,0,1,.1,1.5v2.1a18,18,0,0,0,.1,2.8,7.6,7.6,0,0,0,.4,1.1H556A3.4,3.4,0,0,1,555.6,116.3Zm-.1-3.5-2.6.6-1.4.3-.6.5a1.9,1.9,0,0,0-.2.8,1.4,1.4,0,0,0,.5,1,2,2,0,0,0,1.4.5,4.2,4.2,0,0,0,1.6-.4,3.8,3.8,0,0,0,1.1-1.1,6.3,6.3,0,0,0,.2-1.6Z" fill="#0046b7"/><path d="M559.6,117.5v-9.4H561v1.4a3.3,3.3,0,0,1,3-1.6,4,4,0,0,1,1.5.3,3.1,3.1,0,0,1,1.1.8,6.1,6.1,0,0,1,.5,1.2c0,.3.1.8.1,1.5v5.8h-1.6v-5.7a4.6,4.6,0,0,0-.2-1.4,1.4,1.4,0,0,0-.7-.8,2,2,0,0,0-1.1-.3,2.7,2.7,0,0,0-1.7.6,3.4,3.4,0,0,0-.8,2.5v5.1Z" fill="#0046b7"/><path d="M573,116.1l.3,1.4h-1.2a2.6,2.6,0,0,1-1.4-.3,1.3,1.3,0,0,1-.6-.7,4.2,4.2,0,0,1-.2-1.9v-5.3h-1.2v-1.3h1.2v-2.3l1.5-.9v3.2H573v1.3h-1.6v5.4a5.5,5.5,0,0,0,.1.9l.3.3H573Z" fill="#0046b7"/><path d="M384.9,288.1a2.1,2.1,0,0,1-1.9-1.3,2,2,0,0,1,1.2-2.5c29.6-11.4,48.7-28.9,56.8-52.2,15.4-44.2-14-94.8-14.3-95.3a2,2,0,1,1,3.4-2c1.3,2.1,30.7,52.7,14.7,98.6-8.5,24.4-28.4,42.8-59.2,54.6Z" fill="#fbb03b"/><path d="M563,136H256a66.1,66.1,0,0,1-66-66V66A66.1,66.1,0,0,1,256,0H563a66.1,66.1,0,0,1,66,66v4A66.1,66.1,0,0,1,563,136ZM256,4a62.1,62.1,0,0,0-62,62v4a62.1,62.1,0,0,0,62,62H563a62.1,62.1,0,0,0,62-62V66A62.1,62.1,0,0,0,563,4Z" fill="#fbb03b"/><path d="M228,45.8h-5.4l.9-4.5a10.4,10.4,0,0,1,2.5-5.6,5.8,5.8,0,0,1,4.3-1.7l-.5,2.6a4.3,4.3,0,0,0-2.1,1.2,5.8,5.8,0,0,0-1.1,2.5h2.5Zm8.9,0h-5.3l.8-4.5c.6-2.7,1.4-4.5,2.5-5.6a5.8,5.8,0,0,1,4.3-1.7l-.5,2.6a4.3,4.3,0,0,0-2.1,1.2,7.4,7.4,0,0,0-1.1,2.5H238Z" fill="#0046b7"/><path d="M254,34.3h5.5L256.1,52c-.9,4.7-2.1,7.8-3.6,9.5s-3.7,2.5-6.8,2.5a7.8,7.8,0,0,1-5.8-2,6.9,6.9,0,0,1-2-5.2c0-.5.1-1,.1-1.6l5.2-.6a8.6,8.6,0,0,0-.1,1.5,2.8,2.8,0,0,0,.7,2.1,3,3,0,0,0,2.3.8,3.4,3.4,0,0,0,3-1.4,25.1,25.1,0,0,0,1.5-5.8Z" fill="#0046b7"/><path d="M263.5,42.4h5.3l-2.5,12.5a17.2,17.2,0,0,0-.4,2.8,2,2,0,0,0,.6,1.5,2,2,0,0,0,1.6.7,3.2,3.2,0,0,0,1.4-.3,5.5,5.5,0,0,0,1.4-.9,8,8,0,0,0,1.3-1.3,12,12,0,0,0,1.1-2,16.8,16.8,0,0,0,.7-3l2-10h5.3l-4.1,21.1h-5l.6-2.9a9.6,9.6,0,0,1-7.1,3.4,4.9,4.9,0,0,1-3.8-1.5,5.7,5.7,0,0,1-1.4-4,23.9,23.9,0,0,1,.7-4.4Z" fill="#0046b7"/><path d="M281.8,57.6l5.1-.9a6.4,6.4,0,0,0,1.7,2.5,4.7,4.7,0,0,0,2.8.7,4.4,4.4,0,0,0,2.9-.9,1.9,1.9,0,0,0,.8-1.4,2.1,2.1,0,0,0-.4-1.1,6.5,6.5,0,0,0-2.2-1,30.5,30.5,0,0,1-6-2.7,5.2,5.2,0,0,1-1.7-4.1,5.7,5.7,0,0,1,1.7-4.3c1.6-1.7,4-2.5,7.2-2.5a9.2,9.2,0,0,1,5.7,1.5,6.5,6.5,0,0,1,2.5,4l-4.9.9a3.3,3.3,0,0,0-1.3-1.7,5.1,5.1,0,0,0-2.8-.8,3.8,3.8,0,0,0-2.4.6,1.9,1.9,0,0,0-.8,1.4,1.7,1.7,0,0,0,.8,1.3,15.2,15.2,0,0,0,3,1.1c2.5.8,4.3,1.6,5.1,2.4a5,5,0,0,1,1.9,4,6.9,6.9,0,0,1-2.4,5.2,9.4,9.4,0,0,1-6.6,2.2,10.9,10.9,0,0,1-6.5-1.7A8.3,8.3,0,0,1,281.8,57.6Z" fill="#0046b7"/><path d="M304.9,46.6l.8-4.2h2.6l.6-3.4,6.1-4-1.4,7.4h3.2l-.8,4.2h-3.3L311,55.4a23.1,23.1,0,0,0-.4,2.8,1.5,1.5,0,0,0,.3,1,2,2,0,0,0,1.4.4l1.8-.2-.8,4.3a13.3,13.3,0,0,1-2.8.3c-1.9,0-3.3-.4-4.1-1.2a3.9,3.9,0,0,1-1.3-3.2,25.8,25.8,0,0,1,.7-4.5l1.6-8.5Z" fill="#0046b7"/><path d="M326,57.6l5.1-.9a5.5,5.5,0,0,0,1.7,2.5,4.7,4.7,0,0,0,2.8.7,4.6,4.6,0,0,0,2.9-.9,1.7,1.7,0,0,0,.7-1.4,1.5,1.5,0,0,0-.4-1.1,5.6,5.6,0,0,0-2.2-1,28.6,28.6,0,0,1-5.9-2.7,5.2,5.2,0,0,1-1.8-4.1,6.1,6.1,0,0,1,1.7-4.3c1.7-1.7,4-2.5,7.2-2.5a9.6,9.6,0,0,1,5.8,1.5,6.3,6.3,0,0,1,2.4,4l-4.9.9a3.1,3.1,0,0,0-1.2-1.7,5.5,5.5,0,0,0-2.9-.8,3.8,3.8,0,0,0-2.4.6,1.7,1.7,0,0,0-.7,1.4,1.6,1.6,0,0,0,.7,1.3,15.2,15.2,0,0,0,3,1.1,14.9,14.9,0,0,1,5.2,2.4,5.2,5.2,0,0,1,1.8,4,6.8,6.8,0,0,1-2.3,5.2,9.7,9.7,0,0,1-6.6,2.2,11.3,11.3,0,0,1-6.6-1.7A8.2,8.2,0,0,1,326,57.6Z" fill="#0046b7"/><path d="M351.8,42.4h5.3l-2.5,12.5a17.2,17.2,0,0,0-.4,2.8,2,2,0,0,0,.6,1.5,2,2,0,0,0,1.6.7,3.2,3.2,0,0,0,1.4-.3,5.5,5.5,0,0,0,1.4-.9,8,8,0,0,0,1.3-1.3,12,12,0,0,0,1.1-2,16.8,16.8,0,0,0,.7-3l2-10h5.3l-4.1,21.1h-5l.6-2.9A9.6,9.6,0,0,1,354,64a4.9,4.9,0,0,1-3.8-1.5,5.7,5.7,0,0,1-1.4-4,23.9,23.9,0,0,1,.7-4.4Z" fill="#0046b7"/><path d="M370.7,63.5l5.6-29.2h5.3l-1.9,9.8a10.7,10.7,0,0,1,2.7-1.7,6.6,6.6,0,0,1,2.8-.5,6.2,6.2,0,0,1,5,2.2,10.3,10.3,0,0,1,1.8,6.5,17.7,17.7,0,0,1-.8,5.6,12.3,12.3,0,0,1-2.4,4.4,8.8,8.8,0,0,1-3.1,2.5,6.7,6.7,0,0,1-3.4.9,6.5,6.5,0,0,1-6.1-4l-.7,3.5Zm7.1-8.6a5.3,5.3,0,0,0,1.1,3.4,3.5,3.5,0,0,0,2.7,1.4,4,4,0,0,0,2.5-1.1,7.4,7.4,0,0,0,2-3.3,14.2,14.2,0,0,0,.8-4.5,5.7,5.7,0,0,0-1.1-3.6,3.5,3.5,0,0,0-2.6-1.3,4.2,4.2,0,0,0-3.4,2A11.8,11.8,0,0,0,377.8,54.9Z" fill="#0046b7"/><path d="M397.8,42.4h5l-.5,2.5c2-2,4-3,6.2-3a5.1,5.1,0,0,1,3.4,1,4,4,0,0,1,1.5,2.7,9.4,9.4,0,0,1,2.9-2.7,8.2,8.2,0,0,1,4-1,4.5,4.5,0,0,1,3.6,1.3,4.9,4.9,0,0,1,1.4,3.6,21,21,0,0,1-.6,3.8l-2.5,12.9h-5.3l2.5-12.9c.3-1.6.5-2.6.5-2.8a2.2,2.2,0,0,0-.5-1.4,2.1,2.1,0,0,0-1.5-.5,4.4,4.4,0,0,0-3.5,2.3,16.9,16.9,0,0,0-1.9,5.7l-1.9,9.6h-5.3l2.5-12.8a16.6,16.6,0,0,0,.4-2.9,1.9,1.9,0,0,0-2-1.9,3.2,3.2,0,0,0-1.7.6,6.1,6.1,0,0,0-1.7,1.5,19.7,19.7,0,0,0-1.2,2.5c-.1.5-.3,1.6-.7,3.3L399,63.5h-5.3Z" fill="#0046b7"/><path d="M431.7,42.4H437l-4.2,21.1h-5.3Zm1.5-8.1h5.3l-1,5.2h-5.3Z" fill="#0046b7"/><path d="M439.4,46.6l.8-4.2h2.6l.6-3.4,6.1-4-1.4,7.4h3.2l-.8,4.2h-3.2l-1.8,8.8a23.1,23.1,0,0,0-.4,2.8,1.2,1.2,0,0,0,.4,1c.2.3.7.4,1.4.4l1.7-.2-.8,4.3a13.3,13.3,0,0,1-2.8.3,5.9,5.9,0,0,1-4.1-1.2,4.3,4.3,0,0,1-1.3-3.2,42.9,42.9,0,0,1,.7-4.5l1.7-8.5Z" fill="#0046b7"/><path d="M452,46.6l.8-4.2h2.6L456,39l6.1-4-1.4,7.4h3.2l-.8,4.2h-3.2l-1.8,8.8a23.1,23.1,0,0,0-.4,2.8,1.2,1.2,0,0,0,.4,1c.2.3.7.4,1.4.4l1.7-.2-.8,4.3a13.3,13.3,0,0,1-2.8.3,5.9,5.9,0,0,1-4.1-1.2,4.3,4.3,0,0,1-1.3-3.2,42.9,42.9,0,0,1,.7-4.5l1.7-8.5Z" fill="#0046b7"/><path d="M482.4,54.7H469.1a1.1,1.1,0,0,0-.1.5,4.9,4.9,0,0,0,1.2,3.4,3.2,3.2,0,0,0,2.7,1.3c1.7,0,3.1-1,4.1-2.9l4.7.8a9.6,9.6,0,0,1-3.7,4.6,9.1,9.1,0,0,1-11.6-1.1,10.4,10.4,0,0,1-2.5-7.1,14,14,0,0,1,2.3-7.8,9.8,9.8,0,0,1,8.7-4.5,7.2,7.2,0,0,1,5.7,2.4,9.8,9.8,0,0,1,2.1,6.7A21.3,21.3,0,0,1,482.4,54.7Zm-4.5-3.5v-.6a5.2,5.2,0,0,0-1-3.5,3.1,3.1,0,0,0-2.6-1.2,3.8,3.8,0,0,0-2.9,1.4,7.1,7.1,0,0,0-1.8,3.9Z" fill="#0046b7"/><path d="M502.4,63.5h-5l.4-2.3a8.5,8.5,0,0,1-2.8,2.1,6.4,6.4,0,0,1-3.1.7,6.3,6.3,0,0,1-5-2.3c-1.3-1.5-1.9-3.7-1.9-6.6a16,16,0,0,1,2.7-9.1c1.8-2.8,4.1-4.1,7-4.1a6.3,6.3,0,0,1,5.9,3.3l2.2-10.9h5.3Zm-12.2-8.6a5.2,5.2,0,0,0,1,3.5,3.2,3.2,0,0,0,2.6,1.3,4,4,0,0,0,2.7-1.1,6.8,6.8,0,0,0,2-3.2,13.5,13.5,0,0,0,.8-4.2,5.5,5.5,0,0,0-1.2-3.7,3,3,0,0,0-2.6-1.4c-1.6,0-2.8.9-3.8,2.8A12.1,12.1,0,0,0,490.2,54.9Z" fill="#0046b7"/><path d="M318,76.3h5l-.5,2.6c1.9-2.1,3.9-3.1,6.1-3.1a4.9,4.9,0,0,1,3.4,1,4.6,4.6,0,0,1,1.5,2.7,8.6,8.6,0,0,1,3-2.6,7.7,7.7,0,0,1,3.9-1.1,4.9,4.9,0,0,1,3.7,1.3,5.3,5.3,0,0,1,1.3,3.6,28.2,28.2,0,0,1-.5,3.8l-2.6,12.9H337l2.6-12.9a23,23,0,0,0,.4-2.7,1.7,1.7,0,0,0-1.9-1.9c-1.4,0-2.5.7-3.6,2.2a16.9,16.9,0,0,0-1.9,5.7l-1.9,9.6h-5.3l2.5-12.8a15.9,15.9,0,0,0,.4-2.8,1.7,1.7,0,0,0-.5-1.4,1.6,1.6,0,0,0-1.4-.5,4.1,4.1,0,0,0-1.8.5A4.9,4.9,0,0,0,323,82a6.5,6.5,0,0,0-1.2,2.5,27.3,27.3,0,0,0-.8,3.2l-1.8,9.7h-5.3Z" fill="#0046b7"/><path d="M349.3,76.3h5.3l1.3,10.5c.4,2.7.5,4.6.6,5.7a46.7,46.7,0,0,1,2.8-6.8l4.7-9.4h5.6L357.5,99.5c-1,1.9-1.8,3.2-2.3,4a6,6,0,0,1-2.1,1.8,5.4,5.4,0,0,1-2.9.7,11.4,11.4,0,0,1-3.8-.7l.5-4.2,1.8.3c1.6,0,3-1.3,4-4Z" fill="#0046b7"/><path d="M386.7,82.3l-5.2-.5a8.4,8.4,0,0,1,3.1-4.4,9.6,9.6,0,0,1,5.9-1.6c2.5,0,4.4.5,5.6,1.6a5.3,5.3,0,0,1,1.8,4,14.9,14.9,0,0,1-.2,2.1c-.1.7-.4,2.6-1.1,5.6a33.8,33.8,0,0,0-.8,5.3,11.7,11.7,0,0,0,.5,3h-5.2a9.9,9.9,0,0,1-.3-2.4,9.3,9.3,0,0,1-2.7,2.2,7,7,0,0,1-3.1.7,5.4,5.4,0,0,1-4-1.7,6.1,6.1,0,0,1-1.6-4.4,6.6,6.6,0,0,1,1.8-4.9c1.1-1.2,3.2-1.9,6.2-2.2a21.9,21.9,0,0,0,5-.8,5.4,5.4,0,0,0,.4-1.9,1.8,1.8,0,0,0-.7-1.5,3,3,0,0,0-2-.6,3.9,3.9,0,0,0-2.3.6A3.3,3.3,0,0,0,386.7,82.3Zm5,5.3-1.2.2c-2.7.4-4.4.9-5.2,1.5a2.5,2.5,0,0,0-.9,2,2,2,0,0,0,.7,1.6,2.1,2.1,0,0,0,1.7.7,4.6,4.6,0,0,0,2.3-.6,4.9,4.9,0,0,0,1.6-1.6,17.4,17.4,0,0,0,.9-3.1Z" fill="#0046b7"/><path d="M404.2,76.3h5l-.4,2.2a11.8,11.8,0,0,1,3-2.1,7.3,7.3,0,0,1,3-.6,6.3,6.3,0,0,1,5,2.3,10.8,10.8,0,0,1,1.9,6.8,14.4,14.4,0,0,1-3.3,9.6,8,8,0,0,1-6.5,3.4,6.3,6.3,0,0,1-5.9-3.4l-2.2,11h-5.3Zm3.2,12.1a6.1,6.1,0,0,0,1.1,3.8,3.4,3.4,0,0,0,2.6,1.4,4.4,4.4,0,0,0,2.6-1,7.9,7.9,0,0,0,2-3.4,15.2,15.2,0,0,0,.8-4.4,5.3,5.3,0,0,0-1.1-3.7,3.2,3.2,0,0,0-2.6-1.2A4.3,4.3,0,0,0,410,81a7.3,7.3,0,0,0-1.9,3.5A12.4,12.4,0,0,0,407.4,88.4Z" fill="#0046b7"/><path d="M427.3,76.3h5l-.4,2.2a11.8,11.8,0,0,1,3-2.1,8,8,0,0,1,3-.6,6.3,6.3,0,0,1,5,2.3,10.8,10.8,0,0,1,1.9,6.8,14.4,14.4,0,0,1-3.3,9.6,8,8,0,0,1-6.5,3.4,6.3,6.3,0,0,1-5.9-3.4l-2.1,11h-5.3Zm3.2,12.1a6.1,6.1,0,0,0,1.1,3.8,3.5,3.5,0,0,0,2.7,1.4,4.4,4.4,0,0,0,2.5-1,7.9,7.9,0,0,0,2-3.4,15.2,15.2,0,0,0,.8-4.4,5.8,5.8,0,0,0-1-3.7,3.4,3.4,0,0,0-2.7-1.2,4.3,4.3,0,0,0-2.8,1.1,7.3,7.3,0,0,0-1.9,3.5A12.4,12.4,0,0,0,430.5,88.4Z" fill="#0046b7"/><path d="M446.4,97.4l5.7-29.1h5.3l-5.7,29.1Z" fill="#0046b7"/><path d="M461.1,76.3h5.3l-4.1,21.1H457Zm1.5-8h5.3l-.9,5.1h-5.3Z" fill="#0046b7"/><path d="M480.8,89.5l5.2.8a12,12,0,0,1-3.8,5.7,9.2,9.2,0,0,1-5.8,1.9,7.5,7.5,0,0,1-5.9-2.4,9.2,9.2,0,0,1-2.2-6.6,15.7,15.7,0,0,1,1.3-6.5,10,10,0,0,1,4-4.8,10.3,10.3,0,0,1,5.9-1.8,7.7,7.7,0,0,1,5.5,1.9,7.4,7.4,0,0,1,2.3,5.2l-5,.5a4.7,4.7,0,0,0-1-2.6,3.3,3.3,0,0,0-2.2-.8,4.1,4.1,0,0,0-2.8,1.2,8.8,8.8,0,0,0-2.1,3.7,20.6,20.6,0,0,0-.7,4.6,4.2,4.2,0,0,0,.9,2.9,2.5,2.5,0,0,0,2.1,1,3.6,3.6,0,0,0,2.5-1A6.3,6.3,0,0,0,480.8,89.5Z" fill="#0046b7"/><path d="M496,82.3l-5.1-.5a7.8,7.8,0,0,1,3-4.4,9.8,9.8,0,0,1,5.9-1.6c2.5,0,4.4.5,5.6,1.6a5.3,5.3,0,0,1,1.8,4,7.5,7.5,0,0,1-.2,2.1c-.1.7-.4,2.6-1.1,5.6a30.4,30.4,0,0,0-.7,5.3,11.3,11.3,0,0,0,.4,3h-5.1a10,10,0,0,1-.4-2.4,9.3,9.3,0,0,1-2.7,2.2,6.7,6.7,0,0,1-3.1.7,5.4,5.4,0,0,1-4-1.7,7.2,7.2,0,0,1,.2-9.3c1.1-1.2,3.2-1.9,6.2-2.2a24.4,24.4,0,0,0,5.1-.8,8.1,8.1,0,0,0,.3-1.9,1.8,1.8,0,0,0-.7-1.5,2.8,2.8,0,0,0-2-.6,3.9,3.9,0,0,0-2.3.6A3.3,3.3,0,0,0,496,82.3Zm5.1,5.3-1.3.2c-2.7.4-4.4.9-5.2,1.5a2.5,2.5,0,0,0-.9,2,2,2,0,0,0,.7,1.6,2.1,2.1,0,0,0,1.7.7,4.6,4.6,0,0,0,2.3-.6,4.9,4.9,0,0,0,1.6-1.6,11.7,11.7,0,0,0,.9-3.1Z" fill="#0046b7"/><path d="M510.9,80.5l.8-4.2h2.6l.7-3.4,6-3.9-1.4,7.3h3.3l-.9,4.2h-3.2l-1.7,8.9c-.3,1.6-.5,2.5-.5,2.7a1.1,1.1,0,0,0,.4,1,1.8,1.8,0,0,0,1.4.4h1.8l-.9,4.2a12.7,12.7,0,0,1-2.8.3,5.9,5.9,0,0,1-4.1-1.2,4.1,4.1,0,0,1-1.2-3.2,39.4,39.4,0,0,1,.6-4.5l1.7-8.5Z" fill="#0046b7"/><path d="M526.3,76.3h5.3l-4.1,21.1h-5.3Zm1.5-8h5.3l-1,5.1h-5.3Z" fill="#0046b7"/><path d="M533.5,88.6q0-5.8,3-9.3a10.5,10.5,0,0,1,8.1-3.5,9,9,0,0,1,6.8,2.6,9.7,9.7,0,0,1,2.4,6.9,13.9,13.9,0,0,1-3,8.9,10,10,0,0,1-8.2,3.7,10.2,10.2,0,0,1-4.9-1.2,7.5,7.5,0,0,1-3.2-3.4A10.4,10.4,0,0,1,533.5,88.6Zm15.1-4a4.9,4.9,0,0,0-1.1-3.3,3.6,3.6,0,0,0-2.8-1.2,4.9,4.9,0,0,0-3.1,1.1,7.6,7.6,0,0,0-2.1,3.4,11.6,11.6,0,0,0-.7,4,5.7,5.7,0,0,0,1.1,3.6,4.1,4.1,0,0,0,2.9,1.3,4.5,4.5,0,0,0,3.7-2A11.3,11.3,0,0,0,548.6,84.6Z" fill="#0046b7"/><path d="M560,76.3h5l-.5,2.7a14.3,14.3,0,0,1,3.5-2.5,8.1,8.1,0,0,1,3.5-.7,5,5,0,0,1,3.8,1.5,5.6,5.6,0,0,1,1.4,3.9,27.5,27.5,0,0,1-.6,4.3l-2.4,11.9h-5.3l2.4-12c.3-1.8.5-2.8.5-3.2a2.1,2.1,0,0,0-2.3-2.3,4.5,4.5,0,0,0-2.6,1,7.6,7.6,0,0,0-2.2,2.8,25.4,25.4,0,0,0-1.3,5l-1.7,8.7h-5.3Z" fill="#0046b7"/><path d="M584.6,68.3h5.3l-.9,4.5c-.5,2.7-1.3,4.5-2.4,5.6a6,6,0,0,1-4.3,1.7l.5-2.6a3.4,3.4,0,0,0,2-1.2,4.8,4.8,0,0,0,1.1-2.5h-2.4Zm8.9,0h5.3l-.9,4.5c-.5,2.7-1.3,4.5-2.4,5.6a6,6,0,0,1-4.3,1.7l.5-2.6a3.1,3.1,0,0,0,2-1.2,4.8,4.8,0,0,0,1.1-2.5h-2.4Z" fill="#0046b7"/></svg>