<svg id="Capa_1" data-name="Capa 1" xmlns="http://www.w3.org/2000/svg" viewBox="0 0 2627.4 1713.9"><title>test</title><g id="Layer_1" data-name="Layer 1"><path d="M573.1,1700.9H2a2,2,0,0,0,0,4H573.4v-.6A14.6,14.6,0,0,0,573.1,1700.9Z" fill="#ce9b9b"/><path d="M447.2,1452.2c-.9-.6,25.2-17.7,0-22.1-22.7-4.2,22.9-93.8,22.9-93.8l-25.2-67.2s-41.7,117.6-59.6,154c-3.6,7.2.3,26.5,7,31l12.6,8.1C411.1,1449.4,441.3,1465.6,447.2,1452.2Z" fill="#ffbd9c"/><path d="M427,1408.5c-5.8,13.4-12,43.9-17.9,57.1,27.5,17.6,126.5,71.6,126.5,71.6l10.9-29.9C546.3,1507.3,472.7,1412.7,427,1408.5Z" fill="#ffbd9c"/><path d="M541.5,1277.8l-5.9,10.7-68,124.8-1.1,1.9-1.7,2.8s-7,56-12.9,78.9c-7.2,29.4-54,125.7-54,125.7l-21.2,56-24.9-24.4,90.6-383.6,2.3-7.3C444.9,1263,542.3,1275.3,541.5,1277.8Z" fill="#ffbd9c"/><rect x="355.4" y="1691.4" width="31.6" height="13.71" fill="#362349"/><path d="M361.3,1659.2a181.2,181.2,0,0,0-30.8,18c-9,6.7-22.1,14.5-34.7,15.1-25.8.8-27.7,12.6-16.2,13.1a404.5,404.5,0,0,0,50.3,0c19.6-1.4,39.5-5,49.8-5.9,4.2-.2,7-1.9,8.2-8.6,1.6-10.7,0-20.5-5.9-27.2a17.7,17.7,0,0,0-20.2-4.4h-.5Z" fill="#563b6b"/><path d="M382,1664.8c-5.1,13.8-31.6,30.8-94,28,0,0,61.5-17.3,64-38.6.6-4.5,20.2,2.5,28.6,5.6C382.5,1660.4,382.8,1662.6,382,1664.8Z" fill="#ffbd9c"/><rect x="572.8" y="1501.8" width="13.7" height="31.62" transform="translate(-15.1 5.9) rotate(-0.6)" fill="#362349"/><path d="M540.9,1528a157.7,157.7,0,0,0,18.2,30.5c6.7,9,14.9,22.1,15.4,34.4,1.1,25.8,12.9,27.7,13.2,16.3a442.2,442.2,0,0,0-.6-50.4c-1.4-19.6-5.3-39.5-6.4-49.8-.3-4.2-2-7-9-8.1-10.6-1.7-20.4.2-26.8,6.1a17.6,17.6,0,0,0-4.2,20.2Z" fill="#563b6b"/><path d="M546.3,1506.7c13.7,5.1,31,31.9,29.1,94.1,0,0-20.2-52.9-39.5-63.6-3.9-2.2,3.1-23.5,6.2-31.9C542.9,1503.4,544.3,1506.2,546.3,1506.7Z" fill="#ffbd9c"/><path d="M398.2,1458.9h0c-.5-.3-1.1-.6-.8-1.1l45.3-187.3a.7.7,0,0,1,1.1-.5c.6,0,.9.5.6,1.1l-45.3,187.2C399.1,1458.6,398.8,1458.9,398.2,1458.9Z" fill="#d89682"/><path d="M584.3,1102.4c2.5,38-29.4,68.2-67.4,67.4s-65-33-64.1-71.1c.3-11.2,3.6-39.7,7.8-55.7,10.1-38.6,29.7-68,56.5-67.4C555.2,976.4,581.8,1062.3,584.3,1102.4Z" fill="#ee5050"/><path d="M584,1114.4c-14.5,130.7-56.5,189.2-56.5,189.2l-87-15.1-1.2-.3h-1.1v-1.7l.3-4.5,14-183.3C452.8,1098.4,587.7,1080.8,584,1114.4Z" fill="#ee5050"/><path d="M439.1,1288.5h0c-.9-.3-1.1-.6-.9-1.2s20.2-77.2,23.5-101.5c0-.6.6-.9,1.2-.9s.8.6.8,1.1c-3.4,24.4-23.5,101.1-23.5,101.6S439.6,1288.5,439.1,1288.5Z" fill="#d35050"/><path d="M420.3,1412.4a.7.7,0,0,1-.8-.8c0-.6.3-.9.8-.9,10.1,0,14.3-21.8,14.3-22.1s.6-.8,1.1-.8a1,1,0,0,1,.9,1.1C436.3,1390,432.1,1412.4,420.3,1412.4Z" fill="#d89682"/><path d="M513.5,1077.7a6,6,0,0,1-3.9-1.1,8.4,8.4,0,0,1-3.6-4.7l-10.7-42a1.2,1.2,0,0,1,.6-1.1l37.8-9.5h.5c.3,0,.3.2.3.5l10.6,42a7.4,7.4,0,0,1-.8,5.9,9.2,9.2,0,0,1-4.8,3.6l-.2-.8.2.8-24.6,6.2Zm-16.2-47.3,10.3,40.9a5.8,5.8,0,0,0,2.8,3.6,4.8,4.8,0,0,0,4.5.6l24.6-6.2a5.9,5.9,0,0,0,3.7-2.8,4.9,4.9,0,0,0,.5-4.4l-10.3-40.9Z" fill="#d35050"/><path d="M526.1,1074.1a8,8,0,0,1-7.6-5.9l-10.6-41.9v-.6c0-.3.3-.3.6-.3l37.8-9.5a1.5,1.5,0,0,1,1.1.6l10.6,41.9a7.5,7.5,0,0,1-5.6,9.3l-.3-.9.3.9-24.6,6.1A3.4,3.4,0,0,1,526.1,1074.1Zm-16.2-47,10.3,40.8a5.7,5.7,0,0,0,7,4.2l24.7-6.1h0a6.4,6.4,0,0,0,3.6-2.8,5.1,5.1,0,0,0,.5-4.5l-10.3-40.9Z" fill="#d35050"/><g opacity="0.8"><rect x="170.2" y="1091.7" width="3.6" height="27.14" transform="translate(-723.7 435.3) rotate(-44.4)" fill="#fff"/><rect x="158.2" y="1103.2" width="27.1" height="3.64" transform="translate(-714.4 423) rotate(-43.6)" fill="#fff"/></g><polygon points="359 919.6 345 909.8 355.7 897 437.7 901.2 438.2 973.4 359 919.6" fill="#0648b3"/><path d="M316.8,866.2a48.7,48.7,0,0,1,15.9,7.8,49.3,49.3,0,0,0,11.5,6.4,28.2,28.2,0,0,1,11.2,9.3h0l9.8,7.8s-4.5,19.9-6.2,22.1-9.2-2.8-9.2-2.8l-15.1-5.9L319.3,872Z" fill="#ffbd9c"/><path d="M354.8,905.4l-24.6,27.4s-39.2-40-50.6-51.5a3.9,3.9,0,0,1,.2-5.9l22.7-20.7a3.5,3.5,0,0,1,4.5,0l2.8,2.8L347,895l4.5,4.5,3.1,3.1A2.1,2.1,0,0,1,354.8,905.4Z" fill="#18214d"/><path d="M351.8,899.8l-21.9,24.3-44.2-43.4,24.4-22.9,37.2,37.5Z" fill="#fff1e9"/><path d="M281.2,874l52.9,51.8-5.8,5L279.8,881a4,4,0,0,1,.3-5.9Z" fill="#18214d"/><path d="M439.9,625.2a34.4,34.4,0,0,0,25.8,9.8,25.3,25.3,0,0,0,16.2-7.3,20.6,20.6,0,0,0,4.7-7.8c3.4-9.8-1.4-21.3-10.6-31.3-17.3-19.1-36.6-13.5-47.8-3.9a13.8,13.8,0,0,0-2.8,2.5A12.8,12.8,0,0,0,422,593C418.9,602.8,429.3,615.2,439.9,625.2Z" fill="#7e2e3b"/><g opacity="0.35"><path d="M421.7,592.8l4.2,7.8L465.4,635a25.3,25.3,0,0,0,16.2-7.3,22.3,22.3,0,0,0,4.8-7.8l-.9-1.7c-12.9-24-41.7-31.3-57.6-33.6a23.8,23.8,0,0,0-2.8,2.6A13.2,13.2,0,0,0,421.7,592.8Z"/></g><path d="M379.7,673.1c14.6,29.6,43.4,46.4,68.6,41.1a51.5,51.5,0,0,0,10.9-3.6c16.5-8.1,26.3-25.5,27.7-45.6a81,81,0,0,0-8.1-40.3c-16.5-34.2-52.3-46.5-80-33.9C345.9,614.9,363,638.9,379.7,673.1Z" fill="#7e2e3b"/><g opacity="0.35"><path d="M448.3,714.2a51.5,51.5,0,0,0,10.9-3.6c16.5-8.1,26.3-25.5,27.7-45.6-14,11.4-34.7,22.6-34.7,22.6S449.1,708.3,448.3,714.2Z"/></g><path d="M437.1,799.6c-.3,3.9,44.2-24.4,61-33.9a4.4,4.4,0,0,0,.6-7.3c-12.9-10-43.1-38.3-41.4-69.4.8-12.8-50.7,24.7-50.7,24.7C447.5,755.4,439.4,775.8,437.1,799.6Z" fill="#ffbd9c"/><path d="M424.5,733.8c.9-.5,21.6-16.5,20.2-10.9s-17.1,16.5-17.1,16.5Z" fill="#d89682"/><path d="M371.9,691.6c4.2,8.6,10.9,18.4,17.1,26.8l5,6.7c7.3,9.3,13.2,16,13.2,16s34.1-10.4,44.2-24.1,21.8-28,3.3-66-48.9-60.8-73-49.3S353.4,653.5,371.9,691.6Z" fill="#ffbd9c"/><path d="M471,674.2c-2.3,12.3-9.8,21.6-16.5,20.2s-10.4-12.4-8.2-24.7,9.8-21.5,16.6-20.1S473.2,661.6,471,674.2Z" fill="#ffbd9c"/><path d="M365.8,673.1a107.6,107.6,0,0,1,5,20.1c1.1,7-2.5,18.8,1.7,17.7l17.3-7.3Z" fill="#ffbd9c"/><path d="M391.5,684.6c2.2,1.9,2.8,4.7,1.4,6.1s-4.2.9-6.2-1.4-2.8-4.7-1.4-6.1S389.3,682.6,391.5,684.6Z" fill="#561a25"/><path d="M401.9,666.4c1.6-.3-5.9-1.7-19.4,3.9-3.9,1.7-7.2,3.3-8.6,5.6s2.5,3.6,6.4,1.1S392.9,668.3,401.9,666.4Z" fill="#7e2e3b"/><polygon points="394.6 677.6 382.8 683.4 385.3 687.9 395.4 679 394.6 677.6" fill="#561a25"/><path d="M468.2,629.7c-2.8,16.2-14.9,27.7-31.1,31.1-21.8,4.4-66.6,2.8-76.7-15.4-4.2-7.9,2.6-28.6,8.4-35a60.4,60.4,0,0,1,20.5-14.8h40l30.8,21.5Z" fill="#7e2e3b"/><path d="M389,718.4l5,6.7a11.4,11.4,0,0,0,8.1-13.7C401.6,708.3,392.3,715.9,389,718.4Z" fill="#f7f7f7"/><path d="M465.7,665.3c.2-.3.5-.6.5-.9,0-3.4-.8-5.6-2.8-6.7s-5.3-.3-5.6-.3-.8.9-.5,1.1.8.9,1.1.6,2.2-.8,3.6,0,1.7,2.5,2,5a.9.9,0,0,0,.8.9C465.4,665.5,465.7,665.3,465.7,665.3Z" fill="#d89682"/><path d="M463.1,679.2c.3-.2.6-.5.6-.8s-.3-.8-.8-1.1-3.4-.6-4-1.7,0-4.5.6-5.6a1.2,1.2,0,0,0-.3-1.4,1.2,1.2,0,0,0-1.4.3c0,.3-2.2,4.5-.5,7.3s2.8,2.5,5.3,2.5C462.9,679.2,463.1,679.2,463.1,679.2Z" fill="#d89682"/><g opacity="0.24"><path d="M436.6,642.6c-33.4,1.4-56.9-15.1-62.2-21-1.1-1.1-1.7-2-1.1-2.8a1.3,1.3,0,0,1,1.7-.8,1.1,1.1,0,0,1,.8,1.1c2,3.1,36.7,30.8,84.3,16.8a1.2,1.2,0,0,1,1.6.8,1.3,1.3,0,0,1-.8,1.7A103.4,103.4,0,0,1,436.6,642.6Z"/></g><path d="M352.3,911.2a30.5,30.5,0,0,0-13.4,15.4c-4.2,10.1-8.4,23-.9,20.4,25.8-8.9,21.6-40,20.8-39.4S354.6,910.1,352.3,911.2Z" fill="#b7652e"/><path d="M542.3,881c4.2,46.7-.5,67.4,3.7,89.3,1.4,7.8,8.9,33.3,16.5,50.1,10.6,24-103.8,30.7-103.8,30.7l-2.6-52.6-33-62.1-1.4-4.5L417,916a101.3,101.3,0,0,1-1.2-55.4c5.4-20.7,15.7-52.9,23-63,23.8-32.2,37.8-44.5,52-43.6C498.1,754.2,533.1,779.1,542.3,881Z" fill="#0648b3"/><path d="M519.9,825.3a.7.7,0,0,1-.8-.8c-3.9-21-14.5-26.9-23.2-28-10.9-1.4-21.6,4.5-23.5,9.2a1.2,1.2,0,0,1-1.2.6,1.1,1.1,0,0,1-.5-1.1c2.8-5.9,14.5-11.8,25.5-10.1,7.2.8,20.4,6.2,24.6,29.4a.9.9,0,0,1-.9.8Z" fill="#040055"/><path d="M363.2,924.1l2.3,15.7-16.5,7s-44.5-26.3-44.5-30.5v-1.4c0-.6.2-.9.2-1.4v-.3a36.9,36.9,0,0,1,1.7-4.2l.9-1.7h0a11.3,11.3,0,0,1,1.1-1.9c18.5-28.3,37.8,8.6,37.8,8.6Z" fill="#ffbd9c"/><path d="M504.8,914v.6c-1.1,29.4-5,60.2-13.7,80.9h0c-3.1,7-6.4,13.1-10.6,17.6s-7,.6-10.4,2-9.5,6.4-15.9,4.7c-1.4-.3-2.3.6-3.9,0h0a58.3,58.3,0,0,1-10.7-3.9,316.4,316.4,0,0,1-68.5-42.8c-7.9-6.7-16-12.6-22.4-17.1l-1.7-1.1c-7-4.8-11.8-7.8-11.8-7.8s11-7,16.8-16.8c8.7-14.9,6.8-22.7,6.8-22.7l11.4,5.3,1.7.8L438.5,944S432.6,840.2,450,818.9c8.9-10.7,34.4-15.1,46.4,9.8,3.7,7.3,6.7,26,7.9,48.9C505.1,888.6,505.1,901.2,504.8,914Z" fill="#0648b3"/><path d="M443.5,946.8h-.2l-20.7-9.5a1.2,1.2,0,0,1-.6-1.2,1.1,1.1,0,0,1,1.1-.5l19.6,9.2,14.6-86.7c0-.6.5-.9,1.1-.9s.8.6.8,1.1l-14.8,87.9a.6.6,0,0,1-.6.6Z" fill="#040055"/><path d="M458.9,1021.8a35.5,35.5,0,0,1-8.9-1.1c-.6,0-.9-.6-.6-1.2a.7.7,0,0,1,1.1-.5c10.7,2.5,20.2.5,28.6-6.2,40.3-31.9,40.6-158.9,40.6-160.1s.2-.8.8-.8h0c.6,0,.8.3.8.8,0,5.4-.2,129.3-41.1,161.5C473.5,1019.2,466.5,1021.8,458.9,1021.8Z" fill="#040055"/><path d="M451.9,896.4h0a.7.7,0,0,1-.8-.8c.3-9.6-4.5-20.2-4.5-20.5a.9.9,0,0,1,1.7-.5c.3.5,4.8,11.2,4.8,21A1.3,1.3,0,0,1,451.9,896.4Z" fill="#040055"/><path d="M458.7,957.1c-.3,0-.3,0-.6-.3-10.6-8.1-22.4-13.4-22.4-13.7a1.1,1.1,0,0,1-.5-1.1c.2-.5.8-.5,1.1-.5a141.2,141.2,0,0,1,22.9,13.7c.3.2.6.8.3,1.1S458.9,957.1,458.7,957.1Z" fill="#040055"/><path d="M291.3,893s-2.2,3.4-1.9,5.4,1.9,5,4.7,6.1,16,3.1,16,3.1l11.2-12.3-24.7,3.1Z" fill="#ffbd9c"/><path d="M329.9,887.7a4.2,4.2,0,0,0-4.4.9c-2,1.6-5.4,6.1-4.8,6.7s3.6-.3,4.8,0l-1.4,5.9,12.8,4.2-2.2-11.8a7.7,7.7,0,0,0-4.8-5.9Z" fill="#ffbd9c"/><path d="M315.7,912.1c-.3.2-.6.5-.9.5h-.3l-8.1-3.6.9-1.7,7.8,3.6C315.7,910.9,315.7,911.5,315.7,912.1Z" fill="#d89682"/><path d="M310.3,917.9c-.2.3-.5.6-.8.6a.9.9,0,0,1-.6-.3c-.2,0-2.2-1.4-4.7-2.8v-.5c0-.6.3-.9.3-1.4,1.9,1.4,4.2,2.5,5.3,3.3A.7.7,0,0,1,310.3,917.9Z" fill="#d89682"/><path d="M326,891.4v2.5s0,1.4-.3,1.1l-2.5-.3Z" fill="#d89682"/><path d="M301.7,862.8l-10.1,9.3a1.5,1.5,0,0,1-2,0h0a1.5,1.5,0,0,1,0-2l10.1-9.2a1.3,1.3,0,0,1,2,0h0C302.5,861.4,302.2,862.3,301.7,862.8Z"/><polygon points="336.6 884.4 339.2 886.9 342.8 885.5 336.6 884.4" fill="#d89682"/><path d="M344.2,884.4s-9.2,2.8-9.5,4.2,2.2,4.2,6.4,4.4c2,.3,7.3.3,7.3.3Z" fill="#ffbd9c"/><path d="M274.2,856.9a1.3,1.3,0,0,1-.8-.2l-19.6-12.6a1.8,1.8,0,0,1-.5-2.5,1.7,1.7,0,0,1,2.5-.6l19.6,12.6a1.8,1.8,0,0,1,.5,2.5A2.1,2.1,0,0,1,274.2,856.9Z" fill="#fff"/><path d="M284.6,848.3a1.9,1.9,0,0,1-1.7-1.4l-6.4-21a2,2,0,0,1,1.1-2.3,1.9,1.9,0,0,1,2.2,1.2l6.5,20.9a2,2,0,0,1-1.1,2.3C284.9,848.3,284.9,848.3,284.6,848.3Z" fill="#fff"/><path d="M301.7,844.6h0c-1.2,0-2-.8-1.7-1.9l1.1-21.9c0-1.1.8-1.6,2-1.6s1.6.8,1.6,1.9l-1.1,21.8C303.3,843.8,302.8,844.6,301.7,844.6Z" fill="#fff"/><path d="M247.9,871.5a1.5,1.5,0,0,1-1.6-1.7,1.6,1.6,0,0,1,1.6-1.7l23-.2h0a1.6,1.6,0,0,1,1.7,1.6,1.6,1.6,0,0,1-1.7,1.7l-23,.3Z" fill="#fff"/><path d="M371.9,913.5c-2.2,10.9-8.1,30.5-23.2,42.5l-1.7-1.1c15.1-11.8,21-31.6,23.2-42.3Z" fill="#b56835"/><path d="M200.9,1566.6c0,5.9-30.5,10.9-68,10.9s-68-5-68-10.9,31.4-7,69.1-7S200.9,1560.7,200.9,1566.6Z" fill="#422d51"/><path d="M258.9,1285.7v1.6c-.6,13.2-7,102.7-58.5,178.9-55.7,82.5-26.3,113.6-26.3,113.6H141.6s14.3-241.8,115.9-293.3A6.4,6.4,0,0,1,258.9,1285.7Z" fill="#00b493"/><path d="M258.9,1285.7v1.6a1149.1,1149.1,0,0,0-70,138c-34.1,80.9-27.7,145.2-27.7,145.8s-.3.8-.9.8h0a.8.8,0,0,1-.8-.8c0-.6-6.7-65.5,27.7-146.6,30.8-72.5,64.9-129.6,70.3-138.3C258,1286.2,258.3,1285.9,258.9,1285.7Z" fill="#009198"/><g opacity="0.24"><path d="M153.4,1489.9l16.7,36.4s-5.5,22.1-3.6,32.2,2.8,12.9,2.8,12.9h-9.5l-7.6-76.1Z"/></g><path d="M140.5,1579.8h-28s-15.4-77-80.3-136.6a2.9,2.9,0,0,1-.9-2.8,1.5,1.5,0,0,1,.9-1.4,3.3,3.3,0,0,1,3.1-1.1c15.1,2.8,47,13.7,80.6,55.7C162.9,1551.8,140.5,1579.8,140.5,1579.8Z" fill="#00b493"/><path d="M170.1,1583.7H143s-4.5-12.9-27.1-90.4c-21-71.9,25.4-185.5,31.9-201.2h0l.8-1.7c.3,0,.6-.3.8-.3,11-3.3,30.3,54.9,14.3,102.7C132.9,1486.6,170.1,1583.7,170.1,1583.7Z" fill="#00b493"/><path d="M150.8,1577c.3.5,0,.8-.5,1.1H150c-.3,0-.6-.3-.8-.6-13.2-34.7-27.8-111.3-13.2-181,12.3-60.2,12.3-96,12-104.1h0l.9-1.7c.3,0,.5-.3.8-.3v.3c0,.3,2.3,37.5-12,106.3S137.7,1542.6,150.8,1577Z" fill="#009198"/><path d="M128.4,1574.5c0,.5-.2.8-.8.8h0c-.6,0-.8-.3-.8-.8-7.3-83.7-91.8-132.1-95.5-134.1a1.6,1.6,0,0,1,.9-1.4C35,1440.4,120.9,1489.4,128.4,1574.5Z" fill="#009198"/><path d="M200.9,1566.6l-2.2,21.6-.3,1.9-1.7,17.4-.3,1.9-9.5,96.3H74.2l-6.8-96.3v-1.9l-1.1-17.9v-2l-1.4-20.7s19.6,4.5,69.1,4.5C186.1,1571.1,200.9,1566.6,200.9,1566.6Z" fill="#fca054"/><path d="M198.7,1588.2l-.3,1.9a396.3,396.3,0,0,1-61.8,4.5,498.5,498.5,0,0,1-70.6-5v-2C94.9,1591.5,145.2,1596,198.7,1588.2Z" fill="#9e6235"/><path d="M197,1607.2l-.3,2a418.7,418.7,0,0,1-62.4,4.4,517.1,517.1,0,0,1-66.6-4.4v-2C96.8,1611.1,145.2,1615,197,1607.2Z" fill="#9e6235"/><g opacity="0.8"><path d="M302.2,1231.6a8.4,8.4,0,1,1,8.4-8.3A8.4,8.4,0,0,1,302.2,1231.6Zm0-13.4a5,5,0,0,0-5,5.1,5,5,0,0,0,5,5,5,5,0,0,0,5.1-5A5.1,5.1,0,0,0,302.2,1218.2Z" fill="#fff"/></g><g opacity="0.8"><path d="M186.7,698a12.1,12.1,0,1,1,12-12A12.3,12.3,0,0,1,186.7,698Zm0-20.2a8.4,8.4,0,1,0,0,16.8,8.4,8.4,0,0,0,8.3-8.4A8.6,8.6,0,0,0,186.7,677.8Z" fill="#fff"/></g><path d="M2625.2,1701.8H1813.1l1.7,3.9h810.7a1.9,1.9,0,0,0,1.9-2A2.1,2.1,0,0,0,2625.2,1701.8Z" fill="#ce9b9b"/><path d="M2488.4,1687.5s-10.7,8.4-40.3,10.4c-35,2.5-40.3-2.8-40.3-2.8l-4.5-86.8a2744.5,2744.5,0,0,0-48.7-393.7l-10.9-54.9,25.7,2.8,44-28.2a9.4,9.4,0,0,0,3.3-4h0c3.1-8.1,11.2-26.5,12.6-17.9l24.6,167.1q18.2,122.1,24.9,245.1Z" fill="#0648b3"/><path d="M2206.3,1698.4a2.9,2.9,0,0,0,2.2,4.2c3.4.9,8.4,2,10.6,2.3a286.5,286.5,0,0,0,46.2,2.2c16-.3,41.2-6.4,41.2-6.4v5.3h25.4s2.5-28.3-1.4-37.2c-1.9-4.8-14.2-17.1-14.2-17.1l-3.7,8.7-50.9-12.9s18.5,22.7-3.9,30.5c-.3.3-.9.3-1.2.6s-1.6,1.6-2.8,2.2a62.6,62.6,0,0,1-6.7,1.4,2.2,2.2,0,0,1-1.4.3c-.2,0-.5.3-.8.3l-1.4.2-6.7,1.7h-.3c-.6,0-.8.3-1.4.3h0a.8.8,0,0,0-.8.3c-18,3.3-25,7.3-26.9,10.3a.9.9,0,0,0-.3.6A16.6,16.6,0,0,1,2206.3,1698.4Z" fill="#0c0c0c"/><path d="M2444.1,875.1,2424.3,1050,2265,1061.2h-1.6l-.3-4.2-19.6-171-2.5-79.2a20.6,20.6,0,0,1,15.4-21.8l78.6-21.5,49.8,5.9,32.2,7.2Z" fill="#fff"/><rect x="2317" y="786.7" width="1.7" height="268.11" transform="translate(-33.6 89.6) rotate(-2.2)" fill="#c8bdd1"/><rect x="2367.7" y="778.5" width="1.7" height="276.47" transform="translate(-23.7 63.7) rotate(-1.5)" fill="#c8bdd1"/><path d="M1975.7,1677.2s-83.7,5-83.7,24.6,91.8,9.5,91.8,9.5Z" fill="#fca054"/><path d="M1925,1711.3h0c-.8,0-19.3-1.1-24.3-8.7a3.1,3.1,0,0,1-.3-3.6c2.5-6.2,22.4-10.1,24.6-10.7a1.6,1.6,0,0,1,1.2.6,1.4,1.4,0,0,1-.6,1.1c-5.9,1.1-21.6,5.3-23.2,9.5a1.9,1.9,0,0,0,.2,2c4.5,6.7,22.7,7.8,23,7.8a.9.9,0,0,1,.8.9C1925.9,1711,1925.6,1711.3,1925,1711.3Z" fill="#b56326"/><path d="M1941,1711.3c-.6,0-.9-.3-.9-.8l-3-23.8c0-.6.2-.9.8-.9s.8.3.8.9l3.1,23.8c.3.2,0,.8-.8.8Z" fill="#b56326"/><path d="M1956.4,1709.9c-.6,0-.9-.3-.9-.8l-3-23.8c0-.6.2-.9.8-.9s.8.3.8.9l3.1,23.8c0,.2-.3.8-.8.8Z" fill="#b56326"/><rect x="1975.2" y="1548.7" width="65.8" height="162.02" transform="translate(330.9 3598.2) rotate(-88.6)" fill="#383838"/><path d="M2030.8,1612.2c.3.3,56.3-1.1,58.2-1.1,43.7-.5,80.6-3.6,96.6,15.4,17.6,21,2.5,52.6-13.2,58.8s-188.9,26.3-188.9,26.3l-11.7-50.4,108-27.1Z" fill="#383838"/><path d="M1981,1611.4c-.3.3-56.3-1.7-58.2-1.7-43.7-1.1-80.6-4.2-96.6,14.6-17.9,20.7-3,52.6,12.6,58.7s188.7,28,188.7,28l12.3-50.4L1932,1632.4Z" fill="#383838"/><path d="M2035.6,1678.6h0L1897,1639.4a.7.7,0,0,1-.5-1.1c0-.6.5-.9,1.1-.6l138.3,39.2c.5,0,.8.5.5,1.1S2035.9,1678.6,2035.6,1678.6Z" fill="#161616"/><path d="M2014.3,1672.4c-.3,0-.8-.3-.8-.6a1.4,1.4,0,0,1,.5-1.1l114.2-31.6a1.4,1.4,0,0,1,1.1.6,1.9,1.9,0,0,1-.5,1.1l-114.5,31.6Z" fill="#161616"/><path d="M1921.4,1646.1c-.3,0-.3,0-.6-.3l-12-10.6a.8.8,0,0,1,1.1-1.1l12.1,10.6a1.1,1.1,0,0,1,0,1.1C1922,1646.1,1921.7,1646.1,1921.4,1646.1Z" fill="#161616"/><path d="M2108.3,1646.1c-.3,0-.5,0-.5-.3a.8.8,0,0,1,0-1.1l12-10.6a.8.8,0,1,1,1.1,1.1l-12,10.6C2108.6,1646.1,2108.6,1646.1,2108.3,1646.1Z" fill="#161616"/><path d="M2082.3,1610.6l-34.7,1.6-85.9-.8h-6.4s-7-7.8-20.5-13.7c-1.9-.9-6.4-136,16.8-167.4.3-.5.9-1.1,1.1-1.4l1.4-1.4.6-.5a5.5,5.5,0,0,1,2.2-1.7c.3-.3.3-.3.6-.3s1.7-.8,2.5-1.4h0l.3-.3.3-.2c35.2-17.7,74.1-6.8,74.1-6.8,2.6,1.4,7.9,2.8,14,5.4a24.4,24.4,0,0,0,3.4,1.4,31.1,31.1,0,0,1,4.5,2.2l1.6.8a50.8,50.8,0,0,1,7,4.8v.3a30.2,30.2,0,0,1,6.8,7C2083.1,1453.6,2082.3,1610.6,2082.3,1610.6Z" fill="#ee5050"/><polygon points="2257.5 1149.1 2253.8 1680.5 2332.8 1687.5 2349.6 1162.5 2273.7 1123.9 2257.5 1149.1" fill="#0648b3"/><path d="M2433.2,1177.1c-.8,6.1-44.5,13.1-91.5,11.2s-86.5-5.6-84.2-39.5c4.2-68.8,0-88.4,26.9-80.3,29.9,9,140.7-10.4,140.7-10.4S2434.6,1165.6,2433.2,1177.1Z" fill="#0648b3"/><path d="M2347.9,1102.6c-3.4,0-6.5-2.8-6.5-6.1l-1.9-38.6h1.7l1.9,38.6a4.7,4.7,0,0,0,5.1,4.5l7.8-.3v1.7l-7.8.2Z" fill="#432254"/><path d="M2356.5,1119.4c-.5,0-.8-.2-.8-.8l-1.7-49.8a.8.8,0,0,1,.9-.9c.5,0,.8.3.8.9l1.7,49.8a.9.9,0,0,1-.9.8Z" fill="#432254"/><path d="M2309.5,705.8a90.2,90.2,0,0,1-10,61.3c-5.4,9.5,2.2,21.3,13.1,19.6l67.7-10.1s-36.3-42-22.6-87.8l-50.4,7.5C2307.6,696.3,2308.1,699.1,2309.5,705.8Z" fill="#ffbd9c"/><path d="M2307.3,712.3s31.1,17.3,42,9.2l5.8-5.3c.6,7-11.4,18.7-20.4,18.5S2311.5,724,2307.3,712.3Z" fill="#c48362"/><path d="M2317.7,717.9c-32-4.5-43.1-43.1-46.2-76.2a234.5,234.5,0,0,1-1.1-24.3v-.8c.5-33.6,20.9-50.1,52-50.7,42.8-.6,61.6,18.8,61,52.6S2398.2,728.8,2317.7,717.9Z" fill="#2d2d2d"/><path d="M2379.5,658.8c-.3,35.3-20.4,70.5-45.6,70.3s-53.2-40.9-52.9-76.2,17.9-79.7,43.4-79.4S2380.1,623.6,2379.5,658.8Z" fill="#ffbd9c"/><path d="M2390.7,770.8,2377,791.7l-39.2-8.1L2302,795.4,2281.6,778l4.1-3.3,1.4-1.2,2.6-1.9,2.5-2,10.6-8.7s47.6,10.1,63.5-5.5l15.7,10,2.5,2h0l1.4,1.1Z" fill="#ee5050"/><path d="M2335,694.6c-.3,0-.3-.2-.6-.2a.9.9,0,0,1,.3-1.2l5.9-3.3a35.3,35.3,0,0,0,4.2-2.5c-8.7-5.1-12.6-14-10.6-24.1,0-.6.5-.9.8-.6a.6.6,0,0,1,.6.9c-2,9.5,1.6,17.9,9.8,22.4a1,1,0,0,1,.8,1.1c0,1.1-1.7,1.9-5,3.9a25.4,25.4,0,0,0-5.6,3.4C2335.6,694.6,2335.3,694.6,2335,694.6Z" fill="#c48362"/><path d="M2344.2,823.1c0,4.5-1.6,8.4-3.6,8.4s-3.6-3.7-3.6-8.4,1.6-8.4,3.6-8.4S2344.2,818.6,2344.2,823.1Z" fill="#c8bdd1"/><path d="M2346.2,869.5c0,4.5-1.7,8.4-3.6,8.4s-3.7-3.6-3.7-8.4,1.7-8.4,3.7-8.4S2346.2,865.1,2346.2,869.5Z" fill="#c8bdd1"/><path d="M2347.9,916c0,4.5-1.7,8.4-3.7,8.4s-3.6-3.7-3.6-8.4,1.7-8.4,3.6-8.4S2347.9,911.2,2347.9,916Z" fill="#694582"/><path d="M2349.8,962.4c0,4.5-1.6,8.4-3.6,8.4s-3.6-3.6-3.6-8.4,1.6-8.4,3.6-8.4S2349.8,957.7,2349.8,962.4Z" fill="#694582"/><path d="M2351.5,1009.2c0,4.5-1.7,8.4-3.6,8.4s-3.7-3.7-3.7-8.4,1.7-8.4,3.7-8.4S2351.5,1004.4,2351.5,1009.2Z" fill="#c8bdd1"/><path d="M2295.8,667.2c9.3,10.4,13.5,21.6,9.3,25.5s-15.2-1.7-24.4-11.8-13.4-21.5-9.2-25.4S2286.6,656.9,2295.8,667.2Z" fill="#ffbd9c"/><path d="M2273.2,663.3a.6.6,0,0,1-.6-.6c-.6-1.9-.6-3.3.3-4.4s4.2-1.7,4.5-1.7.8.3.8.8-.3.9-.8.9-2.3,0-3.1,1.1-.6,1.7,0,3.1,0,.8-.6,1.1S2273.4,663.3,2273.2,663.3Z" fill="#c48362"/><path d="M2285.7,679.5h0c-5.3-2.8-10.9-11.5-11.1-12s0-.9.2-1.1.9,0,1.2.2,5.5,9,10.3,11.2c.3.3.6.6.3,1.2S2286,679.8,2285.7,679.5Z" fill="#c48362"/><path d="M2374.5,643.1c-.6-2.2-18.5-6.7-26.6-3s-7.6,10.3-5.9,8.9,10.4-4.5,15.4-4.5S2374.7,644.5,2374.5,643.1Z" fill="#2d2d2d"/><path d="M2286.3,655.5c0-2.3,15.7-11.8,24.6-10.4s10.1,7.8,8.2,7-11.2-1.4-16,0S2286.3,656.9,2286.3,655.5Z" fill="#2d2d2d"/><polygon points="2365.2 656.6 2350.4 658.3 2350.9 661.9 2366.9 658.8 2365.2 656.6" fill="#2d2d2d"/><path d="M2354.9,664.4c.5,3.4,2.5,5.9,4.7,5.6s3.1-3.4,2.8-6.7-2.5-5.9-4.7-5.6S2354.3,660.8,2354.9,664.4Z" fill="#2d2d2d"/><polygon points="2300 664.1 2314.3 661 2315.1 664.4 2299.2 666.9 2300 664.1" fill="#2d2d2d"/><path d="M2312.1,668.6c.2,3.4-1.2,6.4-3.1,6.4s-3.9-2.5-4.2-5.8,1.1-6.5,3.1-6.5S2311.8,665.3,2312.1,668.6Z" fill="#2d2d2d"/><path d="M2329.4,704.7c-3.6-.8-6.2-1.7-6.4-2a1.2,1.2,0,0,1-.6-1.1,1.4,1.4,0,0,1,1.1-.5s7,2.8,13.5,2.2a25.8,25.8,0,0,0,13.1-5,.8.8,0,0,1,1.1,1.1c-.3.3-5.3,4.7-14.2,5.6A17.7,17.7,0,0,1,2329.4,704.7Z" fill="#c48362"/><path d="M2286,617.4l-3.6,18.5h0c-5.3,2.8-11.8-.9-12-6.7-.3-4.2-.3-8.2-.3-11.8.3,0,.3,0,.5-.3C2273.2,618.8,2276.8,614.3,2286,617.4Z" fill="#191919"/><path d="M2378.1,652.4l-9.8-28.6v-.5a6.9,6.9,0,0,1-1.7.5c-1.4.6-3.9,1.2-7.3,2.3h0c-20.1,5.9-69.1,18.2-82.8,6.4-10.9-9.5-22.1-32.7,1.1-50.6,40.1-31.4,78.1-6.2,93.5,16.2s11.2,24.1,12.3,33S2378.1,652.4,2378.1,652.4Z" fill="#2d2d2d"/><path d="M2368.3,623h0l-1.7.6-7.3,2.2h0c2.6-3.1,11-17.9,10.4-23.8v-.6a.7.7,0,0,1,.8-.8c.3,0,.9.3.9.8v.3C2372.2,614.9,2370.3,620.2,2368.3,623Z" fill="#161616"/><path d="M2335.3,713.4a16.6,16.6,0,0,1-3.7-1.4c-.2-.3-.5-.9-.2-1.1s.8-.6,1.1-.3,5.3,3.6,10.6-.9a1.1,1.1,0,0,1,1.1,0,.9.9,0,0,1,0,1.2A10.7,10.7,0,0,1,2335.3,713.4Z" fill="#c48362"/><path d="M2042,1244c9,3.9,16.5,29.9,15.7,40.3-1.4,21.2-7.6,26.3-7.6,26.3l-15.4-41.2C2035,1269.7,2036.1,1241.2,2042,1244Z" fill="#663a3a"/><path d="M2041.2,1419.1s-5.9,13.2-36.7,14.3c-21,.9-41.4-7.8-34.1-14.3s11.2-24.9,9.8-46.1a34.3,34.3,0,0,0-.6-5.6c-.3-2.8-.8-5.3-1.1-8.1-1.1-6.2-1.7-9-1.7-9l47.3-5.9a98.3,98.3,0,0,0-4.2,26.3v2.8C2021.3,1405.1,2041.2,1419.1,2041.2,1419.1Z" fill="#ffbd9c"/><path d="M2021,1370.2a10.7,10.7,0,0,1-.8,3.6c-2.5,6.4-11.8,13.7-18.8,13.2s-15.6-6.2-21.2-14a34.3,34.3,0,0,0-.6-5.6c7.8,4.2,27.4,13.4,35.5,7.8l4.8-4.2Z" fill="#c48362"/><path d="M1985.2,1365.7c-33.6-4.5-38.6-36.1-40.9-66.9a218.1,218.1,0,0,1-.2-22.7v-.8c1.4-31.3,22.3-39.5,51.4-39.2,40.1.3,55.2,12.1,54.1,43.7S2065.2,1376.6,1985.2,1365.7Z" fill="#663a3a"/><path d="M2045.1,1317.3c-1.1,33-20.4,65.5-44.2,64.6s-48.7-39.2-47.6-72.2,18.7-74.1,42.3-73.3S2046.2,1284.3,2045.1,1317.3Z" fill="#ffbd9c"/><path d="M2005.1,1351.1c.2,0,.2-.2.2-.5s0-.9-.5-.9-4.2-1.1-6.2-1.4a23.3,23.3,0,0,1-4.4-1.1c6.4-6.7,7.5-15.6,3-24.3a.8.8,0,0,0-1.1-.3.9.9,0,0,0-.3,1.1c4.2,8.1,3.4,16.5-2.8,22.7a1,1,0,0,0-.2,1.4c.2,1.1,1.9,1.4,5.6,2.2,1.9.3,3.9.9,5.8,1.4S2004.8,1351.1,2005.1,1351.1Z" fill="#c48362"/><path d="M2041.2,1310.6c-.3-2-17.1-6.8-24.9-3.4s-7.3,9.5-5.6,8.4,9.8-4.2,14.2-3.9S2041.4,1312,2041.2,1310.6Z" fill="#3f2222"/><path d="M1957.2,1317.8c0-1.9,14.8-10.6,23.2-9.2s9.3,7.6,7.6,6.7-10.6-1.7-14.8-.5S1957.2,1319.2,1957.2,1317.8Z" fill="#3f2222"/><polygon points="1970.4 1324 1984.1 1321.5 1984.6 1324.8 1969.5 1326.5 1970.4 1324" fill="#2d2d2d"/><path d="M1981.3,1328.2c.3,2.8-1.1,5.3-2.8,5.6s-3.4-2.2-3.4-5,1.1-5.4,2.8-5.6S1981.3,1325.1,1981.3,1328.2Z" fill="#2d2d2d"/><polygon points="2030.8 1322.6 2017.1 1320.1 2016.5 1323.4 2031.7 1325.1 2030.8 1322.6" fill="#2d2d2d"/><path d="M2019.9,1326.8c-.3,2.8,1.1,5.3,2.8,5.6s3.4-2.2,3.4-5-1.2-5.4-2.8-5.6S2019.9,1323.7,2019.9,1326.8Z" fill="#2d2d2d"/><path d="M1997.2,1359a46.1,46.1,0,0,1-5.8-2c-.3-.3-.6-.5-.3-1.1s.5-.6,1.1-.3,6.4,2.8,12.3,2.5a23.8,23.8,0,0,0,12.6-4.4.8.8,0,1,1,1.1,1.1c-.3.3-5,4.2-13.4,4.7A30.7,30.7,0,0,1,1997.2,1359Z" fill="#c48362"/><path d="M1951.3,1320.1l3.1-28v-.6h1.7c1.4,0,3.9.3,7,.6h0c19.6,1.1,66.6,2.5,76.7-11.2,8.1-10.9,12.8-42.8-15.7-53.2-70-25.2-71.9,12.9-81.4,36.4s-7.9,31.1-4.8,38.6S1951.3,1320.1,1951.3,1320.1Z" fill="#663a3a"/><path d="M1955.3,1291.5h.5c1.4,0,3.9.3,7,.6h0c-2.8-2.2-13.4-14.3-14.3-19.3v-.6c0-.5-.5-.5-.8-.5s-.6.5-.6.8v.3A40.6,40.6,0,0,0,1955.3,1291.5Z" fill="#3f2222"/><path d="M2001.7,1366a11,11,0,0,1-3.6-1.7c-.3-.3-.6-.8-.3-1.1s.8-.6,1.1-.3,5.3,3.6,10.9-.6a.7.7,0,0,1,1.1.3.7.7,0,0,1-.2,1.1A10.2,10.2,0,0,1,2001.7,1366Z" fill="#c48362"/><path d="M1966.7,1323.2c8.4,9.8,12.1,20.4,8.1,24s-13.9-1.7-22.3-11.4-12.1-20.5-8.2-24.1S1958.3,1313.4,1966.7,1323.2Z" fill="#ffbd9c"/><path d="M1945.7,1319a.6.6,0,0,1-.5-.6,5,5,0,0,1,.3-4.2c1.4-1.7,3.9-1.4,4.2-1.4s.8.3.5.8-.3.9-.8.6-2.3,0-2.8.8-.6,1.4-.3,2.8,0,.9-.6.9S1945.7,1319,1945.7,1319Z" fill="#c48362"/><path d="M1956.9,1334.6h0c-5-2.8-9.8-11.2-10-11.4s0-.9.2-1.2a1.1,1.1,0,0,1,1.2.3s5,8.4,9.2,10.9c.3.3.6.6.3,1.2Z" fill="#c48362"/><path d="M2048.7,1329.9c-5,11.7-13.1,19.8-17.9,17.9s-4.7-13.4.3-25.2,13.1-19.9,17.9-17.9S2053.8,1317.8,2048.7,1329.9Z" fill="#ffbd9c"/><path d="M2049.3,1314.5h0c-.3,0-.6-.6-.6-.9s.3-1.9-.5-2.8a3,3,0,0,0-2.8-.5c-.3,0-.9-.3-.9-.6s.3-.8.6-.8a4.4,4.4,0,0,1,3.9,1.1,5.3,5.3,0,0,1,.8,4.2C2050.1,1314.2,2049.8,1314.5,2049.3,1314.5Z" fill="#c48362"/><path d="M2042.6,1333.8a.3.3,0,0,1-.3-.3.8.8,0,0,1,0-1.1c3.6-3.4,6.1-12.6,6.1-12.9s.6-.5.9-.5.5.5.5.8-2.8,9.8-6.7,13.4C2043.1,1333.8,2042.8,1333.8,2042.6,1333.8Z" fill="#c48362"/><g opacity="0.8"><rect x="2539.9" y="1106.8" width="3.6" height="26.31" transform="translate(-58.7 2095.7) rotate(-44.3)" fill="#fff"/><rect x="2528.1" y="1118" width="26.3" height="3.64" transform="translate(-71.6 2060.3) rotate(-43.6)" fill="#fff"/></g><g opacity="0.8"><rect x="2154.7" y="736.2" width="3.6" height="26.3" transform="translate(90.1 1719.9) rotate(-44.3)" fill="#fff"/><rect x="2143.2" y="747.8" width="26.3" height="3.64" transform="translate(77.4 1693) rotate(-43.6)" fill="#fff"/></g><g opacity="0.8"><rect x="947.2" y="1107.9" width="3.6" height="26.31" transform="translate(-513.3 983.7) rotate(-44.4)" fill="#fff"/><rect x="935.8" y="1119.3" width="26.3" height="3.64" transform="translate(-511.3 962.9) rotate(-43.6)" fill="#fff"/></g><g opacity="0.8"><rect x="2155.4" y="1327.5" width="26.3" height="3.64" transform="translate(-368 1517.8) rotate(-35.8)" fill="#fff"/><rect x="2166.6" y="1316.1" width="3.6" height="26.3" transform="translate(-370.3 1483.4) rotate(-35)" fill="#fff"/></g><g opacity="0.8"><rect x="1237.9" y="446.2" width="3.4" height="41.98" transform="translate(-85.1 464.6) rotate(-20.5)" fill="#fff"/><rect x="1218.5" y="465.4" width="42" height="3.64" transform="translate(-85 449.1) rotate(-19.9)" fill="#fff"/></g><path d="M1048.6,879.3a1.1,1.1,0,0,1-.9-.3l-19-12.3a1.9,1.9,0,0,1-.6-2.5,1.9,1.9,0,0,1,2.6-.5l19,12.3a1.8,1.8,0,0,1,.5,2.5A2.4,2.4,0,0,1,1048.6,879.3Z" fill="#fff"/><path d="M1058.6,870.7a1.7,1.7,0,0,1-1.6-1.2l-6.2-20.4a1.8,1.8,0,0,1,1.1-2.2,1.9,1.9,0,0,1,2.3,1.1l6.1,20.4a2,2,0,0,1-1.1,2.3Z" fill="#fff"/><path d="M1075.4,867.3h0c-1.1,0-1.7-.8-1.7-2l.9-21.2a1.8,1.8,0,0,1,2-1.7,1.8,1.8,0,0,1,1.6,1.9l-.8,21.3A2.3,2.3,0,0,1,1075.4,867.3Z" fill="#fff"/><path d="M1023.1,893.3a1.7,1.7,0,1,1,0-3.3l22.4-.3h0a1.7,1.7,0,1,1,0,3.3l-22.4.3Z" fill="#fff"/><path d="M1998.1,1524.6a1.7,1.7,0,0,1-1.7-1.4l-5.9-20.9a1.8,1.8,0,0,1,3.4-1.2l5.9,21a2,2,0,0,1-1.2,2.3A.8.8,0,0,1,1998.1,1524.6Z" fill="#fff"/><path d="M2011.2,1524.9a.9.9,0,0,1-.8-.3,1.5,1.5,0,0,1-.9-2.2l9-19.3a1.7,1.7,0,0,1,2.2-.8,1.5,1.5,0,0,1,.9,2.2l-9,19.3C2012.6,1524.6,2011.8,1524.9,2011.2,1524.9Z" fill="#fff"/><path d="M2026.1,1533.3a1.9,1.9,0,0,1-1.2-.5,2,2,0,0,1,0-2.6l14.9-15.4a1.8,1.8,0,0,1,2.5,0,2,2,0,0,1,0,2.6l-14.8,15.4A1.7,1.7,0,0,1,2026.1,1533.3Z" fill="#fff"/><path d="M1986.3,1532.8a2,2,0,0,1-1.1-.6l-16.8-14.8a2,2,0,0,1-.3-2.6,1.7,1.7,0,0,1,2.5-.2l16.8,14.8a1.7,1.7,0,0,1,.3,2.5C1987.2,1532.5,1986.9,1532.8,1986.3,1532.8Z" fill="#fff"/><path d="M2035.6,1676.9s83.6,5,83.6,24.6-91.7,9.5-91.7,9.5Z" fill="#fca054"/><path d="M2086.5,1711c-.6,0-.8-.3-.8-.8s.2-.9.8-.9,18.5-1.1,23-7.8a1.8,1.8,0,0,0,.2-2c-1.9-4.4-17.3-8.4-23.2-9.5-.6,0-.8-.5-.6-1.1s.6-.8,1.2-.6c2.2.6,22.1,4.5,24.6,10.7a4.2,4.2,0,0,1-.3,3.6c-5.6,7.3-24.1,8.4-24.9,8.4Z" fill="#b56326"/><path d="M2070.3,1711h0c-.6,0-.9-.5-.9-1.1l3.1-23.8a.9.9,0,0,1,1.7,0l-3.1,23.8C2071.1,1710.7,2070.8,1711,2070.3,1711Z" fill="#b56326"/><path d="M2055.2,1709.6h0c-.6,0-.9-.5-.9-1.1l3.1-23.8c0-.5.6-.8.8-.8a.9.9,0,0,1,.9.8l-3.1,23.8A1.3,1.3,0,0,1,2055.2,1709.6Z" fill="#b56326"/><path d="M2386.5,768l-13.2,16.2a.8.8,0,0,1-.8.3l-34.4-9.3-33,12.6h-.3c-.3,0-.3,0-.6-.3-4.5-3-12.9-9.2-18.2-13.1l1.4-1.1c4.8,3.3,12.1,8.6,17.4,12.6l32.7-12.4h.6l34.1,9,12.9-15.7Z" fill="#fff"/><path d="M2473.5,1694.8c0-.9-2.2-81.4-8.1-163.2-8.7-120.9-35.8-333.3-56.2-460.9l1.6-.2c20.5,127.6,47.9,340.2,56.3,461.1,5.9,81.8,8.1,162.3,8.1,163.2Z" fill="#432254"/><polygon points="2270.4 1681.9 2268.4 1681.9 2276.8 1073.3 2278.5 1073.3 2270.4 1681.9" fill="#432254"/><path d="M2486.7,1705.1l-73.6,1.7v-.5c-.3-11.5,3.3-14.6,11.5-20.2,5.8-3.9,11.4-5.3,21.8-6.4s14.8,0,23.5,3.3,16.5,10.7,16.8,22.1Z" fill="#0c0c0c"/><path d="M2261.7,1082.8c2.2-.6,164.2-12.3,164.2-12.3l-1.4-24.4-161.7,13.2Z" fill="#111"/><rect x="2301.4" y="1055.9" width="8.4" height="25.18" transform="translate(-63 148) rotate(-3.6)" fill="#0648b3"/><polygon points="2410.8 1071.6 2402.4 1072.1 2401 1048.1 2409.4 1047.5 2410.8 1071.6" fill="#0648b3"/><polygon points="2385.9 1074.7 2377.5 1075.2 2376.1 1050 2384.5 1049.5 2385.9 1074.7" fill="#0648b3"/><polygon points="2286.9 1080.8 2278.5 1083.3 2277.1 1058.4 2285.5 1057.6 2286.9 1080.8" fill="#0648b3"/><polygon points="2362.7 1075.2 2333.9 1077.2 2332.2 1053.7 2361.3 1051.4 2362.7 1075.2" fill="#ee5050"/><path d="M2269.5,1113.3c-3.1,0-1.1-22.4-5.6-12.9-1.4,3.1.6,17.1-.8,29.7-.3,3.6,0,12.6-2,14.5s-1.7-.3-2.2-.5a.7.7,0,0,0-.6.2,14.8,14.8,0,0,0-1.1,3.7h0a4.2,4.2,0,0,1-1.4,2.5c-.6.6-1.7-.3-2.5-.6a1.1,1.1,0,0,0-1.1,0c-.3,0-.6.6-.9.9h0c-.5.8-1.1,1.9-1.9,1.9s-1.2-1.1-1.7-1.9l-.9-.9h-.8c-1.1.3-2.5,2-3.1-.5-2.5-12.1,0-49-8.4-68.6-3.3-8.1,30-24.9,30-24.9s3.6,9.5,7,29.1C2272.3,1089.8,2277.6,1113.3,2269.5,1113.3Z" fill="#ffbd9c"/><path d="M2253.3,1150.2a.8.8,0,0,0-1.1,0c-.3,0-.6.6-.9.9-.3-6.2-.5-21-.3-25.2a.8.8,0,0,1,.9-.9c.5,0,.8.6.8.9C2252.7,1129.5,2253,1143.5,2253.3,1150.2Z" fill="#c48362"/><path d="M2258.9,1144.1a.7.7,0,0,0-.6.2,14.8,14.8,0,0,0-1.1,3.7c0-6.2-.3-24.6,0-28.8a.9.9,0,1,1,1.7,0C2258.6,1122.8,2258.6,1136.2,2258.9,1144.1Z" fill="#c48362"/><path d="M2247.7,1151.1l-.8-.9h-.9c-.3-12.6-.5-29.1-.5-29.9a1,1,0,0,1,.8-1.1c.6,0,.8.2.8.8S2247.7,1142.7,2247.7,1151.1Z" fill="#c48362"/><path d="M2256.1,1049.5l9.5,15.4-31.1,16.5-1.9-2.5C2232.9,1078.9,2240.4,1060.9,2256.1,1049.5Z" fill="#ffbd9c"/><path d="M2226.1,962.2l45.4,96.5s-10.4,16.8-14.9,21c-13.1,12.3-21.8,9.2-21.8,9.2l-59.3-85c-10.4-15.2-7.3-23.8-4.8-42,7.6-57.4,30-166,86.8-177.4,7.8-1.7,16.5,50.6,16.5,50.6l-46.7,123.1-.9,2.3-.3,1.1v.6Z" fill="#fff"/><path d="M2226.1,962.2h0l-15.6,3.6h-.3c-.3,0-.8-.3-.8-.6a1.4,1.4,0,0,1,.5-1.1l16.2-3.6Z" fill="#c8bdd1"/><path d="M2271.5,1059.5a1.4,1.4,0,0,1-.9-.5l-11.4-24.9c-.3-.6,0-.9.5-1.1s.9,0,1.1.5l11.5,24.9c.3.6,0,.9-.5,1.1Z" fill="#c8bdd1"/><path d="M2245.7,909.3h0c-.5,0-.8-.6-.8-1.1,10.6-58.5,9.2-83.2,9.2-83.4a.8.8,0,0,1,.9-.9c.5,0,.8.3.8.9s1.4,24.9-9.2,83.6A.8.8,0,0,1,2245.7,909.3Z" fill="#c8bdd1"/><path d="M2254.1,852.5c-.5,0-.8-.3-.8-.9,0-5-5.3-19.6-5.3-19.8s0-.9.5-1.2.9,0,1.1.6,5.6,15.1,5.6,20.4C2255,851.9,2254.4,852.5,2254.1,852.5Z" fill="#c8bdd1"/><path d="M2427.3,1623.2h-.2a.7.7,0,0,1-.3-1.2c12.6-26.6,8.9-127,8.7-128.1s.2-.9.8-.9.8.3.8.9c.3,4.2,4,101.8-8.9,129Z" fill="#432254"/><path d="M2394.3,951.8c0,10.4-4.2,19-9.5,19s-9.5-8.4-9.5-19,4.2-19,9.5-19S2394.3,941.2,2394.3,951.8Z" fill="#c8bdd1"/><polygon points="2359.3 911.5 2377.3 925.8 2390.1 927.7 2379.2 944 2362.4 941.5 2359.3 911.5" fill="#c48362"/><path d="M2368.6,977H2337a5.6,5.6,0,0,1-5.4-5.3V902.6a5.7,5.7,0,0,1,5.4-5.4h31.6a5.6,5.6,0,0,1,5.3,5.4v69.1A5.1,5.1,0,0,1,2368.6,977Z" fill="#1c1c1c"/><path d="M2391,927.5s-15.4,2.2-23.8,8.1-7.9,21.8-.6,25.7a30.5,30.5,0,0,0,5.3,2c7.9,1.9,16.3.5,23.8-2.8l12.9-6.2Z" fill="#ffbd9c"/><path d="M2371.9,933.1s-40.5,2.5-41.9,5.6,17,4.4,25.4,3.9,15.4-.6,15.4-.6Z" fill="#ffbd9c"/><path d="M2368.3,943.1l-18.7,1.2s-13.5-.3-18.2.2-3.4,2.8-3.1,3.7c.8,3.6,18.7,2.5,27.1,1.9s15.4-.5,15.4-.5Z" fill="#ffbd9c"/><path d="M2370.3,951l-21.3,1.4h-18.2c-3.1.5-2.5,4.4-.3,5,4.5,1.7,19.6,1.1,26.6.6s15.7-.3,15.7-.3Z" fill="#ffbd9c"/><path d="M2377.3,958s-23.6,1.1-33.9,2.5c-3.1.3-3.4,1.4-3.4,2.5s5.1,2,6.2,2.2a142.4,142.4,0,0,0,18.5-.2c8.1-.6,15.9-.6,15.9-.6Z" fill="#ffbd9c"/><path d="M2416.4,776.6c58.2,11.2,110.6,183.6,95.2,211s-125.4-16.8-125.4-16.8,2.8-4.4,4.8-19c.8-7.3,0-24.3,0-24.3l70.2,9.5s-23.8-22.7-33-52.6C2413.4,836.8,2393.5,772.4,2416.4,776.6Z" fill="#fff"/><path d="M2461.2,938.1h0l-70.5-8.7a.9.9,0,0,1-.9-.8,1,1,0,0,1,.9-.9l70.2,8.7a1,1,0,0,1,.9.9C2462,937.8,2461.5,938.1,2461.2,938.1Z" fill="#c8bdd1"/><path d="M2430.4,987.1h-.3l-47.8-16.8c-.6-.3-.6-.6-.6-1.1s.6-.6,1.2-.6l47.8,16.8c.6.3.6.5.6,1.1S2431,987.1,2430.4,987.1Z" fill="#c8bdd1"/><path d="M2439.9,909.8a.7.7,0,0,1-.8-.8c0-.6-9.5-61.6-7.8-84.2a.9.9,0,0,1,.8-.9.9.9,0,0,1,.8.9c-1.6,22.3,7.9,83.1,7.9,83.6s-.3,1.4-.9,1.4Z" fill="#c8bdd1"/><path d="M2490.6,949h-.6c-13.4-7.3-29.1-10.9-29.1-10.9s-.5-.6-.5-.8.3-.9.5-.9c10.1-2.5,13.7-2.2,13.7-2.2s.9.3.9.8a.8.8,0,0,1-.9.9h0a63.3,63.3,0,0,0-9.8,1.4,114.2,114.2,0,0,1,26.1,10,.8.8,0,0,1,.3,1.1A.6.6,0,0,1,2490.6,949Z" fill="#c8bdd1"/><path d="M2432.9,854.7h0c-.5,0-.8-.6-.8-1.1a194.6,194.6,0,0,1,5-19.9c.3-.5.6-.5,1.2-.5s.5.5.5,1.1c-1.9,5.3-4.7,19.6-4.7,19.6A1.3,1.3,0,0,1,2432.9,854.7Z" fill="#c8bdd1"/><path d="M2329.1,935.6a4,4,0,0,0,1.1,3.6l17.7-3.1-16.3-2.2C2331.6,934.2,2329.1,934.2,2329.1,935.6Z" fill="#ffbd9c"/><path d="M2331.6,944.5c-1.4,0-4.2.9-3,3.7l7-3.7C2335.6,944.3,2332.8,944.3,2331.6,944.5Z" fill="#ffbd9c"/><path d="M2346.2,911.5h-6.4a3.9,3.9,0,0,1-4-3.9v-2.5a3.8,3.8,0,0,1,4-3.9h6.4a3.8,3.8,0,0,1,3.9,3.9v2.5A4,4,0,0,1,2346.2,911.5Zm0-1.7h0a2.1,2.1,0,0,0,2.2-1.9v-2.5a2.1,2.1,0,0,0-1.9-2.3H2340a1.9,1.9,0,0,0-1.9,2v2.5a2.6,2.6,0,0,0,.5,1.4,2.2,2.2,0,0,0,1.4.5Z" fill="#c8bdd1"/><path d="M2349.3,916.5h-12.6c-.6,0-.9-.2-.9-.8s.3-.8.9-.8h12.6a.7.7,0,0,1,.8.8C2350.1,916.3,2349.8,916.5,2349.3,916.5Z" fill="#c8bdd1"/><path d="M2384,672.2c-5.1,12.9-13.5,21.6-18.8,19.6s-5.3-14.2-.3-27.1,13.5-21.6,18.8-19.6S2389,659.4,2384,672.2Z" fill="#ffbd9c"/><path d="M2384.3,655.7h0c-.6,0-.9-.5-.6-.8s.3-2.2-.6-3.1a3.1,3.1,0,0,0-2.8-.5c-.5,0-.8-.3-.8-.6s.3-.8.6-.8c1.9-.3,3.3,0,4.2,1.1s.8,4.5.8,4.5S2384.5,656,2384.3,655.7Z" fill="#c48362"/><path d="M2377.5,676.7c-.2,0-.2,0-.2-.3a.8.8,0,0,1,0-1.1c3.6-3.9,6.4-13.7,6.4-14s.6-.8.8-.5.6.5.6.8-2.8,10.6-6.7,14.6A.9.9,0,0,1,2377.5,676.7Z" fill="#c48362"/><path d="M1964.8,1596c0,8.1.8,15.7-3.1,15.7s-11.2-7.6-11.2-15.7,1.4-24.6,5.3-24.6S1964.8,1587.9,1964.8,1596Z" fill="#d35050"/><path d="M2055.2,1596c0,8.1,3.3,16-.6,16s-10.6-8.2-10.6-16.6,0-14.2,3.9-14.2S2055.2,1587.6,2055.2,1596Z" fill="#d35050"/><path d="M2016.5,1562.7s29.7,5.6,34.5,13.4c1.6,2.6-11.5,5.6-11.5,5.6l-18.5-3.3Z" fill="#c48362"/><path d="M2019.1,1620.1l-30.8-.9a5.3,5.3,0,0,1-5.3-5.6l1.6-71.3a5.4,5.4,0,0,1,5.6-5.3l30.8.8a5.3,5.3,0,0,1,5.3,5.6l-1.6,71.4A5.7,5.7,0,0,1,2019.1,1620.1Z" fill="#fff"/><path d="M2050.1,1575.6s-14.5-9.8-24-3.4-9.3,24.1-1.4,28.8c5.3,3.1,13.4,3.1,18.1,2.8a19.5,19.5,0,0,0,5.9-.8l38.4-7.3Z" fill="#ffbd9c"/><path d="M2033.3,1570s-39.7,2.2-39.4,6.4,11.2,3.4,20.4,3.1,17.1,0,17.1,0Z" fill="#ffbd9c"/><path d="M2027.5,1580.3s-35,.6-34.7,4.8,11.2,3.3,20.4,3.1,17.1,0,17.1,0Z" fill="#ffbd9c"/><path d="M2029.4,1589s-35,.6-34.7,4.8,11.2,3.3,20.4,3,17.1,0,17.1,0Z" fill="#ffbd9c"/><path d="M2036.7,1597.4s-35,.6-34.7,4.8,11.2,3.3,20.4,3,23.8-1.4,23.8-1.4Z" fill="#ffbd9c"/><path d="M1984.1,1564.4s-24.4,2.5-29.1,6.4c-2.8,2.3,11.4,9.2,11.4,9.2l17.4-2.7Z" fill="#c48362"/><path d="M1955,1570.8s15.9-6.4,25.2.3,8.1,24.6,0,28.8a29.1,29.1,0,0,1-5.9,2c-8.4,1.9-22.1,1.7-29.7-2.3l-15.9-3.6Z" fill="#ffbd9c"/><path d="M1969.5,1571.4c-1.1-1.4.6-3.4,2.3-3.4,11.4,1.4,40.8,5.6,40.5,9s-11.2,2.8-20.4,1.9-17.1-.8-17.1-.8Z" fill="#ffbd9c"/><path d="M1978.5,1579.2s35,2.3,34.4,6.2-11.2,2.8-20.4,1.9-17.1-.8-17.1-.8Z" fill="#ffbd9c"/><path d="M1976.2,1587.9s35,2.2,34.5,6.1-11.2,2.8-20.5,2-17-.8-17-.8Z" fill="#ffbd9c"/><path d="M1968.4,1595.7s35,2.3,34.4,6.2-11.2,2.8-20.4,1.9-21-.8-21-.8Z" fill="#ffbd9c"/><path d="M1955.5,1571.1s-.5,7.3,0,21.3c.6,17.6,6.5,19.3,6.5,19.3v.3l-72.5.5c-12.3-1.1-25.5-2.8-28.8-14.5-8.4-28.6,15.9-74.8,28.2-102.2,15.4-34.7,53.5-59.9,62.4-65.5a3.3,3.3,0,0,0,1.4-1.1,10.6,10.6,0,0,0,2.3-1.7c2.5-1.6,4.2-2.8,5.3-3.3s.3-.3.6-.3l.2-.3h0l-.5,10.1v2l-.3,41.4-39.7,92.9Z" fill="#ee5050"/><path d="M2046.8,1573.3s4.7,9,5.6,14a189.8,189.8,0,0,1,2.2,24.7l72.5.2c12.3-1.1,25.4-2.8,28.8-14.5,8.4-28.6-18.8-74.2-31.1-101.6-15.4-34.7-62.4-66.9-63.2-67.4a28.5,28.5,0,0,0-5-2.8c-.3-.3-.6,7.8-.6,7.8v2l.3,41.4L2096,1570Z" fill="#ee5050"/><path d="M2058.5,1426.4a.3.3,0,0,1-.3.3,10.8,10.8,0,0,1-1.9,1.7,74.4,74.4,0,0,1-48.4,18.7h-2.3c-17.6,0-33.6-5.8-45.3-12l-8.4-4.8c-.3-.2-.6-.2-.8-.5l1.4-1.1c.2,0,.2.2.5.2,2.3,1.4,4.8,2.8,7.6,4.2,11.4,6.2,27.4,12.4,45,12.4h2a74.2,74.2,0,0,0,47.8-18.8l.9-.8c.3-.3.3-.3.5-.3Z" fill="#d35050"/><path d="M1933.4,1540h0a1.1,1.1,0,0,1-.8-1.1l15.7-62.4c0-.5.5-.8,1.1-.5s.8.5.5,1.1l-15.6,62.4C1934.3,1539.8,1933.7,1540,1933.4,1540Z" fill="#d35050"/><path d="M1894,1572.8a.8.8,0,0,1-.9-.9c0-.5.3-.8.9-.8,27.4-2.8,47-3.1,61.5-.8.6,0,.9.5.9,1.1s-.6.8-1.1.8c-14.6-2.5-34.2-2.2-61.3.6Z" fill="#d35050"/><path d="M1941.5,1507a.7.7,0,0,1-.8-.8l-.8-20.5c0-.5.2-.8.8-.8s.8.3.8.8l.9,20.5c.3.5-.3.8-.9.8Z" fill="#d35050"/><path d="M2082,1538.9c-.3,0-.8-.3-.8-.5l-14.6-61.3a1.2,1.2,0,0,1,.6-1.1,1.3,1.3,0,0,1,1.1.5l14.6,61.3c0,.6-.3.8-.9,1.1Z" fill="#d35050"/><path d="M2047.3,1574.5c-.5,0-.8-.3-.8-.9s.3-.8.8-1.1c26.6-4.2,51-5,72.2-2.5a.9.9,0,0,1,.9.8,1,1,0,0,1-.9.9q-32.2-3.5-72.2,2.8Z" fill="#d35050"/><path d="M2074.7,1507h0a.9.9,0,0,1-.8-.8l.8-20.5c0-.5.6-.8.9-.8s.8.6.8.8l-.8,20.5C2075.6,1506.7,2075.3,1507,2074.7,1507Z" fill="#d35050"/><path d="M1999.8,1553.5h0l-6.8-.3a5.7,5.7,0,0,1-2.8-1.1,3.8,3.8,0,0,1-1.1-2.8v-2.5a5,5,0,0,1,1.1-2.8,3.6,3.6,0,0,1,2.8-1.2l6.5.3a3.4,3.4,0,0,1,3.6,3.9v2.5A3.4,3.4,0,0,1,1999.8,1553.5Zm-6.5-8.7a1.9,1.9,0,0,0-1.9,2v2.5a1.7,1.7,0,0,0,1.9,1.9l6.4.3a2.1,2.1,0,0,0,2.3-1.9V1547a2.2,2.2,0,0,0-.6-1.4,2.6,2.6,0,0,0-1.4-.5l-6.7-.3Z" fill="#c8bdd1"/><path d="M2002.8,1558.5h0l-12.8-.3c-.6,0-.9-.3-.9-.8a.8.8,0,0,1,.9-.9l12.5.3a.8.8,0,0,1,.9.9C2003.7,1558.2,2003.1,1558.5,2002.8,1558.5Z" fill="#c8bdd1"/><g opacity="0.8"><path d="M2217.7,511.9a14,14,0,1,1,14-14A13.8,13.8,0,0,1,2217.7,511.9Zm0-24.4a10.4,10.4,0,0,0-10.3,10.4,10.4,10.4,0,1,0,20.7,0A10.4,10.4,0,0,0,2217.7,487.5Z" fill="#fff"/></g><g opacity="0.8"><path d="M2559.4,896.7a8.4,8.4,0,0,1,0-16.8,8.4,8.4,0,0,1,8.4,8.4A8.6,8.6,0,0,1,2559.4,896.7Zm0-13.2a4.9,4.9,0,0,0-4.7,4.8,4.8,4.8,0,0,0,4.7,4.7,4.8,4.8,0,1,0,0-9.5Z" fill="#fff"/></g><g opacity="0.8"><path d="M963.2,724.3a11.5,11.5,0,1,1,11.5-11.5A11.4,11.4,0,0,1,963.2,724.3Zm0-19.6a8.1,8.1,0,1,0,8.1,8.1A8.1,8.1,0,0,0,963.2,704.7Z" fill="#fff"/></g></g><g id="Capa_2" data-name="Capa 2"><path d="M1318.3,422.6H1010.1a16.9,16.9,0,0,1-16.9-16.8V25.2a16.8,16.8,0,0,1,16.9-16.8h308.2a16.9,16.9,0,0,1,16.9,16.8V405.8A16.9,16.9,0,0,1,1318.3,422.6Z" fill="#fff"/><path d="M1164.2,53.9c38.3,0,69.4,30.9,69.4,69s-31.1,69-69.4,69-69.4-30.9-69.4-69A69.2,69.2,0,0,1,1164.2,53.9Z" fill="#df6663"/><path d="M1186.2,114.1v5.4a22,22,0,0,1-22,21.9h0a21.9,21.9,0,0,1-22-21.9v-5.4a21.9,21.9,0,0,1,22-21.9h0A22,22,0,0,1,1186.2,114.1Z" fill="#f1cbaa"/><path d="M1164.2,141.4h0a50.9,50.9,0,0,0-47.3,32,69.7,69.7,0,0,0,94.6,0A51,51,0,0,0,1164.2,141.4Z" fill="#a3dbfd"/><path d="M1354.3,135.2l4.8-8.3a27.2,27.2,0,0,1,37-9.9h0a26.8,26.8,0,0,1,10,36.8L1299.5,337.3l-46.9-26.9,46-79.2Z" fill="#edba53"/><path d="M1396.2,117h0a27.4,27.4,0,0,0-37.1,9.8l-12.5,21.7,46.9,27,12.6-21.7A27,27,0,0,0,1396.2,117Z" fill="#df6663"/><polygon points="1299.5 337.3 1245.1 377.1 1252.6 310.3 1299.5 337.3" fill="#99d6fc"/><path d="M1335.2,335.3a8.5,8.5,0,0,0-8.5,8.4v62.1a8.5,8.5,0,0,1-8.4,8.4H1010.1a8.5,8.5,0,0,1-8.5-8.4V25.2a8.5,8.5,0,0,1,8.5-8.4h308.2a8.5,8.5,0,0,1,8.4,8.4v91.6a8.5,8.5,0,0,0,17,0V25.2A25.3,25.3,0,0,0,1318.3,0H1010.1a25.3,25.3,0,0,0-25.4,25.2V405.8a25.3,25.3,0,0,0,25.4,25.2h308.2a25.3,25.3,0,0,0,25.4-25.2V343.7A8.5,8.5,0,0,0,1335.2,335.3Z"/><path d="M1242.1,122.9c0-42.7-35-77.4-77.9-77.4s-77.9,34.7-77.9,77.4a77.1,77.1,0,0,0,24.4,56.3,3.9,3.9,0,0,0,1,.8,77.8,77.8,0,0,0,105,0l.9-.8A76.8,76.8,0,0,0,1242.1,122.9Zm-77.9-60.6a60.8,60.8,0,0,1,60.9,60.6,59.7,59.7,0,0,1-11.9,35.9,59.2,59.2,0,0,0-24.9-20.8,29.8,29.8,0,0,0,6.4-18.5v-5.4a30.5,30.5,0,0,0-61,0v5.4a29.8,29.8,0,0,0,6.4,18.5,59.5,59.5,0,0,0-25,20.8,60.4,60.4,0,0,1-11.9-35.9C1103.2,89.5,1130.6,62.3,1164.2,62.3Zm-13.6,57.2v-5.4a13.6,13.6,0,0,1,27.1,0v5.4a13.6,13.6,0,0,1-27.1,0Zm-23.2,51.7a42.3,42.3,0,0,1,73.6,0,61.2,61.2,0,0,1-73.6,0Z"/><path d="M1209.9,368.7h-45.7a8.5,8.5,0,1,0,0,16.9h45.7a8.5,8.5,0,1,0,0-16.9Z"/><path d="M1209.9,321.6H1089.7a8.4,8.4,0,1,0,0,16.8h120.2a8.4,8.4,0,1,0,0-16.8Z"/><path d="M1209.9,274.4H1089.7a8.5,8.5,0,1,0,0,16.9h120.2a8.5,8.5,0,1,0,0-16.9Z"/><path d="M1059.5,229.8a8.4,8.4,0,0,0-14.4,5.9,8.2,8.2,0,0,0,8.4,8.4,8.7,8.7,0,0,0,6-2.4,8.6,8.6,0,0,0,2.5-6A8.2,8.2,0,0,0,1059.5,229.8Z"/><path d="M1059.5,276.9a8.5,8.5,0,0,0-12,0,8.6,8.6,0,0,0,0,11.9,8.6,8.6,0,0,0,6,2.5,8.4,8.4,0,0,0,6-14.4Z"/><path d="M1053.5,321.6a8.2,8.2,0,0,0-8.4,8.4,8.4,8.4,0,0,0,14.4,5.9,8.2,8.2,0,0,0,2.5-5.9,8.6,8.6,0,0,0-2.5-6A8.9,8.9,0,0,0,1053.5,321.6Z"/><path d="M1209.9,227.3H1089.7a8.4,8.4,0,1,0,0,16.8h120.2a8.4,8.4,0,1,0,0-16.8Z"/><path d="M1400.4,109.7a35.7,35.7,0,0,0-48.6,13L1245.3,306.1a8.1,8.1,0,0,0-1.1,3.3l-7.5,66.8a8.3,8.3,0,0,0,4.2,8.2,7.9,7.9,0,0,0,4.2,1.2,8.4,8.4,0,0,0,5-1.7l54.5-39.8a9.6,9.6,0,0,0,2.3-2.6L1413.4,158A35.3,35.3,0,0,0,1400.4,109.7ZM1259.6,324.1l24.5,14-28.4,20.8Zm36.8,1.7-32.2-18.6L1349.7,160l32.2,18.5Zm102.3-176.2-8.3,14.4-32.3-18.6,8.4-14.3a18.6,18.6,0,0,1,11.3-8.7,18.3,18.3,0,0,1,14.1,1.9,18.7,18.7,0,0,1,8.7,11.2A18.3,18.3,0,0,1,1398.7,149.6Z"/><path d="M2289.8,512.6a3.5,3.5,0,0,1-3.2-2.2c-2.7-7-5.7-14.2-8.8-21.1a3.5,3.5,0,1,1,6.3-2.9c3.2,7.1,6.2,14.3,9,21.5a3.5,3.5,0,0,1-2,4.5Zm-25.1-54.4a3.4,3.4,0,0,1-3.1-1.9c-3.6-6.7-7.4-13.4-11.3-20a3.4,3.4,0,0,1,1.2-4.7,3.3,3.3,0,0,1,4.7,1.2c4,6.7,7.9,13.5,11.5,20.2a3.5,3.5,0,0,1-1.4,4.7A3.3,3.3,0,0,1,2264.7,458.2ZM2233.3,407a3.5,3.5,0,0,1-2.9-1.5c-4.3-6.2-8.8-12.5-13.5-18.6a3.5,3.5,0,0,1,5.6-4.2c4.6,6.2,9.2,12.5,13.6,18.8a3.5,3.5,0,0,1-2.8,5.5Zm-36.8-47.4a3.6,3.6,0,0,1-2.7-1.2c-4.9-5.8-10.1-11.5-15.3-17.1a3.5,3.5,0,0,1,5.1-4.7c5.2,5.6,10.5,11.4,15.5,17.3a3.4,3.4,0,0,1-.4,4.8A3.1,3.1,0,0,1,2196.5,359.6ZM2155,316.2a3.9,3.9,0,0,1-2.4-1c-5.4-5.2-11.1-10.5-16.9-15.6a3.4,3.4,0,0,1-.3-4.8,3.5,3.5,0,0,1,5-.3c5.7,5.1,11.5,10.4,17,15.7a3.5,3.5,0,0,1,.2,4.9A3.6,3.6,0,0,1,2155,316.2Zm-45.2-39.5a3.6,3.6,0,0,1-2.2-.7c-5.9-4.8-12-9.5-18.2-14.1a3.5,3.5,0,0,1-.7-4.8,3.4,3.4,0,0,1,4.9-.7c6.2,4.6,12.3,9.4,18.3,14.1a3.5,3.5,0,0,1,.6,4.9A3.4,3.4,0,0,1,2109.8,276.7Zm-48.4-35.5a3.6,3.6,0,0,1-2-.6c-6.3-4.2-12.8-8.5-19.2-12.5a3.6,3.6,0,0,1-1.1-4.8,3.4,3.4,0,0,1,4.8-1.1c6.5,4.1,13,8.4,19.4,12.7a3.4,3.4,0,0,1,.9,4.8A3.2,3.2,0,0,1,2061.4,241.2Zm-51-31.7a2.6,2.6,0,0,1-1.7-.5l-20.1-11.2a3.3,3.3,0,0,1-1.4-4.6,3.4,3.4,0,0,1,4.6-1.5c6.9,3.7,13.7,7.5,20.3,11.3a3.6,3.6,0,0,1,1.3,4.8A3.4,3.4,0,0,1,2010.4,209.5Zm-53.1-28.1a4.2,4.2,0,0,1-1.5-.4c-6.8-3.3-13.8-6.7-20.8-9.9a3.5,3.5,0,1,1,2.9-6.3c7,3.3,14.1,6.6,21,10a3.4,3.4,0,0,1,1.5,4.6A3.5,3.5,0,0,1,1957.3,181.4Zm-54.7-24.8a3.1,3.1,0,0,1-1.3-.3l-21.4-8.6a3.5,3.5,0,0,1-1.9-4.5,3.5,3.5,0,0,1,4.5-2l21.4,8.7a3.5,3.5,0,0,1,1.9,4.6A3.4,3.4,0,0,1,1902.6,156.6Zm-56-21.6a2.5,2.5,0,0,1-1.2-.2l-21.8-7.4a3.5,3.5,0,1,1,2.2-6.6c7.3,2.4,14.7,4.9,21.9,7.5a3.4,3.4,0,0,1,2.1,4.4A3.4,3.4,0,0,1,1846.6,135Zm-57.2-18.5-.9-.2c-7.3-2.2-14.8-4.3-22.2-6.3a3.6,3.6,0,0,1-2.4-4.3,3.4,3.4,0,0,1,4.3-2.4c7.4,2,14.9,4.2,22.2,6.4a3.4,3.4,0,0,1,2.4,4.3A3.6,3.6,0,0,1,1789.4,116.5Zm-57.9-15.8h-.8l-22.5-5.3a3.5,3.5,0,0,1-2.6-4.1,3.5,3.5,0,0,1,4.2-2.7l22.5,5.4a3.5,3.5,0,0,1-.8,6.8Zm-58.6-13h-.7c-7.5-1.5-15.1-3-22.7-4.3a3.5,3.5,0,0,1-2.7-4.1,3.4,3.4,0,0,1,4-2.7c7.6,1.3,15.2,2.8,22.7,4.3a3.5,3.5,0,0,1-.6,6.9Zm-59.2-10.5h-.5l-22.8-3.4a3.5,3.5,0,0,1-3-3.9,3.4,3.4,0,0,1,3.9-2.9c7.7,1,15.4,2.2,23,3.4a3.4,3.4,0,0,1,2.8,3.9A3.4,3.4,0,0,1,1613.7,77.2Z" fill="#e7ad47"/><path d="M430.9,542.7l-1.1-.2a3.4,3.4,0,0,1-2.1-4.4c2.5-7.3,5.2-14.7,8.1-21.8a3.5,3.5,0,0,1,4.5-2,3.5,3.5,0,0,1,1.9,4.5c-2.8,7.1-5.5,14.3-8,21.5A3.4,3.4,0,0,1,430.9,542.7Zm23.2-55.4a3.2,3.2,0,0,1-1.6-.4,3.4,3.4,0,0,1-1.5-4.6c3.4-6.9,7-13.8,10.8-20.5a3.5,3.5,0,0,1,4.7-1.4,3.5,3.5,0,0,1,1.4,4.7c-3.8,6.7-7.3,13.5-10.7,20.3A3.4,3.4,0,0,1,454.1,487.3Zm30-51.9a3.1,3.1,0,0,1-1.9-.6,3.4,3.4,0,0,1-1-4.8c4.2-6.4,8.7-12.8,13.3-19.1a3.5,3.5,0,1,1,5.6,4.1c-4.6,6.2-9,12.5-13.1,18.8A3.6,3.6,0,0,1,484.1,435.4ZM520,387.3a3.3,3.3,0,0,1-2.2-.8,3.5,3.5,0,0,1-.4-4.9c4.9-5.8,10.1-11.7,15.3-17.5a3.5,3.5,0,0,1,5.1,4.7c-5.2,5.7-10.2,11.5-15.1,17.3A3.6,3.6,0,0,1,520,387.3Zm40.9-43.9a3.2,3.2,0,0,1-2.4-1.1,3.5,3.5,0,0,1,0-4.9c5.5-5.3,11.2-10.6,16.9-15.9a3.6,3.6,0,0,1,4.9.3,3.5,3.5,0,0,1-.2,4.9c-5.7,5.1-11.3,10.4-16.7,15.7A3.5,3.5,0,0,1,560.9,343.4Zm44.9-39.9a3.4,3.4,0,0,1-2.7-1.3,3.5,3.5,0,0,1,.5-4.9c5.9-4.8,12-9.6,18.2-14.3a3.5,3.5,0,1,1,4.2,5.5c-6.1,4.6-12.1,9.4-18,14.2A3.5,3.5,0,0,1,605.8,303.5Zm48-36.1a3.2,3.2,0,0,1-2.8-1.5,3.5,3.5,0,0,1,.8-4.8c6.3-4.4,12.8-8.7,19.3-13a3.5,3.5,0,1,1,3.8,5.8c-6.5,4.2-12.9,8.6-19.1,12.9A3.6,3.6,0,0,1,653.8,267.4Zm50.5-32.5a3.5,3.5,0,0,1-3-1.7,3.4,3.4,0,0,1,1.2-4.7c6.6-4,13.3-7.9,20-11.7a3.6,3.6,0,0,1,4.8,1.3,3.5,3.5,0,0,1-1.3,4.7c-6.7,3.8-13.4,7.7-19.9,11.6A4.1,4.1,0,0,1,704.3,234.9Zm52.4-29.3a3.5,3.5,0,0,1-3-1.8,3.5,3.5,0,0,1,1.4-4.7c6.8-3.5,13.7-7.1,20.7-10.5a3.3,3.3,0,0,1,4.6,1.6,3.4,3.4,0,0,1-1.5,4.6l-20.6,10.4A2.9,2.9,0,0,1,756.7,205.6Zm54-26.3a3.3,3.3,0,0,1-3.1-2,3.4,3.4,0,0,1,1.7-4.6c6.9-3.2,14.1-6.4,21.2-9.4a3.4,3.4,0,1,1,2.7,6.3c-7,3.1-14.1,6.2-21,9.4Zm55.2-23.6a3.5,3.5,0,0,1-1.3-6.7q10.8-4.4,21.6-8.4a3.5,3.5,0,0,1,4.5,2,3.4,3.4,0,0,1-2,4.4l-21.5,8.4A2.8,2.8,0,0,1,865.9,155.7Zm56.3-21.2a3.4,3.4,0,0,1-1.2-6.7c7.2-2.6,14.6-5.1,21.9-7.6a3.5,3.5,0,0,1,2.2,6.6l-21.8,7.5Z" fill="#e7ad47"/><path d="M1986.9,1149.5h-1a3.7,3.7,0,0,1-2.3-4.4c2.4-7.3,4.7-14.7,6.9-22a3.5,3.5,0,0,1,4.4-2.3,3.5,3.5,0,0,1,2.3,4.3l-6.9,22.1A3.5,3.5,0,0,1,1986.9,1149.5Zm17.8-57.4-1-.2a3.4,3.4,0,0,1-2.3-4.3c2.2-7.3,4.4-14.7,6.5-22.1a3.5,3.5,0,0,1,6.7,1.9q-3.3,11.3-6.6,22.2A3.4,3.4,0,0,1,2004.7,1092.1Zm16.7-57.8h-1a3.4,3.4,0,0,1-2.4-4.2c2.1-7.6,4.1-15,6-22.3a3.5,3.5,0,1,1,6.7,1.7c-1.9,7.3-3.9,14.9-6,22.4A3.4,3.4,0,0,1,2021.4,1034.3Zm14.9-58.1h-.8a3.5,3.5,0,0,1-2.5-4.2c1.8-7.5,3.5-15.1,5.1-22.5a3.5,3.5,0,0,1,6.8,1.5c-1.6,7.5-3.4,15-5.2,22.6A3.5,3.5,0,0,1,2036.3,976.2Zm12.7-58.8h-.6a3.6,3.6,0,0,1-2.8-4.1c1.5-7.6,2.9-15.2,4.2-22.7a3.5,3.5,0,0,1,6.8,1.2c-1.3,7.5-2.7,15.2-4.2,22.8A3.3,3.3,0,0,1,2049,917.4Zm9.9-59.2h-.5a3.4,3.4,0,0,1-2.9-3.9c1-7.7,2-15.4,2.9-22.8a3.5,3.5,0,0,1,3.8-3.1,3.5,3.5,0,0,1,3.1,3.9c-.9,7.5-1.9,15.3-3,23A3.4,3.4,0,0,1,2058.9,858.2Zm6.5-68h-.2c-1.9,0-3.4,2.3-3.2.4.6-7.7,1.1-13.4,1.5-21,.1-1.9,1.7-2.3,3.6-2.2s3.4,2.2,3.3,4.2c-.4,7.6-.9,11.5-1.5,19.3C2068.7,792.7,2067.2,790.2,2065.4,790.2Zm2.8-56.1h-.1c-1.9,0-3.4.6-3.4-1.4s.1-5.5.1-8.9-.1-10.1-.1-14.4c-.1-1.9,1.4-5,3.4-5h0c1.9,0,3.5,3.5,3.5,5.4.1,4.4.1,9.8.1,14.2s0,5-.1,8.3S2070.1,734.1,2068.2,734.1Zm-1.5-56.1a3.2,3.2,0,0,1-3.4-3.1c-.5-7.6-1.1-15.3-1.7-22.8a3.3,3.3,0,0,1,3.1-3.7,3.5,3.5,0,0,1,3.8,3.1c.7,7.7,1.2,15.3,1.7,23a3.3,3.3,0,0,1-3.3,3.5Zm-5.8-59.4a3.4,3.4,0,0,1-3.4-3c-1-7.6-2.2-15.3-3.4-22.8a3.6,3.6,0,0,1,2.9-4,3.6,3.6,0,0,1,4,2.9c1.2,7.6,2.3,15.3,3.4,22.9a3.4,3.4,0,0,1-3,3.9Zm-10.2-59.2a3.4,3.4,0,0,1-3.4-2.7q-2.4-11.2-5.1-22.5a3.4,3.4,0,0,1,2.6-4.1,3.5,3.5,0,0,1,4.2,2.5c1.8,7.5,3.5,15.1,5.1,22.6a3.4,3.4,0,0,1-2.7,4.1Zm-14.6-58.2a3.4,3.4,0,0,1-3.3-2.5c-2.2-7.3-4.4-14.7-6.8-22a3.7,3.7,0,0,1,2.3-4.4,3.4,3.4,0,0,1,4.3,2.3c2.4,7.3,4.7,14.8,6.8,22.1a3.5,3.5,0,0,1-2.3,4.4Zm-18.8-57.1a3.3,3.3,0,0,1-3.2-2.2c-2.7-7.2-5.4-14.4-8.3-21.5a3.5,3.5,0,0,1,2-4.5,3.5,3.5,0,0,1,4.5,1.9c2.8,7.2,5.6,14.5,8.3,21.7a3.5,3.5,0,0,1-2.1,4.4A2.5,2.5,0,0,1,2017.3,444.1Zm-22.6-55.6a3.5,3.5,0,0,1-3.2-2c-3.1-7-6.3-14-9.6-20.9a3.4,3.4,0,0,1,1.6-4.6,3.5,3.5,0,0,1,4.7,1.6c3.3,7,6.5,14,9.6,21.1a3.4,3.4,0,0,1-1.7,4.5A3.5,3.5,0,0,1,1994.7,388.5Zm-26.2-54a3.4,3.4,0,0,1-3-1.9c-3.5-6.7-7.2-13.5-10.9-20.3a3.5,3.5,0,1,1,6.1-3.3c3.7,6.8,7.4,13.6,10.9,20.4a3.5,3.5,0,0,1-1.5,4.7A2.9,2.9,0,0,1,1968.5,334.5Zm-29.2-52.4a3.4,3.4,0,0,1-3-1.7c-3.9-6.5-7.9-13.1-12-19.7a3.5,3.5,0,0,1,5.9-3.7c4.1,6.6,8.1,13.3,12,19.8a3.4,3.4,0,0,1-1.2,4.8A3.4,3.4,0,0,1,1939.3,282.1Zm-32.1-50.8a3.5,3.5,0,0,1-2.9-1.5c-4.2-6.3-8.6-12.7-13-19.1a3.5,3.5,0,1,1,5.7-3.9c4.4,6.3,8.8,12.8,13.1,19.1a3.5,3.5,0,0,1-2.9,5.4Zm-34.5-49.1a3.5,3.5,0,0,1-2.8-1.4c-4.6-6.2-9.2-12.4-13.9-18.5a3.5,3.5,0,0,1,.7-4.8,3.4,3.4,0,0,1,4.8.6c4.7,6.1,9.4,12.4,13.9,18.6a3.4,3.4,0,0,1-.7,4.8A3.1,3.1,0,0,1,1872.7,182.2Z" fill="#e7ad47"/><path d="M1554.6,70h-.5l-23-2.3A3.3,3.3,0,0,1,1528,64a3.6,3.6,0,0,1,3.8-3.2l23,2.3a3.5,3.5,0,0,1,3.1,3.8A3.5,3.5,0,0,1,1554.6,70Z" fill="#e7ad47"/><path d="M1494.3,66.3h-.5l-22-1.3a3.5,3.5,0,0,1-3.2-3.7,3.3,3.3,0,0,1,3.4-3.2c7.4.3,14.9.8,22.2,1.3a3.4,3.4,0,0,1,3.1,3.6A3.4,3.4,0,0,1,1494.3,66.3Z" fill="#e7ad47"/><path d="M1436.2,62.7h-.6l-23-.8a3.5,3.5,0,0,1,.2-7c7.7.2,15.5.5,23.1.9a3.5,3.5,0,0,1,.3,6.9Z" fill="#e7ad47"/></g></svg>