<svg xmlns="http://www.w3.org/2000/svg" enable-background="new 0 0 64 64" viewBox="0 0 64 64"><path fill="#ffd6a8" d="M45.407,49.524l-8.077-5.364l-4.724-6.33L27.626,37l-6,1l-5-3L9,49.475L16.626,52l17.095,8.686
	c0.859,0.572,2.019,0.34,2.591-0.518c0.543-0.815,0.365-1.91-0.408-2.512l-4.279-2.501l5.095,2.531
	c0.859,0.572,2.019,0.34,2.591-0.518c0.543-0.815,0.365-1.91-0.408-2.512l-4.279-2.501c2.373,1.189,4.185,2.064,5.095,2.531
	c0.233,0.12,0.79,0.409,1.439,0.285c0.141-0.027,0.462-0.107,0.768-0.359c0.437-0.36,0.689-0.943,0.637-1.47
	c-0.058-0.593-0.487-0.983-0.898-1.34c-0.719-0.625-1.749-1.466-3.104-2.418c1.046,0.735,2.091,1.47,3.137,2.205l1.43,0.935
	c0.859,0.572,2.114,0.37,2.686-0.488C46.357,51.221,46.18,50.125,45.407,49.524z"/><path fill="#e6c197" d="M49 33.942c-.479.239-5.8 4.343-6.32 4.213l-4.865-1.216c-1.446-.361-2.975.062-4.029 1.116l-4.13 4.13c-.876.876-.876 2.296 0 3.172.781.781 2.047.781 2.828 0L36.502 42 49 51.675l7-3.734L49 33.942zM21.563 51.787l-1.596 1.572c-.409.403-.396 1.067.029 1.453l1.186 1.078c.393.357.996.345 1.374-.028l1.533-1.509c.736-.725.712-1.92-.052-2.615l0 0C23.329 51.095 22.244 51.117 21.563 51.787z"/><path fill="#e6c197" d="M18.895 49.362l-1.596 1.572c-.409.403-.396 1.067.029 1.453l1.186 1.078c.393.357.996.345 1.374-.028l1.533-1.509c.736-.725.712-1.92-.052-2.615l0 0C20.661 48.67 19.575 48.692 18.895 49.362zM26.899 56.638l-1.596 1.572c-.409.403-.396 1.067.029 1.453l1.186 1.078c.393.357.996.345 1.374-.028l1.533-1.509c.736-.725.712-1.92-.052-2.615l0 0C28.666 55.946 27.58 55.968 26.899 56.638z"/><path fill="#e6c197" d="M24.231,54.213l-1.596,1.572c-0.409,0.403-0.396,1.067,0.029,1.453l1.186,1.078
	c0.393,0.357,0.996,0.345,1.374-0.028l1.533-1.509c0.736-0.725,0.712-1.92-0.052-2.615h0C25.998,53.521,24.912,53.543,24.231,54.213
	z"/><polygon fill="#999" points="2 47 8 49.845 17 33.845 11 31"/><polygon fill="#999" points="54 29 48 31.845 57 48.845 62 45.845"/><path fill="#dbdbdb" d="M56,5c1,1,4,4,4,4l1-5L56,5z"/><circle cx="32" cy="19" r="9" fill="#ffe990"/><path d="M32,22c-0.551,0-1-0.448-1-1h-2c0,1.302,0.839,2.402,2,2.816V25h2v-1.184c1.161-0.414,2-1.514,2-2.816c0-1.654-1.346-3-3-3
	c-0.551,0-1-0.448-1-1s0.449-1,1-1s1,0.448,1,1h2c0-1.302-0.839-2.402-2-2.816V13h-2v1.184c-1.161,0.414-2,1.514-2,2.816
	c0,1.654,1.346,3,3,3c0.551,0,1,0.448,1,1S32.551,22,32,22z"/><path d="M32,29c5.514,0,10-4.486,10-10S37.514,9,32,9s-10,4.486-10,10S26.486,29,32,29z M32,11c4.411,0,8,3.589,8,8s-3.589,8-8,8
	s-8-3.589-8-8S27.589,11,32,11z"/><path d="M57.39 47.444l-8.017-15.144 5.055-2.397-.856-1.807-6 2.845c-.247.116-.435.329-.521.588-.086.26-.062.542.065.783l.625 1.18c-.235.169-.533.385-.935.676-1.128.82-3.39 2.464-4.148 2.853l-4.599-1.149c-1.536-.385-3.168-.038-4.419.899l-5.475-.912c-.109-.018-.22-.018-.329 0l-5.637.939-4.292-2.575c.09-.217.118-.455.046-.681-.084-.265-.274-.482-.525-.601l-6-2.845-.856 1.807 5.031 2.386L7.585 48.542l-5.157-2.445-.856 1.807 6 2.845C7.709 50.813 7.855 50.845 8 50.845c.351 0 .689-.186.872-.51l.069-.123 7.349 2.45c.101.17.218.331.366.465l1.185 1.077c.272.247.596.402.932.472.106.332.289.638.55.875l1.186 1.077c.272.247.596.402.932.473.106.332.289.638.55.876l1.187 1.078c.272.247.595.401.932.471.106.332.289.638.55.875l1.187 1.079c.382.346.863.518 1.344.518.508 0 1.016-.191 1.404-.573l1.488-1.466 3.551 1.462c.464.285.982.422 1.494.422.928 0 1.839-.448 2.392-1.276.352-.528.494-1.137.463-1.734.049.002.097.01.146.01.928 0 1.839-.448 2.392-1.276.352-.528.494-1.137.463-1.734.049.002.097.01.146.01.928 0 1.839-.448 2.392-1.276.145-.218.245-.452.323-.691.409.206.848.311 1.285.311.928 0 1.839-.448 2.392-1.276.014-.021.021-.044.035-.065l8.385-3.871.179.337c.128.243.351.422.615.495.088.025.179.037.269.037.18 0 .357-.049.515-.143l5-3-1.029-1.715L57.39 47.444zM20.36 51.568l-1.175 1.156L18 51.646l1.596-1.571c.302-.298.786-.308 1.099-.022.165.149.258.354.262.576.004.221-.08.43-.238.585L20.36 51.568zM21.854 55.148l-1.185-1.077.331-.326 1.265-1.246c.302-.298.786-.308 1.099-.022.165.149.258.354.262.576.004.221-.081.43-.238.586l-.082.081L21.854 55.148zM24.602 57.497C24.602 57.497 24.602 57.498 24.602 57.497l-.079.078-1.187-1.077 1.596-1.572c.302-.299.786-.307 1.1-.021.164.149.257.354.262.575.004.222-.081.43-.238.586L24.602 57.497zM28.724 58.49L27.191 60l-1.186-1.077.554-.546 1.042-1.027c.302-.299.785-.307 1.1-.021.164.149.257.354.262.575C28.967 58.127 28.882 58.335 28.724 58.49zM45.854 51.802c-.266.397-.807.507-1.208.239l-1.279-.846c-.139-.175-.292-.341-.475-.483-.028-.021-.057-.042-.087-.061l-4.278-2.656L38 48.845l-.552.834 4.47 2.956c.113.263.104.572-.064.824-.266.399-.807.508-1.205.241-.035-.023-.072-.045-.11-.063l-5.095-2.531L35 52l-.505.863 4.21 2.461c.322.285.39.772.148 1.134-.267.398-.808.508-1.205.241-.035-.023-.072-.045-.11-.063l-5.095-2.531L32 55l-.505.863 4.21 2.461c.322.285.39.772.148 1.134-.266.399-.806.507-1.205.241-.055-.036-.113-.067-.174-.093l-3.537-1.457c.008-.095.026-.189.024-.285-.016-.766-.35-1.501-.917-2.016-.51-.464-1.147-.695-1.79-.716-.087-.652-.388-1.264-.879-1.709-.51-.464-1.147-.695-1.789-.716-.086-.652-.388-1.265-.879-1.711-.509-.463-1.147-.694-1.79-.715-.087-.652-.388-1.264-.878-1.709-1.098-.997-2.788-.965-3.848.077l-1.597 1.572c-.105.104-.195.22-.274.343l-6.383-2.128 7.008-12.458 4.539 2.723c.156.094.334.143.515.143.055 0 .11-.005.165-.014L28 37.858l3.833.639-2.884 2.884C28.337 41.992 28 42.807 28 43.673s.337 1.681.95 2.293c.585.585 1.353.877 2.122.877.749 0 1.499-.277 2.078-.834l2.631-2.105 9.884 6.73C46.021 50.912 46.105 51.425 45.854 51.802zM47.858 50.502c-.171-.564-.507-1.088-1.016-1.484l-9.428-6.421.697-.557-1.249-1.562-5 4c-.029.023-.057.048-.083.074-.39.39-1.024.392-1.414 0C30.129 44.317 30 44.005 30 43.673s.129-.644.364-.878l4.13-4.13c.801-.8 1.982-1.123 3.08-.854l4.865 1.216c.662.169 1.215-.095 5.544-3.241.236-.172.477-.347.703-.509L55 47.205 47.858 50.502zM60 10c.097 0 .194-.014.29-.043.353-.106.619-.399.691-.761l1-5c.066-.328-.037-.667-.273-.903-.237-.236-.575-.336-.903-.273l-5 1c-.361.072-.654.338-.761.69-.107.354-.011.736.25.997l4 4C59.483 9.897 59.739 10 60 10zM59.725 5.274l-.339 1.697-1.357-1.357L59.725 5.274z"/><rect width="2" height="4" x="31" y="2"/><rect width="4" height="2" x="37.414" y="5.586" transform="rotate(-44.992 39.417 6.586)"/><rect width="2" height="4" x="23.414" y="4.586" transform="rotate(-45.001 24.414 6.586)"/><rect width="2" height="2" x="54" y="9"/><rect width="2" height="2" x="51" y="12"/><rect width="2" height="2" x="48" y="15"/><rect width="2" height="2" x="44" y="15"/><rect width="2" height="2" x="18" y="18"/><rect width="2" height="2" x="14" y="18"/><rect width="2" height="2" x="10" y="20"/><rect width="2" height="2" x="6" y="22"/><rect width="2" height="2" x="2" y="24"/></svg>