<svg xmlns="http://www.w3.org/2000/svg" data-name="Layer 1" viewBox="0 0 512 512"><rect width="359" height="453" x="76.5" y="51.5" fill="#b28b6a" rx="30"/><path fill="#a17855" d="M405.5,51.5h-30a30,30,0,0,1,30,30v393a30,30,0,0,1-30,30h30a30,30,0,0,0,30-30V81.5A30,30,0,0,0,405.5,51.5Z"/><path fill="#fff" d="M116.5,444.5v-333a20,20,0,0,1,20-20h239a20,20,0,0,1,20,20v293l-60,60h-199A20,20,0,0,1,116.5,444.5Z"/><path fill="#e1e1e3" d="M335.5 464.5v-50a10 10 0 0 1 10-10h50M230.413 152.99108H167.5a6 6 0 0 0-6 6V223.5a6 6 0 0 0 6 6h62.913M230.413 287.99108H167.5a6 6 0 0 0-6 6V358.5a6 6 0 0 0 6 6h62.913"/><path fill="#c8c5cc" d="M296.90383,37.954a10.6159,10.6159,0,0,1-10.09414-7.662,32.21989,32.21989,0,0,0-61.61938,0,10.6159,10.6159,0,0,1-10.09414,7.662H199.45261a10.8029,10.8029,0,0,0-10.8029,10.8029v43.5224a10.8029,10.8029,0,0,0,10.8029,10.8029H312.54739a10.8029,10.8029,0,0,0,10.8029-10.8029V48.75694a10.8029,10.8029,0,0,0-10.8029-10.8029Z"/><path fill="#aeadb3" d="M312.54736,37.954H296.90381a10.6159,10.6159,0,0,1-10.09412-7.662,32.23574,32.23574,0,0,0-43.60315-20.14966A32.29692,32.29692,0,0,1,261.22272,30.292,10.61584,10.61584,0,0,0,271.31683,37.954h15.64356A10.80289,10.80289,0,0,1,297.76331,48.757v43.5224a10.80287,10.80287,0,0,1-10.80292,10.80285h25.587a10.80287,10.80287,0,0,0,10.80292-10.80285V48.757A10.80289,10.80289,0,0,0,312.54736,37.954Z"/><path fill="#3c3b41" d="M287.5,183.74561h63a7.5,7.5,0,0,0,0-15h-63a7.5,7.5,0,0,0,0,15ZM256,46.5a7.5,7.5,0,1,0-7.5-7.5A7.5,7.5,0,0,0,256,46.5Zm.12793,243.17969-40.73047,40.731-12.728-12.728A7.49989,7.49989,0,0,0,192.063,328.28906l18.03125,18.03125a7.49961,7.49961,0,0,0,10.60644,0l46.0337-46.03418a7.49989,7.49989,0,0,0-10.60645-10.60644ZM287.5,213.74561h63a7.5,7.5,0,0,0,0-15h-63a7.5,7.5,0,0,0,0,15Zm0,135h63a7.5,7.5,0,0,0,0-15h-63a7.5,7.5,0,0,0,0,15ZM161.5,372h68.91309a7.5,7.5,0,0,0,0-15H169V295.49121h61.41309a7.5,7.5,0,0,0,0-15H161.5a7.50006,7.50006,0,0,0-7.5,7.5V364.5A7.50006,7.50006,0,0,0,161.5,372Zm126-53.25439h63a7.5,7.5,0,0,0,0-15h-63a7.5,7.5,0,0,0,0,15ZM161.5,237h68.91309a7.5,7.5,0,0,0,0-15H169V160.49121h61.41309a7.5,7.5,0,0,0,0-15H161.5a7.50006,7.50006,0,0,0-7.5,7.5V229.5A7.50006,7.50006,0,0,0,161.5,237Zm244-193H330.20111a18.31915,18.31915,0,0,0-17.65375-13.5459H296.90381a3.14262,3.14262,0,0,1-2.9209-2.35205,39.72,39.72,0,0,0-75.96582,0,3.14262,3.14262,0,0,1-2.9209,2.35205H199.45264A18.31915,18.31915,0,0,0,181.79889,44H106.5A37.54227,37.54227,0,0,0,69,81.5v393A37.54227,37.54227,0,0,0,106.5,512h299A37.54227,37.54227,0,0,0,443,474.5V81.5A37.54227,37.54227,0,0,0,405.5,44ZM196.1499,48.75684a3.30628,3.30628,0,0,1,3.30274-3.30274h15.64355a18.05412,18.05412,0,0,0,17.26758-12.97217,24.7195,24.7195,0,0,1,47.27246,0A18.05412,18.05412,0,0,0,296.90381,45.4541h15.64355a3.30628,3.30628,0,0,1,3.30274,3.30274V92.2793a3.30628,3.30628,0,0,1-3.30274,3.30273H199.45264a3.30628,3.30628,0,0,1-3.30274-3.30273ZM182.445,99a18.31933,18.31933,0,0,0,17.00769,11.582H312.54736A18.31933,18.31933,0,0,0,329.55505,99H375.5A12.51408,12.51408,0,0,1,388,111.5V397H345.5A17.52,17.52,0,0,0,328,414.5V457H136.5A12.51408,12.51408,0,0,1,124,444.5v-333A12.51408,12.51408,0,0,1,136.5,99Zm194.9486,313L343,446.39355V414.5a2.50294,2.50294,0,0,1,2.5-2.5ZM428,474.5A22.52523,22.52523,0,0,1,405.5,497h-299A22.52523,22.52523,0,0,1,84,474.5V81.5A22.52523,22.52523,0,0,1,106.5,59h74.6499V84H136.5A27.53112,27.53112,0,0,0,109,111.5v333A27.53112,27.53112,0,0,0,136.5,472h199q.37674,0,.74872-.03778c.18164-.018.35907-.04932.53668-.08008.06348-.01111.12805-.01654.19116-.02923.21009-.042.41553-.09632.6189-.15546.03-.00873.061-.01428.09094-.02338.20709-.063.40894-.13769.608-.21777.0268-.01074.05469-.01868.08136-.02979.18885-.07849.37165-.1679.55237-.261.03681-.01892.0752-.03424.1117-.05378.16674-.08941.32666-.18914.48553-.29052.04779-.0304.09784-.05658.145-.08814.15124-.10138.295-.21258.43829-.32446.04975-.03882.10242-.073.15125-.11316q.28418-.23364.54461-.49347l59.99744-59.99744q.25992-.25973.49347-.54461c.04016-.04883.07434-.1015.11316-.15125.11188-.14325.22308-.287.32446-.43829.03156-.04712.05774-.09717.08814-.145.10138-.15887.20111-.31879.29052-.48553.01954-.0365.03486-.07489.05378-.1117.09314-.18072.18255-.36352.261-.55237.01111-.02667.019-.05456.02979-.08136.08008-.19909.15472-.40094.21777-.608.0091-.02991.01465-.06091.02338-.09094.05914-.20337.11346-.40881.15546-.6189.01269-.06311.01812-.12768.02923-.19116.03076-.17761.06207-.355.08008-.53668q.03726-.37161.03778-.74872v-293A27.53112,27.53112,0,0,0,375.5,84H330.8501V59H405.5A22.52523,22.52523,0,0,1,428,81.5ZM202.66943,182.68262A7.49989,7.49989,0,0,0,192.063,193.28906l18.03125,18.03125a7.49961,7.49961,0,0,0,10.60644,0l46.0337-46.03418a7.49989,7.49989,0,0,0-10.60645-10.60644l-40.73047,40.731Z"/></svg>