<?xml version="1.0" encoding="utf-8"?>
<!-- Generator: Adobe Illustrator 19.0.0, SVG Export Plug-In . SVG Version: 6.00 Build 0)  -->
<svg version="1.1" id="Layer_1" xmlns="http://www.w3.org/2000/svg" xmlns:xlink="http://www.w3.org/1999/xlink" x="0px" y="0px"
	 viewBox="60 220 380 60" xml:space="preserve">
<g id="XMLID_1_">
	<path id="XMLID_2_" d="M75.6,252.8v-14l-4.2,1.9c0,0-1.1,2.4-0.9,5.9c0.1,2.7,1.7,6,2.8,7.3L75.6,252.8 M87.9,224.1
		c1,0.1,2.7,0.6,3.9,1.7c1.3,1.3,1.6,3.2,1.1,4.9c-0.4,1.6-0.9,2.4-2.4,3.4c-1.6,1.1-3.5,1-3.5,1v6.7l3.3,2.6l-3.3,2.6l0,9.2
		c0,0,3.3-1.9,5.3-6.1c0,0,0.1-0.2,0.3-0.7c0.2,1.1,0.1,3.4-1.2,6.3c-1,2.2-2.7,4.3-4.9,5.5c-3.9,2.2-6.8,2.4-9.9,1.7
		c-3.7-0.8-7-2.8-9.2-6.4c-1.6-2.5-2.3-5.5-2.2-8.6c0.1-6.2,4.7-11.5,10.1-13.5c0.6-0.2,0.9-0.4,1.8-0.5c-0.4,0.3-0.9,0.7-1.5,1.1
		c-1.7,1.1-3.2,3.4-3.8,5.1l10.3-4.6v14.4l-8.3,4.2c1,1.3,3.8,3.3,6.3,3.6c4.2,0.5,6.7-1.4,6.7-1.4l0-9.4l-3.3-2.6l3.3-2.6v-6.7
		c-1.8-0.2-3.9-0.8-5.2-1.1c-1.9-0.5-8-2.2-9-2.3c-1-0.1-2.2-0.1-2.9,0.5c-0.7,0.7-1.2,1.8-0.9,2.8c0.2,0.6,0.6,0.9,0.9,1.3
		c0,0-0.4,0-1-0.4c-1.2-0.7-2.1-2.1-2.2-3.8c-0.1-2.2,0.8-4.2,2.6-5.5c1.6-1,3.4-1.7,5.5-1.4c3,0.4,7.1,2.2,10.8,3
		c1.4,0.3,2.5,0.5,3.5-0.1c0.5-0.3,1.3-1.2,0.6-2.3c-0.8-1.3-2.3-1.3-3.5-1.5C86.8,224,87.1,224,87.9,224.1z"/>
	<path id="XMLID_3_" d="M128.1,249.2l-4.7,3.4v-11.4L128.1,249.2 M128,238.2c0,0-3.2,1.9-5.3,3.2c-2.1,1.3-5,2.7-5,2.7v13.3
		l-1.9,1.5l0.3,0.3l1.9-1.5l5.8,5.3l10.1-8l-0.2-0.3L128,259l-4.6-4.3l0-1.6l9.2-6.8L128,238.2z"/>
	<path id="XMLID_24_" d="M101.4,267.9c1.3,0.3,3.7,0.5,6.5-0.9c3.1-1.6,4.7-4.9,4.7-8.3l0.1-4.8l0-10.6l2-1.5l-0.2-0.3l-2,1.5
		l-4.5-5.1l-5.8,5v-17l-7.3,5.6c0.3,0.2,1.4,0.4,1.4,1.8v23.8l-3.1,2.3l0.2,0.3l1.5-1.1l4.1,3.9l6.5-5.2l-0.2-0.3l-1.5,1.2l-1.6-1.6
		l0-13.3l1.9-1.6l2.8,3.5c0,0,0,8.6,0,11.5c0,3,0,6.8-1.6,8.7C103.7,267.3,103.1,267.4,101.4,267.9"/>
	<path id="XMLID_23_" d="M146.7,266.7c-2.6-0.3-3.7-1.9-3.7-3.1c0-0.8,0.7-2.4,2.3-2.6c1.6-0.2,3.2,0.5,4.6,2.1l6-6.7l-0.3-0.3
		l-1.6,1.8c-1.6-1.9-4-3.1-6.3-3.4v-20.3l15.7,28.5c0,0,0.1,0.3,0.8,0.3c0.6,0,0.4-0.4,0.4-0.4l0-28.7c1.3-0.1,3.2-0.8,4.2-1.7
		c3-3.1,1.8-6.5,1.5-6.8c-0.2,1.5-1.3,3-3.2,3c-2.5,0-4-1.8-4-1.8l-6,6.9l0.3,0.3l1.7-2c2.1,1.9,3.6,2.1,5.2,2.2l0,16.6l-11.6-21.1
		c-1-1.7-2.7-3.3-5.2-3.3c-2.9,0-4.9,2.5-5.2,4.7c-0.3,2.5,0,3,0,3s0.4-2.8,2.1-2.7c1.5,0,2.3,1.4,2.9,2.5v6.1
		c-1.6,0.1-5.7,0.3-5.9,4.6c0,1.6,1,3.3,1.8,3.8c1.1,0.7,2,0.7,2,0.7s-1.3-0.7-0.9-2.1c0.4-1.3,3-1.5,3.1-0.9l0,8.6
		c-1.3,0-5.3,0.1-7.1,3.6c-1.1,2.1-1,4.4,0.1,6.1C141.4,265.6,143.4,267.3,146.7,266.7"/>
	<path id="XMLID_4_" d="M179.9,249.2l-4.7,3.4v-11.4L179.9,249.2 M179.8,238.2c0,0-3.2,1.9-5.3,3.2c-2.1,1.3-5,2.7-5,2.7v13.3
		l-1.9,1.5l0.3,0.3l1.9-1.5l5.8,5.3l10.1-8l-0.2-0.3l-5.6,4.4l-4.6-4.3l0-1.6l9.2-6.8L179.8,238.2z"/>
	<path id="XMLID_20_" d="M194,263l-5-4.1l-2.2,1.6l-0.2-0.3l2.2-1.6V247c0.1-4.7-4.3-3.6-4.1-8.6c0.1-2.2,2.2-3.9,3.3-4.4
		c1.2-0.6,2.4-0.6,2.4-0.6s-2,1.3-1.5,3.1c0.8,2.8,5.6,3.1,5.7,6.8v13.1l3.6,2.8l0.9-0.7v-14.2l-1.9-1.9l4.9-4.4l4.5,4l-1.7,1.9
		v12.5l4.2,3.5l0.8-0.5v-15.1l-1.9-1.8l4.9-4.5l4.6,3.8l1.8-1.6l0.2,0.3l-4.2,3.7v12.3l-10.6,6.6l-5.4-4.3L194,263"/>
	<path id="XMLID_5_" d="M411.6,249.2l-4.7,3.4v-11.4L411.6,249.2 M411.5,238.2c0,0-3.2,1.9-5.3,3.2c-2.1,1.3-5,2.7-5,2.7v13.3
		l-1.9,1.5l0.3,0.3l1.9-1.5l5.8,5.3l10.1-8l-0.2-0.3l-5.6,4.4l-4.6-4.3v-1.6l9.2-6.8L411.5,238.2z"/>
	<polyline id="XMLID_17_" points="363.9,243.7 364.2,244 366.1,242.4 368.9,245.6 368.9,256.6 367.5,257.8 372,262.8 376.5,258.4 
		374.6,256.4 374.6,243.1 375.7,242.2 378.9,245.9 378.9,256.9 377.7,258 381.8,262.7 386.3,258.3 384.7,256.5 384.6,243.2 
		385.8,242.2 389.1,245.8 389.1,256.7 388,257.8 392.6,262.8 398.7,257.1 398.5,256.8 397,258.2 394.7,255.7 394.7,243.2 
		396.9,241.5 396.7,241.2 394.5,242.9 390.3,238.2 384.3,242.9 380.1,238.4 374.3,242.9 370.1,238.4 363.9,243.7 	"/>
	<polyline id="XMLID_16_" points="351.4,243.4 351.7,243.7 353.3,242.3 355.8,245.3 355.8,257.8 354,259.4 354.3,259.7 356.1,258.1 
		360.2,262.8 366.1,257.5 365.8,257.3 364.1,258.8 361.6,256 361.6,243.7 363.7,241.9 363.4,241.6 361.5,243.3 357.2,238.3 
		351.4,243.4 	"/>
	<polyline id="XMLID_15_" points="353.1,233 357.5,228.9 361.1,232.9 356.7,236.9 353.1,233 	"/>
	<path id="XMLID_6_" d="M334.9,252.8v-14l-4.2,1.9c0,0-1.1,2.4-0.9,5.9c0.1,2.7,1.7,6,2.8,7.3L334.9,252.8 M347.1,224.1
		c1,0.1,2.7,0.6,3.9,1.7c1.3,1.3,1.6,3.2,1.1,4.9c-0.4,1.6-0.9,2.4-2.4,3.4c-1.6,1.1-3.5,1-3.5,1v6.7l3.3,2.6l-3.3,2.6v9.2
		c0,0,3.3-1.9,5.3-6.1c0,0,0.1-0.2,0.3-0.7c0.2,1.1,0.1,3.4-1.2,6.3c-1,2.2-2.7,4.3-4.9,5.5c-3.9,2.2-6.8,2.4-9.9,1.7
		c-3.7-0.8-7-2.8-9.2-6.4c-1.6-2.5-2.3-5.5-2.2-8.6c0.1-6.2,4.7-11.5,10.1-13.5c0.6-0.2,0.9-0.4,1.8-0.5c-0.4,0.3-0.9,0.7-1.5,1.1
		c-1.7,1.1-3.2,3.4-3.8,5.1l10.3-4.6v14.4l-8.3,4.2c1,1.3,3.8,3.3,6.3,3.6c4.2,0.5,6.7-1.4,6.7-1.4v-9.4l-3.3-2.6l3.3-2.6v-6.7
		c-1.8-0.2-3.9-0.8-5.2-1.1c-1.9-0.5-8-2.2-9-2.3c-1-0.1-2.2-0.1-2.9,0.5c-0.7,0.7-1.2,1.8-0.9,2.8c0.2,0.6,0.6,0.9,0.9,1.3
		c0,0-0.4,0-1-0.4c-1.2-0.7-2.1-2.1-2.2-3.8c-0.1-2.2,0.8-4.2,2.6-5.5c1.6-1,3.4-1.7,5.5-1.4c3,0.4,7.1,2.2,10.8,3
		c1.4,0.3,2.5,0.5,3.5-0.1c0.5-0.3,1.3-1.2,0.6-2.3c-0.8-1.3-2.3-1.3-3.5-1.5C346.1,224,346.3,224,347.1,224.1z"/>
	<path id="XMLID_7_" d="M424.6,240.7v6.6l2.2,1.9c0,0,4.8-3.8,6.5-7.4c0,0-2.1,2.9-5,2C425.9,243.2,424.6,240.7,424.6,240.7
		 M419.3,258.3c0,0,2.1-3.5,5.7-2.7c3.5,0.7,4.6,4.4,4.6,4.4v-8.4l-2.4-2.1C424.6,252.1,419.9,255.9,419.3,258.3z M422.7,264.6
		c-0.7,0.2-3.6-0.5-4.3-3.5c-0.7-2.9,1.4-4.9,4.5-8.1l-3.6-3.3v-6.4c0,0,2.7-1.3,4.8-2.6c2.1-1.3,4.2-2.7,4.2-2.7s1.6,2,3.3,1.8
		c2.8-0.2,2.6-2.4,2.6-2.9c0.5,0.8,1.7,3.4-3.1,9l4,3.2v8.3c0,0-4.6,2.4-9,5.6c0,0-2.4-3-4.5-1.6
		C420.1,262.2,420.7,263.9,422.7,264.6z"/>
	<path id="XMLID_8_" d="M263.3,255.2l5.1,4.6v-14.2l-5.1-4.7V255.2 M273.9,243.7l1.8-1.6l0.3,0.3l-1.7,1.6v13.1c0,0-3.3,1.8-5.6,3.1
		c-2.3,1.3-4.8,2.8-4.8,2.8l-6.1-5.1l-1.6,1.4l-0.3-0.3l1.7-1.5v-14.1h0c0,0,2.9-1.3,5.3-2.7c2.2-1.2,4.6-2.6,4.6-2.6L273.9,243.7z"
		/>
	<path id="XMLID_30_" d="M285.8,242.3l3.9-3.9c0,0,0.5,0.5,1,0.7c0.3,0.1,1.4,0.7,2.5,0.2c0.6-0.3,0.7-0.4,1.3-1
		c0.1,3.1-1.3,5.2-3.2,6.1c-0.8,0.4-2.9,1.1-5.2-1.7v14.1l2.4,2.2l2-1.7l0.2,0.3l-6.4,5.3l-4.8-4.4l-1.7,1.6l-0.3-0.3l2.7-2.4
		l0-12.2l-2-2.7l-1.8,1.5l-0.3-0.3l6.2-5.5L285.8,242.3"/>
	<path id="XMLID_31_" d="M302,248.2l7.1-10.4c0,0,0.9,1.1,2.6,1.5c2.2,0.6,4.2-1.6,4.2-1.6c-0.4,2.8-1.8,5.9-4.7,6.4
		c-2.6,0.4-4.9-1.6-4.9-1.6l-0.5,0.7l9.9,14.9l2-1.7l0.3,0.3l-6.8,5.9L302,248.2"/>
	<path id="XMLID_32_" d="M296.1,234.4c0-2.2-0.9-3.6-2.1-3.5l7.8-5.5v30.9h0l2.1,2.2l1.6-1.3l0.2,0.3l-6.3,5.5l-4.2-4l-1.7,1.5
		l-0.3-0.3l3-2.6V234.4"/>
	<path id="XMLID_33_" d="M246.3,243.1c0,0-0.9,1-2.2,1c-1.3,0-2.2-1-2.2-1v4.2c0,0,0.9-1,2.2-1c1.4,0,2.2,0.9,2.2,0.9V243.1
		 M246.3,234l-3-2.6l-1.4,1.1v9.9c0,0,0.9,1.1,2.2,1.1c1.4,0,2.2-1.1,2.2-1.1V234z M241.8,262.1c0,0,1.8,0.5,3.1-0.6
		c1.5-1.2,1.3-2.9,1.3-2.9v-10.7c0,0-0.8-1.1-2.2-1.1c-1.3,0-2.2,1.1-2.2,1.1V262.1z M231.2,233.9c0-2.1-0.8-3.2-2.2-3.3
		c-2,0-2.4,2.7-2.4,2.7s-0.4-2.1,1.4-4.1c1-1.1,2.9-2.6,5.8-1.9c3,0.7,3.9,3.1,3.9,5.2v28.7c0,0,1.1,0.1,1.9,0.3
		c0.9,0.2,1.8,0.4,1.8,0.4v-34.6h0.4v4.7l6.2-5l4.6,4.1l2.1-1.8l0.2,0.3l-2.2,1.9v26.7c-0.1,1.7-0.4,3.5-2,4.5
		c-3.7,2.2-8.1-0.3-12-0.9c-2.9-0.4-7.5-1-8.7,1.7c-0.4,0.9-0.4,2.2,1,3.1c2.7,1.8,14.5-3,18.6-1.1c3.7,1.7,3.7,4.5,3.1,6.3
		c-1,3.5-5.4,4.1-5.4,4.1s2.2-1.3,1.6-3.4c-0.3-1.1-1-1.4-3.4-1.1c-5.1,0.6-11.2,3-15.3,1.3c-2.1-0.9-3.6-3.5-3.4-6.1
		c0.1-3.7,4.4-5.2,4.4-5.2l0-13.8c-0.1-0.5-2.4-0.4-2.9,0.6c-0.8,1.5,0.9,2.2,0.9,2.2s-1.4,0.2-2.6-1.2c-0.6-0.7-1.8-3-0.2-5.2
		c1.3-1.8,2.8-2.1,4.8-2.3V233.9z"/>
</g>
</svg>
