<svg xmlns="http://www.w3.org/2000/svg" enable-background="new 0 0 50 50" viewBox="0 0 50 50"><path fill="#FFD359" d="M38.2392502,15.5543995c0,0-0.1107025,6.7401009-0.1823997,8.590601
				c-0.0890007,2.2951984,0.2542,4.6072998,1.0140991,6.7750988c0.3603973,1.028101,0.8135986,2.1802006,0.1005974,3.1350994
				c-0.3814964,0.5110016-1.0193939,0.7844009-1.6569977,0.7815018c-1.299099-0.0059013-2.2994995-0.9225998-2.937397-1.972702
				c-0.6967049,0.9423027-1.9442024,1.4433022-3.0992012,1.244503c-1.1548996-0.1987-2.1632004-1.0878029-2.5047989-2.2088013
				c-2.8878002,1.7627983-6.6520004,1.9978981-9.7367001,0.6081009c-0.4412003,0.6949005-1.2091007,1.3303986-2.0314007,1.367897
				c-0.8223,0.0374031-1.6527004-0.347599-2.1553001-0.9994965c-0.632,0.4701996-1.2844,0.9504967-2.0459995,1.1518974
				c-0.7616005,0.2014008-1.6682005,0.0605011-2.1674004-0.5489006c-0.4012003-0.4898987-0.4654999-1.1819992-0.3586998-1.8060989
				c0.1066999-0.6240997,0.3628998-1.2112999,0.5417995-1.8186989c0.2439003-0.8275013,0.3424006-1.6972008,0.2940006-2.5584011
				c-0.0692005-1.2325001-0.1829004-2.4622002-0.1829004-3.6966v-8.0450001c0-7.4858999,6.0684996-13.5542994,13.5542994-13.5542994
				h0.0001011C32.1707497,2.0000999,38.2392502,8.0684996,38.2392502,15.5543995z"/><path fill="#F76D5D" d="M47.1789474,48H2.8012514c0-9.4206009,9.9484005-17.0431004,22.1889-17.0431004
				C37.2548485,30.9568996,47.1789474,38.5793991,47.1789474,48z"/><path fill="#FBC792" d="M29.9784508,30.4738007v3.9488983c0,2.7550011-2.2333984,4.9883003-4.9883995,4.9883003l0,0
				c-2.7549992,0-4.9883003-2.2332993-4.9883003-4.9883003v-3.9488983H29.9784508z"/><path fill="#FBC792" d="M15.2920513,15.5089998c1.2203999-0.4724998,3.5368004-1.5374002,4.9972-3.2629995
					c0.5317001-0.6282005,1.5319996-0.5688,1.9950008,0.1115999c1.3678989,2.0103998,4.3449993,5.0204,10.0098991,5.2963991
					c0.6413994,0.0312004,1.1644974,0.5317001,1.207798,1.1723003c0.081398,1.204401,0.4771004,3.1205997,2.0298996,4.6126003
					v0.8796997c0,5.8220997-4.719698,10.5418015-10.5417976,10.5418015l0,0
					c-5.8306999,0-10.5539999-4.7333012-10.5416994-10.5640011l0.0265999-7.6016998
					C14.4767513,16.1674004,14.8003511,15.6992998,15.2920513,15.5089998z"/><path fill="#414141" d="M30.5056515,20.9531994c0,1.1044998-0.8467007,2.0060997-1.8903008,2.0060997
							c-1.0338001,0-1.8804989-0.9015999-1.8804989-2.0060997s0.8466988-2.0060997,1.8804989-2.0060997
							C29.6589508,18.9470997,30.5056515,19.8486996,30.5056515,20.9531994z"/><circle cx="28.171" cy="20.432" r=".625" fill="#FFF"/><g><path fill="#414141" d="M19.4745522,20.9531994c0,1.1044998,0.8466988,2.0060997,1.8902988,2.0060997
							c1.0338001,0,1.8805008-0.9015999,1.8805008-2.0060997s-0.8467007-2.0060997-1.8805008-2.0060997
							C20.3212509,18.9470997,19.4745522,19.8486996,19.4745522,20.9531994z"/><circle cx="21.809" cy="20.432" r=".625" fill="#FFF"/></g><g><path fill="#A9A6A9" d="M41.9105492,31.8444996V48H8.0695515V31.8444996c0-2.7658005,2.2420998-5.0079002,5.0079002-5.0079002
				h23.8251972C39.6684494,26.8365993,41.9105492,29.0786991,41.9105492,31.8444996z"/><path fill="#D3CFD3" d="M28.6614513,37.4183006c0,2.030899-1.6403999,3.671299-3.6714001,3.671299
				c-2.030899,0-3.671299-1.6403999-3.671299-3.671299s1.6403999-3.671299,3.671299-3.671299
				C27.0210514,33.7470016,28.6614513,35.3874016,28.6614513,37.4183006z"/><path fill="#414141" d="M48.1772499,47.7929001c-0.0619011-4.2493019-2.0396004-8.1380005-5.2666016-11.200901v-4.7477989
				c0-2.5352001-1.5811996-4.7040005-3.8072014-5.5846004h0.0082016c-0.0614014-0.6917992-0.0826988-1.3859997-0.0559998-2.0760002
				c0.0718002-1.8403988,0.1786995-8.3373995,0.1836014-8.6293993c0-8.0254002-6.528801-14.5542002-14.5541992-14.5542002
				S10.1303511,7.5288,10.1303511,15.5542002v8.0453997c0,0.9204006,0.0610008,1.8369007,0.1196003,2.7236004
				c0.0047998,0.0720997,0.0088997,0.1443005,0.0137005,0.2164993c-1.8981009,1.0107994-3.1943002,3.0084-3.1943002,5.3045006
				v4.7326012C3.7836514,39.6903992,1.8012514,43.6663017,1.8012514,48c0,0.5522003,0.4477,1,1,1
				c13.9502993,0,30.3750992,0,44.3773994,0c0.006897-0.0009995,0.0126991,0,0.0200996,0c0.5522003,0,1-0.4477997,1-1
				C48.1987495,47.9286995,48.191349,47.8594017,48.1772499,47.7929001z M12.1303511,23.5995998v-8.0453997
				c0-6.9224005,5.6318007-12.5542002,12.5546999-12.5542002c6.9223003,0,12.5541992,5.6317997,12.5541992,12.5375996
				c-0.0010033,0.0674-0.1113014,6.7504997-0.1817017,8.5688c-0.0224991,0.5832005-0.0082016,1.1623001,0.0246048,1.7390995
				c-0.5920029-0.0173988-0.5772057-0.0051994-1.1695061-0.0091c0.1737022-1.2364998,0.1006012-1.684,0.1191025-2.3974991
				c0-0.1362-0.0557022-0.2660999-0.1534004-0.3603001c-1.4033012-1.3486004-1.7953987-3.075201-1.8773994-4.2861004
				c-0.0605011-0.8901997-0.7837029-1.5942993-1.6821022-1.6381989c-5.5488968-0.2700005-8.4096966-3.2974005-9.6210957-5.0781012
				c-0.6153011-0.9039001-2.085001-0.9863997-2.7905006-0.1533995c-1.3838005,1.6357994-3.5986996,2.6567993-4.7959003,3.1196995
				c-0.6879997,0.2666006-1.1342993,0.9145002-1.1362991,1.6504002l-0.0268002,7.6025009
				c-0.0011005,0.5210991,0.0461998,1.033699,0.1157999,1.5409985H13.077651c-0.2890997,0-0.5711994,0.0275002-0.8494997,0.0672016
				C12.176651,25.1173,12.1303511,24.3600998,12.1303511,23.5995998z M27.3686523,25.0883999
				c-0.1441002-0.2353992-0.4521999-0.3085995-0.6880016-0.1625996c-0.4945984,0.3055992-1.0858994,0.4730988-1.6982994,0.4720993
				c-0.5942001,0-1.1914005-0.1669998-1.6830997-0.4701996c-0.2362995-0.1469994-0.5438995-0.0718002-0.6879005,0.1625996
				c-0.1450996,0.2348995-0.0723,0.5430012,0.1625996,0.6879997c0.0354004,0.021801,0.0750999,0.0373001,0.1113014,0.0580997
				h-7.804101c-0.0786991-0.5053997-0.1339998-1.0164986-0.1328993-1.5380993l0.0268002-7.6019993
				c0.0009995-0.3213005,0.1962996-0.6044998,0.4970999-0.7212009c1.2860994-0.4970999,3.6708994-1.6011,5.198699-3.4062996
				c0.3214016-0.3801003,0.927-0.3320999,1.1997013,0.0698996c1.3163986,1.9345007,4.4179993,5.2230997,10.399395,5.5145998
				c0.3921013,0.019001,0.7071037,0.3227997,0.7330017,0.706501c0.0908012,1.3428001,0.5200005,3.2432003,2.028801,4.787199V24.3188
				c0,0.5177994-0.0550003,1.0212994-0.1324997,1.5175991h-7.8082981c0.0373993-0.0213985,0.0784988-0.0374985,0.115099-0.0600986
				C27.4408512,25.6313,27.5136509,25.3232002,27.3686523,25.0883999z M7.0693517,39.4869003V47H3.8417516
				C4.0665517,44.2475014,5.2308517,41.6912994,7.0693517,39.4869003z M9.0693512,47V31.8442001
				c0-2.2098999,1.7983007-4.0078011,4.0082998-4.0078011h23.8251953c2.2098999,0,4.0078011,1.7979012,4.0078011,4.0078011V47
				H9.0693512z M42.9106483,47v-7.5433998C44.7563477,41.6673012,45.9128494,44.2389984,46.1381531,47H42.9106483z"/><path fill="#414141" d="M22.6039524 16.7572994c-1.5361004-.2665997-3.5371017.4463005-4.5615005 1.6245003-.1811008.2084999-.1592007.5244007.0492992.7056007.0946999.0819988.211401.1224995.3281002.1224995.1396999 0 .2784004-.0580997.3775005-.1718006.7890987-.9081993 2.4540997-1.5014992 3.6348-1.2953987.2772999.044899.5312004-.1348.5785999-.4068012C23.0580521 17.0639 22.8759518 16.8046989 22.6039524 16.7572994zM24.9902515 33.2470016c-2.3003006 0-4.1714001 1.8710976-4.1714001 4.1713982s1.8710995 4.1713982 4.1714001 4.1713982 4.171299-1.8710976 4.171299-4.1713982S27.2905521 33.2470016 24.9902515 33.2470016zM24.9902515 40.589798c-1.7486 0-3.1714001-1.4227982-3.1714001-3.1713982 0-1.7485008 1.4228001-3.1713982 3.1714001-3.1713982 1.7485008 0 3.171299 1.4228973 3.171299 3.1713982C28.1615505 39.1669998 26.7387524 40.589798 24.9902515 40.589798z"/></g></svg>